G04 #@! TF.GenerationSoftware,KiCad,Pcbnew,7.0.11-rc3*
G04 #@! TF.CreationDate,2024-11-10T09:22:12+01:00*
G04 #@! TF.ProjectId,sodimm-ddr5-tester,736f6469-6d6d-42d6-9464-72352d746573,1.2.0*
G04 #@! TF.SameCoordinates,Original*
G04 #@! TF.FileFunction,Copper,L12,Bot*
G04 #@! TF.FilePolarity,Positive*
%FSLAX46Y46*%
G04 Gerber Fmt 4.6, Leading zero omitted, Abs format (unit mm)*
G04 Created by KiCad (PCBNEW 7.0.11-rc3) date 2024-11-10 09:22:12*
%MOMM*%
%LPD*%
G01*
G04 APERTURE LIST*
G04 Aperture macros list*
%AMRoundRect*
0 Rectangle with rounded corners*
0 $1 Rounding radius*
0 $2 $3 $4 $5 $6 $7 $8 $9 X,Y pos of 4 corners*
0 Add a 4 corners polygon primitive as box body*
4,1,4,$2,$3,$4,$5,$6,$7,$8,$9,$2,$3,0*
0 Add four circle primitives for the rounded corners*
1,1,$1+$1,$2,$3*
1,1,$1+$1,$4,$5*
1,1,$1+$1,$6,$7*
1,1,$1+$1,$8,$9*
0 Add four rect primitives between the rounded corners*
20,1,$1+$1,$2,$3,$4,$5,0*
20,1,$1+$1,$4,$5,$6,$7,0*
20,1,$1+$1,$6,$7,$8,$9,0*
20,1,$1+$1,$8,$9,$2,$3,0*%
G04 Aperture macros list end*
G04 #@! TA.AperFunction,ComponentPad*
%ADD10C,1.397000*%
G04 #@! TD*
G04 #@! TA.AperFunction,ComponentPad*
%ADD11C,1.524000*%
G04 #@! TD*
G04 #@! TA.AperFunction,ComponentPad*
%ADD12C,2.100000*%
G04 #@! TD*
G04 #@! TA.AperFunction,ComponentPad*
%ADD13C,2.108200*%
G04 #@! TD*
G04 #@! TA.AperFunction,ComponentPad*
%ADD14O,1.875000X3.750000*%
G04 #@! TD*
G04 #@! TA.AperFunction,ComponentPad*
%ADD15C,6.000000*%
G04 #@! TD*
G04 #@! TA.AperFunction,ComponentPad*
%ADD16O,2.100000X1.050000*%
G04 #@! TD*
G04 #@! TA.AperFunction,ComponentPad*
%ADD17O,2.000000X1.000000*%
G04 #@! TD*
G04 #@! TA.AperFunction,ComponentPad*
%ADD18O,2.000000X4.500000*%
G04 #@! TD*
G04 #@! TA.AperFunction,ComponentPad*
%ADD19O,4.000000X1.990000*%
G04 #@! TD*
G04 #@! TA.AperFunction,ComponentPad*
%ADD20O,2.000000X4.000000*%
G04 #@! TD*
G04 #@! TA.AperFunction,SMDPad,CuDef*
%ADD21RoundRect,0.135000X-0.185000X0.135000X-0.185000X-0.135000X0.185000X-0.135000X0.185000X0.135000X0*%
G04 #@! TD*
G04 #@! TA.AperFunction,SMDPad,CuDef*
%ADD22RoundRect,0.135000X0.185000X-0.135000X0.185000X0.135000X-0.185000X0.135000X-0.185000X-0.135000X0*%
G04 #@! TD*
G04 #@! TA.AperFunction,SMDPad,CuDef*
%ADD23RoundRect,0.135000X-0.135000X-0.185000X0.135000X-0.185000X0.135000X0.185000X-0.135000X0.185000X0*%
G04 #@! TD*
G04 #@! TA.AperFunction,SMDPad,CuDef*
%ADD24RoundRect,0.135000X0.135000X0.185000X-0.135000X0.185000X-0.135000X-0.185000X0.135000X-0.185000X0*%
G04 #@! TD*
G04 #@! TA.AperFunction,SMDPad,CuDef*
%ADD25RoundRect,0.140000X0.170000X-0.140000X0.170000X0.140000X-0.170000X0.140000X-0.170000X-0.140000X0*%
G04 #@! TD*
G04 #@! TA.AperFunction,SMDPad,CuDef*
%ADD26RoundRect,0.140000X-0.140000X-0.170000X0.140000X-0.170000X0.140000X0.170000X-0.140000X0.170000X0*%
G04 #@! TD*
G04 #@! TA.AperFunction,SMDPad,CuDef*
%ADD27RoundRect,0.114300X-0.266700X-0.430700X0.266700X-0.430700X0.266700X0.430700X-0.266700X0.430700X0*%
G04 #@! TD*
G04 #@! TA.AperFunction,SMDPad,CuDef*
%ADD28RoundRect,0.114300X0.266700X0.430700X-0.266700X0.430700X-0.266700X-0.430700X0.266700X-0.430700X0*%
G04 #@! TD*
G04 #@! TA.AperFunction,SMDPad,CuDef*
%ADD29C,1.000000*%
G04 #@! TD*
G04 #@! TA.AperFunction,SMDPad,CuDef*
%ADD30RoundRect,0.140000X0.140000X0.170000X-0.140000X0.170000X-0.140000X-0.170000X0.140000X-0.170000X0*%
G04 #@! TD*
G04 #@! TA.AperFunction,SMDPad,CuDef*
%ADD31RoundRect,0.140000X-0.170000X0.140000X-0.170000X-0.140000X0.170000X-0.140000X0.170000X0.140000X0*%
G04 #@! TD*
G04 #@! TA.AperFunction,SMDPad,CuDef*
%ADD32RoundRect,0.150000X0.150000X-0.150000X0.150000X0.150000X-0.150000X0.150000X-0.150000X-0.150000X0*%
G04 #@! TD*
G04 #@! TA.AperFunction,SMDPad,CuDef*
%ADD33RoundRect,0.150000X0.150000X0.150000X-0.150000X0.150000X-0.150000X-0.150000X0.150000X-0.150000X0*%
G04 #@! TD*
G04 #@! TA.AperFunction,SMDPad,CuDef*
%ADD34RoundRect,0.225000X0.250000X-0.225000X0.250000X0.225000X-0.250000X0.225000X-0.250000X-0.225000X0*%
G04 #@! TD*
G04 #@! TA.AperFunction,SMDPad,CuDef*
%ADD35RoundRect,0.120000X0.180000X0.280000X-0.180000X0.280000X-0.180000X-0.280000X0.180000X-0.280000X0*%
G04 #@! TD*
G04 #@! TA.AperFunction,SMDPad,CuDef*
%ADD36RoundRect,0.225000X0.225000X0.250000X-0.225000X0.250000X-0.225000X-0.250000X0.225000X-0.250000X0*%
G04 #@! TD*
G04 #@! TA.AperFunction,SMDPad,CuDef*
%ADD37RoundRect,0.150000X-0.150000X0.150000X-0.150000X-0.150000X0.150000X-0.150000X0.150000X0.150000X0*%
G04 #@! TD*
G04 #@! TA.AperFunction,SMDPad,CuDef*
%ADD38RoundRect,0.225000X-0.250000X0.225000X-0.250000X-0.225000X0.250000X-0.225000X0.250000X0.225000X0*%
G04 #@! TD*
G04 #@! TA.AperFunction,SMDPad,CuDef*
%ADD39RoundRect,0.225000X-0.225000X-0.250000X0.225000X-0.250000X0.225000X0.250000X-0.225000X0.250000X0*%
G04 #@! TD*
G04 #@! TA.AperFunction,SMDPad,CuDef*
%ADD40RoundRect,0.120000X-0.180000X-0.280000X0.180000X-0.280000X0.180000X0.280000X-0.180000X0.280000X0*%
G04 #@! TD*
G04 #@! TA.AperFunction,SMDPad,CuDef*
%ADD41R,1.200000X1.200000*%
G04 #@! TD*
G04 #@! TA.AperFunction,ViaPad*
%ADD42C,0.450000*%
G04 #@! TD*
G04 #@! TA.AperFunction,Conductor*
%ADD43C,0.256000*%
G04 #@! TD*
G04 #@! TA.AperFunction,Conductor*
%ADD44C,0.400000*%
G04 #@! TD*
G04 #@! TA.AperFunction,Conductor*
%ADD45C,0.200000*%
G04 #@! TD*
G04 #@! TA.AperFunction,Conductor*
%ADD46C,0.150000*%
G04 #@! TD*
G04 #@! TA.AperFunction,Conductor*
%ADD47C,0.182000*%
G04 #@! TD*
G04 #@! TA.AperFunction,Conductor*
%ADD48C,0.201000*%
G04 #@! TD*
G04 #@! TA.AperFunction,Conductor*
%ADD49C,0.198000*%
G04 #@! TD*
G04 #@! TA.AperFunction,Conductor*
%ADD50C,0.100000*%
G04 #@! TD*
G04 #@! TA.AperFunction,Conductor*
%ADD51C,2.000000*%
G04 #@! TD*
G04 #@! TA.AperFunction,Conductor*
%ADD52C,0.177000*%
G04 #@! TD*
G04 APERTURE END LIST*
D10*
X80912700Y-162662487D03*
X78373700Y-163931487D03*
X80912700Y-165201487D03*
X78373700Y-166471487D03*
X80912700Y-167740487D03*
X78373700Y-169011487D03*
X80912700Y-170280487D03*
X78373700Y-171552487D03*
X80912700Y-172821487D03*
X78373700Y-174091487D03*
X75834700Y-162662487D03*
X74573700Y-165201487D03*
X74573700Y-171552487D03*
X75842700Y-174091487D03*
D11*
X67954700Y-161735487D03*
X67954700Y-164276487D03*
X67954700Y-172476487D03*
X67954700Y-175017487D03*
D12*
X75062700Y-160526487D03*
D13*
X75062700Y-176225487D03*
D14*
X69724501Y-131000000D03*
X140125501Y-131000000D03*
X207674501Y-131000000D03*
D15*
X72212200Y-123952000D03*
D16*
X69682400Y-181925800D03*
D17*
X65501400Y-181925800D03*
D16*
X69682400Y-190566800D03*
D17*
X65501400Y-190566800D03*
D15*
X69596000Y-205199800D03*
D18*
X198861400Y-149057600D03*
D19*
X201809400Y-144178600D03*
D20*
X204860400Y-149057600D03*
D21*
X98000000Y-180440000D03*
X98000000Y-181460000D03*
X99050000Y-180440000D03*
X99050000Y-181460000D03*
X100100000Y-180440000D03*
X100100000Y-181460000D03*
X102200000Y-180440000D03*
X102200000Y-181460000D03*
X101150000Y-180440000D03*
X101150000Y-181460000D03*
D22*
X107858200Y-192795800D03*
X107858200Y-191775800D03*
X108858200Y-192795800D03*
X108858200Y-191775800D03*
X104358200Y-192795800D03*
X104358200Y-191775800D03*
X103342200Y-192800301D03*
X103342200Y-191780301D03*
X105383200Y-192785800D03*
X105383200Y-191765800D03*
X109858200Y-192795800D03*
X109858200Y-191775800D03*
X110858200Y-192795800D03*
X110858200Y-191775800D03*
X99500501Y-162086000D03*
X99500501Y-161066000D03*
X98450501Y-162086000D03*
X98450501Y-161066000D03*
X101625501Y-162111000D03*
X101625501Y-161091000D03*
X100525501Y-162086000D03*
X100525501Y-161066000D03*
X95308672Y-155460000D03*
X95308672Y-154440000D03*
D23*
X97590000Y-153800000D03*
X98610000Y-153800000D03*
D24*
X85710501Y-152813149D03*
X84690501Y-152813149D03*
X85710501Y-154313149D03*
X84690501Y-154313149D03*
D25*
X95600000Y-150780000D03*
X95600000Y-149820000D03*
X93308672Y-158484992D03*
X93308672Y-157524992D03*
X95308672Y-158484992D03*
X95308672Y-157524992D03*
X93036829Y-150763157D03*
X93036829Y-149803157D03*
X91150000Y-158484992D03*
X91150000Y-157524992D03*
X94061829Y-150763157D03*
X94061829Y-149803157D03*
X94308672Y-158484992D03*
X94308672Y-157524992D03*
D26*
X97406829Y-150808157D03*
X98366829Y-150808157D03*
D25*
X91500000Y-150763157D03*
X91500000Y-149803157D03*
D26*
X97620000Y-155200000D03*
X98580000Y-155200000D03*
D25*
X90086829Y-150113157D03*
X90086829Y-149153157D03*
X92308672Y-158484992D03*
X92308672Y-157524992D03*
X89086829Y-150113157D03*
X89086829Y-149153157D03*
X90108672Y-158484992D03*
X90108672Y-157524992D03*
D27*
X99091501Y-149558851D03*
X97312501Y-149558851D03*
D28*
X92195829Y-152558157D03*
X93974829Y-152558157D03*
D22*
X69672200Y-171674000D03*
X69672200Y-170654000D03*
D21*
X69692701Y-164240000D03*
X69692701Y-165260000D03*
X99525501Y-163441000D03*
X99525501Y-164461000D03*
D24*
X98610000Y-158100000D03*
X97590000Y-158100000D03*
D21*
X97425501Y-163441000D03*
X97425501Y-164461000D03*
X101625501Y-163441000D03*
X101625501Y-164461000D03*
X100550501Y-163441000D03*
X100550501Y-164461000D03*
D22*
X94258672Y-155460000D03*
X94258672Y-154440000D03*
X85680501Y-151863149D03*
X85680501Y-150843149D03*
D21*
X85680501Y-155253149D03*
X85680501Y-156273149D03*
D22*
X96375501Y-162086000D03*
X96375501Y-161066000D03*
D21*
X96375501Y-163441000D03*
X96375501Y-164461000D03*
D29*
X96800000Y-178050000D03*
D21*
X98475501Y-163441000D03*
X98475501Y-164461000D03*
D22*
X97425501Y-162086000D03*
X97425501Y-161066000D03*
D26*
X117170501Y-172866000D03*
X118130501Y-172866000D03*
D30*
X148355501Y-162301000D03*
X147395501Y-162301000D03*
D24*
X181310000Y-197400000D03*
X180290000Y-197400000D03*
D30*
X145355501Y-173301000D03*
X144395501Y-173301000D03*
X150355001Y-180300501D03*
X149395001Y-180300501D03*
D25*
X75095100Y-142986700D03*
X75095100Y-142026700D03*
D24*
X181310000Y-194050000D03*
X180290000Y-194050000D03*
D22*
X144708700Y-200995301D03*
X144708700Y-199975301D03*
D30*
X142355001Y-171302500D03*
X141395001Y-171302500D03*
D23*
X159190500Y-180676001D03*
X160210500Y-180676001D03*
D31*
X143375501Y-172321000D03*
X143375501Y-173281000D03*
D22*
X77089000Y-131218400D03*
X77089000Y-130198400D03*
D25*
X143375001Y-178280500D03*
X143375001Y-177320500D03*
D26*
X149456200Y-131000000D03*
X150416200Y-131000000D03*
D31*
X146375001Y-183320500D03*
X146375001Y-184280500D03*
D23*
X196190000Y-171725000D03*
X197210000Y-171725000D03*
X137267001Y-159575500D03*
X138287001Y-159575500D03*
D26*
X147395501Y-167301000D03*
X148355501Y-167301000D03*
D25*
X149377001Y-182280500D03*
X149377001Y-181320500D03*
D22*
X158750000Y-201370800D03*
X158750000Y-200350800D03*
D26*
X137395001Y-177302500D03*
X138355001Y-177302500D03*
X136397001Y-173302500D03*
X137357001Y-173302500D03*
D30*
X202308400Y-149072600D03*
X201348400Y-149072600D03*
D25*
X119580501Y-176406000D03*
X119580501Y-175446000D03*
D32*
X141375001Y-170302500D03*
D33*
X142374001Y-170302500D03*
D25*
X160200000Y-201355800D03*
X160200000Y-200395800D03*
D22*
X140302001Y-160610000D03*
X140302001Y-159590000D03*
D31*
X149377001Y-183320500D03*
X149377001Y-184280500D03*
D34*
X138900501Y-186051000D03*
X138900501Y-184501000D03*
D30*
X134355501Y-163301000D03*
X133395501Y-163301000D03*
D25*
X139375001Y-179282500D03*
X139375001Y-178322500D03*
D31*
X146375001Y-185320501D03*
X146375001Y-186280501D03*
D35*
X141475501Y-174801000D03*
X142875501Y-174801000D03*
D26*
X139395001Y-171302500D03*
X140355001Y-171302500D03*
X156020501Y-175276000D03*
X156980501Y-175276000D03*
D22*
X202881001Y-170732000D03*
X202881001Y-169712000D03*
D26*
X172320501Y-196376000D03*
X173280501Y-196376000D03*
D25*
X141375501Y-178281000D03*
X141375501Y-177321000D03*
D23*
X125367001Y-173300500D03*
X126387001Y-173300500D03*
D30*
X148355501Y-176301000D03*
X147395501Y-176301000D03*
D23*
X147367001Y-177302500D03*
X148387001Y-177302500D03*
D29*
X124200000Y-186200000D03*
D30*
X145355001Y-180302500D03*
X144395001Y-180302500D03*
X129355501Y-168301000D03*
X128395501Y-168301000D03*
D29*
X197010501Y-197696000D03*
D30*
X94280000Y-164451500D03*
X93320000Y-164451500D03*
D36*
X140350501Y-174801000D03*
X138800501Y-174801000D03*
D26*
X141395501Y-180301000D03*
X142355501Y-180301000D03*
D33*
X143375001Y-171302500D03*
D37*
X143375001Y-170303500D03*
D30*
X137355501Y-162301000D03*
X136395501Y-162301000D03*
X183255000Y-202475600D03*
X182295000Y-202475600D03*
D31*
X126375501Y-181321000D03*
X126375501Y-182281000D03*
X130375501Y-162321000D03*
X130375501Y-163281000D03*
D24*
X78705200Y-161564000D03*
X77685200Y-161564000D03*
D26*
X142677000Y-131000000D03*
X143637000Y-131000000D03*
D23*
X181148800Y-206679800D03*
X182168800Y-206679800D03*
D25*
X140375501Y-165281000D03*
X140375501Y-164321000D03*
D31*
X150375501Y-169322500D03*
X150375501Y-170282500D03*
D30*
X145357001Y-186300500D03*
X144397001Y-186300500D03*
D31*
X137375501Y-184321000D03*
X137375501Y-185281000D03*
D26*
X183428800Y-206629800D03*
X184388800Y-206629800D03*
D31*
X130375501Y-183320500D03*
X130375501Y-184280500D03*
D29*
X124200000Y-184800000D03*
D25*
X140375501Y-178281000D03*
X140375501Y-177321000D03*
D26*
X144397001Y-184300500D03*
X145357001Y-184300500D03*
D23*
X181148800Y-207679800D03*
X182168800Y-207679800D03*
D25*
X140375001Y-173282500D03*
X140375001Y-172322500D03*
X104950000Y-172468000D03*
X104950000Y-171508000D03*
D30*
X137357002Y-171302500D03*
X136397002Y-171302500D03*
D24*
X122860501Y-175426000D03*
X121840501Y-175426000D03*
D30*
X148355001Y-179300500D03*
X147395001Y-179300500D03*
X128355501Y-165301000D03*
X127395501Y-165301000D03*
D31*
X147375001Y-170320500D03*
X147375001Y-171280500D03*
D24*
X159010501Y-175276000D03*
X157990501Y-175276000D03*
D25*
X137375001Y-180282500D03*
X137375001Y-179322500D03*
D22*
X202875000Y-165360000D03*
X202875000Y-164340000D03*
D38*
X114275501Y-175951000D03*
X114275501Y-177501000D03*
D30*
X141355001Y-182300500D03*
X140395001Y-182300500D03*
D24*
X147385001Y-173302500D03*
X146365001Y-173302500D03*
D21*
X124750000Y-187340000D03*
X124750000Y-188360000D03*
D24*
X154285001Y-175300000D03*
X153265001Y-175300000D03*
D31*
X144375501Y-182321000D03*
X144375501Y-183281000D03*
D25*
X146375001Y-179280500D03*
X146375001Y-178320500D03*
D30*
X139357001Y-173302500D03*
X138397001Y-173302500D03*
D22*
X123700000Y-188360000D03*
X123700000Y-187340000D03*
D23*
X114290501Y-181249999D03*
X115310501Y-181249999D03*
D31*
X129375501Y-180321000D03*
X129375501Y-181281000D03*
D25*
X128375501Y-172281000D03*
X128375501Y-171321000D03*
D31*
X131375501Y-186321000D03*
X131375501Y-187281000D03*
D26*
X136397001Y-172302500D03*
X137357001Y-172302500D03*
D31*
X131375501Y-176321000D03*
X131375501Y-177281000D03*
X202950000Y-184870000D03*
X202950000Y-185830000D03*
D24*
X197210000Y-179400000D03*
X196190000Y-179400000D03*
D26*
X142395001Y-176302500D03*
X143355001Y-176302500D03*
D25*
X105960000Y-172460000D03*
X105960000Y-171500000D03*
D26*
X140395501Y-176301000D03*
X141355501Y-176301000D03*
X146395501Y-164301000D03*
X147355501Y-164301000D03*
D31*
X184308800Y-207649800D03*
X184308800Y-208609800D03*
D25*
X136375501Y-166281000D03*
X136375501Y-165321000D03*
D30*
X149857001Y-186150500D03*
X148897001Y-186150500D03*
D26*
X141370000Y-159600000D03*
X142330000Y-159600000D03*
X141395501Y-172301000D03*
X142355501Y-172301000D03*
X144395501Y-172301000D03*
X145355501Y-172301000D03*
D31*
X131375501Y-165321000D03*
X131375501Y-166281000D03*
D22*
X202925000Y-188160000D03*
X202925000Y-187140000D03*
D21*
X80467200Y-130223800D03*
X80467200Y-131243800D03*
D25*
X140375501Y-186281000D03*
X140375501Y-185321000D03*
D24*
X135385000Y-186300000D03*
X134365000Y-186300000D03*
D25*
X145375501Y-179281000D03*
X145375501Y-178321000D03*
D26*
X150395501Y-166301000D03*
X151355501Y-166301000D03*
D30*
X138355001Y-176302500D03*
X137395001Y-176302500D03*
X107188200Y-194285800D03*
X106228200Y-194285800D03*
D25*
X139375001Y-177282500D03*
X139375001Y-176322500D03*
D24*
X197210000Y-161950000D03*
X196190000Y-161950000D03*
D23*
X181148800Y-208679800D03*
X182168800Y-208679800D03*
D22*
X143655200Y-200998799D03*
X143655200Y-199978799D03*
D31*
X127375501Y-184321000D03*
X127375501Y-185281000D03*
D25*
X103340000Y-176684000D03*
X103340000Y-175724000D03*
D31*
X142375501Y-186321000D03*
X142375501Y-187281000D03*
D30*
X152355001Y-177300500D03*
X151395001Y-177300500D03*
D38*
X138877001Y-168627500D03*
X138877001Y-170177500D03*
D26*
X143395501Y-165301000D03*
X144355501Y-165301000D03*
D23*
X122640000Y-182000000D03*
X123660000Y-182000000D03*
D26*
X141370000Y-160700000D03*
X142330000Y-160700000D03*
D39*
X131325501Y-174776000D03*
X132875501Y-174776000D03*
D25*
X134375501Y-170281000D03*
X134375501Y-169321000D03*
D24*
X181310000Y-198400000D03*
X180290000Y-198400000D03*
D39*
X126300501Y-174801000D03*
X127850501Y-174801000D03*
D24*
X115310502Y-182600000D03*
X114290502Y-182600000D03*
D25*
X105960000Y-176684000D03*
X105960000Y-175724000D03*
D26*
X69647900Y-143524800D03*
X70607900Y-143524800D03*
D31*
X115580501Y-176446000D03*
X115580501Y-177406000D03*
D26*
X149395001Y-176300000D03*
X150355001Y-176300000D03*
D40*
X148075501Y-174801000D03*
X146675501Y-174801000D03*
D25*
X133375501Y-167281000D03*
X133375501Y-166321000D03*
D31*
X151375501Y-162321000D03*
X151375501Y-163281000D03*
D26*
X101620000Y-159550000D03*
X102580000Y-159550000D03*
D23*
X159190501Y-179676000D03*
X160210501Y-179676000D03*
D26*
X141395001Y-179302500D03*
X142355001Y-179302500D03*
D25*
X137375501Y-169281000D03*
X137375501Y-168321000D03*
X146375001Y-182282500D03*
X146375001Y-181322500D03*
D24*
X181310000Y-191000000D03*
X180290000Y-191000000D03*
D34*
X136075001Y-160977500D03*
X136075001Y-159427500D03*
D23*
X122640000Y-183099999D03*
X123660000Y-183099999D03*
D24*
X181310000Y-192000000D03*
X180290000Y-192000000D03*
D31*
X202900000Y-167420000D03*
X202900000Y-168380000D03*
D24*
X181310000Y-199400000D03*
X180290000Y-199400000D03*
D25*
X142375501Y-178281000D03*
X142375501Y-177321000D03*
D31*
X76779097Y-165497487D03*
X76779097Y-166457487D03*
D30*
X142355501Y-173301000D03*
X141395501Y-173301000D03*
D31*
X144375001Y-177322500D03*
X144375001Y-178282500D03*
D36*
X145550501Y-174801000D03*
X144000501Y-174801000D03*
D29*
X202336400Y-123926600D03*
D30*
X127355501Y-162301000D03*
X126395501Y-162301000D03*
X148357001Y-178302500D03*
X147397001Y-178302500D03*
D26*
X141395501Y-169301000D03*
X142355501Y-169301000D03*
D29*
X85572600Y-214655400D03*
D24*
X181310000Y-193000000D03*
X180290000Y-193000000D03*
D23*
X196190000Y-189175000D03*
X197210000Y-189175000D03*
D24*
X138287001Y-160800500D03*
X137267001Y-160800500D03*
X122860501Y-176476000D03*
X121840501Y-176476000D03*
X181310000Y-200400000D03*
X180290000Y-200400000D03*
D41*
X134950501Y-174801000D03*
X137050501Y-174801000D03*
D21*
X140302001Y-158615000D03*
X140302001Y-159635000D03*
D25*
X82729097Y-168757487D03*
X82729097Y-167797487D03*
D30*
X143355501Y-167301000D03*
X142395501Y-167301000D03*
D26*
X137395001Y-178302500D03*
X138355001Y-178302500D03*
X77731200Y-160564000D03*
X78691200Y-160564000D03*
X138390501Y-172296000D03*
X139350501Y-172296000D03*
X132133400Y-131000000D03*
X133093400Y-131000000D03*
X144395001Y-176302500D03*
X145355001Y-176302500D03*
D22*
X202925000Y-182910000D03*
X202925000Y-181890000D03*
D25*
X145375501Y-170281000D03*
X145375501Y-169321000D03*
D23*
X159190501Y-181676000D03*
X160210501Y-181676000D03*
D26*
X134120501Y-189276000D03*
X135080501Y-189276000D03*
D31*
X146375501Y-176321000D03*
X146375501Y-177281000D03*
D22*
X157400000Y-201370800D03*
X157400000Y-200350800D03*
D23*
X182290000Y-203525600D03*
X183310000Y-203525600D03*
D26*
X114320502Y-183800000D03*
X115280502Y-183800000D03*
D25*
X131375501Y-171281000D03*
X131375501Y-170321000D03*
D26*
X142395501Y-162301000D03*
X143355501Y-162301000D03*
D39*
X152500001Y-166702500D03*
X154050001Y-166702500D03*
D42*
X88491829Y-150623157D03*
X98650000Y-156000000D03*
X100400501Y-150213149D03*
X78956400Y-185243949D03*
X134874000Y-127355600D03*
X72616600Y-137277600D03*
X187579000Y-154940000D03*
X165481000Y-127355600D03*
X108521500Y-127355600D03*
X179600000Y-166200000D03*
X131877001Y-175800500D03*
X204850000Y-169050000D03*
X144875001Y-170802500D03*
X145875001Y-163802500D03*
X115750001Y-180650000D03*
X105151000Y-179585000D03*
X193927000Y-183351000D03*
X139875001Y-173802501D03*
X115976400Y-194005200D03*
X123250501Y-196876000D03*
X147624800Y-131953000D03*
X196570500Y-165451500D03*
X152730200Y-127355600D03*
X90091329Y-148586000D03*
X195400000Y-180300000D03*
X132141800Y-130287800D03*
X146875001Y-166802501D03*
X73755899Y-184730800D03*
X100536501Y-169561500D03*
X141875001Y-175800500D03*
X147875001Y-177800500D03*
X195200000Y-170700000D03*
X85741829Y-157933157D03*
X160078501Y-177960999D03*
X137877001Y-183800500D03*
X94047244Y-166455000D03*
X101727000Y-127355600D03*
X167182800Y-127355600D03*
X138877001Y-170776000D03*
X193900000Y-165900000D03*
X171800501Y-195476000D03*
X142875001Y-164802500D03*
X177380900Y-127355600D03*
X90678000Y-127355600D03*
X137877001Y-177800500D03*
X98323400Y-127355600D03*
X179920900Y-127355600D03*
X195237100Y-127355600D03*
X90678000Y-131953000D03*
X91686501Y-170350000D03*
X194975000Y-196025000D03*
X129100000Y-195500000D03*
X127877001Y-172802500D03*
X189550000Y-166875000D03*
X106832400Y-127355600D03*
X196200000Y-170900000D03*
X72016600Y-136677600D03*
X197997500Y-185602500D03*
X197158001Y-185173000D03*
X81332002Y-131953000D03*
X135877001Y-166802500D03*
X183775000Y-151875000D03*
X172400501Y-198376000D03*
X147875001Y-181800500D03*
X189725000Y-184300000D03*
X107149200Y-202337800D03*
X149464600Y-130314000D03*
X203700000Y-186575000D03*
X145875001Y-183800500D03*
X145875001Y-185800500D03*
X87989200Y-197851000D03*
X177740501Y-198256000D03*
X109399200Y-191037800D03*
X166115501Y-182305000D03*
X119100000Y-177427500D03*
X173972001Y-131953000D03*
X141875001Y-173802500D03*
X113258600Y-192709800D03*
X181082000Y-153409001D03*
X182037107Y-182676000D03*
X102991975Y-149611025D03*
X184200000Y-186900000D03*
X105981344Y-177902328D03*
X139875001Y-171802500D03*
X77502097Y-165506950D03*
X170300501Y-192176000D03*
X163400000Y-186700000D03*
X149875001Y-165802500D03*
X171800501Y-194476000D03*
X110223300Y-131953000D03*
X148875001Y-176800500D03*
X134874000Y-131953000D03*
X191828201Y-131953000D03*
X180600000Y-183100000D03*
X148875001Y-171802500D03*
X194627000Y-180801000D03*
X170300501Y-196476000D03*
X118719600Y-131953000D03*
X75955899Y-181330800D03*
X154319800Y-198326200D03*
X133900501Y-174776000D03*
X197970500Y-168151500D03*
X75955899Y-182530800D03*
X95000000Y-164451500D03*
X187579000Y-153365200D03*
X198300000Y-188451000D03*
X182880000Y-179070000D03*
X128875501Y-174801000D03*
X132877001Y-178800500D03*
X116433600Y-154609800D03*
X177105000Y-206365600D03*
X199000000Y-162700000D03*
X201050000Y-193050000D03*
X101616501Y-167061000D03*
X102240501Y-157646000D03*
X140875001Y-173802500D03*
X83027301Y-131953000D03*
X73225899Y-189230800D03*
X113549200Y-202337800D03*
X128200501Y-196901000D03*
X141875002Y-171802500D03*
X172288200Y-127355600D03*
X122974100Y-127355600D03*
X125730000Y-199390000D03*
X196697500Y-184302500D03*
X192582800Y-146685000D03*
X92800501Y-159626000D03*
X136877001Y-180800500D03*
X193900000Y-167800000D03*
X96150000Y-157000000D03*
X193927000Y-185251000D03*
X144705200Y-209614800D03*
X121950501Y-196876000D03*
X129900501Y-174801000D03*
X122600501Y-196876000D03*
X205800000Y-187950000D03*
X71757900Y-186230800D03*
X121450000Y-173100000D03*
X71779400Y-182430800D03*
X155270200Y-131953000D03*
X87274400Y-131953000D03*
X95456500Y-197929600D03*
X91689501Y-177069000D03*
X181082000Y-155740998D03*
X99174300Y-131953000D03*
X119570500Y-127355600D03*
X160066400Y-206872200D03*
X97472500Y-131953000D03*
X136877001Y-176800500D03*
X189151064Y-151889264D03*
X171200501Y-195776000D03*
X166319200Y-131953000D03*
X101375251Y-160295500D03*
X97356500Y-193129600D03*
X159435500Y-182693000D03*
X157843001Y-131953000D03*
X106832400Y-131953000D03*
X191950000Y-199300000D03*
X95770700Y-131953000D03*
X171800501Y-194976000D03*
X136877001Y-169802500D03*
X176058800Y-203914600D03*
X148875001Y-182800499D03*
X199000000Y-200600000D03*
X102900501Y-157636000D03*
X101500000Y-200200000D03*
X173990000Y-127355600D03*
X193522600Y-131953000D03*
X102850000Y-180950000D03*
X196927402Y-131953000D03*
X107826000Y-180200000D03*
X88976200Y-127355600D03*
X175500501Y-192776000D03*
X171000501Y-196376000D03*
X145875001Y-182800500D03*
X198450000Y-195700000D03*
X129877001Y-168802500D03*
X87994500Y-187023000D03*
X204850000Y-169950000D03*
X89527244Y-167295000D03*
X194150000Y-194300000D03*
X164470501Y-183388001D03*
X194150000Y-193560000D03*
X126877001Y-180800500D03*
X100700000Y-191400000D03*
X181622700Y-127355600D03*
X117017800Y-131953000D03*
X198020501Y-184310500D03*
X111709200Y-198297800D03*
X103949200Y-202337800D03*
X88988900Y-131953000D03*
X191439800Y-146431000D03*
X148875001Y-180800500D03*
X92701564Y-200875321D03*
X164624801Y-131953000D03*
X168021000Y-131953000D03*
X115570000Y-179070000D03*
X147875001Y-172802500D03*
X204300000Y-192100000D03*
X94800000Y-156950000D03*
X78713900Y-140994299D03*
X150177500Y-127355600D03*
X145072100Y-127355600D03*
X149875001Y-182800500D03*
X93800000Y-156950000D03*
X199000000Y-171000000D03*
X159408500Y-206944900D03*
X134877001Y-173802500D03*
X159537400Y-131953000D03*
X197131001Y-165999000D03*
X86591829Y-154583157D03*
X104140000Y-198120000D03*
X103910501Y-154936000D03*
X179505000Y-198813000D03*
X123250501Y-197976000D03*
X175680302Y-131953000D03*
X72616600Y-136661600D03*
X197131001Y-167722000D03*
X169355502Y-196350000D03*
X121272300Y-127355600D03*
X147875001Y-169802500D03*
X157822900Y-127393700D03*
X85750501Y-157073149D03*
X107873800Y-163779200D03*
X115300001Y-184500000D03*
X191948000Y-166774000D03*
X87989200Y-205951000D03*
X128877001Y-165802500D03*
X174895500Y-176398500D03*
X147624800Y-127355600D03*
X195219101Y-131953000D03*
X204850000Y-186600000D03*
X72016600Y-137277600D03*
X140875001Y-170802500D03*
X103428800Y-127355600D03*
X87391829Y-150583157D03*
X145072100Y-131953000D03*
X203750000Y-170900000D03*
X83870800Y-127355600D03*
X111925100Y-127355600D03*
X198881001Y-183450000D03*
X191975000Y-184225000D03*
X184200000Y-169000000D03*
X107926000Y-183218000D03*
X139875001Y-176800500D03*
X142875001Y-172802500D03*
X183500000Y-196150000D03*
X203750000Y-187900000D03*
X198850000Y-188450000D03*
X190300000Y-184900000D03*
X116179600Y-127355600D03*
X137877002Y-175800500D03*
X135877001Y-187800500D03*
X140875001Y-172802500D03*
X144875001Y-181800501D03*
X166000000Y-168700000D03*
X159524700Y-127355600D03*
X186728100Y-127355600D03*
X187579000Y-156184600D03*
X203700000Y-169075000D03*
X193300000Y-166800000D03*
X200800000Y-162700000D03*
X144875001Y-172802500D03*
X91855500Y-197929600D03*
X154075001Y-167502500D03*
X127228600Y-127355600D03*
X138295400Y-132071998D03*
X78672200Y-159914000D03*
X90928157Y-152143165D03*
X205400000Y-192100000D03*
X197027000Y-180151000D03*
X151875001Y-177800500D03*
X135877002Y-177800500D03*
X181600000Y-202450600D03*
X136877001Y-171802500D03*
X115316000Y-131953000D03*
X184958299Y-207629800D03*
X189125000Y-184925000D03*
X72616600Y-136061600D03*
X166100000Y-183900000D03*
X203750000Y-169950000D03*
X202251001Y-188150000D03*
X105130600Y-131953000D03*
X132321300Y-131953000D03*
X89801564Y-200875321D03*
X170600501Y-195876000D03*
X190150000Y-166275000D03*
X122925501Y-197426000D03*
X154000000Y-172904000D03*
X183057000Y-147984002D03*
X74140899Y-191530800D03*
X79623701Y-131953000D03*
X118150501Y-173426000D03*
X152374503Y-185301000D03*
X170967400Y-203149200D03*
X203750000Y-187250000D03*
X193527000Y-179401000D03*
X189125000Y-183675000D03*
X142875001Y-175800500D03*
X200317100Y-131953000D03*
X183000000Y-200600000D03*
X163502000Y-174200000D03*
X172497800Y-205549600D03*
X204850000Y-187200000D03*
X156002501Y-175976000D03*
X148875001Y-162802500D03*
X150875002Y-179800500D03*
X140875001Y-175800500D03*
X122000000Y-177426500D03*
X205800000Y-170000000D03*
X145875001Y-184800500D03*
X196597500Y-185702500D03*
X152374503Y-183301000D03*
X160466400Y-209420200D03*
X128000000Y-194000000D03*
X122600501Y-197976000D03*
X78655899Y-182630800D03*
X87994500Y-189723000D03*
X129877000Y-179800500D03*
X187578400Y-157497600D03*
X147706700Y-208835298D03*
X105130600Y-127355600D03*
X87989200Y-203251000D03*
X127550501Y-198001000D03*
X145875001Y-175800500D03*
X120421400Y-131953000D03*
X184900000Y-184400000D03*
X100685200Y-202617299D03*
X202127000Y-184651000D03*
X96621600Y-127355600D03*
X95550501Y-164451000D03*
X160899499Y-201324800D03*
X194150000Y-195350000D03*
X183500000Y-192400000D03*
X126900501Y-198001000D03*
X196597500Y-182902500D03*
X106629200Y-198297800D03*
X171200501Y-198376000D03*
X188950000Y-166250000D03*
X131928228Y-194128228D03*
X146875001Y-187800500D03*
X148875001Y-173802501D03*
X197158001Y-183450000D03*
X170000501Y-198376000D03*
X196570500Y-168251500D03*
X97300000Y-181600000D03*
X133877001Y-170802500D03*
X145875001Y-186800500D03*
X150875001Y-187800501D03*
X182487502Y-131953000D03*
X131877000Y-164802500D03*
X143875001Y-171802500D03*
X127875501Y-197451000D03*
X161800000Y-172300000D03*
X124850000Y-178300000D03*
X114477800Y-127355600D03*
X174895500Y-174398500D03*
X184182801Y-131953000D03*
X205800000Y-169050000D03*
X201168000Y-127342900D03*
X130800000Y-195500000D03*
X197970500Y-165651500D03*
X127877001Y-162802500D03*
X102191829Y-150774400D03*
X153900000Y-169800000D03*
X92300000Y-149550000D03*
X150875001Y-188900501D03*
X202150000Y-170675000D03*
X108521500Y-131953000D03*
X90683501Y-177089000D03*
X180300000Y-186700000D03*
X199497500Y-185702500D03*
X139875001Y-186800501D03*
X73280899Y-192205800D03*
X124675900Y-131953000D03*
X191465200Y-147751800D03*
X89882344Y-173382328D03*
X100765200Y-194314762D03*
X204825000Y-170900000D03*
X177945999Y-192230502D03*
X199731899Y-157242600D03*
X108661200Y-162966400D03*
X91750000Y-156950000D03*
X174895500Y-172399500D03*
X151875001Y-179800500D03*
X175679100Y-127355600D03*
X141875001Y-178800500D03*
X100960501Y-157356000D03*
X169400501Y-198276000D03*
X169400000Y-194850000D03*
X170900501Y-199876000D03*
X150875001Y-168802500D03*
X189814200Y-151180800D03*
X194627000Y-188851000D03*
X183605107Y-181174500D03*
X142875001Y-185800500D03*
X75955899Y-183730800D03*
X170100000Y-194900000D03*
X80621000Y-209512600D03*
X135841200Y-158572200D03*
X143875001Y-167802500D03*
X92800000Y-156950000D03*
X204825000Y-187900000D03*
X150875002Y-175800500D03*
X137000501Y-194176000D03*
X166624000Y-205257400D03*
X198881001Y-185173000D03*
X196750000Y-193000000D03*
X129540000Y-197485000D03*
X172262800Y-131953000D03*
X189118901Y-156828600D03*
X82169000Y-127355600D03*
X183324500Y-127355600D03*
X94059829Y-165647157D03*
X91000000Y-170300000D03*
X143875001Y-178800500D03*
X199470500Y-165451500D03*
X165165502Y-178656000D03*
X125877001Y-177800500D03*
X165165501Y-182655000D03*
X165017901Y-207895699D03*
X132321300Y-127355600D03*
X138870501Y-183806000D03*
X193535300Y-127355600D03*
X125877001Y-166802500D03*
X192600000Y-200600000D03*
X145875001Y-176800500D03*
X103325501Y-172385000D03*
X174895500Y-178398500D03*
X177800000Y-173990000D03*
X188366400Y-152603200D03*
X87989200Y-195151000D03*
X198650000Y-193850000D03*
X147875001Y-179800500D03*
X199470500Y-168251500D03*
X89090501Y-148576000D03*
X135730501Y-189266000D03*
X171800501Y-193976000D03*
X193450000Y-189225000D03*
X151875001Y-175800500D03*
X170400501Y-199776000D03*
X179505000Y-195063000D03*
X153263499Y-206947898D03*
X94900000Y-149550000D03*
X107900000Y-200200000D03*
X93456500Y-197929600D03*
X97271658Y-166455157D03*
X170568401Y-131953000D03*
X100876100Y-131953000D03*
X198400000Y-171000000D03*
X152730200Y-131953000D03*
X139875001Y-178800500D03*
X132877001Y-167802500D03*
X124460000Y-200025000D03*
X85572600Y-127355600D03*
X145875001Y-178800500D03*
X128877001Y-186800500D03*
X182034000Y-149009001D03*
X140875001Y-168802500D03*
X84721700Y-131953000D03*
X112979200Y-150520400D03*
X170586400Y-127355600D03*
X174888000Y-170447000D03*
X138875501Y-173801000D03*
X98301000Y-179200000D03*
X97125000Y-180182000D03*
X180200000Y-169100000D03*
X121950501Y-197976000D03*
X93820501Y-175635000D03*
X105922344Y-173132328D03*
X105119366Y-190689034D03*
X130877001Y-182800500D03*
X86536829Y-151433157D03*
X126877001Y-169802499D03*
X169350000Y-193350000D03*
X193927000Y-180201000D03*
X122974100Y-131953000D03*
X93600000Y-154800000D03*
X79422200Y-160564000D03*
X73755899Y-186230800D03*
X193700000Y-161950000D03*
X137877002Y-162802500D03*
X87994500Y-192423000D03*
X148875001Y-178800500D03*
X94068900Y-131953000D03*
X136909706Y-173751688D03*
X190125000Y-167475000D03*
X87989200Y-200551000D03*
X161221201Y-131953000D03*
X127228600Y-131953000D03*
X198854001Y-167722000D03*
X131700000Y-195500000D03*
X127800000Y-199200000D03*
X183607608Y-163021999D03*
X127000000Y-200025000D03*
X190131700Y-127355600D03*
X147875001Y-175800500D03*
X182153608Y-164356694D03*
X111100000Y-200200000D03*
X112090200Y-167868600D03*
X148875001Y-186800501D03*
X188424601Y-131953000D03*
X180779201Y-131953000D03*
X117957600Y-156083000D03*
X151875001Y-161802500D03*
X147875001Y-185800500D03*
X97225000Y-183200000D03*
X186200000Y-200600000D03*
X179070000Y-131953000D03*
X120150501Y-175426000D03*
X105649200Y-193970501D03*
X99827658Y-166413157D03*
X160168501Y-183388001D03*
X131877001Y-185800500D03*
X193900000Y-162750000D03*
X133877001Y-181800500D03*
X192049400Y-147193000D03*
X205800000Y-170900000D03*
X152374503Y-187301000D03*
X194600000Y-171400000D03*
X190132902Y-131953000D03*
X97056500Y-197929600D03*
X166800000Y-184200000D03*
X169200501Y-199776000D03*
X202075000Y-182700000D03*
X170600501Y-198276000D03*
X129900000Y-195500000D03*
X127550501Y-196901000D03*
X140875001Y-177800500D03*
X174888000Y-168422000D03*
X193400000Y-184200000D03*
X151875001Y-171802500D03*
X102577900Y-131953000D03*
X171800501Y-198376000D03*
X103117344Y-171630157D03*
X127175501Y-197451000D03*
X92456500Y-191029600D03*
X197777100Y-127355600D03*
X193927000Y-188151000D03*
X92367100Y-127355600D03*
X111912400Y-131953000D03*
X196227000Y-188351000D03*
X130877001Y-161802500D03*
X137426700Y-127355600D03*
X141875001Y-172802500D03*
X179300000Y-200500000D03*
X95268501Y-166465000D03*
X198622701Y-131953000D03*
X95676663Y-200901600D03*
X197993501Y-166859500D03*
X194627000Y-179501000D03*
X117551200Y-150622000D03*
X137877001Y-170802500D03*
X147703701Y-202490300D03*
X202100000Y-167200000D03*
X138705700Y-202490300D03*
X145875001Y-180800500D03*
X162077400Y-127355600D03*
X135875501Y-174801000D03*
X142660000Y-130302500D03*
X188429900Y-127355600D03*
X189400000Y-200600000D03*
X137877001Y-172802500D03*
X194050000Y-197650000D03*
X193600000Y-171800000D03*
X125877001Y-187800500D03*
X143875002Y-173802500D03*
X75447900Y-141464800D03*
X128200501Y-198001000D03*
X134877001Y-163802500D03*
X168884600Y-127355600D03*
X198854001Y-165999000D03*
X126900501Y-196901000D03*
X94068900Y-127355600D03*
X205800000Y-187250000D03*
X87274400Y-127355600D03*
X185877200Y-131953000D03*
X71829400Y-189451800D03*
X79616300Y-127355600D03*
X140875001Y-179800500D03*
X174895500Y-180398500D03*
X110000000Y-189600000D03*
X91048501Y-169150000D03*
X128877001Y-176800500D03*
X202100000Y-165200000D03*
X163779200Y-127355600D03*
X104090000Y-176550000D03*
X199270500Y-166851500D03*
X155001500Y-178126000D03*
X150177500Y-131953000D03*
X193900000Y-170700000D03*
X119278400Y-154787600D03*
X138708700Y-208835300D03*
X122225501Y-197426000D03*
X163900000Y-184200000D03*
X143875001Y-176800500D03*
X159383500Y-178694000D03*
X155270200Y-127355600D03*
X177375601Y-131953000D03*
X163666400Y-209420200D03*
X185000000Y-166200000D03*
X151875001Y-172802500D03*
X185026300Y-127355600D03*
X199497500Y-182902500D03*
X100025200Y-127355600D03*
X109220000Y-198120000D03*
X149875001Y-171802500D03*
X110349200Y-202337800D03*
X127877001Y-183800500D03*
X193325000Y-195975000D03*
X110223300Y-127355600D03*
X82767560Y-169509487D03*
X105587800Y-153875000D03*
X129768600Y-127355600D03*
X91750000Y-181150000D03*
X152200000Y-181300000D03*
X194600000Y-163350000D03*
X148875001Y-184800500D03*
X92379800Y-131953000D03*
X124675900Y-127355600D03*
X197000000Y-162700000D03*
X142875001Y-170802500D03*
X199297500Y-184302500D03*
X141875001Y-182800500D03*
X139706200Y-209614800D03*
X195227000Y-188151000D03*
X149875001Y-173802500D03*
X165400000Y-183900000D03*
X145875001Y-187800500D03*
X199027000Y-180151000D03*
X104700000Y-200200000D03*
X194600000Y-162050000D03*
X195800000Y-200600000D03*
X129768600Y-131953000D03*
X199478900Y-127355600D03*
X117881400Y-127355600D03*
X163000000Y-184200000D03*
X150875001Y-172802500D03*
X123649499Y-179980999D03*
X149875001Y-178800500D03*
X162929502Y-131953000D03*
X205191899Y-157472600D03*
X191833500Y-127355600D03*
X122961400Y-158572200D03*
X117265200Y-201887299D03*
X73204899Y-183081800D03*
X139875001Y-165802500D03*
X109855000Y-168554400D03*
X141875001Y-161802500D03*
X196670500Y-166851500D03*
X116150501Y-177426000D03*
X147875001Y-183800500D03*
X134877001Y-184800500D03*
X95300000Y-165600000D03*
X138875501Y-175801000D03*
X164432501Y-177960999D03*
X197997500Y-183102500D03*
X98559501Y-174386000D03*
X181225000Y-151875000D03*
X108077000Y-168529000D03*
X98704400Y-151485600D03*
X116100000Y-172200000D03*
X142875001Y-177800500D03*
X205550000Y-194200000D03*
X141875001Y-176800500D03*
X205800000Y-186575000D03*
X169800501Y-199876000D03*
X72016600Y-136077600D03*
X71217900Y-143524800D03*
X188950000Y-167500000D03*
X143705200Y-209614800D03*
X190325000Y-183700000D03*
X130877001Y-171802500D03*
X171700501Y-196276000D03*
X113614200Y-131953000D03*
X79555899Y-181730800D03*
X96600000Y-168037000D03*
X99300000Y-168750000D03*
X104962344Y-173122328D03*
X104775501Y-170530000D03*
X89300501Y-178096000D03*
X97150000Y-181002500D03*
X89300000Y-172800000D03*
X79405899Y-181180800D03*
X103325501Y-174980000D03*
X91600000Y-179400000D03*
X90252501Y-170111000D03*
X92256500Y-189529600D03*
X97600000Y-179200000D03*
X97153299Y-192432801D03*
X97656500Y-191129600D03*
X107851000Y-181168000D03*
X101675501Y-168033000D03*
X95959829Y-168036328D03*
X104982344Y-177905179D03*
X142875001Y-187800500D03*
X148875001Y-168802500D03*
X144875001Y-168802500D03*
X135877001Y-162802500D03*
X141875002Y-162802500D03*
X149875001Y-163802500D03*
X133877001Y-167802499D03*
X150875002Y-180800500D03*
X139876001Y-187800502D03*
X181066000Y-148984001D03*
X180425000Y-149650000D03*
X205700000Y-179400000D03*
X203900000Y-178050000D03*
X174500501Y-196376000D03*
X192770159Y-157229699D03*
X203800000Y-162300000D03*
X194270159Y-157229699D03*
X203850000Y-159700000D03*
X173900501Y-196076000D03*
X203900000Y-178900000D03*
X205650000Y-161000000D03*
X175300000Y-197450000D03*
X205650000Y-162750000D03*
X175400501Y-199476000D03*
X193970159Y-156729699D03*
X175000501Y-196976000D03*
X173800000Y-193976000D03*
X196478400Y-156722600D03*
X175100501Y-198976000D03*
X192470159Y-156729699D03*
X175100501Y-199976000D03*
X205700000Y-178500000D03*
X200503400Y-157922600D03*
X175800501Y-198976000D03*
X194670159Y-156729699D03*
X195178400Y-157222600D03*
X199641899Y-154502600D03*
X205700000Y-181050000D03*
X193170159Y-156729699D03*
X205700000Y-159200000D03*
X205700000Y-180250000D03*
X203850000Y-160550000D03*
X205650000Y-161900000D03*
X173850000Y-194476000D03*
X196428400Y-157922600D03*
X203850000Y-181450000D03*
X177800000Y-199000000D03*
X203800000Y-163950000D03*
X205650000Y-164350000D03*
X175800501Y-199976000D03*
X205650000Y-163550000D03*
X195928400Y-157222600D03*
X203800000Y-163100000D03*
X203800000Y-164750000D03*
X193570159Y-157229699D03*
X195528400Y-156722600D03*
X178300000Y-199500000D03*
X203850000Y-179800000D03*
X175285400Y-198475600D03*
X203900000Y-177200000D03*
X177800000Y-200000000D03*
X175100501Y-197976000D03*
X176200501Y-199476000D03*
X177200000Y-199476000D03*
X205750000Y-177600000D03*
X173800000Y-195000000D03*
X197078400Y-157372600D03*
X176700000Y-198976000D03*
X205700000Y-160100000D03*
X176700000Y-199976000D03*
X173850000Y-195550000D03*
X205700000Y-181850000D03*
X203850000Y-180600000D03*
X174400501Y-195776000D03*
X203850000Y-161400000D03*
X203850000Y-182250000D03*
X202028001Y-185940500D03*
X202068501Y-168572000D03*
X204241400Y-200025000D03*
X205421899Y-155147600D03*
X160849499Y-200399800D03*
X204190600Y-199237600D03*
X186156600Y-197764400D03*
X182727600Y-206679800D03*
X205333600Y-198272400D03*
X184958299Y-208629800D03*
X206273400Y-199059800D03*
X184988200Y-193395600D03*
X205333600Y-199263000D03*
X107901000Y-182250000D03*
X205951899Y-156012600D03*
X204825600Y-155143200D03*
X185166000Y-197739000D03*
X206628400Y-155997600D03*
X206222600Y-198196200D03*
X101070994Y-184301326D03*
X205155800Y-200253600D03*
X184025000Y-202450600D03*
X206203400Y-155122600D03*
X143666957Y-199165957D03*
X144703114Y-198532800D03*
X125877001Y-186800500D03*
X163400000Y-175332713D03*
X144875001Y-175800500D03*
X95575000Y-185775000D03*
X163900000Y-174700000D03*
X144875000Y-177800500D03*
X94525000Y-185775000D03*
X92300000Y-185775000D03*
X145875001Y-172802500D03*
X164000000Y-173700000D03*
X93422843Y-185773328D03*
X163400000Y-173300000D03*
X146875001Y-172802500D03*
X76473900Y-140944299D03*
X77927200Y-130111500D03*
X77927200Y-134708900D03*
X76373900Y-142844299D03*
X76341399Y-142206800D03*
X78778100Y-134721600D03*
X137877001Y-169802500D03*
X82169000Y-134899400D03*
X134877001Y-169802500D03*
X83870800Y-134899400D03*
X135877002Y-169802500D03*
X83032600Y-130098800D03*
X133877001Y-169802500D03*
X84734400Y-130098800D03*
X185184299Y-206729800D03*
X195650000Y-194250000D03*
X195650000Y-195450000D03*
X86436200Y-130098800D03*
X132877001Y-169802500D03*
X85675501Y-134899400D03*
X132877001Y-168802500D03*
X86325501Y-134899400D03*
X133877001Y-168802500D03*
X136877001Y-168802500D03*
X88169945Y-134868667D03*
X134877001Y-167802500D03*
X89814400Y-134874000D03*
X88138000Y-130098800D03*
X135877001Y-168802500D03*
X89814400Y-130098800D03*
X137877001Y-168802500D03*
X91516200Y-134874000D03*
X134877001Y-165802500D03*
X192175000Y-193725000D03*
X192600000Y-195350000D03*
X131877001Y-166802500D03*
X93218000Y-134874000D03*
X175768000Y-195199000D03*
X166700501Y-191576000D03*
X91541600Y-130098800D03*
X132877001Y-166802500D03*
X93218000Y-130124200D03*
X132877001Y-165802500D03*
X131877001Y-162802500D03*
X95025001Y-130074706D03*
X95675001Y-130074706D03*
X131877001Y-163802500D03*
X94919800Y-134874000D03*
X132877001Y-164802500D03*
X96647000Y-134874000D03*
X132877001Y-163802500D03*
X98323400Y-134874000D03*
X133877001Y-163802500D03*
X182592606Y-187926107D03*
X188973000Y-189099000D03*
X133877001Y-164802500D03*
X97485200Y-130073400D03*
X134877001Y-164802500D03*
X99187000Y-130073400D03*
X100025200Y-134899400D03*
X133877001Y-166802501D03*
X182179107Y-169762107D03*
X199800001Y-173974998D03*
X135877001Y-165802500D03*
X101727000Y-134899400D03*
X100863400Y-130098800D03*
X134877001Y-166802500D03*
X102590600Y-130098800D03*
X135877002Y-164802500D03*
X104292400Y-130098800D03*
X136877001Y-166802500D03*
X135877001Y-167802500D03*
X103525001Y-134899400D03*
X104175001Y-134899400D03*
X136877001Y-167802500D03*
X137877001Y-163802500D03*
X105994200Y-134899400D03*
X107670600Y-134899400D03*
X137877001Y-165802500D03*
X137877001Y-164802500D03*
X105968800Y-130098800D03*
X107670600Y-130098800D03*
X137876001Y-166801500D03*
X109372400Y-134899400D03*
X135877001Y-163802500D03*
X132877000Y-161802501D03*
X111074200Y-134899400D03*
X131877000Y-161802501D03*
X109372400Y-130098800D03*
X134877001Y-162802500D03*
X111074200Y-130098800D03*
X130877000Y-185800000D03*
X168757600Y-202996800D03*
X140318499Y-189702835D03*
X133877001Y-161802501D03*
X112874501Y-130111765D03*
X133877001Y-162802499D03*
X113524501Y-130111765D03*
X134877001Y-161802501D03*
X112776000Y-134899400D03*
X136877001Y-163802500D03*
X114503200Y-134899400D03*
X116205000Y-134899400D03*
X136877001Y-162802500D03*
X115316000Y-130098800D03*
X136877001Y-161802500D03*
X137877001Y-161802499D03*
X117017800Y-130098800D03*
X131877001Y-165802500D03*
X117906800Y-134899400D03*
X139875001Y-168802500D03*
X119557800Y-134899400D03*
X138876001Y-166802500D03*
X118745000Y-130098800D03*
X121374501Y-134803296D03*
X144875001Y-161802500D03*
X144875001Y-162802500D03*
X122024501Y-134803296D03*
X120396000Y-130098800D03*
X139875001Y-169802499D03*
X123825000Y-134874000D03*
X140875001Y-166802500D03*
X125526800Y-134861300D03*
X140875001Y-164802500D03*
X139875001Y-163802500D03*
X122123200Y-130175000D03*
X182179107Y-187201107D03*
X199273000Y-191324000D03*
X94800501Y-150458851D03*
X92300501Y-150458851D03*
X96300501Y-150458851D03*
X90800501Y-150458851D03*
X125526800Y-130175000D03*
X139875001Y-164802501D03*
X140875001Y-165802500D03*
X123825000Y-130175000D03*
X126377700Y-134861300D03*
X141875001Y-163802500D03*
X184677214Y-167541501D03*
X188938500Y-162000000D03*
X199326501Y-159699000D03*
X180100000Y-167536000D03*
X183176107Y-187926107D03*
X188423000Y-189099000D03*
X181595606Y-169762107D03*
X199250001Y-173974998D03*
X181595606Y-187201107D03*
X198723000Y-191324000D03*
X188388500Y-162000000D03*
X184677214Y-166958000D03*
X142875001Y-163802500D03*
X126377700Y-130175000D03*
X128079500Y-134861300D03*
X143875002Y-164802500D03*
X128066800Y-130175000D03*
X143875001Y-166802500D03*
X128930400Y-134861300D03*
X143875001Y-163802500D03*
X143875001Y-165802500D03*
X128930400Y-130175000D03*
X130632200Y-134861300D03*
X144875001Y-166802500D03*
X130619500Y-130175000D03*
X144875000Y-164802500D03*
X131483100Y-134861300D03*
X145875001Y-164802500D03*
X131470400Y-130175000D03*
X145875001Y-165802500D03*
X133184900Y-134861300D03*
X145875001Y-166802500D03*
X135800001Y-132029200D03*
X139875001Y-162802500D03*
X140875001Y-162802500D03*
X135850001Y-130327400D03*
X139875001Y-161802500D03*
X136500001Y-132029200D03*
X136450001Y-130327400D03*
X140875001Y-161802500D03*
X142875001Y-166802500D03*
X146049001Y-134706005D03*
X146049001Y-130010431D03*
X141875001Y-165802500D03*
X142875001Y-165802500D03*
X146649001Y-134706005D03*
X146649001Y-130010431D03*
X141875001Y-164802500D03*
X141875001Y-169802500D03*
X149326600Y-134696200D03*
X151028400Y-130187700D03*
X141875001Y-168802500D03*
X142875001Y-168802500D03*
X151028400Y-134696200D03*
X151879300Y-130187700D03*
X140875001Y-167802500D03*
X151879300Y-134696200D03*
X139875001Y-167802500D03*
X139875001Y-166802500D03*
X153581100Y-130187700D03*
X153581100Y-134683500D03*
X143875001Y-168802500D03*
X198776501Y-159699000D03*
X180100000Y-166952499D03*
X154419300Y-130187700D03*
X142875001Y-167802500D03*
X141875001Y-167802499D03*
X154419300Y-134683500D03*
X143875002Y-169802500D03*
X156121100Y-130187700D03*
X156133800Y-134683500D03*
X144875001Y-167802500D03*
X158686500Y-134683500D03*
X145875001Y-167802500D03*
X142875001Y-161802500D03*
X156972000Y-130187700D03*
X160375600Y-134696200D03*
X143875001Y-161802500D03*
X144875000Y-169802500D03*
X156984700Y-134683500D03*
X158673800Y-130187700D03*
X145875001Y-169802500D03*
X156591000Y-202293800D03*
X156600000Y-200425800D03*
X146705200Y-201710800D03*
X188200000Y-187750000D03*
X146875001Y-177800500D03*
X186100000Y-187500000D03*
X186100000Y-186750000D03*
X186100000Y-189700000D03*
X186100000Y-188200000D03*
X188200000Y-187150000D03*
X186100000Y-188900000D03*
X146875001Y-185800500D03*
X187200000Y-187700000D03*
X146875001Y-179800501D03*
X146875001Y-181800500D03*
X146875001Y-183800500D03*
X187200000Y-182075000D03*
X187800000Y-181700000D03*
X187800000Y-180900000D03*
X141875001Y-170802500D03*
X143875001Y-172802500D03*
X144875000Y-173802500D03*
X187200000Y-181400000D03*
X144875001Y-183800500D03*
X183946800Y-161721800D03*
X142875001Y-171802500D03*
X141875001Y-177800500D03*
X186175000Y-179725000D03*
X144875001Y-171802500D03*
X186900000Y-180800000D03*
X188325000Y-182050000D03*
X146875001Y-175800499D03*
X186175000Y-179000000D03*
X142875001Y-176800500D03*
X186175000Y-181150000D03*
X140875001Y-176800500D03*
X186175000Y-180450000D03*
X140875501Y-174801000D03*
X142875001Y-173802500D03*
X188325000Y-181300000D03*
X162077400Y-134670800D03*
X146875001Y-163802500D03*
X145875001Y-161802500D03*
X160475001Y-130068267D03*
X145875001Y-162802500D03*
X161125001Y-130068267D03*
X148875001Y-170802500D03*
X163779200Y-134670800D03*
X149875001Y-166802500D03*
X164630100Y-130187700D03*
X162915600Y-130187700D03*
X145875001Y-171802500D03*
X165481000Y-134696200D03*
X147875001Y-162802500D03*
X149875001Y-161802500D03*
X167182800Y-134747000D03*
X166319200Y-130073400D03*
X148875001Y-163802500D03*
X168021000Y-130073400D03*
X146875000Y-162802500D03*
X93300000Y-159200000D03*
X91279001Y-159200000D03*
X89228157Y-152243165D03*
X91375322Y-152846000D03*
X107873800Y-156286200D03*
X90911829Y-154803145D03*
X107467400Y-155981400D03*
X91527596Y-152134441D03*
X99296829Y-157328157D03*
X90911829Y-156313157D03*
X69672200Y-169964000D03*
X78956400Y-183743949D03*
X86500501Y-153513149D03*
X95300000Y-159300000D03*
X113650501Y-183850000D03*
X138900501Y-186776000D03*
X179100000Y-179100000D03*
X103099200Y-193587800D03*
X188300000Y-169400000D03*
X128877001Y-181800500D03*
X70176000Y-144967800D03*
X107799200Y-193979800D03*
X78309200Y-195801000D03*
X83616800Y-154305000D03*
X102350501Y-161126000D03*
X148875501Y-174801000D03*
X141875001Y-187800500D03*
X142875001Y-180800500D03*
X95950000Y-154000000D03*
X130900501Y-174776000D03*
X123100000Y-188674500D03*
X105670000Y-174630000D03*
X179649336Y-184453959D03*
X186100000Y-172300000D03*
X92173163Y-207895200D03*
X182635107Y-181154500D03*
X184674999Y-149675000D03*
X139875001Y-181800501D03*
X97002662Y-207819200D03*
X130877001Y-166802500D03*
X94462662Y-207839200D03*
X78309200Y-206601000D03*
X130877001Y-177800500D03*
X68877900Y-143524800D03*
X126877001Y-185800500D03*
X103200000Y-160400000D03*
X131877000Y-169802500D03*
X144875000Y-186800500D03*
X136877001Y-185800500D03*
X123400000Y-175900000D03*
X184997500Y-163882001D03*
X125877001Y-161802500D03*
X186100000Y-171625000D03*
X123400000Y-174900000D03*
X95097600Y-205638400D03*
X166800000Y-181300000D03*
X97200000Y-182300000D03*
X140875001Y-184800500D03*
X83641000Y-152831927D03*
X187000000Y-170300000D03*
X126877001Y-164802501D03*
X117150501Y-173426000D03*
X129877001Y-163802500D03*
X145875001Y-177800500D03*
X78309200Y-198501000D03*
X184665999Y-148650001D03*
X92700000Y-164451500D03*
X134100000Y-189774500D03*
X90250000Y-181200000D03*
X111455200Y-192608200D03*
X97911825Y-155961825D03*
X160900501Y-180676000D03*
X128877001Y-170802500D03*
X127877001Y-167802500D03*
X181285000Y-196735000D03*
X98087600Y-205628400D03*
X69672200Y-165989000D03*
X154875001Y-175800501D03*
X78309200Y-201201000D03*
X186100000Y-170275000D03*
X167055800Y-203581000D03*
X186100000Y-169600000D03*
X78309200Y-203901000D03*
X116150501Y-176426000D03*
X125877001Y-182800500D03*
X105680000Y-170880157D03*
X121650001Y-183100001D03*
X188300000Y-170250000D03*
X125875501Y-174801000D03*
X187000000Y-169400000D03*
X99085400Y-148869400D03*
X74266000Y-144977800D03*
X106849200Y-192637800D03*
X146875000Y-171802500D03*
X181300000Y-195650000D03*
X182637608Y-163012000D03*
X99350000Y-154150000D03*
X143875001Y-183800500D03*
X130877001Y-187800500D03*
X131900501Y-174776000D03*
X121650001Y-182000000D03*
X186100000Y-170950000D03*
X120150501Y-176426000D03*
X184997000Y-182084000D03*
X126875501Y-174801000D03*
X129877000Y-184800500D03*
X78389300Y-192133100D03*
X188200000Y-163525000D03*
X75416600Y-136761600D03*
X186100000Y-161475000D03*
X186100000Y-162150000D03*
X186100000Y-163500000D03*
X75416600Y-138561600D03*
X186100000Y-162825000D03*
X75416600Y-137361600D03*
X74216600Y-138561600D03*
X157000501Y-175976000D03*
X185300000Y-162150000D03*
X187200000Y-163525000D03*
X75416600Y-137961600D03*
X74816600Y-138561600D03*
X74200600Y-137961600D03*
X188200000Y-164800000D03*
X187225000Y-164800000D03*
X74800600Y-137961600D03*
X169722800Y-130086100D03*
X149875001Y-162802500D03*
X168975001Y-134778228D03*
X148875001Y-161802500D03*
X147875001Y-161802500D03*
X169625001Y-134778228D03*
X150875001Y-161802500D03*
X171411900Y-134747000D03*
X141875001Y-166802501D03*
X144875001Y-165802500D03*
X132877001Y-162802500D03*
X182050000Y-155700000D03*
X135877001Y-161802500D03*
X189525000Y-160375000D03*
X149875001Y-170802500D03*
X188675000Y-159700000D03*
X150875001Y-163802500D03*
X142875001Y-169802500D03*
X143875001Y-162802500D03*
X136877001Y-164802500D03*
X145875001Y-168802500D03*
X138877001Y-167802500D03*
X134877001Y-168802500D03*
X143625200Y-130302500D03*
X190900000Y-159050000D03*
X150429800Y-130314000D03*
X140875001Y-163802500D03*
X182750000Y-155100000D03*
X133107000Y-130287800D03*
X137877002Y-167802500D03*
X189525000Y-159050000D03*
X187275500Y-159000000D03*
X190900000Y-160375000D03*
X189925000Y-159700000D03*
X151875001Y-166802500D03*
X148875001Y-167802500D03*
X188350000Y-160375000D03*
X188350000Y-159050000D03*
X147875001Y-164802500D03*
X133877001Y-165802500D03*
X146875001Y-161802500D03*
X156650000Y-201325800D03*
X145705200Y-201710800D03*
X196381001Y-162722000D03*
X197018501Y-170959500D03*
X197045501Y-188360500D03*
X196395501Y-180210500D03*
X150875002Y-162802500D03*
X173126400Y-134785100D03*
X151875001Y-162802500D03*
X171424600Y-130073400D03*
X202020501Y-182035500D03*
X202043501Y-164584500D03*
X202131001Y-169472000D03*
X173126400Y-130086100D03*
X151875001Y-163802500D03*
X202020501Y-186585500D03*
X180458299Y-208703800D03*
X170230800Y-194335400D03*
X197662800Y-188468000D03*
X180458299Y-207679800D03*
X180458299Y-206703800D03*
X197662800Y-170992800D03*
X189725000Y-194400000D03*
X188875000Y-192875000D03*
X188900000Y-194050000D03*
X189200000Y-193425000D03*
X150875001Y-177800500D03*
X147875001Y-176800500D03*
X149875001Y-184800500D03*
X188900000Y-194800000D03*
X149875001Y-186800500D03*
X149875001Y-180800500D03*
X149875001Y-176800500D03*
X137877001Y-178800500D03*
X123300000Y-190700000D03*
X165400000Y-189400000D03*
X143875001Y-175800500D03*
X127875501Y-190626000D03*
X126900501Y-191176000D03*
X165500000Y-192100000D03*
X164600000Y-191600000D03*
X164500000Y-198425999D03*
X136877001Y-177800500D03*
X140875001Y-178800500D03*
X166050000Y-189400000D03*
X139875001Y-172802500D03*
X165150000Y-198076001D03*
X128200501Y-190076000D03*
X164600000Y-194750000D03*
X164800000Y-192450000D03*
X122900000Y-191250000D03*
X128200501Y-191176000D03*
X165750000Y-198350000D03*
X164700000Y-189400000D03*
X140875001Y-171802500D03*
X131650501Y-189976000D03*
X165000000Y-190800000D03*
X165650000Y-195150000D03*
X139875001Y-170802500D03*
X165500000Y-193050000D03*
X136877001Y-170802500D03*
X137877002Y-171802500D03*
X152400000Y-192600000D03*
X139875000Y-177800500D03*
X164600000Y-193400000D03*
X127550501Y-190076000D03*
X154700000Y-188800000D03*
X144875001Y-176800500D03*
X164600000Y-197200000D03*
X166400000Y-198350000D03*
X164600000Y-195950000D03*
X131650501Y-191076000D03*
X165650000Y-196150000D03*
X122900000Y-190150000D03*
X131975501Y-190526000D03*
X139875001Y-175800500D03*
X136877001Y-175800500D03*
X143875001Y-179800500D03*
X137877001Y-173802500D03*
X144875001Y-178800500D03*
X142875001Y-178800500D03*
X143875002Y-177800500D03*
X136877001Y-172802500D03*
X165050000Y-195450000D03*
X80692900Y-141414299D03*
X127175501Y-190626000D03*
X126900501Y-190076000D03*
X127550501Y-191176000D03*
X165500000Y-191250000D03*
X137877001Y-176800500D03*
X146875001Y-165802500D03*
X174802800Y-134823200D03*
X150875002Y-178800500D03*
X150875002Y-176800500D03*
X180100000Y-185700000D03*
X199773000Y-177172000D03*
X176530000Y-134823200D03*
X147875001Y-167802500D03*
X88014500Y-188373000D03*
X128877002Y-184800500D03*
X130877001Y-183800500D03*
X88014500Y-193773000D03*
X129877001Y-183800500D03*
X88014500Y-191073000D03*
X180100000Y-185116500D03*
X199223000Y-177172000D03*
X174828200Y-130124200D03*
X146875001Y-167802499D03*
X192000000Y-177200000D03*
X191100000Y-176900000D03*
X196400000Y-177300000D03*
X196400000Y-176500000D03*
X192000000Y-176500000D03*
X176707800Y-179120800D03*
X91051564Y-200875321D03*
X120995083Y-189975000D03*
X125857000Y-181801000D03*
X175996600Y-202463400D03*
X128905000Y-182800000D03*
X155307600Y-198373800D03*
X140868400Y-190246000D03*
X188942000Y-171701000D03*
X182592606Y-169037107D03*
X184677214Y-185705501D03*
X188948000Y-179498000D03*
X183176107Y-169037107D03*
X188392000Y-171701000D03*
X184677214Y-185122000D03*
X188398000Y-179498000D03*
X176530000Y-130124200D03*
X146875001Y-164802500D03*
X178324501Y-129982334D03*
X147875001Y-165802500D03*
X138876002Y-187800500D03*
X147875001Y-166802500D03*
X178974501Y-129982334D03*
X178206400Y-134823200D03*
X147875001Y-163802500D03*
X179933600Y-134823200D03*
X149875001Y-164802500D03*
X181635400Y-134823200D03*
X148875001Y-165802500D03*
X180797200Y-130124200D03*
X148875001Y-164802501D03*
X148875001Y-166802500D03*
X182473600Y-130124200D03*
X150875001Y-166802501D03*
X183311800Y-134823200D03*
X185039000Y-134823200D03*
X150875001Y-164802500D03*
X150875001Y-165802500D03*
X184200800Y-130098800D03*
X185877200Y-130098800D03*
X149875001Y-167802500D03*
X90700000Y-183007000D03*
X139700000Y-201701400D03*
X187579000Y-130098800D03*
X151875001Y-167802500D03*
X151875001Y-164802500D03*
X186824001Y-134833634D03*
X151875001Y-165802500D03*
X187474001Y-134833634D03*
X75477900Y-143524800D03*
X151875001Y-168802500D03*
X189255400Y-134797800D03*
X151875001Y-169802500D03*
X190957200Y-134797800D03*
X189255400Y-130098800D03*
X150875001Y-167802499D03*
X190982600Y-130098800D03*
X150875001Y-169802500D03*
X155000000Y-176800000D03*
X152800000Y-172806222D03*
X130877001Y-180800500D03*
X149875001Y-168802500D03*
X192659000Y-134797800D03*
X150875001Y-170802500D03*
X194360800Y-134797800D03*
X149875001Y-169802500D03*
X192684400Y-130098800D03*
X151875001Y-170802500D03*
X194386200Y-130098800D03*
X147875001Y-168802500D03*
X196175001Y-130083309D03*
X170226483Y-195472747D03*
X179100000Y-182375000D03*
X202020501Y-185285500D03*
X179112500Y-181325000D03*
X179100000Y-180225000D03*
X202125000Y-167850000D03*
X196825001Y-130083309D03*
X146875001Y-168802500D03*
X195986400Y-134797800D03*
X148875001Y-169802499D03*
X140697200Y-207609200D03*
X197688200Y-162712400D03*
X147875001Y-170802500D03*
X197789800Y-134797800D03*
X199466200Y-134797800D03*
X145875001Y-170802500D03*
X146875001Y-170802500D03*
X198628000Y-130098800D03*
X146875001Y-169802500D03*
X200329800Y-130098800D03*
X69355899Y-185830800D03*
X69334001Y-187378613D03*
X69336432Y-185133668D03*
X69355899Y-186660800D03*
X137877001Y-187800500D03*
X136877001Y-187800500D03*
X142875001Y-186800500D03*
X137877001Y-186800500D03*
X136877001Y-186800500D03*
X181279800Y-182676800D03*
X181203600Y-164338000D03*
X141697200Y-207609200D03*
X180187600Y-165785800D03*
X142697200Y-207609200D03*
X183489600Y-157378400D03*
X179654200Y-183769000D03*
X77089000Y-127355600D03*
X80467200Y-127355600D03*
X159001501Y-175976000D03*
X150875001Y-173802500D03*
X151875001Y-180800500D03*
X151875001Y-176800500D03*
X151875001Y-173802500D03*
X148875001Y-179800500D03*
X148875002Y-177800500D03*
X143875001Y-185800500D03*
X110899200Y-191037800D03*
X113650501Y-182580000D03*
X123649500Y-181251001D03*
X180712500Y-202963100D03*
X146875001Y-176800500D03*
X110149200Y-190837800D03*
X143875001Y-184800500D03*
X144875001Y-184800500D03*
X108599200Y-190787800D03*
X107899200Y-190887800D03*
X142875001Y-184800500D03*
X105699200Y-190837800D03*
X142875001Y-183800500D03*
X126877001Y-175800500D03*
X132877001Y-172802500D03*
X127877001Y-178800500D03*
X125877001Y-171802500D03*
X129877001Y-173802500D03*
X135877001Y-171802500D03*
X131877001Y-180800500D03*
X135877001Y-182800499D03*
X132877001Y-183800500D03*
X133877001Y-186800500D03*
X133877001Y-176800500D03*
X134877001Y-179800500D03*
X148875001Y-175800500D03*
X148875001Y-172802500D03*
X149875001Y-179800500D03*
X149875001Y-177800500D03*
X149875001Y-175800500D03*
X149875001Y-172802500D03*
X146875001Y-182800500D03*
X146875001Y-178800500D03*
X147875001Y-182800500D03*
X147875001Y-178800500D03*
X146888200Y-184810400D03*
X146875001Y-180800500D03*
X147878800Y-184810400D03*
X147875001Y-180800500D03*
X144875001Y-163802500D03*
X142875001Y-162802500D03*
X143875001Y-187800500D03*
X144875001Y-187800500D03*
X140875001Y-180800500D03*
X141875001Y-180800500D03*
X137877001Y-180800500D03*
X137877001Y-181800500D03*
X141875001Y-179800501D03*
X142875001Y-179800500D03*
X139875001Y-179800500D03*
X139875001Y-180800500D03*
X142875001Y-181800500D03*
X143875001Y-181800501D03*
X141875001Y-186800500D03*
X143875001Y-180800500D03*
X144875001Y-180800500D03*
X137877001Y-185800500D03*
X139875001Y-185800500D03*
X139875001Y-183800500D03*
X140875001Y-183800500D03*
X137877002Y-184800500D03*
X139875001Y-184800500D03*
X140875001Y-181800500D03*
X140875001Y-182800500D03*
X137877001Y-182800500D03*
X139875001Y-182800499D03*
X141875001Y-183800500D03*
X141875002Y-184800500D03*
X141875001Y-185800500D03*
X141875001Y-181800500D03*
X142875001Y-182800500D03*
X143875002Y-186800500D03*
X137877002Y-179800500D03*
X144875001Y-179800500D03*
X136877001Y-179800500D03*
X135877001Y-179800500D03*
X136877001Y-181800500D03*
X136877001Y-182800500D03*
X135877001Y-180800500D03*
X135877001Y-181800501D03*
X136877001Y-184800500D03*
X135877001Y-184800500D03*
X134877001Y-185800500D03*
X133877001Y-185800500D03*
X132877001Y-185800500D03*
X132877001Y-186800500D03*
X134877001Y-186800500D03*
X134877001Y-187800500D03*
X133877001Y-187800500D03*
X132877001Y-187800500D03*
X134877001Y-177800500D03*
X133877001Y-178800500D03*
X134877001Y-176800500D03*
X133877001Y-177800500D03*
X135877001Y-178800500D03*
X134877001Y-178800500D03*
X132877001Y-177800500D03*
X131877000Y-177800500D03*
X133877001Y-179800501D03*
X132877001Y-179800500D03*
X135877001Y-185800500D03*
X135877002Y-186800500D03*
X131877001Y-178800500D03*
X131877001Y-179800500D03*
X132877001Y-180800500D03*
X131877001Y-181800501D03*
X132877001Y-182800500D03*
X131877001Y-183800500D03*
X132877001Y-181800500D03*
X131877001Y-182800499D03*
X132877001Y-184800500D03*
X131877001Y-184800500D03*
X134877001Y-180800500D03*
X133877001Y-180800500D03*
X133877001Y-183800500D03*
X133877001Y-184800499D03*
X134877001Y-182800500D03*
X134877001Y-183800500D03*
X134877001Y-181800500D03*
X133877001Y-182800500D03*
X136877001Y-183800500D03*
X135877001Y-183800500D03*
X135877001Y-176800500D03*
X136877001Y-178800500D03*
X128877001Y-178800500D03*
X128877002Y-179800500D03*
X129877001Y-177800500D03*
X129877001Y-178800500D03*
X127877001Y-179800500D03*
X126877001Y-179800500D03*
X130877001Y-179800500D03*
X128877001Y-180800500D03*
X127877001Y-180800500D03*
X130877001Y-181800500D03*
X125877001Y-179800500D03*
X125877001Y-180800500D03*
X127877001Y-182800500D03*
X129877001Y-181800500D03*
X129877001Y-182800500D03*
X128877001Y-183800500D03*
X128877001Y-177800500D03*
X130877001Y-178800500D03*
X132877001Y-173802500D03*
X131877001Y-173802501D03*
X127877001Y-176800500D03*
X127877001Y-177800500D03*
X132877001Y-175800500D03*
X131877001Y-176800500D03*
X126877001Y-172802500D03*
X126877001Y-173802501D03*
X125877001Y-175800500D03*
X125877001Y-176800500D03*
X127877001Y-173802500D03*
X127877001Y-175800500D03*
X126877001Y-176800500D03*
X126877002Y-177800500D03*
X125877001Y-172802500D03*
X125877001Y-173802500D03*
X133877001Y-172802500D03*
X133877001Y-173802500D03*
X134877001Y-170802500D03*
X134877001Y-171802500D03*
X133877001Y-175800499D03*
X132877001Y-176800500D03*
X135877001Y-172802500D03*
X134877001Y-172802500D03*
X135877001Y-173802501D03*
X134877001Y-175800500D03*
X126877001Y-178800500D03*
X125877001Y-178800500D03*
X133877001Y-171802501D03*
X132877001Y-171802500D03*
X132877001Y-170802500D03*
X131877001Y-170802500D03*
X129877000Y-171802500D03*
X128877002Y-171802500D03*
X131877001Y-171802500D03*
X131877001Y-172802500D03*
X127877001Y-171802500D03*
X126877001Y-171802500D03*
X129877001Y-172802500D03*
X128877001Y-172802500D03*
X130877001Y-172802500D03*
X130877001Y-173802500D03*
X130877001Y-175800500D03*
X129877000Y-175800500D03*
X128877001Y-173802500D03*
X128877002Y-175800500D03*
X130877001Y-176800500D03*
X129877001Y-176800500D03*
X135877001Y-170802500D03*
X135877001Y-175800500D03*
X128877001Y-168802500D03*
X126877001Y-165802500D03*
X130877001Y-169802500D03*
X130877001Y-168802500D03*
X128877001Y-169802500D03*
X127877001Y-169802500D03*
X127877001Y-170802500D03*
X129877001Y-170802500D03*
X129877001Y-169802500D03*
X131877001Y-168802500D03*
X128877001Y-164802500D03*
X127877001Y-165802500D03*
X130877001Y-170802500D03*
X106449200Y-191037800D03*
X144881600Y-182803800D03*
X104149200Y-190787800D03*
X86512400Y-152882600D03*
X78613000Y-153517600D03*
X78613000Y-155244800D03*
X89154000Y-154051000D03*
X126877002Y-186800500D03*
X145875001Y-179800500D03*
X94005400Y-200888600D03*
X145875001Y-181800500D03*
X97002600Y-200914000D03*
X130877001Y-184800500D03*
X87989200Y-207251000D03*
X131877001Y-187800500D03*
X87989200Y-201851000D03*
X131877000Y-186800500D03*
X87989200Y-204551000D03*
X130877001Y-186800500D03*
X87989200Y-199151000D03*
X129877001Y-185800500D03*
X87989200Y-196451000D03*
X127877001Y-164802500D03*
X121150501Y-176426000D03*
X125877001Y-164802500D03*
X121150501Y-175426000D03*
X128877001Y-185800500D03*
X123649500Y-183790001D03*
X114375000Y-187700000D03*
X127877001Y-186800500D03*
X126877001Y-187800500D03*
X121774499Y-187700000D03*
X129877001Y-186800500D03*
X122850000Y-187700000D03*
X129877001Y-187800500D03*
X115450000Y-187700000D03*
X113650501Y-181310999D03*
X144875001Y-185800500D03*
X158415501Y-181672000D03*
X147875001Y-173802500D03*
X150875002Y-171802500D03*
X158415501Y-180675000D03*
X151875001Y-178800500D03*
X147875001Y-171802500D03*
X158415501Y-179675000D03*
X164769800Y-202438000D03*
X152704800Y-175742600D03*
X146875000Y-173803000D03*
X145875001Y-173802500D03*
X77089000Y-131902200D03*
X130877001Y-163802500D03*
X130877001Y-164802500D03*
X80467200Y-131902200D03*
X126877001Y-182800499D03*
X107955166Y-175724834D03*
X125877001Y-183800500D03*
X107810000Y-175020000D03*
X107800000Y-172760000D03*
X127877001Y-187800500D03*
X103310000Y-170540000D03*
X99849000Y-169549500D03*
X128877001Y-187800500D03*
X107880000Y-171630000D03*
X98800000Y-179700000D03*
X105645000Y-179085000D03*
X127877001Y-185800500D03*
X98000000Y-182150000D03*
X99300000Y-179200000D03*
X104651000Y-179085000D03*
X98600000Y-182625000D03*
X127877001Y-184800500D03*
X99800000Y-179700000D03*
X104157000Y-179585000D03*
X125877001Y-185800500D03*
X99225000Y-182225000D03*
X100300000Y-179200000D03*
X99925000Y-182625000D03*
X126877001Y-184800500D03*
X101300000Y-179750000D03*
X126877001Y-181800501D03*
X102400000Y-182400000D03*
X96641500Y-189544600D03*
X96325000Y-169425000D03*
X103449200Y-190887800D03*
X143881600Y-182803800D03*
X178350000Y-194150000D03*
X105737096Y-185772904D03*
X103562904Y-185757904D03*
X179005000Y-198313000D03*
X125877001Y-168802500D03*
X99500501Y-162726000D03*
X98450501Y-162726000D03*
X126877001Y-168802500D03*
X97417852Y-162719798D03*
X125877001Y-169802500D03*
X96350501Y-162776000D03*
X126877001Y-170802500D03*
X126877001Y-167802500D03*
X101600501Y-162726000D03*
X128877001Y-167802499D03*
X100500501Y-162751000D03*
X96091829Y-155568859D03*
X128877001Y-166802501D03*
X125877001Y-165802500D03*
X98635501Y-158861000D03*
X129877000Y-166802500D03*
X98100501Y-154523149D03*
X71856000Y-145720600D03*
X126877001Y-183800500D03*
X179000000Y-193100000D03*
X179005000Y-197314001D03*
X72745600Y-153060400D03*
X125877001Y-184800500D03*
X143875001Y-170802500D03*
X140875001Y-169802500D03*
X184353200Y-198297800D03*
X144708700Y-201702501D03*
X143641900Y-201702501D03*
X184353200Y-198907400D03*
X179505000Y-197812000D03*
X127877001Y-181800500D03*
X129877001Y-180800500D03*
X179505000Y-194062000D03*
X170230800Y-193725800D03*
X184353200Y-197747797D03*
X198348600Y-162712400D03*
X142697200Y-201701400D03*
X198323200Y-180162200D03*
X140697200Y-201701400D03*
X170154600Y-193141600D03*
X184200800Y-194056000D03*
X197688200Y-180162200D03*
X141697200Y-201701400D03*
X96801000Y-179200000D03*
X125877001Y-162802500D03*
X120150501Y-173426000D03*
X120150501Y-174426000D03*
X125877001Y-163802500D03*
X128877001Y-163802500D03*
X118150501Y-175426000D03*
X127877001Y-161802500D03*
X118150501Y-176426000D03*
X126877001Y-163802500D03*
X117150501Y-174426000D03*
X128877002Y-162802500D03*
X117150501Y-175426000D03*
X117149501Y-176427000D03*
X129877000Y-162802500D03*
X117150501Y-177427000D03*
X128877001Y-161802500D03*
X127877001Y-163802500D03*
X116150501Y-173426000D03*
X126877001Y-162802500D03*
X116150501Y-174426000D03*
X116201001Y-175376500D03*
X126877001Y-161802500D03*
X89320493Y-157546008D03*
X127877001Y-166802500D03*
X96675501Y-159076000D03*
X126877001Y-166802500D03*
X125877001Y-170802500D03*
X95400501Y-162801000D03*
X89154746Y-154957657D03*
X127877001Y-168802500D03*
X131877001Y-167802500D03*
X98210501Y-157076000D03*
X87435501Y-156111000D03*
X130877001Y-167802500D03*
X89125687Y-156035000D03*
X129877000Y-167802500D03*
X88591829Y-155568859D03*
X125877001Y-167802500D03*
X96956500Y-191104100D03*
X93950000Y-170450000D03*
X94400000Y-179150000D03*
X93700000Y-176650000D03*
X93900000Y-179550000D03*
X93350000Y-177450000D03*
X95456500Y-189729600D03*
X95450000Y-169050000D03*
X94750000Y-169600000D03*
X97956500Y-192429600D03*
X130877001Y-165802500D03*
X129877001Y-165802500D03*
X129877001Y-164802500D03*
X130877001Y-162802500D03*
X129877001Y-161802500D03*
D43*
X82781023Y-168761487D02*
X82781023Y-169496024D01*
D44*
X146373501Y-164301000D02*
X145875001Y-163802500D01*
X138277001Y-170802500D02*
X138877001Y-170202500D01*
D45*
X94848161Y-149498161D02*
X94900000Y-149550000D01*
D44*
X139875001Y-178800500D02*
X139875001Y-178802500D01*
D45*
X85680501Y-157003149D02*
X85750501Y-157073149D01*
D44*
X137877001Y-170802500D02*
X137377002Y-171302500D01*
X147326001Y-175251500D02*
X147875001Y-175800500D01*
D46*
X105960000Y-172468000D02*
X105960000Y-173094672D01*
D44*
X138177001Y-170802500D02*
X137877001Y-170802500D01*
D43*
X149452200Y-130354600D02*
X149452200Y-130367000D01*
D44*
X138877001Y-170202500D02*
X138877001Y-170102500D01*
X138177001Y-170802500D02*
X138277001Y-170802500D01*
D43*
X181625000Y-202475600D02*
X181600000Y-202450600D01*
D44*
X141375001Y-182300500D02*
X141875001Y-182800500D01*
X106224200Y-194285800D02*
X106224200Y-194201800D01*
X146375501Y-164301000D02*
X146373501Y-164301000D01*
X140375001Y-173302500D02*
X140875001Y-172802500D01*
D43*
X202150000Y-170675000D02*
X202849001Y-170675000D01*
D44*
X92308672Y-157441328D02*
X92800000Y-156950000D01*
X145875001Y-178800500D02*
X146375001Y-179300500D01*
X141377001Y-171302500D02*
X141375001Y-171302500D01*
X142875001Y-175800500D02*
X142875001Y-174801500D01*
X149377001Y-183300500D02*
X149377001Y-183298500D01*
D43*
X140375501Y-177303000D02*
X140377501Y-177303000D01*
D44*
X144373001Y-176302500D02*
X143875001Y-176800500D01*
D43*
X202809000Y-184725000D02*
X202201000Y-184725000D01*
D44*
X94308672Y-157441328D02*
X94800000Y-156950000D01*
D43*
X183423800Y-206629800D02*
X183423800Y-206759800D01*
D44*
X142875001Y-177800500D02*
X142875001Y-177801500D01*
D43*
X196215000Y-188363000D02*
X196227000Y-188351000D01*
D44*
X146373001Y-182302500D02*
X145875001Y-182800500D01*
X138875501Y-175801000D02*
X138875501Y-174801000D01*
X138373001Y-178296500D02*
X137877001Y-177800500D01*
D43*
X148875001Y-186800501D02*
X148875001Y-186154500D01*
D46*
X105960000Y-176684000D02*
X105960000Y-177880984D01*
D43*
X98704400Y-151485600D02*
X98679000Y-151511000D01*
D44*
X137375501Y-184301000D02*
X137376501Y-184301000D01*
X140374502Y-186301000D02*
X139875001Y-186800501D01*
X137375001Y-177298500D02*
X136877001Y-176800500D01*
X139875001Y-178802500D02*
X139375001Y-179302500D01*
X141372501Y-177303000D02*
X140875001Y-177800500D01*
D46*
X105960000Y-173094672D02*
X105922344Y-173132328D01*
D43*
X105964499Y-194285800D02*
X105649200Y-193970501D01*
X202950000Y-184866000D02*
X202809000Y-184725000D01*
D44*
X130378501Y-162301000D02*
X130877001Y-161802500D01*
X143375501Y-167303000D02*
X143875001Y-167802500D01*
X139377001Y-173304501D02*
X139875001Y-173802501D01*
D45*
X86536829Y-151133157D02*
X86271821Y-150868149D01*
D44*
X146375001Y-183300500D02*
X145875001Y-183800500D01*
D43*
X142677000Y-130319500D02*
X142660000Y-130302500D01*
D44*
X139875001Y-171802500D02*
X139375001Y-171302500D01*
D43*
X149452200Y-130342200D02*
X149452200Y-131038600D01*
D44*
X128375501Y-172304000D02*
X127877001Y-172802500D01*
X144075501Y-174002999D02*
X143875002Y-173802500D01*
X144375001Y-176302500D02*
X144373001Y-176302500D01*
X142375001Y-176300500D02*
X141875001Y-175800500D01*
X147373500Y-167301000D02*
X146875001Y-166802501D01*
D43*
X160863499Y-201360800D02*
X160200000Y-201360800D01*
X101400000Y-159766000D02*
X101616000Y-159550000D01*
X142375001Y-170302500D02*
X142875001Y-170802500D01*
D44*
X142875001Y-172801500D02*
X143375501Y-172301000D01*
X156002501Y-175976000D02*
X156002501Y-175290000D01*
X144075501Y-174801000D02*
X144075501Y-174002999D01*
D47*
X160899499Y-201324800D02*
X160863499Y-201360800D01*
D44*
X141377501Y-173301000D02*
X141376501Y-173301000D01*
X139377001Y-173302500D02*
X139377001Y-173304501D01*
X145375501Y-170302000D02*
X144875001Y-170802500D01*
X133375501Y-167301000D02*
X133375501Y-167304000D01*
D43*
X93600000Y-154800000D02*
X93923672Y-154800000D01*
D44*
X150375501Y-169302000D02*
X150875001Y-168802500D01*
D43*
X202875000Y-165335000D02*
X202740000Y-165200000D01*
D46*
X103474000Y-176550000D02*
X103340000Y-176684000D01*
D44*
X131378500Y-165301000D02*
X131877000Y-164802500D01*
D43*
X90086829Y-149149157D02*
X90086829Y-148590500D01*
D48*
X82781023Y-169496024D02*
X82767560Y-169509487D01*
D43*
X202740000Y-165200000D02*
X202100000Y-165200000D01*
D44*
X171800501Y-196376000D02*
X171700501Y-196276000D01*
X136148001Y-159575500D02*
X137292001Y-159575500D01*
D43*
X140377501Y-177303000D02*
X140875001Y-177800500D01*
D44*
X148375501Y-162301000D02*
X148375501Y-162303000D01*
X142375501Y-186300000D02*
X142875001Y-185800500D01*
X141375501Y-177303000D02*
X141372501Y-177303000D01*
X78695200Y-160564000D02*
X78695200Y-161549000D01*
D43*
X145875001Y-176800500D02*
X145373001Y-177302500D01*
D44*
X138875501Y-174801000D02*
X138875501Y-173801000D01*
X127877001Y-162802500D02*
X127375501Y-162301000D01*
X128375501Y-172301000D02*
X128375501Y-172304000D01*
X137877002Y-175804501D02*
X138375001Y-176302500D01*
X138400501Y-172279000D02*
X137877001Y-172802500D01*
D43*
X95000500Y-164451000D02*
X95000000Y-164451500D01*
D44*
X141373501Y-169301000D02*
X140875001Y-168802500D01*
D43*
X202790000Y-182750000D02*
X202125000Y-182750000D01*
D44*
X147326001Y-175251500D02*
X147126001Y-175251500D01*
D45*
X94053157Y-149808165D02*
X94138157Y-149808165D01*
D44*
X147375001Y-170300500D02*
X147377001Y-170300500D01*
D43*
X115285501Y-181249999D02*
X115750001Y-180785502D01*
D44*
X114275501Y-177426000D02*
X115564501Y-177426000D01*
X148375501Y-162303000D02*
X148875001Y-162802500D01*
X137877002Y-175800500D02*
X137877002Y-175804501D01*
X93308672Y-157520992D02*
X93308672Y-157441328D01*
X147875001Y-175800500D02*
X148375501Y-176301000D01*
X150875002Y-179800500D02*
X150377002Y-180298500D01*
X135841200Y-159193699D02*
X136075001Y-159427500D01*
X115596501Y-177426000D02*
X115580501Y-177410000D01*
X135875501Y-174801000D02*
X134950501Y-174801000D01*
D43*
X145373001Y-177302500D02*
X144375001Y-177302500D01*
D44*
X146373501Y-177299000D02*
X145875001Y-176800500D01*
D43*
X148875001Y-186154500D02*
X148879001Y-186150500D01*
X138900501Y-183836000D02*
X138870501Y-183806000D01*
D44*
X144375501Y-172301000D02*
X144373501Y-172301000D01*
X141376501Y-173301000D02*
X140875001Y-173802500D01*
D43*
X149464600Y-130314000D02*
X149452200Y-130342200D01*
D44*
X151376501Y-162301000D02*
X151875001Y-161802500D01*
X202312400Y-149072600D02*
X204863901Y-149072600D01*
X134375501Y-170302500D02*
X134375501Y-170304000D01*
D43*
X182291000Y-202475600D02*
X181625000Y-202475600D01*
D44*
X128375501Y-165301000D02*
X128877001Y-165802500D01*
X137375501Y-162301000D02*
X137877002Y-162802500D01*
X78695200Y-159937000D02*
X78672200Y-159914000D01*
D43*
X142374001Y-170302500D02*
X142375001Y-170302500D01*
D44*
X134375501Y-163301000D02*
X134877001Y-163802500D01*
D43*
X202925000Y-182885000D02*
X202790000Y-182750000D01*
D44*
X131375501Y-171304000D02*
X130877001Y-171802500D01*
D43*
X95550501Y-164451000D02*
X95000500Y-164451000D01*
D48*
X142334000Y-159600000D02*
X142334000Y-160700000D01*
D44*
X172316501Y-196376000D02*
X171800501Y-196376000D01*
X145375001Y-184300500D02*
X145875001Y-184800500D01*
X126376501Y-181301000D02*
X126877001Y-180800500D01*
D43*
X92300000Y-149550000D02*
X91749157Y-149550000D01*
D48*
X77488634Y-165493487D02*
X77502097Y-165506950D01*
D43*
X75447900Y-141464800D02*
X75447900Y-141673900D01*
D44*
X130375501Y-183300500D02*
X130377001Y-183300500D01*
D43*
X197050000Y-162650000D02*
X197000000Y-162700000D01*
D44*
X144375501Y-182300001D02*
X144875001Y-181800501D01*
D43*
X92300000Y-149550000D02*
X92787672Y-149550000D01*
D44*
X129375501Y-168301000D02*
X129877001Y-168802500D01*
X151375501Y-162301000D02*
X151376501Y-162301000D01*
D49*
X115564501Y-177426000D02*
X115580501Y-177410000D01*
D44*
X129375501Y-180301000D02*
X129376500Y-180301000D01*
X139375001Y-177300500D02*
X139875001Y-176800500D01*
D45*
X85680501Y-156248149D02*
X85680501Y-157003149D01*
X86271821Y-150868149D02*
X85680501Y-150868149D01*
D44*
X138877001Y-170102500D02*
X138877001Y-170776000D01*
D43*
X197185000Y-179400000D02*
X197075000Y-179510000D01*
D44*
X153975001Y-166702500D02*
X153975001Y-167402500D01*
X145375501Y-170301000D02*
X145375501Y-170302000D01*
X136375501Y-166304000D02*
X135877001Y-166802500D01*
D43*
X202125000Y-182750000D02*
X202075000Y-182700000D01*
D44*
X134877001Y-174727500D02*
X134950501Y-174801000D01*
X147377001Y-170300500D02*
X147875001Y-169802500D01*
X143875001Y-178800500D02*
X143375001Y-178300500D01*
X148375501Y-176301000D02*
X148875001Y-176800500D01*
D43*
X124750000Y-188335000D02*
X125342501Y-188335000D01*
D44*
X91179008Y-157520992D02*
X91750000Y-156950000D01*
X146375501Y-177299000D02*
X146373501Y-177299000D01*
X141875001Y-178802500D02*
X141375001Y-179302500D01*
D43*
X204863901Y-149072600D02*
X204867901Y-149068600D01*
X142673000Y-131102500D02*
X142673000Y-130918500D01*
X197160000Y-161950000D02*
X197050000Y-162060000D01*
D44*
X133900501Y-174776000D02*
X134925501Y-174776000D01*
D48*
X98366829Y-150808157D02*
X98366829Y-151148029D01*
D45*
X94138157Y-149808165D02*
X94448161Y-149498161D01*
D43*
X141875001Y-161802500D02*
X141875001Y-161158999D01*
D44*
X131375501Y-165301000D02*
X131378500Y-165301000D01*
X134925501Y-174776000D02*
X134950501Y-174801000D01*
X130375501Y-162301000D02*
X130378501Y-162301000D01*
D43*
X101375251Y-160295500D02*
X101400000Y-160270751D01*
D44*
X134877001Y-173802500D02*
X134877001Y-174727500D01*
X137375001Y-177302500D02*
X137375001Y-177298500D01*
X144075501Y-174801000D02*
X142875501Y-174801000D01*
D43*
X132141800Y-130287800D02*
X132141800Y-130935600D01*
X196215000Y-170915000D02*
X196200000Y-170900000D01*
D44*
X95308672Y-157520992D02*
X95829664Y-157000000D01*
D43*
X91749157Y-149550000D02*
X91500000Y-149799157D01*
D44*
X136377001Y-172302500D02*
X136877001Y-171802500D01*
D43*
X98584000Y-155200000D02*
X98584000Y-155934000D01*
X94284000Y-164451500D02*
X95000000Y-164451500D01*
D44*
X149375000Y-182300500D02*
X148875001Y-182800499D01*
X152375001Y-177300500D02*
X151875001Y-177800500D01*
X136925813Y-173751688D02*
X137375001Y-173302500D01*
X133375501Y-167304000D02*
X132877001Y-167802500D01*
D43*
X202251001Y-188150000D02*
X202910000Y-188150000D01*
X115284502Y-183799999D02*
X115284502Y-184484501D01*
D44*
X142875001Y-172802500D02*
X142875001Y-172801500D01*
X150375501Y-166301000D02*
X150373501Y-166301000D01*
X141874001Y-171802500D02*
X141375501Y-172301000D01*
X135084501Y-189276000D02*
X135720501Y-189276000D01*
X145377001Y-180302500D02*
X145875001Y-180800500D01*
X145875001Y-178800500D02*
X145875001Y-178801500D01*
D48*
X98366829Y-151148029D02*
X98704400Y-151485600D01*
D44*
X144375001Y-177302500D02*
X144375001Y-177300500D01*
D43*
X141875001Y-161158999D02*
X142334000Y-160700000D01*
X96375501Y-164436000D02*
X95565501Y-164436000D01*
D50*
X135720501Y-189276000D02*
X135730501Y-189266000D01*
D44*
X144375501Y-182301000D02*
X144375501Y-182300001D01*
X78695200Y-160564000D02*
X79422200Y-160564000D01*
D43*
X98584000Y-155934000D02*
X98650000Y-156000000D01*
D44*
X149377001Y-182300500D02*
X149375000Y-182300500D01*
X131376501Y-186301000D02*
X131877001Y-185800500D01*
X136375501Y-166301000D02*
X136375501Y-166304000D01*
X127375501Y-184301000D02*
X127376501Y-184301000D01*
X137375001Y-180302500D02*
X136877001Y-180800500D01*
D43*
X115750001Y-180785502D02*
X115750001Y-180650000D01*
D44*
X148377001Y-178302500D02*
X147875001Y-177800500D01*
D43*
X90086829Y-148590500D02*
X90091329Y-148586000D01*
X115284502Y-184484501D02*
X115300001Y-184500000D01*
X132141800Y-130935600D02*
X132129400Y-130948000D01*
X202150000Y-167250000D02*
X202100000Y-167200000D01*
X202734000Y-167250000D02*
X202150000Y-167250000D01*
D44*
X146375001Y-182302500D02*
X146373001Y-182302500D01*
D46*
X104090000Y-176550000D02*
X103474000Y-176550000D01*
D44*
X145373501Y-173301000D02*
X144875001Y-172802500D01*
D43*
X125342501Y-188335000D02*
X125877001Y-187800500D01*
D47*
X184958299Y-207629800D02*
X184943299Y-207644800D01*
D44*
X136909706Y-173751688D02*
X136925813Y-173751688D01*
X116150501Y-177426000D02*
X115596501Y-177426000D01*
X143375501Y-167301000D02*
X143375501Y-167303000D01*
X145875001Y-178801500D02*
X145375501Y-179301000D01*
X145375501Y-173301000D02*
X145373501Y-173301000D01*
X131375501Y-176301000D02*
X131376501Y-176301000D01*
X145875001Y-186800500D02*
X146374501Y-186301000D01*
X142375001Y-176302500D02*
X142375001Y-176300500D01*
D43*
X106228200Y-194285800D02*
X105964499Y-194285800D01*
D44*
X137375501Y-169304000D02*
X136877001Y-169802500D01*
D43*
X196215000Y-189175000D02*
X196215000Y-188363000D01*
X197050000Y-162060000D02*
X197050000Y-162650000D01*
D44*
X143375501Y-165301000D02*
X143373501Y-165301000D01*
X139875001Y-165801500D02*
X140375501Y-165301000D01*
D43*
X70611900Y-143524800D02*
X71217900Y-143524800D01*
D44*
X119580501Y-175442000D02*
X120134501Y-175442000D01*
D43*
X76754097Y-165493487D02*
X77488634Y-165493487D01*
D44*
X150375501Y-169302500D02*
X150375501Y-169302000D01*
D46*
X104950000Y-172468000D02*
X105960000Y-172468000D01*
D44*
X118150501Y-173426000D02*
X118150501Y-172882000D01*
X128852994Y-174801000D02*
X127775501Y-174801000D01*
X91150000Y-157520992D02*
X91179008Y-157520992D01*
D43*
X183423800Y-206759800D02*
X184308800Y-207644800D01*
D45*
X95334000Y-149550000D02*
X95600000Y-149816000D01*
D44*
X135841200Y-158572200D02*
X135841200Y-159193699D01*
X132800501Y-174776000D02*
X133900501Y-174776000D01*
D43*
X202201000Y-184725000D02*
X202127000Y-184651000D01*
X148375001Y-179300500D02*
X148875001Y-178800500D01*
D44*
X144375001Y-177300500D02*
X143875001Y-176800500D01*
D43*
X132129400Y-130948000D02*
X132129400Y-131064000D01*
D44*
X142875001Y-177801500D02*
X142375501Y-178301000D01*
X137376501Y-184301000D02*
X137877001Y-183800500D01*
D43*
X95565501Y-164436000D02*
X95550501Y-164451000D01*
D44*
X140375501Y-176301000D02*
X140375501Y-176300000D01*
X150373501Y-166301000D02*
X149875001Y-165802500D01*
D43*
X139875001Y-165802500D02*
X139875001Y-165801500D01*
X92787672Y-149550000D02*
X93036829Y-149799157D01*
D44*
X92308672Y-157520992D02*
X92308672Y-157441328D01*
X131375501Y-186301000D02*
X131376501Y-186301000D01*
X90108672Y-157520992D02*
X91150000Y-157520992D01*
D43*
X93923672Y-154800000D02*
X94258672Y-154465000D01*
X89086829Y-149149157D02*
X89086829Y-148579672D01*
D44*
X127376501Y-184301000D02*
X127877001Y-183800500D01*
X137375501Y-169301000D02*
X137375501Y-169304000D01*
X142875001Y-174801500D02*
X142875501Y-174801000D01*
X94308672Y-157520992D02*
X94308672Y-157441328D01*
D47*
X184943299Y-207644800D02*
X184308800Y-207644800D01*
D44*
X145377001Y-186300500D02*
X145377001Y-186298500D01*
X143373501Y-165301000D02*
X142875001Y-164802500D01*
X147375501Y-167301000D02*
X147373500Y-167301000D01*
D43*
X138900501Y-184576000D02*
X138900501Y-183836000D01*
X75447900Y-141673900D02*
X75095100Y-142026700D01*
X202849001Y-170675000D02*
X202881001Y-170707000D01*
X197075000Y-180103000D02*
X197027000Y-180151000D01*
D44*
X138877001Y-170776000D02*
X138850501Y-170802500D01*
D45*
X94900000Y-149550000D02*
X95334000Y-149550000D01*
D43*
X142677000Y-131102500D02*
X142677000Y-130319500D01*
X202910000Y-188150000D02*
X202925000Y-188135000D01*
D46*
X105960000Y-177880984D02*
X105981344Y-177902328D01*
D44*
X141875002Y-171802500D02*
X141874001Y-171802500D01*
X93308672Y-157441328D02*
X93800000Y-156950000D01*
D43*
X197075000Y-179510000D02*
X197075000Y-180103000D01*
D44*
X140375501Y-186301000D02*
X140374502Y-186301000D01*
X120134501Y-175442000D02*
X120150501Y-175426000D01*
X156002501Y-175290000D02*
X156016501Y-175276000D01*
X149377001Y-183298500D02*
X149875001Y-182800500D01*
X131375501Y-171301000D02*
X131375501Y-171304000D01*
D43*
X101400000Y-160270751D02*
X101400000Y-159766000D01*
D44*
X141375001Y-171302500D02*
X140875001Y-170802500D01*
X149375001Y-176300500D02*
X148875001Y-176800500D01*
X142375501Y-186301000D02*
X142375501Y-186300000D01*
X95829664Y-157000000D02*
X96150000Y-157000000D01*
D43*
X89086829Y-148579672D02*
X89090501Y-148576000D01*
D44*
X145377001Y-186298500D02*
X145875001Y-185800500D01*
D45*
X86536829Y-151433157D02*
X86536829Y-151133157D01*
D44*
X144373501Y-172301000D02*
X143875001Y-171802500D01*
X118150501Y-172882000D02*
X118134501Y-172866000D01*
X153975001Y-167402500D02*
X154075001Y-167502500D01*
X129376500Y-180301000D02*
X129877000Y-179800500D01*
X139375001Y-177302500D02*
X139375001Y-177300500D01*
D43*
X196215000Y-171725000D02*
X196215000Y-170915000D01*
D44*
X130377001Y-183300500D02*
X130877001Y-182800500D01*
X141375501Y-180301000D02*
X140875001Y-179800500D01*
D43*
X101625501Y-164436000D02*
X96375501Y-164436000D01*
X149452200Y-130367000D02*
X149464600Y-130314000D01*
D44*
X126375501Y-181301000D02*
X126376501Y-181301000D01*
X138373001Y-178302500D02*
X138373001Y-178296500D01*
X134375501Y-170304000D02*
X133877001Y-170802500D01*
X147126001Y-175251500D02*
X146675501Y-174801000D01*
X131376501Y-176301000D02*
X131877001Y-175800500D01*
X78695200Y-161549000D02*
X78680200Y-161564000D01*
X140375501Y-176300000D02*
X140875001Y-175800500D01*
X78695200Y-160564000D02*
X78695200Y-159937000D01*
X145375001Y-180302500D02*
X145377001Y-180302500D01*
X141875001Y-178800500D02*
X141875001Y-178802500D01*
D45*
X94448161Y-149498161D02*
X94848161Y-149498161D01*
D44*
X142376501Y-162304000D02*
X141875001Y-161802500D01*
X141375501Y-169301000D02*
X141373501Y-169301000D01*
D43*
X202900000Y-167416000D02*
X202734000Y-167250000D01*
D44*
X138850501Y-170802500D02*
X138177001Y-170802500D01*
X97153299Y-192432801D02*
X97150098Y-192429600D01*
X92256500Y-189529600D02*
X95159701Y-192432801D01*
X91225000Y-188498100D02*
X92256500Y-189529600D01*
D46*
X104800000Y-170554499D02*
X104775501Y-170530000D01*
D44*
X91600000Y-179400000D02*
X91225000Y-179775000D01*
X85665701Y-181730800D02*
X79555899Y-181730800D01*
X95159701Y-192432801D02*
X97153299Y-192432801D01*
X97156500Y-192429600D02*
X97656500Y-191929600D01*
D46*
X104950000Y-171500000D02*
X104800000Y-171350000D01*
X104800000Y-171350000D02*
X104800000Y-170554499D01*
X103340000Y-175716000D02*
X103340000Y-174994499D01*
D44*
X91225000Y-179775000D02*
X91225000Y-188498100D01*
X89300501Y-178096000D02*
X85665701Y-181730800D01*
X97656500Y-191929600D02*
X97656500Y-191129600D01*
D46*
X103340000Y-174994499D02*
X103325501Y-174980000D01*
D44*
X95959829Y-168036328D02*
X95959829Y-168259829D01*
X96450000Y-168750000D02*
X98326501Y-168750000D01*
X95959829Y-168259829D02*
X96450000Y-168750000D01*
X104000000Y-170357499D02*
X104000000Y-174530000D01*
X104000000Y-174530000D02*
X104982344Y-175512344D01*
X101675501Y-168033000D02*
X104000000Y-170357499D01*
X99043501Y-168033000D02*
X101675501Y-168033000D01*
X104982344Y-175512344D02*
X104982344Y-177905179D01*
X98326501Y-168750000D02*
X99043501Y-168033000D01*
D43*
X141366000Y-160700000D02*
X141366000Y-162293498D01*
D44*
X140302001Y-159615000D02*
X141351000Y-159615000D01*
D43*
X141366000Y-160700000D02*
X141366000Y-159600000D01*
X141366000Y-162293498D02*
X141875002Y-162802500D01*
X141351000Y-159615000D02*
X141366000Y-159600000D01*
D44*
X77710200Y-161564000D02*
X77710200Y-160581000D01*
X74472200Y-161814000D02*
X74472200Y-163414000D01*
X74472200Y-163414000D02*
X72972200Y-164914000D01*
X77710200Y-160581000D02*
X77727200Y-160564000D01*
X72972200Y-164914000D02*
X72972200Y-171864000D01*
X75062700Y-160526487D02*
X75062700Y-161223500D01*
X72972200Y-171864000D02*
X74422200Y-173314000D01*
X74422200Y-173314000D02*
X74422200Y-175064000D01*
X75062700Y-175704500D02*
X75062700Y-176225487D01*
X75100213Y-160564000D02*
X75062700Y-160526487D01*
X77727200Y-160564000D02*
X75100213Y-160564000D01*
X75062700Y-161223500D02*
X74472200Y-161814000D01*
X74422200Y-175064000D02*
X75062700Y-175704500D01*
D51*
X146750000Y-149575000D02*
X180691834Y-149575000D01*
X140100000Y-157250000D02*
X140100000Y-156225000D01*
X140100000Y-156225000D02*
X146750000Y-149575000D01*
X180691834Y-149575000D02*
X180709000Y-149557834D01*
D44*
X140302001Y-157250000D02*
X140302001Y-158615000D01*
X173584501Y-196076000D02*
X173284501Y-196376000D01*
D43*
X200503400Y-155364101D02*
X199641899Y-154502600D01*
D44*
X173900501Y-196076000D02*
X173584501Y-196076000D01*
D43*
X200503400Y-157922600D02*
X200503400Y-155364101D01*
X202043501Y-185925000D02*
X202028001Y-185940500D01*
X202950000Y-185834000D02*
X202859000Y-185925000D01*
X202859000Y-185925000D02*
X202043501Y-185925000D01*
X202115501Y-168525000D02*
X202068501Y-168572000D01*
X202759000Y-168525000D02*
X202115501Y-168525000D01*
X202900000Y-168384000D02*
X202759000Y-168525000D01*
D44*
X109186200Y-183447200D02*
X109186200Y-180964800D01*
D43*
X184908299Y-208679800D02*
X182143800Y-208679800D01*
X143655200Y-199978799D02*
X143655200Y-199177714D01*
X185826400Y-194233800D02*
X184988200Y-193395600D01*
X184025000Y-203225600D02*
X184025000Y-202450600D01*
D44*
X196107537Y-153136600D02*
X188639937Y-145669000D01*
D43*
X182143800Y-206679800D02*
X182143800Y-208679800D01*
X143655200Y-199177714D02*
X143666957Y-199165957D01*
X144708700Y-199975301D02*
X144708700Y-198538386D01*
D47*
X184958299Y-208629800D02*
X184943299Y-208614800D01*
D44*
X206203400Y-155122600D02*
X204217400Y-153136600D01*
D43*
X185826400Y-197434200D02*
X185826400Y-194233800D01*
X183725000Y-203525600D02*
X184025000Y-203225600D01*
D44*
X144705202Y-199978799D02*
X144708700Y-199975301D01*
D43*
X186156600Y-197764400D02*
X185826400Y-197434200D01*
D44*
X137972800Y-145669000D02*
X109186200Y-174455600D01*
D43*
X160840499Y-200390800D02*
X160200000Y-200390800D01*
D44*
X204217400Y-153136600D02*
X196107537Y-153136600D01*
X188639937Y-145669000D02*
X137972800Y-145669000D01*
X106019600Y-186613800D02*
X109186200Y-183447200D01*
D43*
X184000000Y-202475600D02*
X184025000Y-202450600D01*
D47*
X184943299Y-208614800D02*
X184308800Y-208614800D01*
X160849499Y-200399800D02*
X160840499Y-200390800D01*
D43*
X184958299Y-208629800D02*
X184908299Y-208679800D01*
D44*
X109186200Y-174455600D02*
X109186200Y-180964800D01*
X101070994Y-184301326D02*
X103383468Y-186613800D01*
X103383468Y-186613800D02*
X106019600Y-186613800D01*
D43*
X182727600Y-206679800D02*
X182168800Y-206679800D01*
X183259000Y-202475600D02*
X184000000Y-202475600D01*
X183285000Y-203525600D02*
X183725000Y-203525600D01*
D44*
X143655200Y-199978799D02*
X144705202Y-199978799D01*
D43*
X144708700Y-198538386D02*
X144703114Y-198532800D01*
D44*
X109186200Y-180964800D02*
X107901000Y-182250000D01*
D43*
X125200000Y-185800000D02*
X124200000Y-184800000D01*
X125877001Y-186800500D02*
X125600500Y-186800500D01*
X125200000Y-186400000D02*
X125200000Y-185800000D01*
X125600500Y-186800500D02*
X125200000Y-186400000D01*
X76373900Y-142844299D02*
X76338259Y-142844299D01*
X185084299Y-206629800D02*
X184392800Y-206629800D01*
X185184299Y-206729800D02*
X185084299Y-206629800D01*
D52*
X175768000Y-195199000D02*
X175768000Y-194243499D01*
X173100501Y-191576000D02*
X166700501Y-191576000D01*
X175768000Y-194243499D02*
X173100501Y-191576000D01*
D50*
X132765800Y-188747400D02*
X132283200Y-188264800D01*
X131927600Y-185293000D02*
X131384000Y-185293000D01*
X132283200Y-188264800D02*
X132283200Y-185648600D01*
X132283200Y-185648600D02*
X131927600Y-185293000D01*
X131384000Y-185293000D02*
X130877000Y-185800000D01*
X140318499Y-189702835D02*
X139363064Y-188747400D01*
X139363064Y-188747400D02*
X132765800Y-188747400D01*
D43*
X94100000Y-151550000D02*
X95300000Y-151550000D01*
X93036829Y-150767157D02*
X93036829Y-151513171D01*
X93974829Y-152558157D02*
X94050000Y-152482986D01*
X95600000Y-151250000D02*
X95600000Y-150784000D01*
X91500000Y-150767157D02*
X91500000Y-151250000D01*
X94050000Y-151550000D02*
X93900000Y-151550000D01*
X93900000Y-151550000D02*
X94100000Y-151550000D01*
X94050000Y-152482986D02*
X94050000Y-151550000D01*
D45*
X93021829Y-150768157D02*
X92712523Y-150458851D01*
D43*
X93036829Y-151513171D02*
X93000000Y-151550000D01*
D45*
X92712523Y-150458851D02*
X92300501Y-150458851D01*
D43*
X94061829Y-151511829D02*
X94100000Y-151550000D01*
D45*
X94371135Y-150458851D02*
X94061829Y-150768157D01*
D43*
X93000000Y-151550000D02*
X93900000Y-151550000D01*
X91500000Y-151250000D02*
X91800000Y-151550000D01*
X94061829Y-150767157D02*
X94061829Y-151511829D01*
D45*
X94800501Y-150458851D02*
X94371135Y-150458851D01*
D43*
X91800000Y-151550000D02*
X93000000Y-151550000D01*
X95300000Y-151550000D02*
X95600000Y-151250000D01*
D45*
X96300501Y-150458851D02*
X96649807Y-150808157D01*
X96649807Y-150808157D02*
X97401829Y-150808157D01*
X89086829Y-150118157D02*
X90086829Y-150118157D01*
X90800501Y-150458851D02*
X90427523Y-150458851D01*
X97500501Y-150709485D02*
X97500501Y-149558851D01*
X91366829Y-148838157D02*
X90086829Y-150118157D01*
X97500501Y-149558851D02*
X96779807Y-148838157D01*
X97401829Y-150808157D02*
X97500501Y-150709485D01*
X96779807Y-148838157D02*
X91366829Y-148838157D01*
X90427523Y-150458851D02*
X90086829Y-150118157D01*
D46*
X158750000Y-201370800D02*
X158750000Y-201752200D01*
X158750000Y-201752200D02*
X158208400Y-202293800D01*
X158208400Y-202293800D02*
X156591000Y-202293800D01*
X157400000Y-200390800D02*
X157400000Y-200375800D01*
X159475000Y-202010800D02*
X158514400Y-202971400D01*
X157365000Y-200425800D02*
X157400000Y-200390800D01*
X156600000Y-200425800D02*
X157365000Y-200425800D01*
X159475000Y-201100800D02*
X159475000Y-202010800D01*
X158750000Y-200375800D02*
X159475000Y-201100800D01*
X150148800Y-201710800D02*
X146705200Y-201710800D01*
X158514400Y-202971400D02*
X151409400Y-202971400D01*
X157400000Y-200375800D02*
X158750000Y-200375800D01*
X151409400Y-202971400D02*
X150148800Y-201710800D01*
D44*
X146877000Y-179800501D02*
X147377001Y-179300500D01*
X146873001Y-183800500D02*
X146375001Y-184298500D01*
X146375001Y-181300500D02*
X146875001Y-181800500D01*
X147379001Y-178302500D02*
X147377001Y-178302500D01*
X146875001Y-179800501D02*
X146877000Y-179800501D01*
X146875001Y-185800500D02*
X146375501Y-185301000D01*
X147377001Y-178302500D02*
X146875001Y-177800500D01*
X146875001Y-183800500D02*
X146873001Y-183800500D01*
D43*
X141950001Y-174326500D02*
X141475501Y-174801000D01*
D44*
X145475501Y-174851000D02*
X145900001Y-175275500D01*
X140275501Y-174801000D02*
X141475501Y-174801000D01*
D43*
X141373501Y-175603000D02*
X141475501Y-175501000D01*
D44*
X141375501Y-178301000D02*
X141375501Y-178300000D01*
X141373501Y-176302000D02*
X140875001Y-176800500D01*
X145475501Y-174801000D02*
X145475501Y-174851000D01*
D43*
X142351001Y-174326500D02*
X142875001Y-173802500D01*
X142351001Y-174326500D02*
X141950001Y-174326500D01*
D44*
X144377501Y-173301000D02*
X144377501Y-173305001D01*
X142375501Y-177303000D02*
X142375501Y-177300000D01*
X142375501Y-173303000D02*
X142875001Y-173802500D01*
D43*
X141475501Y-174801000D02*
X141475501Y-175501000D01*
D44*
X146375501Y-176299999D02*
X146875001Y-175800499D01*
X142375501Y-177300000D02*
X142875001Y-176800500D01*
X145900001Y-175275500D02*
X146092464Y-175275500D01*
X142376501Y-172301000D02*
X142875001Y-171802500D01*
X145475501Y-174751000D02*
X144875000Y-174150499D01*
X143872001Y-172802500D02*
X143375501Y-173299000D01*
X141875001Y-170802500D02*
X142375001Y-171302500D01*
X145373501Y-172301000D02*
X144875001Y-171802500D01*
X142373501Y-172301000D02*
X142376501Y-172301000D01*
X146375501Y-176301000D02*
X146375501Y-176299999D01*
X146617463Y-175800499D02*
X146875001Y-175800499D01*
X144377001Y-184298500D02*
X144875001Y-183800500D01*
X141375501Y-178300000D02*
X141875001Y-177800500D01*
X143875001Y-172802500D02*
X143872001Y-172802500D01*
X144377001Y-184300500D02*
X144377001Y-184298500D01*
X146875001Y-175800499D02*
X146877000Y-175800499D01*
X142375501Y-177303000D02*
X142372501Y-177303000D01*
X146092464Y-175275500D02*
X146617463Y-175800499D01*
D43*
X141373501Y-176301000D02*
X141373501Y-175603000D01*
D44*
X142375501Y-173301000D02*
X142375501Y-173303000D01*
X144377501Y-173305001D02*
X144875000Y-173802500D01*
X142372501Y-177303000D02*
X141875001Y-177800500D01*
X145475501Y-174801000D02*
X145475501Y-174751000D01*
X141373501Y-176301000D02*
X141373501Y-176302000D01*
X146877000Y-175800499D02*
X147377501Y-176301000D01*
X144875000Y-174150499D02*
X144875000Y-173802500D01*
X90108672Y-158488992D02*
X91150000Y-158488992D01*
D43*
X91300000Y-159179001D02*
X91279001Y-159200000D01*
X93308672Y-158488992D02*
X93308672Y-159191328D01*
D44*
X91527596Y-152693726D02*
X91527596Y-152134441D01*
X92308672Y-158488992D02*
X93308672Y-158488992D01*
D43*
X93308672Y-159191328D02*
X93300000Y-159200000D01*
D44*
X91653157Y-152568165D02*
X92378157Y-152568165D01*
X91375322Y-152846000D02*
X91527596Y-152693726D01*
D43*
X91300000Y-158638992D02*
X91300000Y-159179001D01*
X91150000Y-158488992D02*
X91300000Y-158638992D01*
D44*
X91375322Y-152846000D02*
X91653157Y-152568165D01*
D43*
X102474000Y-161126000D02*
X103200000Y-160400000D01*
D45*
X83616800Y-154305000D02*
X83624949Y-154313149D01*
D44*
X131375501Y-187302000D02*
X130877001Y-187800500D01*
D43*
X113700502Y-183799999D02*
X113650501Y-183850000D01*
D44*
X142375501Y-180301000D02*
X142875001Y-180800500D01*
D43*
X102584000Y-159550000D02*
X102584000Y-159684000D01*
D48*
X154760502Y-175800501D02*
X154875001Y-175800501D01*
D44*
X142373501Y-180301000D02*
X142375501Y-180301000D01*
D43*
X160185500Y-180676001D02*
X160900501Y-180676000D01*
X107493200Y-194285800D02*
X107799200Y-193979800D01*
D44*
X144375501Y-183300000D02*
X143875001Y-183800500D01*
X123700000Y-188335000D02*
X123700000Y-188350000D01*
D43*
X96400501Y-161116000D02*
X96375501Y-161091000D01*
D44*
X140375000Y-182300500D02*
X139875001Y-181800501D01*
D46*
X105960000Y-171500000D02*
X105960000Y-171160157D01*
D44*
X140375501Y-185303000D02*
X140375501Y-185300000D01*
X140375501Y-185300000D02*
X140875001Y-184800500D01*
X131375501Y-170303000D02*
X131376500Y-170303000D01*
D45*
X69672200Y-165989000D02*
X69702701Y-165958499D01*
D44*
X145875001Y-177800500D02*
X145875001Y-177803500D01*
D43*
X114316502Y-183799999D02*
X113700502Y-183799999D01*
D46*
X105670000Y-175426000D02*
X105960000Y-175716000D01*
D44*
X131375501Y-166299000D02*
X131375501Y-166304000D01*
D43*
X102350501Y-161126000D02*
X102474000Y-161126000D01*
X99000000Y-153800000D02*
X99350000Y-154150000D01*
D44*
X115580501Y-176442000D02*
X114691501Y-176442000D01*
D43*
X106808200Y-192685800D02*
X105458200Y-192685800D01*
X138900501Y-185976000D02*
X138900501Y-186776000D01*
D44*
X125875501Y-174801000D02*
X126875501Y-174801000D01*
D46*
X105670000Y-174630000D02*
X105670000Y-175426000D01*
D43*
X102584000Y-159684000D02*
X103200000Y-160300000D01*
D44*
X126375501Y-162301000D02*
X125877001Y-161802500D01*
X130375501Y-184298500D02*
X130375501Y-184301999D01*
X145875001Y-177803500D02*
X145375501Y-178303000D01*
D43*
X106908200Y-192685800D02*
X106858200Y-192635800D01*
D44*
X117150501Y-173426000D02*
X117150501Y-172882000D01*
D48*
X83659778Y-152813149D02*
X83641000Y-152831927D01*
D44*
X127375500Y-165301000D02*
X126877001Y-164802501D01*
D43*
X97616000Y-155666000D02*
X97911825Y-155961825D01*
X107188200Y-194205800D02*
X107192200Y-194201800D01*
X103158200Y-193535800D02*
X103108200Y-193585800D01*
D45*
X99085400Y-148869400D02*
X98906127Y-149048673D01*
D44*
X107192200Y-194285800D02*
X107192200Y-194201800D01*
X144379001Y-186304501D02*
X144875000Y-186800500D01*
X126377501Y-162301000D02*
X126375501Y-162301000D01*
X128375501Y-168301000D02*
X127877001Y-167802500D01*
X126375501Y-182302000D02*
X125877001Y-182800500D01*
D43*
X103158200Y-192959301D02*
X103158200Y-193535800D01*
D44*
X131375501Y-166304000D02*
X130877001Y-166802500D01*
D43*
X106858200Y-192635800D02*
X106808200Y-192685800D01*
X103342200Y-192775301D02*
X103158200Y-192959301D01*
D44*
X127375501Y-185299000D02*
X127375501Y-185302000D01*
D43*
X160185501Y-179676000D02*
X160185501Y-181676000D01*
X125377001Y-173300500D02*
X125352001Y-173325500D01*
D44*
X134116501Y-189757999D02*
X134116501Y-189276000D01*
X140377001Y-182300500D02*
X140375000Y-182300500D01*
D43*
X123400000Y-175900000D02*
X123400000Y-175911501D01*
X105368699Y-192775301D02*
X103342200Y-192775301D01*
X98585000Y-153800000D02*
X99000000Y-153800000D01*
D45*
X69702701Y-165958499D02*
X69702701Y-165270000D01*
D43*
X97616000Y-155200000D02*
X97616000Y-155666000D01*
X102340501Y-161116000D02*
X102350501Y-161126000D01*
X101625501Y-161116000D02*
X102340501Y-161116000D01*
X147375001Y-174100500D02*
X148075501Y-174801000D01*
X95485000Y-154465000D02*
X95950000Y-154000000D01*
X135375000Y-186300000D02*
X136377501Y-186300000D01*
D44*
X144379001Y-186300500D02*
X144379001Y-186304501D01*
X114691501Y-176442000D02*
X114275501Y-176026000D01*
D43*
X107773200Y-192685800D02*
X106908200Y-192685800D01*
D44*
X144375501Y-183299000D02*
X144375501Y-183300000D01*
D43*
X95308672Y-159291328D02*
X95300000Y-159300000D01*
X110858200Y-192795800D02*
X110848200Y-192785800D01*
D44*
X131375501Y-187299000D02*
X131375501Y-187302000D01*
X69643900Y-143524800D02*
X68877900Y-143524800D01*
D43*
X95308672Y-154465000D02*
X95485000Y-154465000D01*
D44*
X131376500Y-170303000D02*
X131877000Y-169802500D01*
X120134501Y-176410000D02*
X120150501Y-176426000D01*
D43*
X123100000Y-188674500D02*
X123375500Y-188674500D01*
X115285501Y-182600000D02*
X115285501Y-182831000D01*
D44*
X146375001Y-178302500D02*
X146375001Y-178300500D01*
D43*
X147375001Y-173302500D02*
X147375001Y-174100500D01*
D44*
X142375501Y-187299000D02*
X142375501Y-187300000D01*
D45*
X97615000Y-158100000D02*
X97615000Y-156258650D01*
D43*
X122665001Y-183100000D02*
X121650001Y-183100001D01*
D44*
X127377501Y-165301000D02*
X127375500Y-165301000D01*
X147375001Y-171298500D02*
X147375001Y-171302499D01*
D52*
X181285000Y-197400000D02*
X181285000Y-196735000D01*
D44*
X94308672Y-158488992D02*
X95308672Y-158488992D01*
D43*
X101625501Y-161116000D02*
X96400501Y-161116000D01*
X105458200Y-192685800D02*
X105368699Y-192775301D01*
X125352001Y-173325500D02*
X125352001Y-174277500D01*
D45*
X69672200Y-169964000D02*
X69672200Y-170679000D01*
D44*
X128376501Y-171303000D02*
X128877001Y-170802500D01*
X134100000Y-189774500D02*
X134116501Y-189757999D01*
X129375501Y-181302000D02*
X128877001Y-181800500D01*
X148075501Y-174801000D02*
X148875501Y-174801000D01*
D52*
X181285000Y-195635000D02*
X181300000Y-195650000D01*
D46*
X105960000Y-171160157D02*
X105680000Y-170880157D01*
D44*
X131375501Y-177299000D02*
X131375501Y-177302000D01*
X130375501Y-184301999D02*
X129877000Y-184800500D01*
D48*
X84690501Y-152813149D02*
X83659778Y-152813149D01*
D43*
X115285501Y-182831000D02*
X114316502Y-183799999D01*
D44*
X130375501Y-163299000D02*
X130375501Y-163304000D01*
X129375501Y-181299000D02*
X129375501Y-181302000D01*
D43*
X123400000Y-174900000D02*
X123361501Y-174900000D01*
D44*
X130375501Y-163304000D02*
X129877001Y-163802500D01*
X146375001Y-178300500D02*
X145875001Y-177800500D01*
D43*
X123400000Y-175911501D02*
X122835501Y-176476000D01*
X110858200Y-192795800D02*
X111267600Y-192795800D01*
X122665001Y-182000001D02*
X121650001Y-182000000D01*
X107188200Y-194285800D02*
X107188200Y-194205800D01*
X95308672Y-158488992D02*
X95308672Y-159291328D01*
D44*
X116150501Y-176426000D02*
X115596501Y-176426000D01*
D43*
X107873200Y-192785800D02*
X107773200Y-192685800D01*
D44*
X137375501Y-185299000D02*
X137375501Y-185302000D01*
D43*
X103200000Y-160300000D02*
X103200000Y-160400000D01*
D45*
X83624949Y-154313149D02*
X83900501Y-154313149D01*
D44*
X126375501Y-182299000D02*
X126375501Y-182302000D01*
X128375501Y-171303000D02*
X128376501Y-171303000D01*
D43*
X111267600Y-192795800D02*
X111455200Y-192608200D01*
D44*
X131375501Y-177302000D02*
X130877001Y-177800500D01*
D43*
X107188200Y-194285800D02*
X107493200Y-194285800D01*
D44*
X117150501Y-172882000D02*
X117166501Y-172866000D01*
X137375501Y-185302000D02*
X136877001Y-185800500D01*
D43*
X136377501Y-186300000D02*
X136877001Y-185800500D01*
D45*
X83624949Y-154313149D02*
X84715501Y-154313149D01*
D43*
X110848200Y-192785800D02*
X107873200Y-192785800D01*
X123361501Y-174900000D02*
X122835501Y-175426000D01*
D44*
X128377501Y-168301000D02*
X128375501Y-168301000D01*
D43*
X125352001Y-174277500D02*
X125875501Y-174801000D01*
D44*
X115596501Y-176426000D02*
X115580501Y-176442000D01*
D48*
X154260001Y-175300000D02*
X154760502Y-175800501D01*
D45*
X98906127Y-149048673D02*
X98906127Y-149583157D01*
D43*
X123375500Y-188674500D02*
X123700000Y-188350000D01*
D44*
X130900501Y-174776000D02*
X131900501Y-174776000D01*
X127375501Y-185302000D02*
X126877001Y-185800500D01*
X147375001Y-171302499D02*
X146875000Y-171802500D01*
X142375501Y-187300000D02*
X141875001Y-187800500D01*
X119580501Y-176410000D02*
X120134501Y-176410000D01*
D52*
X181285000Y-194050000D02*
X181285000Y-195635000D01*
D45*
X97615000Y-156258650D02*
X97911825Y-155961825D01*
D43*
X93316000Y-164451500D02*
X92700000Y-164451500D01*
D44*
X157000501Y-175976000D02*
X157000501Y-175292000D01*
X182420145Y-162487000D02*
X182112608Y-162794537D01*
X169465964Y-162794537D02*
X156984501Y-175276000D01*
X185300000Y-162150000D02*
X185300000Y-162172000D01*
X157000501Y-175292000D02*
X156984501Y-175276000D01*
X184985000Y-162487000D02*
X182420145Y-162487000D01*
X156984501Y-175276000D02*
X158015501Y-175276000D01*
X185300000Y-162172000D02*
X184985000Y-162487000D01*
X182112608Y-162794537D02*
X169465964Y-162794537D01*
X138877001Y-168202500D02*
X138877001Y-167802500D01*
D43*
X143641000Y-131102500D02*
X143641000Y-131018500D01*
D44*
X145375501Y-169303000D02*
X145375501Y-169302000D01*
X138477001Y-167802500D02*
X138877001Y-168202500D01*
X138177001Y-167802500D02*
X137877002Y-167802500D01*
X134375501Y-169304000D02*
X134877001Y-168802500D01*
X152475001Y-166802500D02*
X151875001Y-166802500D01*
X142377501Y-167301000D02*
X142373500Y-167301000D01*
X144373501Y-165301000D02*
X144875001Y-165802500D01*
X147373501Y-164301000D02*
X147875001Y-164802500D01*
X142373500Y-167301000D02*
X141875001Y-166802501D01*
D43*
X143637000Y-130314300D02*
X143625200Y-130302500D01*
D44*
X146875001Y-161802500D02*
X146879001Y-161802500D01*
X137376502Y-168303000D02*
X137877002Y-167802500D01*
X136375501Y-162301000D02*
X135877001Y-161802500D01*
X136177501Y-160800000D02*
X136075001Y-160902500D01*
D43*
X143375001Y-170302500D02*
X142875001Y-169802500D01*
D44*
X150375501Y-170302000D02*
X149875001Y-170802500D01*
X136075001Y-160902500D02*
X135875001Y-161102500D01*
D43*
X150429800Y-130314000D02*
X150420200Y-130320000D01*
D44*
X136375501Y-165303000D02*
X136376501Y-165303000D01*
D43*
X133107000Y-130287800D02*
X133113400Y-130294200D01*
D44*
X140875001Y-163802500D02*
X140875001Y-163803500D01*
X133377501Y-163301000D02*
X133375501Y-163301000D01*
X138877001Y-168702500D02*
X138877001Y-168202500D01*
X143875001Y-162802500D02*
X143373501Y-162301000D01*
X140875001Y-163803500D02*
X140375501Y-164303000D01*
X135875001Y-161102500D02*
X135875001Y-161800500D01*
X145375501Y-169302000D02*
X145875001Y-168802500D01*
D43*
X150420200Y-130339200D02*
X150429800Y-130314000D01*
D44*
X136377501Y-162301000D02*
X136375501Y-162301000D01*
X136376501Y-165303000D02*
X136877001Y-164802500D01*
D43*
X133113400Y-130294200D02*
X133113400Y-131064000D01*
D44*
X137375501Y-168303000D02*
X137376502Y-168303000D01*
X137291501Y-160800000D02*
X136177501Y-160800000D01*
X138877001Y-167802500D02*
X138177001Y-167802500D01*
X151373501Y-166301000D02*
X151875001Y-166802500D01*
X142373501Y-169301000D02*
X142875001Y-169802500D01*
X133375501Y-166303000D02*
X133376501Y-166303000D01*
X138177001Y-167802500D02*
X138477001Y-167802500D01*
D43*
X143637000Y-131102500D02*
X143637000Y-130314300D01*
D44*
X133376501Y-166303000D02*
X133877001Y-165802500D01*
X135875001Y-161800500D02*
X135877001Y-161802500D01*
X150375501Y-170300500D02*
X150375501Y-170302000D01*
X151375501Y-163302000D02*
X150875001Y-163802500D01*
X146879001Y-161802500D02*
X147377501Y-162301000D01*
X133375501Y-163301000D02*
X132877001Y-162802500D01*
X151375501Y-163299000D02*
X151375501Y-163302000D01*
X152575001Y-166702500D02*
X152475001Y-166802500D01*
X148373501Y-167301000D02*
X148875001Y-167802500D01*
D43*
X150420200Y-130320000D02*
X150420200Y-131013600D01*
X150420200Y-130329600D02*
X150420200Y-130339200D01*
D44*
X137292001Y-160800500D02*
X137291501Y-160800000D01*
D50*
X157385000Y-201345800D02*
X157400000Y-201345800D01*
D46*
X145683700Y-201689300D02*
X145705200Y-201710800D01*
D43*
X156650000Y-201325800D02*
X157365000Y-201325800D01*
D50*
X157365000Y-201325800D02*
X157385000Y-201345800D01*
D43*
X196300000Y-162640999D02*
X196381001Y-162722000D01*
D47*
X196366001Y-162707000D02*
X196381001Y-162722000D01*
D43*
X196190000Y-161950000D02*
X196300000Y-162060000D01*
X196300000Y-162060000D02*
X196300000Y-162640999D01*
D47*
X197025000Y-170965999D02*
X197018501Y-170959500D01*
D43*
X197185000Y-171725000D02*
X197050000Y-171590000D01*
X197050000Y-170990999D02*
X197018501Y-170959500D01*
X197050000Y-171590000D02*
X197050000Y-170990999D01*
X197075000Y-188389999D02*
X197045501Y-188360500D01*
X197075000Y-189065000D02*
X197075000Y-188389999D01*
X197185000Y-189175000D02*
X197075000Y-189065000D01*
X196215000Y-179400000D02*
X196325000Y-179510000D01*
X196325000Y-180139999D02*
X196395501Y-180210500D01*
X196325000Y-179510000D02*
X196325000Y-180139999D01*
X78372700Y-166472487D02*
X76789097Y-166472487D01*
D45*
X76789097Y-166472487D02*
X76779097Y-166462487D01*
X80962700Y-167792487D02*
X80912700Y-167742487D01*
D43*
X82729097Y-167792487D02*
X80962700Y-167792487D01*
X202815000Y-182025000D02*
X202031001Y-182025000D01*
X202031001Y-182025000D02*
X202020501Y-182035500D01*
X202925000Y-181915000D02*
X202815000Y-182025000D01*
X202715000Y-164525000D02*
X202103001Y-164525000D01*
X202875000Y-164365000D02*
X202715000Y-164525000D01*
X202103001Y-164525000D02*
X202043501Y-164584500D01*
D47*
X202131001Y-169472000D02*
X202384001Y-169725000D01*
X202869001Y-169725000D02*
X202881001Y-169737000D01*
X202384001Y-169725000D02*
X202869001Y-169725000D01*
X202020501Y-186585500D02*
X202345500Y-186585500D01*
X202345500Y-186585500D02*
X202925000Y-187165000D01*
D43*
X181173800Y-208679800D02*
X180482299Y-208679800D01*
X180482299Y-208679800D02*
X180458299Y-208703800D01*
X181173800Y-207679800D02*
X180458299Y-207679800D01*
X181173800Y-206679800D02*
X180482299Y-206679800D01*
X180482299Y-206679800D02*
X180458299Y-206703800D01*
D44*
X148376001Y-177301500D02*
X147875001Y-176800500D01*
X149875001Y-176800500D02*
X150373001Y-176302500D01*
D43*
X149875001Y-186800500D02*
X149875001Y-186152500D01*
D44*
X149875001Y-180800500D02*
X149377001Y-180302500D01*
X149377001Y-181302500D02*
X149377001Y-181298500D01*
X149377001Y-184298500D02*
X149377001Y-184302500D01*
X149377001Y-184302500D02*
X149875001Y-184800500D01*
X148376001Y-177302500D02*
X148376001Y-177301500D01*
D43*
X149875001Y-186152500D02*
X149877001Y-186150500D01*
D44*
X151375001Y-177300500D02*
X150875001Y-177800500D01*
X149377001Y-181298500D02*
X149875001Y-180800500D01*
X151377001Y-177300500D02*
X151375001Y-177300500D01*
X137879001Y-173802500D02*
X138379001Y-173302500D01*
D43*
X92786200Y-185777324D02*
X92786200Y-169913317D01*
D44*
X139375001Y-178304500D02*
X139375001Y-178300499D01*
D43*
X136377001Y-173302500D02*
X136377001Y-174127500D01*
X78155800Y-143951399D02*
X80692900Y-141414299D01*
X92786200Y-169913317D02*
X90970083Y-168097200D01*
X78155800Y-157327600D02*
X78155800Y-143951399D01*
X120903000Y-188153000D02*
X95161876Y-188153000D01*
D44*
X144375001Y-178300500D02*
X144875001Y-178800500D01*
D43*
X95161876Y-188153000D02*
X92786200Y-185777324D01*
D44*
X136877001Y-177800500D02*
X136877001Y-177804500D01*
D43*
X90970083Y-168097200D02*
X88925400Y-168097200D01*
D44*
X143875002Y-177800500D02*
X143873001Y-177800500D01*
X139375001Y-176300500D02*
X139875001Y-175800500D01*
X137050501Y-174629000D02*
X137877001Y-173802500D01*
X139398501Y-172326000D02*
X139875001Y-172802500D01*
X136877001Y-170802500D02*
X136877001Y-170804501D01*
X137877001Y-176800500D02*
X137877001Y-176806500D01*
X140375001Y-172302500D02*
X140875001Y-171802500D01*
X137877001Y-173802500D02*
X137879001Y-173802500D01*
X136877001Y-170804501D02*
X136379002Y-171302500D01*
X143875002Y-177800500D02*
X144375001Y-178300500D01*
X139375001Y-176304500D02*
X139375001Y-176300500D01*
X136877001Y-175800500D02*
X136877001Y-174974500D01*
X137877002Y-171802500D02*
X137875001Y-171802500D01*
X143875001Y-179800500D02*
X144377001Y-180302500D01*
X140375001Y-172304500D02*
X140375001Y-172302500D01*
X140373001Y-171302500D02*
X140373001Y-171300500D01*
X143873001Y-177800500D02*
X143375001Y-177302500D01*
X136877001Y-172802500D02*
X136377001Y-173302500D01*
D43*
X88925400Y-168097200D02*
X78155800Y-157327600D01*
D44*
X137375001Y-179302500D02*
X137877001Y-178800500D01*
X140373001Y-171300500D02*
X139875001Y-170802500D01*
D43*
X122900000Y-190150000D02*
X120903000Y-188153000D01*
D44*
X145373001Y-176302500D02*
X144875001Y-176800500D01*
X139375001Y-178300499D02*
X139875000Y-177800500D01*
X137877001Y-176806500D02*
X138373001Y-177302500D01*
X137875001Y-171802500D02*
X137375001Y-172302500D01*
X136877001Y-174974500D02*
X137050501Y-174801000D01*
X139398501Y-172276000D02*
X139398501Y-172326000D01*
X142373001Y-179302500D02*
X142875001Y-178800500D01*
D43*
X136377001Y-174127500D02*
X137050501Y-174801000D01*
D44*
X136877001Y-177804500D02*
X137375001Y-178302500D01*
X143875001Y-175800500D02*
X143373001Y-176302500D01*
X137377001Y-176302500D02*
X137377001Y-176300500D01*
X137050501Y-174801000D02*
X137050501Y-174629000D01*
X140375501Y-178301000D02*
X140875001Y-178800500D01*
X137377001Y-176300500D02*
X136877001Y-175800500D01*
X137375001Y-179304500D02*
X137375001Y-179302500D01*
D50*
X128877002Y-184800500D02*
X129289200Y-185212698D01*
X95551700Y-195910200D02*
X88014500Y-188373000D01*
X128041400Y-192760600D02*
X114731800Y-192760600D01*
X114731800Y-192760600D02*
X111582200Y-195910200D01*
X129289200Y-185212698D02*
X129289200Y-191512800D01*
X111582200Y-195910200D02*
X95551700Y-195910200D01*
X129289200Y-191512800D02*
X128041400Y-192760600D01*
X131368800Y-184988200D02*
X131064000Y-185293000D01*
X130403600Y-185547000D02*
X130403600Y-191592200D01*
X93726000Y-196773800D02*
X90725200Y-193773000D01*
X130403600Y-191592200D02*
X128473200Y-193522600D01*
X130877001Y-183800500D02*
X130917700Y-183800500D01*
X111836200Y-196773800D02*
X93726000Y-196773800D01*
X130917700Y-183800500D02*
X131368800Y-184251600D01*
X130657600Y-185293000D02*
X130403600Y-185547000D01*
X131368800Y-184251600D02*
X131368800Y-184988200D01*
X131064000Y-185293000D02*
X130657600Y-185293000D01*
X90725200Y-193773000D02*
X88014500Y-193773000D01*
X115087400Y-193522600D02*
X111836200Y-196773800D01*
X128473200Y-193522600D02*
X115087400Y-193522600D01*
X128244600Y-193167000D02*
X114985800Y-193167000D01*
X129877001Y-183800500D02*
X129877001Y-184020170D01*
X111760000Y-196392800D02*
X94259400Y-196392800D01*
X114985800Y-193167000D02*
X111760000Y-196392800D01*
X129489200Y-191922400D02*
X128244600Y-193167000D01*
X129489200Y-184407971D02*
X129489200Y-191922400D01*
X129877001Y-184020170D02*
X129489200Y-184407971D01*
X88939600Y-191073000D02*
X88014500Y-191073000D01*
X94259400Y-196392800D02*
X88939600Y-191073000D01*
X127787400Y-194792600D02*
X123215400Y-199364600D01*
X176707800Y-179120800D02*
X173863000Y-179120800D01*
X92049600Y-199364600D02*
X91051564Y-200362636D01*
X91051564Y-200362636D02*
X91051564Y-200875321D01*
X123215400Y-199364600D02*
X92049600Y-199364600D01*
X173863000Y-179120800D02*
X158191200Y-194792600D01*
X158191200Y-194792600D02*
X127787400Y-194792600D01*
X132502001Y-188051801D02*
X132502001Y-182717801D01*
X140868400Y-190246000D02*
X140868400Y-189722405D01*
X132080000Y-182295800D02*
X129409200Y-182295800D01*
X139613995Y-188468000D02*
X132918200Y-188468000D01*
X132502001Y-182717801D02*
X132080000Y-182295800D01*
X140868400Y-189722405D02*
X139613995Y-188468000D01*
X129409200Y-182295800D02*
X128905000Y-182800000D01*
X132918200Y-188468000D02*
X132502001Y-188051801D01*
D43*
X75477900Y-143524800D02*
X75477900Y-143369500D01*
X75437900Y-143484800D02*
X75477900Y-143524800D01*
X75477900Y-143369500D02*
X75095100Y-142986700D01*
D46*
X152800000Y-173450000D02*
X153250000Y-173900000D01*
X154550000Y-173900000D02*
X155350000Y-174700000D01*
X153250000Y-173900000D02*
X154550000Y-173900000D01*
X155350000Y-176450000D02*
X155000000Y-176800000D01*
X152800000Y-172806222D02*
X152800000Y-173450000D01*
X155350000Y-174700000D02*
X155350000Y-176450000D01*
X174525000Y-182375000D02*
X179100000Y-182375000D01*
X166200000Y-190700000D02*
X174525000Y-182375000D01*
X170226483Y-195472747D02*
X168872747Y-195472747D01*
X166200000Y-192800000D02*
X166200000Y-190700000D01*
X168872747Y-195472747D02*
X166200000Y-192800000D01*
X181195606Y-164345994D02*
X181195606Y-182592606D01*
X181203600Y-164338000D02*
X181195606Y-164345994D01*
X181195606Y-182592606D02*
X181279800Y-182676800D01*
X179654200Y-166832613D02*
X180187600Y-166299213D01*
X180187600Y-166299213D02*
X180187600Y-165785800D01*
X179654200Y-183769000D02*
X179654200Y-166832613D01*
D43*
X77089000Y-127355600D02*
X77089000Y-130198400D01*
X80467200Y-127355600D02*
X80467200Y-130223800D01*
X69692701Y-164265000D02*
X69692701Y-163473488D01*
X69692701Y-163473488D02*
X67954700Y-161735487D01*
X68703701Y-171649000D02*
X68005701Y-172347000D01*
X68005701Y-172347000D02*
X68005701Y-172476487D01*
X69672200Y-171649000D02*
X68703701Y-171649000D01*
D44*
X159001501Y-175292000D02*
X158985501Y-175276000D01*
X159001501Y-175976000D02*
X159001501Y-175292000D01*
D43*
X110858200Y-191800800D02*
X110908200Y-191750800D01*
X110908200Y-191750800D02*
X110908200Y-191035800D01*
X114315501Y-182600000D02*
X113670501Y-182600000D01*
X113670501Y-182600000D02*
X113650501Y-182580000D01*
X123635001Y-181265499D02*
X123649500Y-181251001D01*
X123635001Y-182000000D02*
X123635001Y-181265499D01*
X181275000Y-203525600D02*
X182315000Y-203525600D01*
X180712500Y-202963100D02*
X181275000Y-203525600D01*
D44*
X147377001Y-177302500D02*
X146875001Y-176800500D01*
D43*
X110058200Y-191600800D02*
X110058200Y-190935800D01*
X109858200Y-191800800D02*
X110058200Y-191600800D01*
X110058200Y-190935800D02*
X110158200Y-190835800D01*
X108658200Y-190835800D02*
X108608200Y-190785800D01*
X108858200Y-191800800D02*
X108658200Y-191600800D01*
X108658200Y-191600800D02*
X108658200Y-190835800D01*
X107958200Y-190935800D02*
X107908200Y-190885800D01*
X107858200Y-191800800D02*
X107958200Y-191700800D01*
X107958200Y-191700800D02*
X107958200Y-190935800D01*
X105383200Y-191790800D02*
X105458200Y-191715800D01*
X105458200Y-191085800D02*
X105708200Y-190835800D01*
X105458200Y-191715800D02*
X105458200Y-191085800D01*
D50*
X135330001Y-172349500D02*
X133330001Y-172349500D01*
X127877001Y-178800500D02*
X127424001Y-178347500D01*
X129425501Y-176026000D02*
X129425501Y-174254000D01*
X132502001Y-173177500D02*
X130502001Y-173177500D01*
X126325501Y-173250000D02*
X126376001Y-173300500D01*
X133330001Y-172349500D02*
X132877001Y-172802500D01*
X135877001Y-171802500D02*
X135330001Y-172349500D01*
X127424001Y-176347500D02*
X128860333Y-176347500D01*
X129375501Y-173301000D02*
X126376501Y-173301000D01*
X127424001Y-178347500D02*
X127424001Y-176347500D01*
X128863833Y-176351000D02*
X129100501Y-176351000D01*
X129425501Y-174254000D02*
X129877001Y-173802500D01*
X126325501Y-172251000D02*
X126325501Y-173250000D01*
X129877001Y-173802500D02*
X129375501Y-173301000D01*
X129100501Y-176351000D02*
X129425501Y-176026000D01*
X128860333Y-176347500D02*
X128863833Y-176351000D01*
X130502001Y-173177500D02*
X129877001Y-173802500D01*
X126376501Y-173301000D02*
X126376001Y-173300500D01*
X132877001Y-172802500D02*
X132502001Y-173177500D01*
X125877001Y-171802500D02*
X126325501Y-172251000D01*
X127424001Y-176347500D02*
X126877001Y-175800500D01*
D43*
X134376000Y-186301501D02*
X133877001Y-186800500D01*
D50*
X134425501Y-179176000D02*
X134425501Y-179349000D01*
D43*
X134376000Y-186300000D02*
X134376000Y-186301501D01*
D50*
X133677502Y-182323999D02*
X133375501Y-182626000D01*
X135400501Y-182323999D02*
X133677502Y-182323999D01*
X134425501Y-179349000D02*
X134877001Y-179800500D01*
X133375501Y-183302000D02*
X132877001Y-183800500D01*
X134425501Y-177349000D02*
X134425501Y-179176000D01*
X133375501Y-182626000D02*
X133375501Y-183302000D01*
X132325501Y-179651000D02*
X132325501Y-180352000D01*
X135400501Y-182323999D02*
X135877001Y-182800499D01*
X133375501Y-184299000D02*
X133375501Y-186299000D01*
X132877001Y-183800500D02*
X133375501Y-184299000D01*
X132325501Y-180352000D02*
X131877001Y-180800500D01*
X134425501Y-179176000D02*
X132800501Y-179176000D01*
X132800501Y-179176000D02*
X132325501Y-179651000D01*
X133375501Y-186299000D02*
X133877001Y-186800500D01*
X135400501Y-180324000D02*
X135400501Y-182323999D01*
X133877001Y-176800500D02*
X134425501Y-177349000D01*
X134877001Y-179800500D02*
X135400501Y-180324000D01*
D44*
X138262001Y-160800500D02*
X138412501Y-160650000D01*
X140035000Y-160650000D02*
X140100000Y-160585000D01*
X138412501Y-160650000D02*
X140035000Y-160650000D01*
X138262001Y-159575500D02*
X138262001Y-160800500D01*
D43*
X104358200Y-191800800D02*
X104158200Y-191600800D01*
X104158200Y-191600800D02*
X104158200Y-190785800D01*
D44*
X201344400Y-149072600D02*
X198872901Y-149072600D01*
D43*
X198872901Y-149072600D02*
X198868901Y-149068600D01*
D45*
X85680501Y-151838149D02*
X85680501Y-152808149D01*
D43*
X85006050Y-153517600D02*
X85710501Y-152813149D01*
X86512400Y-152882600D02*
X85779952Y-152882600D01*
X78613000Y-153517600D02*
X85006050Y-153517600D01*
X85779952Y-152882600D02*
X85710501Y-152813149D01*
X85710501Y-155223149D02*
X85680501Y-155253149D01*
X78621349Y-155253149D02*
X85680501Y-155253149D01*
X78613000Y-155244800D02*
X78621349Y-155253149D01*
X89154000Y-154051000D02*
X85972650Y-154051000D01*
X85972650Y-154051000D02*
X85710501Y-154313149D01*
X85710501Y-154313149D02*
X85710501Y-155223149D01*
D47*
X124750000Y-187365000D02*
X126312502Y-187365000D01*
X124200000Y-186200000D02*
X123700000Y-186700000D01*
X126312502Y-187365000D02*
X126877002Y-186800500D01*
X124235000Y-187365000D02*
X124750000Y-187365000D01*
X123700000Y-187365000D02*
X124235000Y-187365000D01*
X123700000Y-186700000D02*
X123700000Y-187365000D01*
D43*
X121200501Y-176476000D02*
X121150501Y-176426000D01*
X121865501Y-176476000D02*
X121200501Y-176476000D01*
X121865501Y-175426000D02*
X121150501Y-175426000D01*
X123635001Y-183100001D02*
X123635001Y-183775500D01*
X123635001Y-183775500D02*
X123649500Y-183790001D01*
X113711501Y-181249999D02*
X113650501Y-181310999D01*
X114315501Y-181250000D02*
X113711501Y-181249999D01*
X159215501Y-181676000D02*
X158419501Y-181676000D01*
X158419501Y-181676000D02*
X158415501Y-181672000D01*
X158416502Y-180676001D02*
X158415501Y-180675000D01*
X159215500Y-180676001D02*
X158416502Y-180676001D01*
X158416501Y-179676000D02*
X158415501Y-179675000D01*
X159215501Y-179676000D02*
X158416501Y-179676000D01*
D46*
X153265001Y-175300000D02*
X153147400Y-175300000D01*
X153147400Y-175300000D02*
X152704800Y-175742600D01*
D44*
X146376001Y-173302500D02*
X146375001Y-173302500D01*
X146375001Y-173302500D02*
X145875001Y-173802500D01*
D43*
X77089000Y-131218400D02*
X77089000Y-131902200D01*
D46*
X130877001Y-164802500D02*
X130877001Y-164672999D01*
D43*
X80467200Y-131243800D02*
X80467200Y-131902200D01*
D46*
X103309000Y-170539500D02*
X100839000Y-170539500D01*
X100839000Y-170539500D02*
X99849000Y-169549500D01*
X105645000Y-179085000D02*
X105110000Y-178550000D01*
X98000000Y-180000000D02*
X98300000Y-179700000D01*
X99500000Y-177550000D02*
X98800000Y-178250000D01*
X98300000Y-179700000D02*
X98800000Y-179700000D01*
X98800000Y-178250000D02*
X98800000Y-179700000D01*
X103800000Y-177550000D02*
X99500000Y-177550000D01*
X98000000Y-180465000D02*
X98000000Y-180000000D01*
X104800000Y-178550000D02*
X103800000Y-177550000D01*
X105110000Y-178550000D02*
X104800000Y-178550000D01*
X98000000Y-181435000D02*
X98000000Y-182150000D01*
X99300000Y-180215000D02*
X99050000Y-180465000D01*
X103666000Y-178100000D02*
X99850000Y-178100000D01*
X104651000Y-179085000D02*
X103666000Y-178100000D01*
X99300000Y-179200000D02*
X99300000Y-180215000D01*
X99300000Y-178650000D02*
X99300000Y-179200000D01*
X99850000Y-178100000D02*
X99300000Y-178650000D01*
X98600000Y-181885000D02*
X98600000Y-182625000D01*
X99050000Y-181435000D02*
X98600000Y-181885000D01*
X103122000Y-178550000D02*
X104157000Y-179585000D01*
X99800000Y-179700000D02*
X99800000Y-178800000D01*
X99800000Y-180165000D02*
X100100000Y-180465000D01*
X100050000Y-178550000D02*
X103122000Y-178550000D01*
X99800000Y-179700000D02*
X99800000Y-180165000D01*
X99800000Y-178800000D02*
X100050000Y-178550000D01*
X100100000Y-181435000D02*
X100100000Y-181875000D01*
X99750000Y-182225000D02*
X99225000Y-182225000D01*
X100100000Y-181875000D02*
X99750000Y-182225000D01*
X100300000Y-179615000D02*
X101150000Y-180465000D01*
X100300000Y-179200000D02*
X100300000Y-179615000D01*
X101150000Y-181435000D02*
X101150000Y-181975000D01*
X101150000Y-181975000D02*
X100500000Y-182625000D01*
X100500000Y-182625000D02*
X99925000Y-182625000D01*
X101300000Y-179750000D02*
X102000000Y-179750000D01*
X102000000Y-179750000D02*
X102200000Y-179950000D01*
X102200000Y-179950000D02*
X102200000Y-180465000D01*
X102200000Y-181435000D02*
X102200000Y-182200000D01*
X102200000Y-182200000D02*
X102400000Y-182400000D01*
D43*
X103342200Y-191805301D02*
X103342200Y-191001800D01*
X103342200Y-191001800D02*
X103458200Y-190885800D01*
D46*
X178350000Y-194150000D02*
X178750000Y-194150000D01*
X178750000Y-194150000D02*
X179600000Y-193300000D01*
X179600000Y-193300000D02*
X179600000Y-192715000D01*
X179600000Y-192715000D02*
X180315000Y-192000000D01*
X180315000Y-199400000D02*
X179450000Y-199400000D01*
X179005000Y-198955000D02*
X179005000Y-198313000D01*
X179450000Y-199400000D02*
X179005000Y-198955000D01*
D43*
X99500501Y-163441000D02*
X99525501Y-163466000D01*
X99500501Y-162061000D02*
X99500501Y-163441000D01*
X98450501Y-163441000D02*
X98475501Y-163466000D01*
X98450501Y-162061000D02*
X98450501Y-163441000D01*
X97425501Y-162061000D02*
X97425501Y-163466000D01*
X96375501Y-162061000D02*
X96375501Y-163466000D01*
X101625501Y-163466000D02*
X101625501Y-162086000D01*
X100550501Y-162086000D02*
X100525501Y-162061000D01*
X100550501Y-163466000D02*
X100550501Y-162086000D01*
D48*
X96072970Y-155550000D02*
X96091829Y-155568859D01*
D43*
X94258672Y-155435000D02*
X95308672Y-155435000D01*
X95308672Y-155435000D02*
X95957970Y-155435000D01*
X95957970Y-155435000D02*
X96091829Y-155568859D01*
X98585000Y-158810499D02*
X98635501Y-158861000D01*
X98585000Y-158100000D02*
X98585000Y-158810499D01*
D45*
X98100501Y-154400501D02*
X98100501Y-154523149D01*
X97585000Y-153885000D02*
X98100501Y-154400501D01*
X97585000Y-153850000D02*
X97585000Y-153885000D01*
D46*
X180315000Y-191000000D02*
X179900000Y-191000000D01*
X179000000Y-191900000D02*
X179000000Y-193100000D01*
X179900000Y-191000000D02*
X179000000Y-191900000D01*
X179950000Y-200400000D02*
X178600000Y-199050000D01*
X178600000Y-199050000D02*
X178600000Y-197719001D01*
X180315000Y-200400000D02*
X179950000Y-200400000D01*
X178600000Y-197719001D02*
X179005000Y-197314001D01*
D43*
X143375001Y-171302500D02*
X143875001Y-170802500D01*
X141375001Y-170302500D02*
X140875001Y-169802500D01*
D46*
X183896000Y-201472800D02*
X184988200Y-200380600D01*
X144708700Y-200995301D02*
X146603699Y-200995301D01*
X184988200Y-200380600D02*
X184988200Y-198932800D01*
X182829200Y-201472800D02*
X183896000Y-201472800D01*
X147878800Y-199720200D02*
X166700200Y-199720200D01*
X147574000Y-200025000D02*
X147878800Y-199720200D01*
D44*
X144708700Y-200995301D02*
X144708700Y-201702501D01*
D46*
X166700200Y-199720200D02*
X168452800Y-201472800D01*
X184988200Y-198932800D02*
X184353200Y-198297800D01*
X168452800Y-201472800D02*
X182829200Y-201472800D01*
X146603699Y-200995301D02*
X147574000Y-200025000D01*
X183606800Y-201000000D02*
X168691200Y-201000000D01*
X147574000Y-199263000D02*
X146329400Y-200507600D01*
X168691200Y-201000000D02*
X166954200Y-199263000D01*
X146329400Y-200507600D02*
X144146399Y-200507600D01*
D44*
X143655200Y-201689201D02*
X143641900Y-201702501D01*
D46*
X144146399Y-200507600D02*
X143655200Y-200998799D01*
X184353200Y-198907400D02*
X184353200Y-200253600D01*
D44*
X143655200Y-200998799D02*
X143655200Y-201689201D01*
D46*
X166954200Y-199263000D02*
X147574000Y-199263000D01*
X184353200Y-200253600D02*
X183606800Y-201000000D01*
D52*
X179917000Y-197400000D02*
X179505000Y-197812000D01*
D46*
X180315000Y-198400000D02*
X180315000Y-197400000D01*
D52*
X180315000Y-197400000D02*
X179917000Y-197400000D01*
X180315000Y-194050000D02*
X179517000Y-194050000D01*
X179517000Y-194050000D02*
X179505000Y-194062000D01*
D46*
X180315000Y-193000000D02*
X180315000Y-194050000D01*
X174447200Y-193916093D02*
X174447200Y-195072000D01*
X198323200Y-180162200D02*
X198323200Y-173202600D01*
X198323200Y-180594000D02*
X198323200Y-180162200D01*
X184353200Y-197747797D02*
X184368883Y-197747797D01*
X200050400Y-171475400D02*
X200126600Y-171399200D01*
X182922003Y-196316600D02*
X184353200Y-197747797D01*
X200126600Y-165938200D02*
X200126600Y-164490400D01*
X186283600Y-198323200D02*
X186367486Y-198323200D01*
X196799200Y-182118000D02*
X198323200Y-180594000D01*
X181310000Y-200400000D02*
X181310000Y-198400000D01*
X184368883Y-197747797D02*
X184944286Y-198323200D01*
X175691800Y-196316600D02*
X182922003Y-196316600D01*
X170480600Y-193476000D02*
X174007107Y-193476000D01*
X184944286Y-198323200D02*
X186283600Y-198323200D01*
X174007107Y-193476000D02*
X174447200Y-193916093D01*
X195745000Y-188945686D02*
X195745000Y-183172200D01*
X181962203Y-197747797D02*
X184353200Y-197747797D01*
X200126600Y-171399200D02*
X200126600Y-165938200D01*
X186367486Y-198323200D02*
X195745000Y-188945686D01*
X170230800Y-193725800D02*
X170480600Y-193476000D01*
X181310000Y-198400000D02*
X181962203Y-197747797D01*
X200126600Y-164490400D02*
X198348600Y-162712400D01*
X174447200Y-195072000D02*
X175691800Y-196316600D01*
X198323200Y-173202600D02*
X200050400Y-171475400D01*
X195745000Y-183172200D02*
X196799200Y-182118000D01*
X193555600Y-184625000D02*
X197688200Y-180492400D01*
X183144800Y-193000000D02*
X184200800Y-194056000D01*
X184200800Y-192535114D02*
X192110914Y-184625000D01*
X181310000Y-193000000D02*
X183144800Y-193000000D01*
X174193200Y-193141600D02*
X174879000Y-193827400D01*
X184200800Y-194056000D02*
X184200800Y-192535114D01*
X174879000Y-194875686D02*
X176065914Y-196062600D01*
X176065914Y-196062600D02*
X182194200Y-196062600D01*
X174879000Y-193827400D02*
X174879000Y-194875686D01*
X182194200Y-196062600D02*
X184200800Y-194056000D01*
X192110914Y-184625000D02*
X193555600Y-184625000D01*
X197688200Y-180492400D02*
X197688200Y-180162200D01*
X181310000Y-191000000D02*
X181310000Y-193000000D01*
X170154600Y-193141600D02*
X174193200Y-193141600D01*
D43*
X96800000Y-178050000D02*
X96800000Y-179199000D01*
X96800000Y-179199000D02*
X96801000Y-179200000D01*
D46*
X93700000Y-176650000D02*
X94400000Y-177350000D01*
X94400000Y-177350000D02*
X94400000Y-179150000D01*
X93900000Y-178000000D02*
X93900000Y-179550000D01*
X93350000Y-177450000D02*
X93900000Y-178000000D01*
G04 #@! TA.AperFunction,Conductor*
G36*
X179602097Y-152620450D02*
G01*
X179794961Y-152680961D01*
X179971697Y-152779057D01*
X180125068Y-152910722D01*
X180248796Y-153070565D01*
X180337814Y-153252042D01*
X180388480Y-153447724D01*
X180400000Y-153599000D01*
X180400000Y-155062235D01*
X180379550Y-155263332D01*
X180374953Y-155284534D01*
X180338988Y-155442107D01*
X180332701Y-155526004D01*
X180319662Y-155700000D01*
X180338988Y-155957896D01*
X180374953Y-156115464D01*
X180399764Y-156316070D01*
X180400000Y-156337764D01*
X180400000Y-158086200D01*
X180379550Y-158287297D01*
X180319039Y-158480161D01*
X180220943Y-158656897D01*
X180107400Y-158792600D01*
X178098563Y-160801437D01*
X177941905Y-160929174D01*
X177762742Y-161022761D01*
X177568406Y-161078368D01*
X177392163Y-161094037D01*
X169630680Y-161094037D01*
X169573300Y-161092388D01*
X169563923Y-161091848D01*
X169563922Y-161091848D01*
X169563920Y-161091848D01*
X169459224Y-161093854D01*
X169440090Y-161094037D01*
X169400787Y-161094037D01*
X169400779Y-161094037D01*
X169381673Y-161094770D01*
X169381666Y-161094597D01*
X169355851Y-161095833D01*
X169302866Y-161096849D01*
X169302864Y-161096849D01*
X169301671Y-161097057D01*
X169206818Y-161108929D01*
X169205620Y-161109020D01*
X169205610Y-161109022D01*
X169154013Y-161121096D01*
X169097805Y-161132557D01*
X169045616Y-161141645D01*
X169044494Y-161142025D01*
X168952548Y-161168242D01*
X168951380Y-161168515D01*
X168951368Y-161168518D01*
X168902234Y-161188321D01*
X168848432Y-161208228D01*
X168798236Y-161225178D01*
X168798229Y-161225181D01*
X168797158Y-161225738D01*
X168710317Y-161265671D01*
X168709205Y-161266118D01*
X168709194Y-161266124D01*
X168663644Y-161293203D01*
X168613520Y-161321085D01*
X168566502Y-161345498D01*
X168566492Y-161345505D01*
X168565513Y-161346222D01*
X168485797Y-161398935D01*
X168484761Y-161399550D01*
X168443885Y-161433260D01*
X168398596Y-161468473D01*
X168355853Y-161499779D01*
X168355834Y-161499795D01*
X168354986Y-161500644D01*
X168284248Y-161564913D01*
X168283312Y-161565684D01*
X168248071Y-161605227D01*
X168208677Y-161646952D01*
X159848230Y-170007400D01*
X159691572Y-170135137D01*
X159512409Y-170228724D01*
X159318073Y-170284331D01*
X159141830Y-170300000D01*
X159000000Y-170300000D01*
X158999999Y-170300000D01*
X158999998Y-170300001D01*
X157492599Y-171807400D01*
X157335942Y-171935137D01*
X157156778Y-172028724D01*
X156962443Y-172084331D01*
X156786200Y-172100000D01*
X154924897Y-172100000D01*
X154723800Y-172079550D01*
X154530936Y-172019039D01*
X154354200Y-171920943D01*
X154200829Y-171789278D01*
X154143845Y-171723863D01*
X154068433Y-171629299D01*
X154068431Y-171629297D01*
X154068428Y-171629293D01*
X153878848Y-171453389D01*
X153873367Y-171449652D01*
X153836235Y-171424335D01*
X153681602Y-171294155D01*
X153556339Y-171135513D01*
X153465574Y-170954902D01*
X153413025Y-170759718D01*
X153400000Y-170598928D01*
X153400000Y-169699000D01*
X153420450Y-169497903D01*
X153480961Y-169305039D01*
X153579057Y-169128303D01*
X153710722Y-168974932D01*
X153870565Y-168851204D01*
X154052042Y-168762186D01*
X154247724Y-168711520D01*
X154399000Y-168700000D01*
X154499998Y-168700000D01*
X154500000Y-168700000D01*
X154500001Y-168699998D01*
X154555994Y-168676805D01*
X154692110Y-168631569D01*
X154701408Y-168629204D01*
X154952346Y-168544468D01*
X154952358Y-168544463D01*
X155187428Y-168422411D01*
X155401108Y-168265909D01*
X155588410Y-168078607D01*
X155744912Y-167864927D01*
X155866964Y-167629857D01*
X155866967Y-167629849D01*
X155951709Y-167378893D01*
X155997145Y-167117963D01*
X155997147Y-167117940D01*
X156000000Y-167058412D01*
X156000000Y-166346578D01*
X155999999Y-166346574D01*
X155997148Y-166287066D01*
X155997145Y-166287039D01*
X155951709Y-166026106D01*
X155866967Y-165775150D01*
X155866964Y-165775142D01*
X155744912Y-165540072D01*
X155588410Y-165326391D01*
X155563486Y-165297323D01*
X155564660Y-165296316D01*
X155464851Y-165173905D01*
X155371268Y-164994739D01*
X155315665Y-164800403D01*
X155300000Y-164624181D01*
X155300000Y-162100001D01*
X155300000Y-162100000D01*
X153400000Y-160200000D01*
X153399999Y-160200000D01*
X149599000Y-160200000D01*
X149397903Y-160179550D01*
X149205039Y-160119039D01*
X149028303Y-160020943D01*
X148874932Y-159889278D01*
X148751204Y-159729435D01*
X148662186Y-159547958D01*
X148611520Y-159352276D01*
X148600000Y-159201000D01*
X148600000Y-154813800D01*
X148620450Y-154612703D01*
X148680961Y-154419839D01*
X148779057Y-154243103D01*
X148892600Y-154107400D01*
X150107400Y-152892600D01*
X150264058Y-152764863D01*
X150443221Y-152671276D01*
X150637557Y-152615669D01*
X150813800Y-152600000D01*
X179401000Y-152600000D01*
X179602097Y-152620450D01*
G37*
G04 #@! TD.AperFunction*
G04 #@! TA.AperFunction,Conductor*
G36*
X172194260Y-164515487D02*
G01*
X172387124Y-164575998D01*
X172563860Y-164674094D01*
X172717231Y-164805759D01*
X172840959Y-164965602D01*
X172929977Y-165147079D01*
X172980643Y-165342761D01*
X172990881Y-165544636D01*
X172960272Y-165744439D01*
X172890070Y-165933991D01*
X172783148Y-166105531D01*
X172699563Y-166200437D01*
X168892600Y-170007400D01*
X168735942Y-170135137D01*
X168556779Y-170228724D01*
X168362443Y-170284331D01*
X168186200Y-170300000D01*
X166777170Y-170300000D01*
X166576073Y-170279550D01*
X166383209Y-170219039D01*
X166206473Y-170120943D01*
X166053102Y-169989278D01*
X165929374Y-169829435D01*
X165840356Y-169647958D01*
X165789690Y-169452276D01*
X165779452Y-169250401D01*
X165810061Y-169050598D01*
X165880263Y-168861046D01*
X165987185Y-168689506D01*
X166070770Y-168594600D01*
X166650417Y-168014954D01*
X169877734Y-164787637D01*
X170034392Y-164659900D01*
X170213555Y-164566313D01*
X170407891Y-164510706D01*
X170584134Y-164495037D01*
X171993163Y-164495037D01*
X172194260Y-164515487D01*
G37*
G04 #@! TD.AperFunction*
G04 #@! TA.AperFunction,Conductor*
G36*
X195487507Y-183045452D02*
G01*
X195544343Y-183087999D01*
X195569154Y-183154519D01*
X195569245Y-183171115D01*
X195567208Y-183204780D01*
X195567436Y-183206021D01*
X195569500Y-183228734D01*
X195569500Y-188399000D01*
X195549498Y-188467121D01*
X195495842Y-188513614D01*
X195443500Y-188525000D01*
X188876000Y-188525000D01*
X188807879Y-188504998D01*
X188761386Y-188451342D01*
X188750000Y-188399000D01*
X188750000Y-188286299D01*
X188770002Y-188218178D01*
X188786905Y-188197204D01*
X192146704Y-184837405D01*
X192209016Y-184803379D01*
X192235799Y-184800500D01*
X193528199Y-184800500D01*
X193550912Y-184802564D01*
X193566513Y-184805423D01*
X193599143Y-184795254D01*
X193606415Y-184793226D01*
X193639600Y-184785048D01*
X193639601Y-184785046D01*
X193639603Y-184785046D01*
X193640703Y-184784469D01*
X193642556Y-184783701D01*
X193646430Y-184781515D01*
X193648043Y-184780329D01*
X193649103Y-184779686D01*
X193649110Y-184779685D01*
X193673273Y-184755520D01*
X193678804Y-184750315D01*
X193704356Y-184727679D01*
X193704358Y-184727672D01*
X193705067Y-184726647D01*
X193719671Y-184709122D01*
X195354381Y-183074412D01*
X195416692Y-183040387D01*
X195487507Y-183045452D01*
G37*
G04 #@! TD.AperFunction*
G04 #@! TA.AperFunction,Conductor*
G36*
X202142121Y-180045002D02*
G01*
X202188614Y-180098658D01*
X202200000Y-180151000D01*
X202200000Y-181584000D01*
X202179998Y-181652121D01*
X202126342Y-181698614D01*
X202074000Y-181710000D01*
X201963105Y-181710000D01*
X201855242Y-181749259D01*
X201855240Y-181749260D01*
X201767306Y-181823045D01*
X201709912Y-181922456D01*
X201689980Y-182035500D01*
X201709912Y-182148544D01*
X201709913Y-182148547D01*
X201767303Y-182247950D01*
X201767306Y-182247954D01*
X201767307Y-182247955D01*
X201855240Y-182321740D01*
X201891195Y-182334826D01*
X201963105Y-182361000D01*
X202022875Y-182361000D01*
X202090996Y-182381002D01*
X202137489Y-182434658D01*
X202147593Y-182504932D01*
X202143872Y-182522153D01*
X202104985Y-182656000D01*
X202200000Y-182656000D01*
X202200000Y-183164000D01*
X202104985Y-183164000D01*
X202145193Y-183302397D01*
X202182453Y-183365398D01*
X202200000Y-183429538D01*
X202200000Y-184403277D01*
X202183588Y-184463270D01*
X202183718Y-184463326D01*
X202183325Y-184464232D01*
X202182456Y-184467412D01*
X202180569Y-184470601D01*
X202138327Y-184616000D01*
X202200000Y-184616000D01*
X202200000Y-185011207D01*
X202185762Y-184999260D01*
X202185760Y-184999259D01*
X202077897Y-184960000D01*
X202077895Y-184960000D01*
X201963107Y-184960000D01*
X201963105Y-184960000D01*
X201855242Y-184999259D01*
X201855240Y-184999260D01*
X201767306Y-185073045D01*
X201709912Y-185172456D01*
X201689980Y-185285500D01*
X201709912Y-185398544D01*
X201709913Y-185398547D01*
X201767303Y-185497950D01*
X201767308Y-185497956D01*
X201793131Y-185519624D01*
X201832458Y-185578734D01*
X201833584Y-185649721D01*
X201796153Y-185710049D01*
X201793134Y-185712666D01*
X201774806Y-185728045D01*
X201717412Y-185827456D01*
X201697480Y-185940500D01*
X201717412Y-186053544D01*
X201717413Y-186053547D01*
X201774803Y-186152950D01*
X201774805Y-186152952D01*
X201774807Y-186152955D01*
X201787172Y-186163331D01*
X201826499Y-186222439D01*
X201827627Y-186293427D01*
X201790196Y-186353755D01*
X201787174Y-186356374D01*
X201767306Y-186373044D01*
X201709912Y-186472456D01*
X201689980Y-186585500D01*
X201709912Y-186698544D01*
X201709913Y-186698547D01*
X201767303Y-186797950D01*
X201767306Y-186797954D01*
X201767307Y-186797955D01*
X201855240Y-186871740D01*
X201891195Y-186884826D01*
X201963105Y-186911000D01*
X202074000Y-186911000D01*
X202142121Y-186931002D01*
X202188614Y-186984658D01*
X202200000Y-187037000D01*
X202200000Y-187640459D01*
X202182454Y-187704597D01*
X202145194Y-187767600D01*
X202104985Y-187906000D01*
X202200000Y-187906000D01*
X202200000Y-188414000D01*
X202104985Y-188414000D01*
X202090215Y-188433671D01*
X202090212Y-188434842D01*
X202051658Y-188494459D01*
X201986994Y-188523768D01*
X201969417Y-188525000D01*
X198109098Y-188525000D01*
X198040977Y-188504998D01*
X197994484Y-188451342D01*
X197985012Y-188420879D01*
X197973388Y-188354955D01*
X197973387Y-188354952D01*
X197915997Y-188255549D01*
X197915992Y-188255543D01*
X197871462Y-188218178D01*
X197828061Y-188181760D01*
X197828059Y-188181759D01*
X197720196Y-188142500D01*
X197720194Y-188142500D01*
X197605406Y-188142500D01*
X197605404Y-188142500D01*
X197497541Y-188181759D01*
X197497536Y-188181762D01*
X197491725Y-188186638D01*
X197426683Y-188215099D01*
X197356578Y-188203878D01*
X197303670Y-188156536D01*
X197301631Y-188153131D01*
X197298695Y-188148045D01*
X197210762Y-188074260D01*
X197210760Y-188074259D01*
X197102897Y-188035000D01*
X197102895Y-188035000D01*
X196988107Y-188035000D01*
X196988105Y-188035000D01*
X196880242Y-188074259D01*
X196880240Y-188074260D01*
X196792306Y-188148045D01*
X196734912Y-188247456D01*
X196727085Y-188291849D01*
X196695558Y-188355461D01*
X196634644Y-188391930D01*
X196567846Y-188390966D01*
X196444000Y-188354985D01*
X196444000Y-188525000D01*
X195936000Y-188525000D01*
X195936000Y-188334460D01*
X195928381Y-188324252D01*
X195920500Y-188280389D01*
X195920500Y-183297084D01*
X195940502Y-183228963D01*
X195957400Y-183207993D01*
X196874986Y-182290406D01*
X196874989Y-182290405D01*
X196892709Y-182272685D01*
X196892710Y-182272685D01*
X198427932Y-180737461D01*
X198445441Y-180722870D01*
X198458495Y-180713861D01*
X198474377Y-180683597D01*
X198478093Y-180677010D01*
X198495768Y-180647774D01*
X198495768Y-180647768D01*
X198496141Y-180646573D01*
X198496910Y-180644716D01*
X198498096Y-180640464D01*
X198498399Y-180638475D01*
X198498698Y-180637260D01*
X198498700Y-180637257D01*
X198498700Y-180603101D01*
X198498930Y-180595493D01*
X198500991Y-180561418D01*
X198500764Y-180560179D01*
X198498700Y-180537467D01*
X198498700Y-180498603D01*
X198518702Y-180430482D01*
X198543709Y-180402081D01*
X198545154Y-180400867D01*
X198576394Y-180374655D01*
X198633788Y-180275245D01*
X198653721Y-180162200D01*
X198653721Y-180162199D01*
X198653721Y-180151176D01*
X198658022Y-180151176D01*
X198663482Y-180102299D01*
X198708260Y-180047204D01*
X198775716Y-180025063D01*
X198779690Y-180025000D01*
X202074000Y-180025000D01*
X202142121Y-180045002D01*
G37*
G04 #@! TD.AperFunction*
G04 #@! TA.AperFunction,Conductor*
G36*
X196015649Y-180045002D02*
G01*
X196062142Y-180098658D01*
X196072246Y-180168932D01*
X196071621Y-180172837D01*
X196064980Y-180210500D01*
X196064980Y-180210501D01*
X196084912Y-180323544D01*
X196084913Y-180323547D01*
X196142303Y-180422950D01*
X196142306Y-180422954D01*
X196142307Y-180422955D01*
X196230240Y-180496740D01*
X196235359Y-180498603D01*
X196338105Y-180536000D01*
X196338107Y-180536000D01*
X196452896Y-180536000D01*
X196513999Y-180513760D01*
X196560762Y-180496740D01*
X196648695Y-180422955D01*
X196679995Y-180368742D01*
X196706088Y-180323547D01*
X196706088Y-180323546D01*
X196706089Y-180323545D01*
X196711247Y-180294290D01*
X196742772Y-180230678D01*
X196803685Y-180194207D01*
X196870485Y-180195171D01*
X196955999Y-180220014D01*
X196956000Y-180220014D01*
X196956000Y-180025000D01*
X197391556Y-180025000D01*
X197377612Y-180049152D01*
X197377611Y-180049155D01*
X197357679Y-180162200D01*
X197377611Y-180275243D01*
X197431592Y-180368742D01*
X197448329Y-180437737D01*
X197425108Y-180504829D01*
X197411567Y-180520836D01*
X193519811Y-184412595D01*
X193457499Y-184446620D01*
X193430716Y-184449500D01*
X192138308Y-184449500D01*
X192115596Y-184447436D01*
X192112973Y-184446955D01*
X192099999Y-184444577D01*
X192072948Y-184453007D01*
X192067395Y-184454737D01*
X192060074Y-184456778D01*
X192026912Y-184464952D01*
X192025792Y-184465540D01*
X192023939Y-184466307D01*
X192020108Y-184468468D01*
X192018489Y-184469660D01*
X192017404Y-184470315D01*
X191993257Y-184494461D01*
X191987721Y-184499672D01*
X191962156Y-184522321D01*
X191961432Y-184523371D01*
X191946838Y-184540880D01*
X188965095Y-187522624D01*
X188902783Y-187556650D01*
X188831968Y-187551585D01*
X188775132Y-187509038D01*
X188750321Y-187442518D01*
X188750000Y-187433529D01*
X188750000Y-180151000D01*
X188770002Y-180082879D01*
X188823658Y-180036386D01*
X188876000Y-180025000D01*
X195947528Y-180025000D01*
X196015649Y-180045002D01*
G37*
G04 #@! TD.AperFunction*
G04 #@! TA.AperFunction,Conductor*
G36*
X123592097Y-148040450D02*
G01*
X123784961Y-148100961D01*
X123961697Y-148199057D01*
X124115068Y-148330722D01*
X124238796Y-148490565D01*
X124327814Y-148672042D01*
X124378480Y-148867724D01*
X124390000Y-149019000D01*
X124390000Y-156433129D01*
X124369550Y-156634226D01*
X124309039Y-156827090D01*
X124210943Y-157003826D01*
X124097400Y-157139529D01*
X110664470Y-170572458D01*
X110507812Y-170700195D01*
X110328649Y-170793782D01*
X110134313Y-170849389D01*
X109932763Y-170864737D01*
X109732248Y-170839200D01*
X109540978Y-170773822D01*
X109366785Y-170671280D01*
X109216798Y-170535772D01*
X109177019Y-170488923D01*
X109148430Y-170453074D01*
X109148428Y-170453071D01*
X108958848Y-170277167D01*
X108833600Y-170191774D01*
X108745173Y-170131485D01*
X108712073Y-170115545D01*
X108512163Y-170019274D01*
X108265036Y-169943045D01*
X108265033Y-169943044D01*
X108265028Y-169943043D01*
X108009308Y-169904500D01*
X107750692Y-169904500D01*
X107750689Y-169904500D01*
X107722856Y-169908695D01*
X107520957Y-169918444D01*
X107321229Y-169887352D01*
X107131847Y-169816691D01*
X106960567Y-169709354D01*
X106894480Y-169653172D01*
X106758850Y-169527326D01*
X106758851Y-169527326D01*
X106758848Y-169527324D01*
X106758843Y-169527321D01*
X106758836Y-169527315D01*
X106586242Y-169409642D01*
X106431607Y-169279464D01*
X106306343Y-169120822D01*
X106215577Y-168940213D01*
X106163026Y-168745029D01*
X106150000Y-168584231D01*
X106150000Y-158913797D01*
X106170450Y-158712700D01*
X106230961Y-158519836D01*
X106329057Y-158343100D01*
X106460722Y-158189729D01*
X106620565Y-158066001D01*
X106802042Y-157976983D01*
X106997724Y-157926317D01*
X107199599Y-157916079D01*
X107399402Y-157946688D01*
X107443435Y-157959172D01*
X107488764Y-157973155D01*
X107744492Y-158011700D01*
X108003108Y-158011700D01*
X108258836Y-157973155D01*
X108505963Y-157896926D01*
X108738969Y-157784717D01*
X108952648Y-157639033D01*
X109142228Y-157463129D01*
X109303472Y-157260934D01*
X109432781Y-157036966D01*
X109527264Y-156796226D01*
X109584812Y-156544093D01*
X109604138Y-156286200D01*
X109584812Y-156028307D01*
X109527264Y-155776174D01*
X109527263Y-155776171D01*
X109527261Y-155776165D01*
X109432785Y-155535445D01*
X109432781Y-155535434D01*
X109303472Y-155311466D01*
X109142228Y-155109271D01*
X108952648Y-154933367D01*
X108800086Y-154829352D01*
X108720754Y-154775264D01*
X108604020Y-154682171D01*
X108546256Y-154628574D01*
X108546244Y-154628564D01*
X108332575Y-154482887D01*
X108332573Y-154482885D01*
X108332569Y-154482883D01*
X108099563Y-154370674D01*
X107852436Y-154294445D01*
X107852433Y-154294444D01*
X107852428Y-154294443D01*
X107596708Y-154255900D01*
X107338092Y-154255900D01*
X107338090Y-154255900D01*
X107297891Y-154261959D01*
X107095992Y-154271710D01*
X106896263Y-154240619D01*
X106706882Y-154169959D01*
X106535600Y-154062623D01*
X106389431Y-153923006D01*
X106274360Y-153756823D01*
X106195095Y-153570878D01*
X106154884Y-153372784D01*
X106150000Y-153274117D01*
X106150000Y-149019000D01*
X106170450Y-148817903D01*
X106230961Y-148625039D01*
X106329057Y-148448303D01*
X106460722Y-148294932D01*
X106620565Y-148171204D01*
X106802042Y-148082186D01*
X106997724Y-148031520D01*
X107149000Y-148020000D01*
X123391000Y-148020000D01*
X123592097Y-148040450D01*
G37*
G04 #@! TD.AperFunction*
G04 #@! TA.AperFunction,Conductor*
G36*
X196007585Y-162520002D02*
G01*
X196054078Y-162573658D01*
X196064182Y-162643932D01*
X196063555Y-162647845D01*
X196054359Y-162700000D01*
X196050480Y-162722000D01*
X196070412Y-162835044D01*
X196070413Y-162835047D01*
X196127803Y-162934450D01*
X196127806Y-162934454D01*
X196127807Y-162934455D01*
X196215740Y-163008240D01*
X196251695Y-163021326D01*
X196323605Y-163047500D01*
X196323607Y-163047500D01*
X196438396Y-163047500D01*
X196479371Y-163032586D01*
X196546262Y-163008240D01*
X196634195Y-162934455D01*
X196639738Y-162924855D01*
X196691588Y-162835047D01*
X196695361Y-162824683D01*
X196697426Y-162825435D01*
X196722513Y-162774803D01*
X196783423Y-162738326D01*
X196850235Y-162739287D01*
X196955999Y-162770014D01*
X196956000Y-162770014D01*
X196956000Y-162500000D01*
X197434973Y-162500000D01*
X197377612Y-162599352D01*
X197377611Y-162599355D01*
X197357679Y-162712400D01*
X197377611Y-162825444D01*
X197377612Y-162825447D01*
X197435002Y-162924850D01*
X197435005Y-162924854D01*
X197435006Y-162924855D01*
X197522939Y-162998640D01*
X197549315Y-163008240D01*
X197630804Y-163037900D01*
X197630806Y-163037900D01*
X197745595Y-163037900D01*
X197781549Y-163024813D01*
X197853461Y-162998640D01*
X197937409Y-162928198D01*
X198002449Y-162899734D01*
X198072554Y-162910951D01*
X198099388Y-162928196D01*
X198183339Y-162998640D01*
X198209715Y-163008240D01*
X198291204Y-163037900D01*
X198373715Y-163037900D01*
X198441836Y-163057902D01*
X198462810Y-163074805D01*
X199914195Y-164526189D01*
X199948220Y-164588501D01*
X199951100Y-164615284D01*
X199951100Y-170874000D01*
X199931098Y-170942121D01*
X199877442Y-170988614D01*
X199825100Y-171000000D01*
X198100317Y-171000000D01*
X198032196Y-170979998D01*
X197985703Y-170926342D01*
X197976231Y-170895878D01*
X197973388Y-170879755D01*
X197973387Y-170879752D01*
X197915997Y-170780349D01*
X197915992Y-170780343D01*
X197876309Y-170747045D01*
X197828061Y-170706560D01*
X197828059Y-170706559D01*
X197720196Y-170667300D01*
X197720194Y-170667300D01*
X197605406Y-170667300D01*
X197605404Y-170667300D01*
X197497541Y-170706559D01*
X197497539Y-170706560D01*
X197441483Y-170753596D01*
X197376442Y-170782060D01*
X197306337Y-170770841D01*
X197279502Y-170753595D01*
X197223446Y-170706559D01*
X197183762Y-170673260D01*
X197183760Y-170673259D01*
X197075897Y-170634000D01*
X197075895Y-170634000D01*
X196961107Y-170634000D01*
X196961105Y-170634000D01*
X196853242Y-170673259D01*
X196853240Y-170673260D01*
X196765306Y-170747045D01*
X196707911Y-170846457D01*
X196704141Y-170856817D01*
X196700375Y-170855446D01*
X196678034Y-170900448D01*
X196617096Y-170936877D01*
X196550380Y-170935891D01*
X196444000Y-170904984D01*
X196444000Y-171000000D01*
X195936000Y-171000000D01*
X195936000Y-170904985D01*
X195797602Y-170945193D01*
X195734601Y-170982453D01*
X195670461Y-171000000D01*
X188876000Y-171000000D01*
X188807879Y-170979998D01*
X188761386Y-170926342D01*
X188750000Y-170874000D01*
X188750000Y-162626000D01*
X188770002Y-162557879D01*
X188823658Y-162511386D01*
X188876000Y-162500000D01*
X195939464Y-162500000D01*
X196007585Y-162520002D01*
G37*
G04 #@! TD.AperFunction*
G04 #@! TA.AperFunction,Conductor*
G36*
X202142121Y-162520002D02*
G01*
X202188614Y-162573658D01*
X202200000Y-162626000D01*
X202200000Y-164133000D01*
X202179998Y-164201121D01*
X202126342Y-164247614D01*
X202074000Y-164259000D01*
X201986105Y-164259000D01*
X201878242Y-164298259D01*
X201878240Y-164298260D01*
X201790306Y-164372045D01*
X201732912Y-164471456D01*
X201712980Y-164584500D01*
X201732912Y-164697544D01*
X201732913Y-164697547D01*
X201790303Y-164796950D01*
X201790306Y-164796954D01*
X201790307Y-164796955D01*
X201878240Y-164870740D01*
X201989098Y-164911089D01*
X202046269Y-164953183D01*
X202071607Y-165019504D01*
X202067000Y-165064643D01*
X202054985Y-165106000D01*
X202200000Y-165106000D01*
X202200000Y-165614000D01*
X202054985Y-165614000D01*
X202095194Y-165752399D01*
X202181927Y-165899056D01*
X202179088Y-165900734D01*
X202199506Y-165952722D01*
X202200000Y-165963873D01*
X202200000Y-166868730D01*
X202182454Y-166932868D01*
X202130569Y-167020601D01*
X202088327Y-167166000D01*
X202200000Y-167166000D01*
X202200000Y-167530907D01*
X202182396Y-167524500D01*
X202182394Y-167524500D01*
X202067606Y-167524500D01*
X202067604Y-167524500D01*
X201959741Y-167563759D01*
X201959739Y-167563760D01*
X201871805Y-167637545D01*
X201814411Y-167736956D01*
X201794479Y-167850000D01*
X201814411Y-167963044D01*
X201814412Y-167963047D01*
X201871802Y-168062450D01*
X201871807Y-168062456D01*
X201905555Y-168090774D01*
X201944882Y-168149884D01*
X201946008Y-168220872D01*
X201908577Y-168281199D01*
X201905555Y-168283818D01*
X201815306Y-168359545D01*
X201757912Y-168458956D01*
X201737980Y-168572000D01*
X201757912Y-168685044D01*
X201757913Y-168685047D01*
X201815303Y-168784450D01*
X201815306Y-168784454D01*
X201815307Y-168784455D01*
X201903240Y-168858240D01*
X201939195Y-168871326D01*
X202011105Y-168897500D01*
X202045567Y-168897500D01*
X202113688Y-168917502D01*
X202160181Y-168971158D01*
X202170285Y-169041432D01*
X202140791Y-169106012D01*
X202083907Y-169142569D01*
X202083966Y-169142729D01*
X202083257Y-169142986D01*
X202081065Y-169144396D01*
X202076354Y-169145499D01*
X201965742Y-169185759D01*
X201965740Y-169185760D01*
X201877806Y-169259545D01*
X201820412Y-169358956D01*
X201800480Y-169472000D01*
X201820412Y-169585044D01*
X201820413Y-169585047D01*
X201877803Y-169684450D01*
X201877806Y-169684454D01*
X201877807Y-169684455D01*
X201965740Y-169758240D01*
X202001695Y-169771326D01*
X202073605Y-169797500D01*
X202073607Y-169797500D01*
X202074000Y-169797500D01*
X202074593Y-169797674D01*
X202084461Y-169799414D01*
X202084266Y-169800514D01*
X202142121Y-169817502D01*
X202188614Y-169871158D01*
X202200000Y-169923500D01*
X202200000Y-170138062D01*
X202182454Y-170202201D01*
X202101194Y-170339603D01*
X202060986Y-170478000D01*
X202200000Y-170478000D01*
X202200000Y-170986000D01*
X202039576Y-170986000D01*
X202031377Y-170992119D01*
X201987516Y-171000000D01*
X200428100Y-171000000D01*
X200359979Y-170979998D01*
X200313486Y-170926342D01*
X200302100Y-170874000D01*
X200302100Y-164517800D01*
X200304164Y-164495086D01*
X200307023Y-164479486D01*
X200303710Y-164468857D01*
X200296855Y-164446858D01*
X200294816Y-164439541D01*
X200286648Y-164406400D01*
X200286061Y-164405281D01*
X200285291Y-164403424D01*
X200283130Y-164399591D01*
X200281937Y-164397970D01*
X200281285Y-164396892D01*
X200281285Y-164396890D01*
X200257117Y-164372722D01*
X200251915Y-164367195D01*
X200229279Y-164341644D01*
X200228236Y-164340924D01*
X200210720Y-164326325D01*
X198713161Y-162828766D01*
X198679135Y-162766454D01*
X198678171Y-162717790D01*
X198679121Y-162712402D01*
X198676934Y-162700000D01*
X198667744Y-162647878D01*
X198675613Y-162577321D01*
X198720380Y-162522217D01*
X198787832Y-162500063D01*
X198791830Y-162500000D01*
X202074000Y-162500000D01*
X202142121Y-162520002D01*
G37*
G04 #@! TD.AperFunction*
M02*
