G04 #@! TF.GenerationSoftware,KiCad,Pcbnew,7.0.11-rc3*
G04 #@! TF.CreationDate,2024-11-10T09:22:13+01:00*
G04 #@! TF.ProjectId,sodimm-ddr5-tester,736f6469-6d6d-42d6-9464-72352d746573,1.2.0*
G04 #@! TF.SameCoordinates,Original*
G04 #@! TF.FileFunction,Other,User*
%FSLAX46Y46*%
G04 Gerber Fmt 4.6, Leading zero omitted, Abs format (unit mm)*
G04 Created by KiCad (PCBNEW 7.0.11-rc3) date 2024-11-10 09:22:13*
%MOMM*%
%LPD*%
G01*
G04 APERTURE LIST*
%ADD10C,0.050000*%
G04 APERTURE END LIST*
D10*
X90230501Y-172446000D02*
X90230501Y-170626000D01*
X91150501Y-172446000D02*
X90230501Y-172446000D01*
X90230501Y-170626000D02*
X91150501Y-170626000D01*
X91150501Y-170626000D02*
X91150501Y-172446000D01*
X94812344Y-168462328D02*
X94812344Y-166642328D01*
X95732344Y-168462328D02*
X94812344Y-168462328D01*
X94812344Y-166642328D02*
X95732344Y-166642328D01*
X95732344Y-166642328D02*
X95732344Y-168462328D01*
X90348501Y-168832000D02*
X93547501Y-168832000D01*
X93547501Y-168832000D02*
X93547501Y-164919000D01*
X93547501Y-164919000D02*
X90348501Y-164919000D01*
X90348501Y-164919000D02*
X90348501Y-168832000D01*
X105845000Y-174550000D02*
X107705000Y-174550000D01*
X105845000Y-175490000D02*
X105845000Y-174550000D01*
X107705000Y-174550000D02*
X107705000Y-175490000D01*
X107705000Y-175490000D02*
X105845000Y-175490000D01*
X105845000Y-175575000D02*
X107705000Y-175575000D01*
X105845000Y-176515000D02*
X105845000Y-175575000D01*
X107705000Y-175575000D02*
X107705000Y-176515000D01*
X107705000Y-176515000D02*
X105845000Y-176515000D01*
X105850000Y-170790000D02*
X107710000Y-170790000D01*
X105850000Y-171730000D02*
X105850000Y-170790000D01*
X107710000Y-170790000D02*
X107710000Y-171730000D01*
X107710000Y-171730000D02*
X105850000Y-171730000D01*
X105850000Y-171790000D02*
X107710000Y-171790000D01*
X105850000Y-172730000D02*
X105850000Y-171790000D01*
X107710000Y-171790000D02*
X107710000Y-172730000D01*
X107710000Y-172730000D02*
X105850000Y-172730000D01*
X94970000Y-183670000D02*
X94970000Y-185530000D01*
X94030000Y-183670000D02*
X94970000Y-183670000D01*
X94970000Y-185530000D02*
X94030000Y-185530000D01*
X94030000Y-185530000D02*
X94030000Y-183670000D01*
X92770000Y-183670000D02*
X92770000Y-185530000D01*
X91830000Y-183670000D02*
X92770000Y-183670000D01*
X92770000Y-185530000D02*
X91830000Y-185530000D01*
X91830000Y-185530000D02*
X91830000Y-183670000D01*
X93892843Y-183668328D02*
X93892843Y-185528328D01*
X92952843Y-183668328D02*
X93892843Y-183668328D01*
X93892843Y-185528328D02*
X92952843Y-185528328D01*
X92952843Y-185528328D02*
X92952843Y-183668328D01*
X96070000Y-183670000D02*
X96070000Y-185530000D01*
X95130000Y-183670000D02*
X96070000Y-183670000D01*
X96070000Y-185530000D02*
X95130000Y-185530000D01*
X95130000Y-185530000D02*
X95130000Y-183670000D01*
X96812344Y-168462328D02*
X96812344Y-166642328D01*
X97732344Y-168462328D02*
X96812344Y-168462328D01*
X96812344Y-166642328D02*
X97732344Y-166642328D01*
X97732344Y-166642328D02*
X97732344Y-168462328D01*
X93599829Y-168457157D02*
X93599829Y-166637157D01*
X94519829Y-168457157D02*
X93599829Y-168457157D01*
X93599829Y-166637157D02*
X94519829Y-166637157D01*
X94519829Y-166637157D02*
X94519829Y-168457157D01*
X98360000Y-179690000D02*
X98360000Y-181510000D01*
X97440000Y-179690000D02*
X98360000Y-179690000D01*
X98360000Y-181510000D02*
X97440000Y-181510000D01*
X97440000Y-181510000D02*
X97440000Y-179690000D01*
X104557344Y-176807328D02*
X106377344Y-176807328D01*
X104557344Y-177727328D02*
X104557344Y-176807328D01*
X106377344Y-176807328D02*
X106377344Y-177727328D01*
X106377344Y-177727328D02*
X104557344Y-177727328D01*
X89910501Y-169735000D02*
X88710501Y-169735000D01*
X88710501Y-169735000D02*
X88710501Y-172335000D01*
X88710501Y-172335000D02*
X89910501Y-172335000D01*
X89910501Y-172335000D02*
X89910501Y-169735000D01*
X90122344Y-172912328D02*
X91982344Y-172912328D01*
X90122344Y-173852328D02*
X90122344Y-172912328D01*
X91982344Y-172912328D02*
X91982344Y-173852328D01*
X91982344Y-173852328D02*
X90122344Y-173852328D01*
X91150501Y-175126000D02*
X91150501Y-176946000D01*
X90230501Y-175126000D02*
X91150501Y-175126000D01*
X91150501Y-176946000D02*
X90230501Y-176946000D01*
X90230501Y-176946000D02*
X90230501Y-175126000D01*
X92149001Y-175125000D02*
X92149001Y-176945000D01*
X91229001Y-175125000D02*
X92149001Y-175125000D01*
X92149001Y-176945000D02*
X91229001Y-176945000D01*
X91229001Y-176945000D02*
X91229001Y-175125000D01*
X88710501Y-177835000D02*
X89910501Y-177835000D01*
X89910501Y-177835000D02*
X89910501Y-175235000D01*
X89910501Y-175235000D02*
X88710501Y-175235000D01*
X88710501Y-175235000D02*
X88710501Y-177835000D01*
X89983501Y-165265000D02*
X89983501Y-167085000D01*
X89063501Y-165265000D02*
X89983501Y-165265000D01*
X89983501Y-167085000D02*
X89063501Y-167085000D01*
X89063501Y-167085000D02*
X89063501Y-165265000D01*
X102760200Y-191487299D02*
X102760200Y-193347299D01*
X101820200Y-191487299D02*
X102760200Y-191487299D01*
X102760200Y-193347299D02*
X101820200Y-193347299D01*
X101820200Y-193347299D02*
X101820200Y-191487299D01*
X91229001Y-172445000D02*
X91229001Y-170625000D01*
X92149001Y-172445000D02*
X91229001Y-172445000D01*
X91229001Y-170625000D02*
X92149001Y-170625000D01*
X92149001Y-170625000D02*
X92149001Y-172445000D01*
X99387344Y-168452328D02*
X99387344Y-166632328D01*
X100307344Y-168452328D02*
X99387344Y-168452328D01*
X99387344Y-166632328D02*
X100307344Y-166632328D01*
X100307344Y-166632328D02*
X100307344Y-168452328D01*
X100467344Y-168452328D02*
X100467344Y-166632328D01*
X101387344Y-168452328D02*
X100467344Y-168452328D01*
X100467344Y-166632328D02*
X101387344Y-166632328D01*
X101387344Y-166632328D02*
X101387344Y-168452328D01*
X104558344Y-173307328D02*
X106378344Y-173307328D01*
X104558344Y-174227328D02*
X104558344Y-173307328D01*
X106378344Y-173307328D02*
X106378344Y-174227328D01*
X106378344Y-174227328D02*
X104558344Y-174227328D01*
X99990501Y-158498851D02*
X101810501Y-158498851D01*
X99990501Y-159418851D02*
X99990501Y-158498851D01*
X101810501Y-158498851D02*
X101810501Y-159418851D01*
X101810501Y-159418851D02*
X99990501Y-159418851D01*
X99990501Y-157498851D02*
X101810501Y-157498851D01*
X99990501Y-158418851D02*
X99990501Y-157498851D01*
X101810501Y-157498851D02*
X101810501Y-158418851D01*
X101810501Y-158418851D02*
X99990501Y-158418851D01*
X99940501Y-157368851D02*
X99940501Y-155548851D01*
X100860501Y-157368851D02*
X99940501Y-157368851D01*
X99940501Y-155548851D02*
X100860501Y-155548851D01*
X100860501Y-155548851D02*
X100860501Y-157368851D01*
X88960501Y-153148851D02*
X88960501Y-154968851D01*
X88040501Y-153148851D02*
X88960501Y-153148851D01*
X88960501Y-154968851D02*
X88040501Y-154968851D01*
X88040501Y-154968851D02*
X88040501Y-153148851D01*
X101040501Y-157368851D02*
X101040501Y-155548851D01*
X101960501Y-157368851D02*
X101040501Y-157368851D01*
X101040501Y-155548851D02*
X101960501Y-155548851D01*
X101960501Y-155548851D02*
X101960501Y-157368851D01*
X88040501Y-152643157D02*
X88040501Y-150823157D01*
X88960501Y-152643157D02*
X88040501Y-152643157D01*
X88040501Y-150823157D02*
X88960501Y-150823157D01*
X88960501Y-150823157D02*
X88960501Y-152643157D01*
X102140501Y-157368851D02*
X102140501Y-155548851D01*
X103060501Y-157368851D02*
X102140501Y-157368851D01*
X102140501Y-155548851D02*
X103060501Y-155548851D01*
X103060501Y-155548851D02*
X103060501Y-157368851D01*
X87860501Y-156548851D02*
X87860501Y-158368851D01*
X86940501Y-156548851D02*
X87860501Y-156548851D01*
X87860501Y-158368851D02*
X86940501Y-158368851D01*
X86940501Y-158368851D02*
X86940501Y-156548851D01*
X87860501Y-153148851D02*
X87860501Y-154968851D01*
X86940501Y-153148851D02*
X87860501Y-153148851D01*
X87860501Y-154968851D02*
X86940501Y-154968851D01*
X86940501Y-154968851D02*
X86940501Y-153148851D01*
X86940501Y-152643157D02*
X86940501Y-150823157D01*
X87860501Y-152643157D02*
X86940501Y-152643157D01*
X86940501Y-150823157D02*
X87860501Y-150823157D01*
X87860501Y-150823157D02*
X87860501Y-152643157D01*
X103710501Y-155418851D02*
X101890501Y-155418851D01*
X103710501Y-154498851D02*
X103710501Y-155418851D01*
X101890501Y-155418851D02*
X101890501Y-154498851D01*
X101890501Y-154498851D02*
X103710501Y-154498851D01*
X103090501Y-149698851D02*
X104910501Y-149698851D01*
X103090501Y-150618851D02*
X103090501Y-149698851D01*
X104910501Y-149698851D02*
X104910501Y-150618851D01*
X104910501Y-150618851D02*
X103090501Y-150618851D01*
X105800501Y-156823149D02*
X103200501Y-156823149D01*
X103200501Y-156823149D02*
X103200501Y-155623149D01*
X103200501Y-155623149D02*
X105800501Y-155623149D01*
X105800501Y-155623149D02*
X105800501Y-156823149D01*
X100870501Y-150428851D02*
X100870501Y-152288851D01*
X99930501Y-150428851D02*
X100870501Y-150428851D01*
X100870501Y-152288851D02*
X99930501Y-152288851D01*
X99930501Y-152288851D02*
X99930501Y-150428851D01*
X99930501Y-154288851D02*
X99930501Y-152428851D01*
X100870501Y-154288851D02*
X99930501Y-154288851D01*
X99930501Y-152428851D02*
X100870501Y-152428851D01*
X100870501Y-152428851D02*
X100870501Y-154288851D01*
X101393501Y-151008851D02*
X105306501Y-151008851D01*
X105306501Y-151008851D02*
X105306501Y-154207851D01*
X105306501Y-154207851D02*
X101393501Y-154207851D01*
X101393501Y-154207851D02*
X101393501Y-151008851D01*
X97700501Y-150636000D02*
X89400501Y-150636000D01*
X89400501Y-150636000D02*
X89400501Y-158936000D01*
X89400501Y-158936000D02*
X97700501Y-158936000D01*
X97700501Y-158936000D02*
X97700501Y-150636000D01*
X153375501Y-189301000D02*
X124375501Y-189301000D01*
X124375501Y-189301000D02*
X124375501Y-160301000D01*
X124375501Y-160301000D02*
X153375501Y-160301000D01*
X153375501Y-160301000D02*
X153375501Y-189301000D01*
X90270000Y-177530000D02*
X92130000Y-177530000D01*
X90270000Y-178470000D02*
X90270000Y-177530000D01*
X92130000Y-177530000D02*
X92130000Y-178470000D01*
X92130000Y-178470000D02*
X90270000Y-178470000D01*
X171219500Y-198334502D02*
X174619500Y-198334502D01*
X171219500Y-200294502D02*
X171219500Y-198334502D01*
X174619500Y-198334502D02*
X174619500Y-200294502D01*
X174619500Y-200294502D02*
X171219500Y-200294502D01*
X78533900Y-142494299D02*
X76673900Y-142494299D01*
X78533900Y-141554299D02*
X78533900Y-142494299D01*
X76673900Y-142494299D02*
X76673900Y-141554299D01*
X76673900Y-141554299D02*
X78533900Y-141554299D01*
X89401063Y-201239860D02*
X91401063Y-201239860D01*
X91701063Y-201739860D02*
X91401063Y-201739860D01*
X91701063Y-201739860D02*
X91701063Y-203539860D01*
X91401063Y-201739860D02*
X91401063Y-201239860D01*
X89401063Y-201739860D02*
X89401063Y-201239860D01*
X89101063Y-201739860D02*
X89401063Y-201739860D01*
X91701063Y-203539860D02*
X90801063Y-203539860D01*
X90801063Y-203539860D02*
X90801063Y-204039860D01*
X90001063Y-203539860D02*
X89101063Y-203539860D01*
X89101063Y-203539860D02*
X89101063Y-201739860D01*
X90801063Y-204039860D02*
X90001063Y-204039860D01*
X90001063Y-204039860D02*
X90001063Y-203539860D01*
X201780000Y-178293000D02*
X197220000Y-178293000D01*
X201780000Y-176053000D02*
X201780000Y-178293000D01*
X197220000Y-178293000D02*
X197220000Y-176053000D01*
X197220000Y-176053000D02*
X201780000Y-176053000D01*
X198020000Y-188745000D02*
X200980000Y-188745000D01*
X198020000Y-190205000D02*
X198020000Y-188745000D01*
X200980000Y-188745000D02*
X200980000Y-190205000D01*
X200980000Y-190205000D02*
X198020000Y-190205000D01*
X98466100Y-195910400D02*
X97254900Y-195910400D01*
X97254900Y-195910400D02*
X97254900Y-198399600D01*
X97254900Y-198399600D02*
X98466100Y-198399600D01*
X98466100Y-198399600D02*
X98466100Y-195910400D01*
X78590000Y-197891400D02*
X81079200Y-197891400D01*
X81079200Y-197891400D02*
X81079200Y-199102600D01*
X81079200Y-199102600D02*
X78590000Y-199102600D01*
X78590000Y-199102600D02*
X78590000Y-197891400D01*
X192015501Y-184403000D02*
X192015501Y-181443000D01*
X193475501Y-184403000D02*
X192015501Y-184403000D01*
X192015501Y-181443000D02*
X193475501Y-181443000D01*
X193475501Y-181443000D02*
X193475501Y-184403000D01*
X92496500Y-190939600D02*
X92496500Y-189119600D01*
X93416500Y-190939600D02*
X92496500Y-190939600D01*
X92496500Y-189119600D02*
X93416500Y-189119600D01*
X93416500Y-189119600D02*
X93416500Y-190939600D01*
X198045000Y-160992000D02*
X201005000Y-160992000D01*
X198045000Y-162452000D02*
X198045000Y-160992000D01*
X201005000Y-160992000D02*
X201005000Y-162452000D01*
X201005000Y-162452000D02*
X198045000Y-162452000D01*
X87714500Y-186673000D02*
X87714500Y-188673000D01*
X87214500Y-188973000D02*
X87214500Y-188673000D01*
X87214500Y-188973000D02*
X85414500Y-188973000D01*
X87214500Y-188673000D02*
X87714500Y-188673000D01*
X87214500Y-186673000D02*
X87714500Y-186673000D01*
X87214500Y-186373000D02*
X87214500Y-186673000D01*
X85414500Y-188973000D02*
X85414500Y-188073000D01*
X85414500Y-188073000D02*
X84914500Y-188073000D01*
X85414500Y-187273000D02*
X85414500Y-186373000D01*
X85414500Y-186373000D02*
X87214500Y-186373000D01*
X84914500Y-188073000D02*
X84914500Y-187273000D01*
X84914500Y-187273000D02*
X85414500Y-187273000D01*
X194060000Y-193510000D02*
X192240000Y-193510000D01*
X194060000Y-192590000D02*
X194060000Y-193510000D01*
X192240000Y-193510000D02*
X192240000Y-192590000D01*
X192240000Y-192590000D02*
X194060000Y-192590000D01*
X100130000Y-182380000D02*
X100130000Y-180520000D01*
X101070000Y-182380000D02*
X100130000Y-182380000D01*
X100130000Y-180520000D02*
X101070000Y-180520000D01*
X101070000Y-180520000D02*
X101070000Y-182380000D01*
X196811001Y-162392000D02*
X194951001Y-162392000D01*
X196811001Y-161452000D02*
X196811001Y-162392000D01*
X194951001Y-162392000D02*
X194951001Y-161452000D01*
X194951001Y-161452000D02*
X196811001Y-161452000D01*
X102470000Y-183870000D02*
X102470000Y-185730000D01*
X101530000Y-183870000D02*
X102470000Y-183870000D01*
X102470000Y-185730000D02*
X101530000Y-185730000D01*
X101530000Y-185730000D02*
X101530000Y-183870000D01*
X82712700Y-160262487D02*
X60913700Y-160262487D01*
X60913700Y-160262487D02*
X60913700Y-176562487D01*
X60913700Y-176562487D02*
X82712700Y-176562487D01*
X82712700Y-176562487D02*
X82712700Y-160262487D01*
X190438501Y-166952000D02*
X190438501Y-163992000D01*
X191898501Y-166952000D02*
X190438501Y-166952000D01*
X190438501Y-163992000D02*
X191898501Y-163992000D01*
X191898501Y-163992000D02*
X191898501Y-166952000D01*
X170135501Y-194844502D02*
X167175501Y-194844502D01*
X170135501Y-193384502D02*
X170135501Y-194844502D01*
X167175501Y-194844502D02*
X167175501Y-193384502D01*
X167175501Y-193384502D02*
X170135501Y-193384502D01*
X96883063Y-206073400D02*
X96883063Y-204213400D01*
X97823063Y-206073400D02*
X96883063Y-206073400D01*
X96883063Y-204213400D02*
X97823063Y-204213400D01*
X97823063Y-204213400D02*
X97823063Y-206073400D01*
X169546800Y-203273400D02*
X171366800Y-203273400D01*
X169546800Y-204193400D02*
X169546800Y-203273400D01*
X171366800Y-203273400D02*
X171366800Y-204193400D01*
X171366800Y-204193400D02*
X169546800Y-204193400D01*
X195128400Y-147572600D02*
X193128400Y-147572600D01*
X193128400Y-147572600D02*
X193128400Y-151472600D01*
X193128400Y-151472600D02*
X195128400Y-151472600D01*
X195128400Y-151472600D02*
X195128400Y-147572600D01*
X190060159Y-151369699D02*
X191880159Y-151369699D01*
X190060159Y-152289699D02*
X190060159Y-151369699D01*
X191880159Y-151369699D02*
X191880159Y-152289699D01*
X191880159Y-152289699D02*
X190060159Y-152289699D01*
X198515501Y-178343000D02*
X201475501Y-178343000D01*
X198515501Y-179803000D02*
X198515501Y-178343000D01*
X201475501Y-178343000D02*
X201475501Y-179803000D01*
X201475501Y-179803000D02*
X198515501Y-179803000D01*
X82379200Y-203431000D02*
X84239200Y-203431000D01*
X82379200Y-204371000D02*
X82379200Y-203431000D01*
X84239200Y-203431000D02*
X84239200Y-204371000D01*
X84239200Y-204371000D02*
X82379200Y-204371000D01*
X201280000Y-192445000D02*
X196720000Y-192445000D01*
X201280000Y-190205000D02*
X201280000Y-192445000D01*
X196720000Y-192445000D02*
X196720000Y-190205000D01*
X196720000Y-190205000D02*
X201280000Y-190205000D01*
X62450501Y-127690000D02*
X214680501Y-127690000D01*
X214680501Y-127690000D02*
X214680501Y-134240000D01*
X214680501Y-134240000D02*
X62450501Y-134240000D01*
X62450501Y-134240000D02*
X62450501Y-127690000D01*
X153586000Y-204396400D02*
X159085000Y-204396400D01*
X159085000Y-204396400D02*
X159085000Y-207895400D01*
X159085000Y-207895400D02*
X153586000Y-207895400D01*
X153586000Y-207895400D02*
X153586000Y-204396400D01*
X201780000Y-175095000D02*
X197220000Y-175095000D01*
X201780000Y-172855000D02*
X201780000Y-175095000D01*
X197220000Y-175095000D02*
X197220000Y-172855000D01*
X197220000Y-172855000D02*
X201780000Y-172855000D01*
X171219503Y-196396000D02*
X174619503Y-196396000D01*
X171219503Y-198356000D02*
X171219503Y-196396000D01*
X174619503Y-196396000D02*
X174619503Y-198356000D01*
X174619503Y-198356000D02*
X171219503Y-198356000D01*
X190935500Y-163121000D02*
X186375500Y-163121000D01*
X190935500Y-160881000D02*
X190935500Y-163121000D01*
X186375500Y-163121000D02*
X186375500Y-160881000D01*
X186375500Y-160881000D02*
X190935500Y-160881000D01*
X198501001Y-171392000D02*
X201461001Y-171392000D01*
X198501001Y-172852000D02*
X198501001Y-171392000D01*
X201461001Y-171392000D02*
X201461001Y-172852000D01*
X201461001Y-172852000D02*
X198501001Y-172852000D01*
X191898501Y-166592000D02*
X191898501Y-169552000D01*
X190438501Y-166592000D02*
X191898501Y-166592000D01*
X191898501Y-169552000D02*
X190438501Y-169552000D01*
X190438501Y-169552000D02*
X190438501Y-166592000D01*
X158450501Y-177975000D02*
X158450501Y-183375000D01*
X158450501Y-183375000D02*
X166050501Y-183375000D01*
X166050501Y-177975000D02*
X158450501Y-177975000D01*
X166050501Y-183375000D02*
X166050501Y-177975000D01*
X105560000Y-174610000D02*
X104060000Y-174610000D01*
X104060000Y-174610000D02*
X104060000Y-176460000D01*
X104060000Y-176460000D02*
X105560000Y-176460000D01*
X105560000Y-176460000D02*
X105560000Y-174610000D01*
X93786500Y-195774600D02*
X93786500Y-193914600D01*
X94726500Y-195774600D02*
X93786500Y-195774600D01*
X93786500Y-193914600D02*
X94726500Y-193914600D01*
X94726500Y-193914600D02*
X94726500Y-195774600D01*
X176982500Y-180845000D02*
X178842500Y-180845000D01*
X176982500Y-181785000D02*
X176982500Y-180845000D01*
X178842500Y-180845000D02*
X178842500Y-181785000D01*
X178842500Y-181785000D02*
X176982500Y-181785000D01*
X196101000Y-178414000D02*
X191900000Y-178414000D01*
X191900000Y-178414000D02*
X191900000Y-175788000D01*
X191900000Y-175788000D02*
X196101000Y-175788000D01*
X196101000Y-175788000D02*
X196101000Y-178414000D01*
X177475000Y-203925600D02*
X177475000Y-201925600D01*
X177975000Y-201625600D02*
X177975000Y-201925600D01*
X177975000Y-201625600D02*
X179775000Y-201625600D01*
X177975000Y-201925600D02*
X177475000Y-201925600D01*
X177975000Y-203925600D02*
X177475000Y-203925600D01*
X177975000Y-204225600D02*
X177975000Y-203925600D01*
X179775000Y-201625600D02*
X179775000Y-202525600D01*
X179775000Y-202525600D02*
X180275000Y-202525600D01*
X179775000Y-203325600D02*
X179775000Y-204225600D01*
X179775000Y-204225600D02*
X177975000Y-204225600D01*
X180275000Y-202525600D02*
X180275000Y-203325600D01*
X180275000Y-203325600D02*
X179775000Y-203325600D01*
X175419501Y-192155501D02*
X170321501Y-192155501D01*
X170321501Y-192155501D02*
X170321501Y-196276501D01*
X170321501Y-196276501D02*
X175419501Y-196276501D01*
X175419501Y-196276501D02*
X175419501Y-192155501D01*
X153902600Y-198673800D02*
X155762600Y-198673800D01*
X153902600Y-199613800D02*
X153902600Y-198673800D01*
X155762600Y-198673800D02*
X155762600Y-199613800D01*
X155762600Y-199613800D02*
X153902600Y-199613800D01*
X75047900Y-144344800D02*
X75047900Y-140744800D01*
X75047900Y-144344800D02*
X69147900Y-144344800D01*
X75047900Y-140744800D02*
X69147900Y-140744800D01*
X69147900Y-144344800D02*
X69147900Y-140744800D01*
X92186500Y-195774600D02*
X92186500Y-193914600D01*
X93126500Y-195774600D02*
X92186500Y-195774600D01*
X92186500Y-193914600D02*
X93126500Y-193914600D01*
X93126500Y-193914600D02*
X93126500Y-195774600D01*
X184610000Y-195740000D02*
X184610000Y-197560000D01*
X183690000Y-195740000D02*
X184610000Y-195740000D01*
X184610000Y-197560000D02*
X183690000Y-197560000D01*
X183690000Y-197560000D02*
X183690000Y-195740000D01*
X184610000Y-191990000D02*
X184610000Y-193810000D01*
X183690000Y-191990000D02*
X184610000Y-191990000D01*
X184610000Y-193810000D02*
X183690000Y-193810000D01*
X183690000Y-193810000D02*
X183690000Y-191990000D01*
X82379200Y-200731000D02*
X84239200Y-200731000D01*
X82379200Y-201671000D02*
X82379200Y-200731000D01*
X84239200Y-200731000D02*
X84239200Y-201671000D01*
X84239200Y-201671000D02*
X82379200Y-201671000D01*
X200591899Y-154712600D02*
X200591899Y-158112600D01*
X200591899Y-158112600D02*
X204691899Y-158112600D01*
X204691899Y-154712600D02*
X200591899Y-154712600D01*
X204691899Y-158112600D02*
X204691899Y-154712600D01*
X107711000Y-179674000D02*
X107711000Y-181494000D01*
X106791000Y-179674000D02*
X107711000Y-179674000D01*
X107711000Y-181494000D02*
X106791000Y-181494000D01*
X106791000Y-181494000D02*
X106791000Y-179674000D01*
X165900000Y-175700000D02*
X164300000Y-175700000D01*
X164300000Y-175700000D02*
X164300000Y-172701000D01*
X164300000Y-172701000D02*
X165900000Y-172701000D01*
X165900000Y-172701000D02*
X165900000Y-175700000D01*
X184487107Y-182814000D02*
X180287107Y-182814000D01*
X180287107Y-182814000D02*
X180287107Y-187014000D01*
X184487107Y-187014000D02*
X184487107Y-182814000D01*
X180287107Y-187014000D02*
X184487107Y-187014000D01*
X96960000Y-179740000D02*
X96960000Y-181560000D01*
X96040000Y-179740000D02*
X96960000Y-179740000D01*
X96960000Y-181560000D02*
X96040000Y-181560000D01*
X96040000Y-181560000D02*
X96040000Y-179740000D01*
X202475501Y-181875500D02*
X202475501Y-180015500D01*
X203415501Y-181875500D02*
X202475501Y-181875500D01*
X202475501Y-180015500D02*
X203415501Y-180015500D01*
X203415501Y-180015500D02*
X203415501Y-181875500D01*
X182640000Y-149215000D02*
X184460000Y-149215000D01*
X182640000Y-150135000D02*
X182640000Y-149215000D01*
X184460000Y-149215000D02*
X184460000Y-150135000D01*
X184460000Y-150135000D02*
X182640000Y-150135000D01*
X196725501Y-179880500D02*
X194865501Y-179880500D01*
X196725501Y-178940500D02*
X196725501Y-179880500D01*
X194865501Y-179880500D02*
X194865501Y-178940500D01*
X194865501Y-178940500D02*
X196725501Y-178940500D01*
X202411001Y-164402000D02*
X202411001Y-162542000D01*
X203351001Y-164402000D02*
X202411001Y-164402000D01*
X202411001Y-162542000D02*
X203351001Y-162542000D01*
X203351001Y-162542000D02*
X203351001Y-164402000D01*
X170135502Y-193344501D02*
X167175502Y-193344501D01*
X170135502Y-191884501D02*
X170135502Y-193344501D01*
X167175502Y-193344501D02*
X167175502Y-191884501D01*
X167175502Y-191884501D02*
X170135502Y-191884501D01*
X164050000Y-189011000D02*
X166750000Y-189010000D01*
X163650000Y-188570000D02*
X164050000Y-188570000D01*
X164050000Y-188570000D02*
X164050000Y-189010000D01*
X166750000Y-188570000D02*
X166750000Y-189010000D01*
X166750000Y-188570000D02*
X167150000Y-188570000D01*
X163650000Y-184641000D02*
X163650000Y-188571000D01*
X163650000Y-184641000D02*
X164050000Y-184641000D01*
X166750000Y-184640000D02*
X167150000Y-184640000D01*
X167150000Y-184640000D02*
X167150000Y-188570000D01*
X164050000Y-184201000D02*
X164050000Y-184641000D01*
X164050000Y-184201000D02*
X166750000Y-184200000D01*
X166750000Y-184200000D02*
X166750000Y-184640000D01*
X177475000Y-206675600D02*
X177475000Y-204675600D01*
X177975000Y-204375600D02*
X177975000Y-204675600D01*
X177975000Y-204375600D02*
X179775000Y-204375600D01*
X177975000Y-204675600D02*
X177475000Y-204675600D01*
X177975000Y-206675600D02*
X177475000Y-206675600D01*
X177975000Y-206975600D02*
X177975000Y-206675600D01*
X179775000Y-204375600D02*
X179775000Y-205275600D01*
X179775000Y-205275600D02*
X180275000Y-205275600D01*
X179775000Y-206075600D02*
X179775000Y-206975600D01*
X179775000Y-206975600D02*
X177975000Y-206975600D01*
X180275000Y-205275600D02*
X180275000Y-206075600D01*
X180275000Y-206075600D02*
X179775000Y-206075600D01*
X179400000Y-196800000D02*
X183900000Y-196800000D01*
X179400000Y-199300000D02*
X179400000Y-196800000D01*
X183900000Y-196800000D02*
X183900000Y-199300000D01*
X183900000Y-199300000D02*
X179400000Y-199300000D01*
X74176000Y-145437800D02*
X72316000Y-145437800D01*
X74176000Y-144497800D02*
X74176000Y-145437800D01*
X72316000Y-145437800D02*
X72316000Y-144497800D01*
X72316000Y-144497800D02*
X74176000Y-144497800D01*
X177679502Y-191804502D02*
X177679502Y-193624502D01*
X176759502Y-191804502D02*
X177679502Y-191804502D01*
X177679502Y-193624502D02*
X176759502Y-193624502D01*
X176759502Y-193624502D02*
X176759502Y-191804502D01*
X71825899Y-187960800D02*
X73685899Y-187960800D01*
X71825899Y-188900800D02*
X71825899Y-187960800D01*
X73685899Y-187960800D02*
X73685899Y-188900800D01*
X73685899Y-188900800D02*
X71825899Y-188900800D01*
X201331501Y-160819000D02*
X196771501Y-160819000D01*
X201331501Y-158579000D02*
X201331501Y-160819000D01*
X196771501Y-160819000D02*
X196771501Y-158579000D01*
X196771501Y-158579000D02*
X201331501Y-158579000D01*
X194240000Y-192615000D02*
X196060000Y-192615000D01*
X194240000Y-193535000D02*
X194240000Y-192615000D01*
X196060000Y-192615000D02*
X196060000Y-193535000D01*
X196060000Y-193535000D02*
X194240000Y-193535000D01*
X191938501Y-166952000D02*
X191938501Y-163992000D01*
X193398501Y-166952000D02*
X191938501Y-166952000D01*
X191938501Y-163992000D02*
X193398501Y-163992000D01*
X193398501Y-163992000D02*
X193398501Y-166952000D01*
X167326800Y-203263400D02*
X169186800Y-203263400D01*
X167326800Y-204203400D02*
X167326800Y-203263400D01*
X169186800Y-203263400D02*
X169186800Y-204203400D01*
X169186800Y-204203400D02*
X167326800Y-204203400D01*
X92351063Y-201226321D02*
X94351063Y-201226321D01*
X94651063Y-201726321D02*
X94351063Y-201726321D01*
X94651063Y-201726321D02*
X94651063Y-203526321D01*
X94351063Y-201726321D02*
X94351063Y-201226321D01*
X92351063Y-201726321D02*
X92351063Y-201226321D01*
X92051063Y-201726321D02*
X92351063Y-201726321D01*
X94651063Y-203526321D02*
X93751063Y-203526321D01*
X93751063Y-203526321D02*
X93751063Y-204026321D01*
X92951063Y-203526321D02*
X92051063Y-203526321D01*
X92051063Y-203526321D02*
X92051063Y-201726321D01*
X93751063Y-204026321D02*
X92951063Y-204026321D01*
X92951063Y-204026321D02*
X92951063Y-203526321D01*
X82379200Y-206131000D02*
X84239200Y-206131000D01*
X82379200Y-207071000D02*
X82379200Y-206131000D01*
X84239200Y-206131000D02*
X84239200Y-207071000D01*
X84239200Y-207071000D02*
X82379200Y-207071000D01*
X123350000Y-185150000D02*
X113950000Y-185150000D01*
X113950000Y-185150000D02*
X113950000Y-178650000D01*
X113950000Y-178650000D02*
X123350000Y-178650000D01*
X123350000Y-178650000D02*
X123350000Y-185150000D01*
X77955899Y-180270800D02*
X74155899Y-180270800D01*
X74155899Y-180270800D02*
X74155899Y-183780800D01*
X74155899Y-183780800D02*
X77955899Y-183780800D01*
X77955899Y-183780800D02*
X77955899Y-180270800D01*
X192675000Y-193448000D02*
X195673000Y-193448000D01*
X195673000Y-193448000D02*
X195673000Y-196250000D01*
X195673000Y-196250000D02*
X192675000Y-196250000D01*
X192675000Y-196250000D02*
X192675000Y-193448000D01*
X176970000Y-178645000D02*
X178830000Y-178645000D01*
X176970000Y-179585000D02*
X176970000Y-178645000D01*
X178830000Y-178645000D02*
X178830000Y-179585000D01*
X178830000Y-179585000D02*
X176970000Y-179585000D01*
X82379200Y-195331000D02*
X84239200Y-195331000D01*
X82379200Y-196271000D02*
X82379200Y-195331000D01*
X84239200Y-195331000D02*
X84239200Y-196271000D01*
X84239200Y-196271000D02*
X82379200Y-196271000D01*
X87709200Y-202901000D02*
X87709200Y-204901000D01*
X87209200Y-205201000D02*
X87209200Y-204901000D01*
X87209200Y-205201000D02*
X85409200Y-205201000D01*
X87209200Y-204901000D02*
X87709200Y-204901000D01*
X87209200Y-202901000D02*
X87709200Y-202901000D01*
X87209200Y-202601000D02*
X87209200Y-202901000D01*
X85409200Y-205201000D02*
X85409200Y-204301000D01*
X85409200Y-204301000D02*
X84909200Y-204301000D01*
X85409200Y-203501000D02*
X85409200Y-202601000D01*
X85409200Y-202601000D02*
X87209200Y-202601000D01*
X84909200Y-204301000D02*
X84909200Y-203501000D01*
X84909200Y-203501000D02*
X85409200Y-203501000D01*
X190515501Y-184403000D02*
X190515501Y-181443000D01*
X191975501Y-184403000D02*
X190515501Y-184403000D01*
X190515501Y-181443000D02*
X191975501Y-181443000D01*
X191975501Y-181443000D02*
X191975501Y-184403000D01*
X123320000Y-185670000D02*
X123320000Y-187530000D01*
X122380000Y-185670000D02*
X123320000Y-185670000D01*
X123320000Y-187530000D02*
X122380000Y-187530000D01*
X122380000Y-187530000D02*
X122380000Y-185670000D01*
X201993501Y-162859500D02*
X193994501Y-162859500D01*
X193994501Y-162859500D02*
X193994501Y-170858500D01*
X193994501Y-170858500D02*
X201993501Y-170858500D01*
X201993501Y-170858500D02*
X201993501Y-162859500D01*
X202020501Y-180310500D02*
X194021501Y-180310500D01*
X194021501Y-180310500D02*
X194021501Y-188309500D01*
X194021501Y-188309500D02*
X202020501Y-188309500D01*
X202020501Y-188309500D02*
X202020501Y-180310500D01*
X93893063Y-206083400D02*
X93893063Y-204223400D01*
X94833063Y-206083400D02*
X93893063Y-206083400D01*
X93893063Y-204223400D02*
X94833063Y-204223400D01*
X94833063Y-204223400D02*
X94833063Y-206083400D01*
X82565100Y-189903000D02*
X84425100Y-189903000D01*
X82565100Y-190843000D02*
X82565100Y-189903000D01*
X84425100Y-189903000D02*
X84425100Y-190843000D01*
X84425100Y-190843000D02*
X82565100Y-190843000D01*
X79208900Y-143584299D02*
X79208900Y-141724299D01*
X80148900Y-143584299D02*
X79208900Y-143584299D01*
X79208900Y-141724299D02*
X80148900Y-141724299D01*
X80148900Y-141724299D02*
X80148900Y-143584299D01*
X181291000Y-153525000D02*
X183791000Y-153525000D01*
X181291000Y-153525000D02*
X181291000Y-150225000D01*
X183791000Y-153525000D02*
X183791000Y-150225000D01*
X181291000Y-150225000D02*
X183791000Y-150225000D01*
X197325501Y-189630500D02*
X195465501Y-189630500D01*
X197325501Y-188690500D02*
X197325501Y-189630500D01*
X195465501Y-189630500D02*
X195465501Y-188690500D01*
X195465501Y-188690500D02*
X197325501Y-188690500D01*
X192205000Y-194030000D02*
X189245000Y-194030000D01*
X192205000Y-192570000D02*
X192205000Y-194030000D01*
X189245000Y-194030000D02*
X189245000Y-192570000D01*
X189245000Y-192570000D02*
X192205000Y-192570000D01*
X132000000Y-189799000D02*
X137999000Y-189799000D01*
X137999000Y-189799000D02*
X137999000Y-194000000D01*
X137999000Y-194000000D02*
X132000000Y-194000000D01*
X132000000Y-194000000D02*
X132000000Y-189799000D01*
X107770000Y-183870000D02*
X107770000Y-185730000D01*
X106830000Y-183870000D02*
X107770000Y-183870000D01*
X107770000Y-185730000D02*
X106830000Y-185730000D01*
X106830000Y-185730000D02*
X106830000Y-183870000D01*
X95883063Y-206086321D02*
X95883063Y-204226321D01*
X96823063Y-206086321D02*
X95883063Y-206086321D01*
X95883063Y-204226321D02*
X96823063Y-204226321D01*
X96823063Y-204226321D02*
X96823063Y-206086321D01*
X200421899Y-154382600D02*
X200421899Y-157342600D01*
X198961899Y-154382600D02*
X200421899Y-154382600D01*
X200421899Y-157342600D02*
X198961899Y-157342600D01*
X198961899Y-157342600D02*
X198961899Y-154382600D01*
X103449200Y-193037800D02*
X106448200Y-193037800D01*
X106448200Y-193037800D02*
X106448200Y-191437800D01*
X106448200Y-191437800D02*
X103449200Y-191437800D01*
X103449200Y-191437800D02*
X103449200Y-193037800D01*
X105560000Y-170910000D02*
X104060000Y-170910000D01*
X104060000Y-170910000D02*
X104060000Y-172760000D01*
X104060000Y-172760000D02*
X105560000Y-172760000D01*
X105560000Y-172760000D02*
X105560000Y-170910000D01*
X203365501Y-186730500D02*
X203365501Y-188590500D01*
X202425501Y-186730500D02*
X203365501Y-186730500D01*
X203365501Y-188590500D02*
X202425501Y-188590500D01*
X202425501Y-188590500D02*
X202425501Y-186730500D01*
X82565100Y-187210600D02*
X84425100Y-187210600D01*
X82565100Y-188150600D02*
X82565100Y-187210600D01*
X84425100Y-187210600D02*
X84425100Y-188150600D01*
X84425100Y-188150600D02*
X82565100Y-188150600D01*
X106651000Y-179835000D02*
X102701000Y-179835000D01*
X102701000Y-179835000D02*
X102701000Y-183485000D01*
X102701000Y-183485000D02*
X106651000Y-183485000D01*
X106651000Y-183485000D02*
X106651000Y-179835000D01*
X204415501Y-186160500D02*
X204415501Y-182760500D01*
X206375501Y-186160500D02*
X204415501Y-186160500D01*
X204415501Y-182760500D02*
X206375501Y-182760500D01*
X206375501Y-182760500D02*
X206375501Y-186160500D01*
X182460000Y-150110000D02*
X180640000Y-150110000D01*
X182460000Y-149190000D02*
X182460000Y-150110000D01*
X180640000Y-150110000D02*
X180640000Y-149190000D01*
X180640000Y-149190000D02*
X182460000Y-149190000D01*
X190955000Y-172820000D02*
X186395000Y-172820000D01*
X190955000Y-170580000D02*
X190955000Y-172820000D01*
X186395000Y-172820000D02*
X186395000Y-170580000D01*
X186395000Y-170580000D02*
X190955000Y-170580000D01*
X81162900Y-141737299D02*
X81162900Y-143597299D01*
X80222900Y-141737299D02*
X81162900Y-141737299D01*
X81162900Y-143597299D02*
X80222900Y-143597299D01*
X80222900Y-143597299D02*
X80222900Y-141737299D01*
X192068901Y-156225600D02*
X195628901Y-156225600D01*
X192068901Y-156225600D02*
X192068901Y-151865600D01*
X195628901Y-156225600D02*
X195628901Y-151865600D01*
X192068901Y-151865600D02*
X195628901Y-151865600D01*
X87709200Y-194801000D02*
X87709200Y-196801000D01*
X87209200Y-197101000D02*
X87209200Y-196801000D01*
X87209200Y-197101000D02*
X85409200Y-197101000D01*
X87209200Y-196801000D02*
X87709200Y-196801000D01*
X87209200Y-194801000D02*
X87709200Y-194801000D01*
X87209200Y-194501000D02*
X87209200Y-194801000D01*
X85409200Y-197101000D02*
X85409200Y-196201000D01*
X85409200Y-196201000D02*
X84909200Y-196201000D01*
X85409200Y-195401000D02*
X85409200Y-194501000D01*
X85409200Y-194501000D02*
X87209200Y-194501000D01*
X84909200Y-196201000D02*
X84909200Y-195401000D01*
X84909200Y-195401000D02*
X85409200Y-195401000D01*
X191305000Y-196265000D02*
X191305000Y-194405000D01*
X192245000Y-196265000D02*
X191305000Y-196265000D01*
X191305000Y-194405000D02*
X192245000Y-194405000D01*
X192245000Y-194405000D02*
X192245000Y-196265000D01*
X78590000Y-205991400D02*
X81079200Y-205991400D01*
X81079200Y-205991400D02*
X81079200Y-207202600D01*
X81079200Y-207202600D02*
X78590000Y-207202600D01*
X78590000Y-207202600D02*
X78590000Y-205991400D01*
X82379200Y-198031000D02*
X84239200Y-198031000D01*
X82379200Y-198971000D02*
X82379200Y-198031000D01*
X84239200Y-198031000D02*
X84239200Y-198971000D01*
X84239200Y-198971000D02*
X82379200Y-198971000D01*
X96090000Y-183610000D02*
X96090000Y-181790000D01*
X97010000Y-183610000D02*
X96090000Y-183610000D01*
X96090000Y-181790000D02*
X97010000Y-181790000D01*
X97010000Y-181790000D02*
X97010000Y-183610000D01*
X131250000Y-189489000D02*
X128550000Y-189490000D01*
X131650000Y-189930000D02*
X131250000Y-189930000D01*
X131250000Y-189930000D02*
X131250000Y-189490000D01*
X128550000Y-189930000D02*
X128550000Y-189490000D01*
X128550000Y-189930000D02*
X128150000Y-189930000D01*
X131650000Y-193859000D02*
X131650000Y-189929000D01*
X131650000Y-193859000D02*
X131250000Y-193859000D01*
X128550000Y-193860000D02*
X128150000Y-193860000D01*
X128150000Y-193860000D02*
X128150000Y-189930000D01*
X131250000Y-194299000D02*
X131250000Y-193859000D01*
X131250000Y-194299000D02*
X128550000Y-194300000D01*
X128550000Y-194300000D02*
X128550000Y-193860000D01*
X190980000Y-190220000D02*
X186420000Y-190220000D01*
X190980000Y-187980000D02*
X190980000Y-190220000D01*
X186420000Y-190220000D02*
X186420000Y-187980000D01*
X186420000Y-187980000D02*
X190980000Y-187980000D01*
X96866100Y-195910400D02*
X95654900Y-195910400D01*
X95654900Y-195910400D02*
X95654900Y-198399600D01*
X95654900Y-198399600D02*
X96866100Y-198399600D01*
X96866100Y-198399600D02*
X96866100Y-195910400D01*
X95786500Y-195789600D02*
X95786500Y-193929600D01*
X96726500Y-195789600D02*
X95786500Y-195789600D01*
X95786500Y-193929600D02*
X96726500Y-193929600D01*
X96726500Y-193929600D02*
X96726500Y-195789600D01*
X153787600Y-199843800D02*
X155787600Y-199843800D01*
X156087600Y-200343800D02*
X155787600Y-200343800D01*
X156087600Y-200343800D02*
X156087600Y-202143800D01*
X155787600Y-200343800D02*
X155787600Y-199843800D01*
X153787600Y-200343800D02*
X153787600Y-199843800D01*
X153487600Y-200343800D02*
X153787600Y-200343800D01*
X156087600Y-202143800D02*
X155187600Y-202143800D01*
X155187600Y-202143800D02*
X155187600Y-202643800D01*
X154387600Y-202143800D02*
X153487600Y-202143800D01*
X153487600Y-202143800D02*
X153487600Y-200343800D01*
X155187600Y-202643800D02*
X154387600Y-202643800D01*
X154387600Y-202643800D02*
X154387600Y-202143800D01*
X176300000Y-203900600D02*
X176300000Y-202040600D01*
X177240000Y-203900600D02*
X176300000Y-203900600D01*
X176300000Y-202040600D02*
X177240000Y-202040600D01*
X177240000Y-202040600D02*
X177240000Y-203900600D01*
X92592363Y-207704800D02*
X90103163Y-207704800D01*
X90103163Y-207704800D02*
X90103163Y-206493600D01*
X90103163Y-206493600D02*
X92592363Y-206493600D01*
X92592363Y-206493600D02*
X92592363Y-207704800D01*
X191103400Y-150782600D02*
X192503400Y-150782600D01*
X192503400Y-150782600D02*
X192503400Y-148162600D01*
X192503400Y-148162600D02*
X191103400Y-148162600D01*
X191103400Y-148162600D02*
X191103400Y-150782600D01*
X73555899Y-187730800D02*
X71955899Y-187730800D01*
X71955899Y-187730800D02*
X71955899Y-184731800D01*
X71955899Y-184731800D02*
X73555899Y-184731800D01*
X73555899Y-184731800D02*
X73555899Y-187730800D01*
X165717400Y-207820200D02*
X160218400Y-207820200D01*
X160218400Y-207820200D02*
X160218400Y-204321200D01*
X160218400Y-204321200D02*
X165717400Y-204321200D01*
X165717400Y-204321200D02*
X165717400Y-207820200D01*
X184487107Y-164650000D02*
X180287107Y-164650000D01*
X180287107Y-164650000D02*
X180287107Y-168850000D01*
X184487107Y-168850000D02*
X184487107Y-164650000D01*
X180287107Y-168850000D02*
X184487107Y-168850000D01*
X182631000Y-148190001D02*
X184451000Y-148190001D01*
X182631000Y-149110001D02*
X182631000Y-148190001D01*
X184451000Y-148190001D02*
X184451000Y-149110001D01*
X184451000Y-149110001D02*
X182631000Y-149110001D01*
X93505500Y-190129600D02*
X97004500Y-190129600D01*
X97004500Y-190129600D02*
X97004500Y-193628600D01*
X97004500Y-193628600D02*
X93505500Y-193628600D01*
X93505500Y-193628600D02*
X93505500Y-190129600D01*
X202351001Y-168622000D02*
X202351001Y-165222000D01*
X204311001Y-168622000D02*
X202351001Y-168622000D01*
X202351001Y-165222000D02*
X204311001Y-165222000D01*
X204311001Y-165222000D02*
X204311001Y-168622000D01*
X94866100Y-195910400D02*
X93654900Y-195910400D01*
X93654900Y-195910400D02*
X93654900Y-198399600D01*
X93654900Y-198399600D02*
X94866100Y-198399600D01*
X94866100Y-198399600D02*
X94866100Y-195910400D01*
X97386500Y-195774600D02*
X97386500Y-193914600D01*
X98326500Y-195774600D02*
X97386500Y-195774600D01*
X97386500Y-193914600D02*
X98326500Y-193914600D01*
X98326500Y-193914600D02*
X98326500Y-195774600D01*
X184808800Y-209379800D02*
X184808800Y-205979800D01*
X184808800Y-205979800D02*
X180708800Y-205979800D01*
X180708800Y-209379800D02*
X184808800Y-209379800D01*
X180708800Y-205979800D02*
X180708800Y-209379800D01*
X179400000Y-193050000D02*
X183900000Y-193050000D01*
X179400000Y-195550000D02*
X179400000Y-193050000D01*
X183900000Y-193050000D02*
X183900000Y-195550000D01*
X183900000Y-195550000D02*
X179400000Y-195550000D01*
X115920000Y-185670000D02*
X115920000Y-187530000D01*
X114980000Y-185670000D02*
X115920000Y-185670000D01*
X115920000Y-187530000D02*
X114980000Y-187530000D01*
X114980000Y-187530000D02*
X114980000Y-185670000D01*
X106720000Y-183870000D02*
X106720000Y-185730000D01*
X105780000Y-183870000D02*
X106720000Y-183870000D01*
X106720000Y-185730000D02*
X105780000Y-185730000D01*
X105780000Y-185730000D02*
X105780000Y-183870000D01*
X78590000Y-200591400D02*
X81079200Y-200591400D01*
X81079200Y-200591400D02*
X81079200Y-201802600D01*
X81079200Y-201802600D02*
X78590000Y-201802600D01*
X78590000Y-201802600D02*
X78590000Y-200591400D01*
X154400000Y-170950000D02*
X161400000Y-170950000D01*
X161400000Y-170950000D02*
X161400000Y-175250000D01*
X161400000Y-175250000D02*
X154400000Y-175250000D01*
X154400000Y-175250000D02*
X154400000Y-170950000D01*
X81188300Y-193733600D02*
X78588300Y-193733600D01*
X78588300Y-193733600D02*
X78588300Y-191533600D01*
X78588300Y-191533600D02*
X81188300Y-191533600D01*
X81188300Y-191533600D02*
X81188300Y-193733600D01*
X72474899Y-183260800D02*
X72474899Y-180300800D01*
X73934899Y-183260800D02*
X72474899Y-183260800D01*
X72474899Y-180300800D02*
X73934899Y-180300800D01*
X73934899Y-180300800D02*
X73934899Y-183260800D01*
X180656000Y-153590000D02*
X182476000Y-153590000D01*
X180656000Y-154510000D02*
X180656000Y-153590000D01*
X182476000Y-153590000D02*
X182476000Y-154510000D01*
X182476000Y-154510000D02*
X180656000Y-154510000D01*
X123490501Y-189471000D02*
X126500501Y-189471000D01*
X127400501Y-190201000D02*
X126500501Y-190201000D01*
X127400501Y-190201000D02*
X127400501Y-197746000D01*
X126500501Y-190201000D02*
X126500501Y-189471000D01*
X123490501Y-190206000D02*
X123490501Y-189471000D01*
X122600501Y-190206000D02*
X123490501Y-190206000D01*
X127400501Y-197746000D02*
X126510501Y-197746000D01*
X126510501Y-197746000D02*
X126510501Y-198481000D01*
X123490501Y-197746000D02*
X122600501Y-197746000D01*
X122600501Y-197746000D02*
X122600501Y-190206000D01*
X126510501Y-198481000D02*
X123500501Y-198481000D01*
X123490501Y-198481000D02*
X123490501Y-197746000D01*
X175610501Y-198706000D02*
X175610501Y-196846000D01*
X176550501Y-198706000D02*
X175610501Y-198706000D01*
X175610501Y-196846000D02*
X176550501Y-196846000D01*
X176550501Y-196846000D02*
X176550501Y-198706000D01*
X172346800Y-207820000D02*
X166847800Y-207820000D01*
X166847800Y-207820000D02*
X166847800Y-204321000D01*
X166847800Y-204321000D02*
X172346800Y-204321000D01*
X172346800Y-204321000D02*
X172346800Y-207820000D01*
X87709200Y-205601000D02*
X87709200Y-207601000D01*
X87209200Y-207901000D02*
X87209200Y-207601000D01*
X87209200Y-207901000D02*
X85409200Y-207901000D01*
X87209200Y-207601000D02*
X87709200Y-207601000D01*
X87209200Y-205601000D02*
X87709200Y-205601000D01*
X87209200Y-205301000D02*
X87209200Y-205601000D01*
X85409200Y-207901000D02*
X85409200Y-207001000D01*
X85409200Y-207001000D02*
X84909200Y-207001000D01*
X85409200Y-206201000D02*
X85409200Y-205301000D01*
X85409200Y-205301000D02*
X87209200Y-205301000D01*
X84909200Y-207001000D02*
X84909200Y-206201000D01*
X84909200Y-206201000D02*
X85409200Y-206201000D01*
X73685899Y-184600800D02*
X71825899Y-184600800D01*
X73685899Y-183660800D02*
X73685899Y-184600800D01*
X71825899Y-184600800D02*
X71825899Y-183660800D01*
X71825899Y-183660800D02*
X73685899Y-183660800D01*
X95351063Y-201226321D02*
X97351063Y-201226321D01*
X97651063Y-201726321D02*
X97351063Y-201726321D01*
X97651063Y-201726321D02*
X97651063Y-203526321D01*
X97351063Y-201726321D02*
X97351063Y-201226321D01*
X95351063Y-201726321D02*
X95351063Y-201226321D01*
X95051063Y-201726321D02*
X95351063Y-201726321D01*
X97651063Y-203526321D02*
X96751063Y-203526321D01*
X96751063Y-203526321D02*
X96751063Y-204026321D01*
X95951063Y-203526321D02*
X95051063Y-203526321D01*
X95051063Y-203526321D02*
X95051063Y-201726321D01*
X96751063Y-204026321D02*
X95951063Y-204026321D01*
X95951063Y-204026321D02*
X95951063Y-203526321D01*
X177529502Y-196674503D02*
X175709502Y-196674503D01*
X177529502Y-195754503D02*
X177529502Y-196674503D01*
X175709502Y-196674503D02*
X175709502Y-195754503D01*
X175709502Y-195754503D02*
X177529502Y-195754503D01*
X74826600Y-137721600D02*
X73006600Y-137721600D01*
X74826600Y-136801600D02*
X74826600Y-137721600D01*
X73006600Y-137721600D02*
X73006600Y-136801600D01*
X73006600Y-136801600D02*
X74826600Y-136801600D01*
X176579502Y-191804502D02*
X176579502Y-193624502D01*
X175659502Y-191804502D02*
X176579502Y-191804502D01*
X176579502Y-193624502D02*
X175659502Y-193624502D01*
X175659502Y-193624502D02*
X175659502Y-191804502D01*
X99765200Y-194967299D02*
X99765200Y-197117299D01*
X99765200Y-194967299D02*
X101815200Y-194967299D01*
X100165200Y-207117299D02*
X100165200Y-204167299D01*
X100165200Y-207117299D02*
X101315200Y-207117299D01*
X101315200Y-197117299D02*
X99765200Y-197117299D01*
X101315200Y-197117299D02*
X101315200Y-204167299D01*
X101315200Y-204167299D02*
X100165200Y-204167299D01*
X101315200Y-210267299D02*
X101315200Y-207117299D01*
X101815200Y-193867299D02*
X101815200Y-194967299D01*
X101815200Y-193867299D02*
X111615200Y-193867299D01*
X111615200Y-194967299D02*
X111615200Y-193867299D01*
X116365200Y-197117299D02*
X117265200Y-197117299D01*
X116365200Y-204167299D02*
X116365200Y-197117299D01*
X116365200Y-204167299D02*
X117565200Y-204167299D01*
X116365200Y-210267299D02*
X101315200Y-210267299D01*
X116365200Y-210267299D02*
X116365200Y-207117299D01*
X117265200Y-194967299D02*
X111615200Y-194967299D01*
X117265200Y-194967299D02*
X117265200Y-197117299D01*
X117565200Y-207117299D02*
X116365200Y-207117299D01*
X117565200Y-207117299D02*
X117565200Y-204167299D01*
X180656000Y-154614999D02*
X182476000Y-154614999D01*
X180656000Y-155534999D02*
X180656000Y-154614999D01*
X182476000Y-154614999D02*
X182476000Y-155534999D01*
X182476000Y-155534999D02*
X180656000Y-155534999D01*
X190955000Y-180619000D02*
X186395000Y-180619000D01*
X190955000Y-178379000D02*
X190955000Y-180619000D01*
X186395000Y-180619000D02*
X186395000Y-178379000D01*
X186395000Y-178379000D02*
X190955000Y-178379000D01*
X92883063Y-206086321D02*
X92883063Y-204226321D01*
X93823063Y-206086321D02*
X92883063Y-206086321D01*
X92883063Y-204226321D02*
X93823063Y-204226321D01*
X93823063Y-204226321D02*
X93823063Y-206086321D01*
X167580501Y-197844501D02*
X164620501Y-197844501D01*
X167580501Y-196384501D02*
X167580501Y-197844501D01*
X164620501Y-197844501D02*
X164620501Y-196384501D01*
X164620501Y-196384501D02*
X167580501Y-196384501D01*
X78244899Y-182474800D02*
X78244899Y-180654800D01*
X79164899Y-182474800D02*
X78244899Y-182474800D01*
X78244899Y-180654800D02*
X79164899Y-180654800D01*
X79164899Y-180654800D02*
X79164899Y-182474800D01*
X203351001Y-169292000D02*
X203351001Y-171152000D01*
X202411001Y-169292000D02*
X203351001Y-169292000D01*
X203351001Y-171152000D02*
X202411001Y-171152000D01*
X202411001Y-171152000D02*
X202411001Y-169292000D01*
X185470000Y-182185000D02*
X185470000Y-184045000D01*
X184530000Y-182185000D02*
X185470000Y-182185000D01*
X185470000Y-184045000D02*
X184530000Y-184045000D01*
X184530000Y-184045000D02*
X184530000Y-182185000D01*
X78543900Y-141464299D02*
X76683900Y-141464299D01*
X78543900Y-140524299D02*
X78543900Y-141464299D01*
X76683900Y-141464299D02*
X76683900Y-140524299D01*
X76683900Y-140524299D02*
X78543900Y-140524299D01*
X122269499Y-185670000D02*
X122269499Y-187530000D01*
X121329499Y-185670000D02*
X122269499Y-185670000D01*
X122269499Y-187530000D02*
X121329499Y-187530000D01*
X121329499Y-187530000D02*
X121329499Y-185670000D01*
X122900501Y-171676000D02*
X122900501Y-178166000D01*
X114410501Y-171676000D02*
X122900501Y-171676000D01*
X122900501Y-178166000D02*
X114410501Y-178166000D01*
X114410501Y-178166000D02*
X114410501Y-171676000D01*
X102120000Y-180520000D02*
X102120000Y-182380000D01*
X101180000Y-180520000D02*
X102120000Y-180520000D01*
X102120000Y-182380000D02*
X101180000Y-182380000D01*
X101180000Y-182380000D02*
X101180000Y-180520000D01*
X182210107Y-181355000D02*
X184030107Y-181355000D01*
X182210107Y-182275000D02*
X182210107Y-181355000D01*
X184030107Y-181355000D02*
X184030107Y-182275000D01*
X184030107Y-182275000D02*
X182210107Y-182275000D01*
X87709200Y-197501000D02*
X87709200Y-199501000D01*
X87209200Y-199801000D02*
X87209200Y-199501000D01*
X87209200Y-199801000D02*
X85409200Y-199801000D01*
X87209200Y-199501000D02*
X87709200Y-199501000D01*
X87209200Y-197501000D02*
X87709200Y-197501000D01*
X87209200Y-197201000D02*
X87209200Y-197501000D01*
X85409200Y-199801000D02*
X85409200Y-198901000D01*
X85409200Y-198901000D02*
X84909200Y-198901000D01*
X85409200Y-198101000D02*
X85409200Y-197201000D01*
X85409200Y-197201000D02*
X87209200Y-197201000D01*
X84909200Y-198901000D02*
X84909200Y-198101000D01*
X84909200Y-198101000D02*
X85409200Y-198101000D01*
X87709200Y-200201000D02*
X87709200Y-202201000D01*
X87209200Y-202501000D02*
X87209200Y-202201000D01*
X87209200Y-202501000D02*
X85409200Y-202501000D01*
X87209200Y-202201000D02*
X87709200Y-202201000D01*
X87209200Y-200201000D02*
X87709200Y-200201000D01*
X87209200Y-199901000D02*
X87209200Y-200201000D01*
X85409200Y-202501000D02*
X85409200Y-201601000D01*
X85409200Y-201601000D02*
X84909200Y-201601000D01*
X85409200Y-200801000D02*
X85409200Y-199901000D01*
X85409200Y-199901000D02*
X87209200Y-199901000D01*
X84909200Y-201601000D02*
X84909200Y-200801000D01*
X84909200Y-200801000D02*
X85409200Y-200801000D01*
X160750000Y-203075800D02*
X160750000Y-199675800D01*
X160750000Y-199675800D02*
X156650000Y-199675800D01*
X156650000Y-203075800D02*
X160750000Y-203075800D01*
X156650000Y-199675800D02*
X156650000Y-203075800D01*
X73006600Y-135799600D02*
X74826600Y-135799600D01*
X73006600Y-136719600D02*
X73006600Y-135799600D01*
X74826600Y-135799600D02*
X74826600Y-136719600D01*
X74826600Y-136719600D02*
X73006600Y-136719600D01*
X203486000Y-192101000D02*
X206112000Y-192101000D01*
X206112000Y-192101000D02*
X206112000Y-187900000D01*
X206112000Y-187900000D02*
X203486000Y-187900000D01*
X203486000Y-187900000D02*
X203486000Y-192101000D01*
X107899200Y-193037800D02*
X110898200Y-193037800D01*
X110898200Y-193037800D02*
X110898200Y-191437800D01*
X110898200Y-191437800D02*
X107899200Y-191437800D01*
X107899200Y-191437800D02*
X107899200Y-193037800D01*
X176970000Y-181945000D02*
X178830000Y-181945000D01*
X176970000Y-182885000D02*
X176970000Y-181945000D01*
X178830000Y-181945000D02*
X178830000Y-182885000D01*
X178830000Y-182885000D02*
X176970000Y-182885000D01*
X82488900Y-192595400D02*
X84348900Y-192595400D01*
X82488900Y-193535400D02*
X82488900Y-192595400D01*
X84348900Y-192595400D02*
X84348900Y-193535400D01*
X84348900Y-193535400D02*
X82488900Y-193535400D01*
X182210108Y-163191000D02*
X184030108Y-163191000D01*
X182210108Y-164111000D02*
X182210108Y-163191000D01*
X184030108Y-163191000D02*
X184030108Y-164111000D01*
X184030108Y-164111000D02*
X182210108Y-164111000D01*
X97692363Y-207704800D02*
X95203163Y-207704800D01*
X95203163Y-207704800D02*
X95203163Y-206493600D01*
X95203163Y-206493600D02*
X97692363Y-206493600D01*
X97692363Y-206493600D02*
X97692363Y-207704800D01*
X202415501Y-186160500D02*
X202415501Y-182760500D01*
X204375501Y-186160500D02*
X202415501Y-186160500D01*
X202415501Y-182760500D02*
X204375501Y-182760500D01*
X204375501Y-182760500D02*
X204375501Y-186160500D01*
X95131862Y-207728800D02*
X92642662Y-207728800D01*
X92642662Y-207728800D02*
X92642662Y-206517600D01*
X92642662Y-206517600D02*
X95131862Y-206517600D01*
X95131862Y-206517600D02*
X95131862Y-207728800D01*
X174275501Y-191726000D02*
X167375501Y-191726000D01*
X167375501Y-191726000D02*
X167375501Y-184626000D01*
X167375501Y-184626000D02*
X174275501Y-184626000D01*
X174275501Y-184626000D02*
X174275501Y-191726000D01*
X148405200Y-201863800D02*
X138005200Y-201863800D01*
X138005200Y-201863800D02*
X138005200Y-209463800D01*
X148405200Y-209463800D02*
X148405200Y-201863800D01*
X138005200Y-209463800D02*
X148405200Y-209463800D01*
X167580501Y-194880000D02*
X164620501Y-194880000D01*
X167580501Y-193420000D02*
X167580501Y-194880000D01*
X164620501Y-194880000D02*
X164620501Y-193420000D01*
X164620501Y-193420000D02*
X167580501Y-193420000D01*
X184670500Y-202263100D02*
X180879500Y-202263100D01*
X180879500Y-202263100D02*
X180879500Y-205812100D01*
X180879500Y-205812100D02*
X184670500Y-205812100D01*
X184670500Y-205812100D02*
X184670500Y-202263100D01*
X170135502Y-197844502D02*
X167175502Y-197844502D01*
X170135502Y-196384502D02*
X170135502Y-197844502D01*
X167175502Y-197844502D02*
X167175502Y-196384502D01*
X167175502Y-196384502D02*
X170135502Y-196384502D01*
X89931063Y-206069860D02*
X89931063Y-204209860D01*
X90871063Y-206069860D02*
X89931063Y-206069860D01*
X89931063Y-204209860D02*
X90871063Y-204209860D01*
X90871063Y-204209860D02*
X90871063Y-206069860D01*
X102580000Y-185715000D02*
X102580000Y-183855000D01*
X103520000Y-185715000D02*
X102580000Y-185715000D01*
X102580000Y-183855000D02*
X103520000Y-183855000D01*
X103520000Y-183855000D02*
X103520000Y-185715000D01*
X204721899Y-157312600D02*
X204721899Y-155492600D01*
X205641899Y-157312600D02*
X204721899Y-157312600D01*
X204721899Y-155492600D02*
X205641899Y-155492600D01*
X205641899Y-155492600D02*
X205641899Y-157312600D01*
X185470000Y-164021000D02*
X185470000Y-165881000D01*
X184530000Y-164021000D02*
X185470000Y-164021000D01*
X185470000Y-165881000D02*
X184530000Y-165881000D01*
X184530000Y-165881000D02*
X184530000Y-164021000D01*
X78590000Y-195191400D02*
X81079200Y-195191400D01*
X81079200Y-195191400D02*
X81079200Y-196402600D01*
X81079200Y-196402600D02*
X78590000Y-196402600D01*
X78590000Y-196402600D02*
X78590000Y-195191400D01*
X71785899Y-191975800D02*
X71785899Y-190115800D01*
X72725899Y-191975800D02*
X71785899Y-191975800D01*
X71785899Y-190115800D02*
X72725899Y-190115800D01*
X72725899Y-190115800D02*
X72725899Y-191975800D01*
X106791000Y-183628000D02*
X106791000Y-181808000D01*
X107711000Y-183628000D02*
X106791000Y-183628000D01*
X106791000Y-181808000D02*
X107711000Y-181808000D01*
X107711000Y-181808000D02*
X107711000Y-183628000D01*
X87714500Y-192073000D02*
X87714500Y-194073000D01*
X87214500Y-194373000D02*
X87214500Y-194073000D01*
X87214500Y-194373000D02*
X85414500Y-194373000D01*
X87214500Y-194073000D02*
X87714500Y-194073000D01*
X87214500Y-192073000D02*
X87714500Y-192073000D01*
X87214500Y-191773000D02*
X87214500Y-192073000D01*
X85414500Y-194373000D02*
X85414500Y-193473000D01*
X85414500Y-193473000D02*
X84914500Y-193473000D01*
X85414500Y-192673000D02*
X85414500Y-191773000D01*
X85414500Y-191773000D02*
X87214500Y-191773000D01*
X84914500Y-193473000D02*
X84914500Y-192673000D01*
X84914500Y-192673000D02*
X85414500Y-192673000D01*
X114870000Y-185670000D02*
X114870000Y-187530000D01*
X113930000Y-185670000D02*
X114870000Y-185670000D01*
X114870000Y-187530000D02*
X113930000Y-187530000D01*
X113930000Y-187530000D02*
X113930000Y-185670000D01*
X71156400Y-181146800D02*
X62856400Y-181146800D01*
X62856400Y-181146800D02*
X62856400Y-191346800D01*
X62856400Y-191346800D02*
X71156400Y-191346800D01*
X71156400Y-191346800D02*
X71156400Y-181146800D01*
X95900000Y-179850000D02*
X91950000Y-179850000D01*
X91950000Y-179850000D02*
X91950000Y-183500000D01*
X91950000Y-183500000D02*
X95900000Y-183500000D01*
X95900000Y-183500000D02*
X95900000Y-179850000D01*
X90530000Y-182645000D02*
X90530000Y-180785000D01*
X91470000Y-182645000D02*
X90530000Y-182645000D01*
X90530000Y-180785000D02*
X91470000Y-180785000D01*
X91470000Y-180785000D02*
X91470000Y-182645000D01*
X192070159Y-152079700D02*
X188670159Y-152079700D01*
X188670159Y-152079700D02*
X188670159Y-156179700D01*
X192070159Y-156179700D02*
X192070159Y-152079700D01*
X188670159Y-156179700D02*
X192070159Y-156179700D01*
X188990159Y-156099699D02*
X191950159Y-156099699D01*
X188990159Y-157559699D02*
X188990159Y-156099699D01*
X191950159Y-156099699D02*
X191950159Y-157559699D01*
X191950159Y-157559699D02*
X188990159Y-157559699D01*
X204301001Y-168622000D02*
X204301001Y-165222000D01*
X206261001Y-168622000D02*
X204301001Y-168622000D01*
X204301001Y-165222000D02*
X206261001Y-165222000D01*
X206261001Y-165222000D02*
X206261001Y-168622000D01*
X170135502Y-196344502D02*
X167175502Y-196344502D01*
X170135502Y-194884502D02*
X170135502Y-196344502D01*
X167175502Y-196344502D02*
X167175502Y-194884502D01*
X167175502Y-194884502D02*
X170135502Y-194884502D01*
X193475501Y-184043000D02*
X193475501Y-187003000D01*
X192015501Y-184043000D02*
X193475501Y-184043000D01*
X193475501Y-187003000D02*
X192015501Y-187003000D01*
X192015501Y-187003000D02*
X192015501Y-184043000D01*
X73740899Y-190135800D02*
X73740899Y-191955800D01*
X72820899Y-190135800D02*
X73740899Y-190135800D01*
X73740899Y-191955800D02*
X72820899Y-191955800D01*
X72820899Y-191955800D02*
X72820899Y-190135800D01*
X93265100Y-195910400D02*
X92053900Y-195910400D01*
X92053900Y-195910400D02*
X92053900Y-198399600D01*
X92053900Y-198399600D02*
X93265100Y-198399600D01*
X93265100Y-198399600D02*
X93265100Y-195910400D01*
X175360501Y-190166000D02*
X175360501Y-191986000D01*
X174440501Y-190166000D02*
X175360501Y-190166000D01*
X175360501Y-191986000D02*
X174440501Y-191986000D01*
X174440501Y-191986000D02*
X174440501Y-190166000D01*
X197411001Y-172192000D02*
X195551001Y-172192000D01*
X197411001Y-171252000D02*
X197411001Y-172192000D01*
X195551001Y-172192000D02*
X195551001Y-171252000D01*
X195551001Y-171252000D02*
X197411001Y-171252000D01*
X97186500Y-190959600D02*
X97186500Y-189099600D01*
X98126500Y-190959600D02*
X97186500Y-190959600D01*
X97186500Y-189099600D02*
X98126500Y-189099600D01*
X98126500Y-189099600D02*
X98126500Y-190959600D01*
X78533900Y-143514299D02*
X76673900Y-143514299D01*
X78533900Y-142574299D02*
X78533900Y-143514299D01*
X76673900Y-143514299D02*
X76673900Y-142574299D01*
X76673900Y-142574299D02*
X78533900Y-142574299D01*
X176630501Y-198706000D02*
X176630501Y-196846000D01*
X177570501Y-198706000D02*
X176630501Y-198706000D01*
X176630501Y-196846000D02*
X177570501Y-196846000D01*
X177570501Y-196846000D02*
X177570501Y-198706000D01*
X191975501Y-184043000D02*
X191975501Y-187003000D01*
X190515501Y-184043000D02*
X191975501Y-184043000D01*
X191975501Y-187003000D02*
X190515501Y-187003000D01*
X190515501Y-187003000D02*
X190515501Y-184043000D01*
X193398501Y-166592000D02*
X193398501Y-169552000D01*
X191938501Y-166592000D02*
X193398501Y-166592000D01*
X193398501Y-169552000D02*
X191938501Y-169552000D01*
X191938501Y-169552000D02*
X191938501Y-166592000D01*
X176970000Y-179745000D02*
X178830000Y-179745000D01*
X176970000Y-180685000D02*
X176970000Y-179745000D01*
X178830000Y-179745000D02*
X178830000Y-180685000D01*
X178830000Y-180685000D02*
X176970000Y-180685000D01*
X175689501Y-193744502D02*
X177549501Y-193744502D01*
X175689501Y-194684502D02*
X175689501Y-193744502D01*
X177549501Y-193744502D02*
X177549501Y-194684502D01*
X177549501Y-194684502D02*
X175689501Y-194684502D01*
X203475501Y-175502000D02*
X206101501Y-175502000D01*
X206101501Y-175502000D02*
X206101501Y-171301000D01*
X206101501Y-171301000D02*
X203475501Y-171301000D01*
X203475501Y-171301000D02*
X203475501Y-175502000D01*
X105650001Y-185085000D02*
X103650001Y-185085000D01*
X103650001Y-185085000D02*
X103650001Y-183885000D01*
X103650001Y-183885000D02*
X105650001Y-183885000D01*
X105650001Y-183885000D02*
X105650001Y-185085000D01*
X87714500Y-189373000D02*
X87714500Y-191373000D01*
X87214500Y-191673000D02*
X87214500Y-191373000D01*
X87214500Y-191673000D02*
X85414500Y-191673000D01*
X87214500Y-191373000D02*
X87714500Y-191373000D01*
X87214500Y-189373000D02*
X87714500Y-189373000D01*
X87214500Y-189073000D02*
X87214500Y-189373000D01*
X85414500Y-191673000D02*
X85414500Y-190773000D01*
X85414500Y-190773000D02*
X84914500Y-190773000D01*
X85414500Y-189973000D02*
X85414500Y-189073000D01*
X85414500Y-189073000D02*
X87214500Y-189073000D01*
X84914500Y-190773000D02*
X84914500Y-189973000D01*
X84914500Y-189973000D02*
X85414500Y-189973000D01*
X70416000Y-144497800D02*
X72276000Y-144497800D01*
X70416000Y-145437800D02*
X70416000Y-144497800D01*
X72276000Y-144497800D02*
X72276000Y-145437800D01*
X72276000Y-145437800D02*
X70416000Y-145437800D01*
X78590000Y-203291400D02*
X81079200Y-203291400D01*
X81079200Y-203291400D02*
X81079200Y-204502600D01*
X81079200Y-204502600D02*
X78590000Y-204502600D01*
X78590000Y-204502600D02*
X78590000Y-203291400D01*
X155300501Y-178476000D02*
X155300501Y-176476000D01*
X155800501Y-176176000D02*
X155800501Y-176476000D01*
X155800501Y-176176000D02*
X157600501Y-176176000D01*
X155800501Y-176476000D02*
X155300501Y-176476000D01*
X155800501Y-178476000D02*
X155300501Y-178476000D01*
X155800501Y-178776000D02*
X155800501Y-178476000D01*
X157600501Y-176176000D02*
X157600501Y-177076000D01*
X157600501Y-177076000D02*
X158100501Y-177076000D01*
X157600501Y-177876000D02*
X157600501Y-178776000D01*
X157600501Y-178776000D02*
X155800501Y-178776000D01*
X158100501Y-177076000D02*
X158100501Y-177876000D01*
X158100501Y-177876000D02*
X157600501Y-177876000D01*
X201021000Y-205000000D02*
G75*
G03*
X198521000Y-205000000I-1250000J0D01*
G01*
X198521000Y-205000000D02*
G75*
G03*
X201021000Y-205000000I1250000J0D01*
G01*
X102959501Y-178786000D02*
X94159501Y-178786000D01*
X94159501Y-178786000D02*
X94159501Y-169986000D01*
X94159501Y-169986000D02*
X102959501Y-169986000D01*
X102959501Y-169986000D02*
X102959501Y-178786000D01*
X167100000Y-183100000D02*
X174500000Y-183100000D01*
X174500000Y-183100000D02*
X174500000Y-165700000D01*
X174500000Y-165700000D02*
X167100000Y-165700000D01*
X167100000Y-165700000D02*
X167100000Y-183100000D01*
X197561400Y-146557600D02*
X197561400Y-151557600D01*
X197561400Y-151557600D02*
X198461400Y-151557600D01*
X198461400Y-143957600D02*
X198461400Y-146557600D01*
X198461400Y-146557600D02*
X197561400Y-146557600D01*
X198461400Y-151557600D02*
X198461400Y-154157600D01*
X198461400Y-154157600D02*
X213161400Y-154157600D01*
X199561400Y-142957600D02*
X199561400Y-143957600D01*
X199561400Y-143957600D02*
X198461400Y-143957600D01*
X204061400Y-142957600D02*
X199561400Y-142957600D01*
X204061400Y-143957600D02*
X204061400Y-142957600D01*
X213161400Y-143957600D02*
X204061400Y-143957600D01*
X213161400Y-154157600D02*
X213161400Y-143957600D01*
M02*
