G04 #@! TF.GenerationSoftware,KiCad,Pcbnew,7.0.11-rc3*
G04 #@! TF.CreationDate,2024-11-10T09:22:13+01:00*
G04 #@! TF.ProjectId,sodimm-ddr5-tester,736f6469-6d6d-42d6-9464-72352d746573,1.2.0*
G04 #@! TF.SameCoordinates,Original*
G04 #@! TF.FileFunction,Other,User*
%FSLAX46Y46*%
G04 Gerber Fmt 4.6, Leading zero omitted, Abs format (unit mm)*
G04 Created by KiCad (PCBNEW 7.0.11-rc3) date 2024-11-10 09:22:13*
%MOMM*%
%LPD*%
G01*
G04 APERTURE LIST*
%ADD10C,0.050000*%
G04 APERTURE END LIST*
D10*
X98470000Y-180020000D02*
X97530000Y-180020000D01*
X97530000Y-180020000D02*
X97530000Y-181880000D01*
X98470000Y-181880000D02*
X98470000Y-180020000D01*
X97530000Y-181880000D02*
X98470000Y-181880000D01*
X99520000Y-180020000D02*
X98580000Y-180020000D01*
X98580000Y-180020000D02*
X98580000Y-181880000D01*
X99520000Y-181880000D02*
X99520000Y-180020000D01*
X98580000Y-181880000D02*
X99520000Y-181880000D01*
X100570000Y-180020000D02*
X99630000Y-180020000D01*
X99630000Y-180020000D02*
X99630000Y-181880000D01*
X100570000Y-181880000D02*
X100570000Y-180020000D01*
X99630000Y-181880000D02*
X100570000Y-181880000D01*
X102670000Y-180020000D02*
X101730000Y-180020000D01*
X101730000Y-180020000D02*
X101730000Y-181880000D01*
X102670000Y-181880000D02*
X102670000Y-180020000D01*
X101730000Y-181880000D02*
X102670000Y-181880000D01*
X101620000Y-180020000D02*
X100680000Y-180020000D01*
X100680000Y-180020000D02*
X100680000Y-181880000D01*
X101620000Y-181880000D02*
X101620000Y-180020000D01*
X100680000Y-181880000D02*
X101620000Y-181880000D01*
X107388200Y-193215800D02*
X108328200Y-193215800D01*
X108328200Y-193215800D02*
X108328200Y-191355800D01*
X107388200Y-191355800D02*
X107388200Y-193215800D01*
X108328200Y-191355800D02*
X107388200Y-191355800D01*
X108388200Y-193215800D02*
X109328200Y-193215800D01*
X109328200Y-193215800D02*
X109328200Y-191355800D01*
X108388200Y-191355800D02*
X108388200Y-193215800D01*
X109328200Y-191355800D02*
X108388200Y-191355800D01*
X103888200Y-193215800D02*
X104828200Y-193215800D01*
X104828200Y-193215800D02*
X104828200Y-191355800D01*
X103888200Y-191355800D02*
X103888200Y-193215800D01*
X104828200Y-191355800D02*
X103888200Y-191355800D01*
X102872200Y-193220301D02*
X103812200Y-193220301D01*
X103812200Y-193220301D02*
X103812200Y-191360301D01*
X102872200Y-191360301D02*
X102872200Y-193220301D01*
X103812200Y-191360301D02*
X102872200Y-191360301D01*
X104913200Y-193205800D02*
X105853200Y-193205800D01*
X105853200Y-193205800D02*
X105853200Y-191345800D01*
X104913200Y-191345800D02*
X104913200Y-193205800D01*
X105853200Y-191345800D02*
X104913200Y-191345800D01*
X109388200Y-193215800D02*
X110328200Y-193215800D01*
X110328200Y-193215800D02*
X110328200Y-191355800D01*
X109388200Y-191355800D02*
X109388200Y-193215800D01*
X110328200Y-191355800D02*
X109388200Y-191355800D01*
X110388200Y-193215800D02*
X111328200Y-193215800D01*
X111328200Y-193215800D02*
X111328200Y-191355800D01*
X110388200Y-191355800D02*
X110388200Y-193215800D01*
X111328200Y-191355800D02*
X110388200Y-191355800D01*
X99030501Y-162506000D02*
X99970501Y-162506000D01*
X99970501Y-162506000D02*
X99970501Y-160646000D01*
X99030501Y-160646000D02*
X99030501Y-162506000D01*
X99970501Y-160646000D02*
X99030501Y-160646000D01*
X97980501Y-162506000D02*
X98920501Y-162506000D01*
X98920501Y-162506000D02*
X98920501Y-160646000D01*
X97980501Y-160646000D02*
X97980501Y-162506000D01*
X98920501Y-160646000D02*
X97980501Y-160646000D01*
X101155501Y-162531000D02*
X102095501Y-162531000D01*
X102095501Y-162531000D02*
X102095501Y-160671000D01*
X101155501Y-160671000D02*
X101155501Y-162531000D01*
X102095501Y-160671000D02*
X101155501Y-160671000D01*
X100055501Y-162506000D02*
X100995501Y-162506000D01*
X100995501Y-162506000D02*
X100995501Y-160646000D01*
X100055501Y-160646000D02*
X100055501Y-162506000D01*
X100995501Y-160646000D02*
X100055501Y-160646000D01*
X94838672Y-155880000D02*
X95778672Y-155880000D01*
X95778672Y-155880000D02*
X95778672Y-154020000D01*
X94838672Y-154020000D02*
X94838672Y-155880000D01*
X95778672Y-154020000D02*
X94838672Y-154020000D01*
X97170000Y-153330000D02*
X97170000Y-154270000D01*
X97170000Y-154270000D02*
X99030000Y-154270000D01*
X99030000Y-153330000D02*
X97170000Y-153330000D01*
X99030000Y-154270000D02*
X99030000Y-153330000D01*
X86130501Y-153283149D02*
X86130501Y-152343149D01*
X86130501Y-152343149D02*
X84270501Y-152343149D01*
X84270501Y-153283149D02*
X86130501Y-153283149D01*
X84270501Y-152343149D02*
X84270501Y-153283149D01*
X86130501Y-154783149D02*
X86130501Y-153843149D01*
X86130501Y-153843149D02*
X84270501Y-153843149D01*
X84270501Y-154783149D02*
X86130501Y-154783149D01*
X84270501Y-153843149D02*
X84270501Y-154783149D01*
X95140000Y-151210000D02*
X96060000Y-151210000D01*
X96060000Y-151210000D02*
X96060000Y-149390000D01*
X95140000Y-149390000D02*
X95140000Y-151210000D01*
X96060000Y-149390000D02*
X95140000Y-149390000D01*
X92848672Y-158914992D02*
X93768672Y-158914992D01*
X93768672Y-158914992D02*
X93768672Y-157094992D01*
X92848672Y-157094992D02*
X92848672Y-158914992D01*
X93768672Y-157094992D02*
X92848672Y-157094992D01*
X94848672Y-158914992D02*
X95768672Y-158914992D01*
X95768672Y-158914992D02*
X95768672Y-157094992D01*
X94848672Y-157094992D02*
X94848672Y-158914992D01*
X95768672Y-157094992D02*
X94848672Y-157094992D01*
X92576829Y-151193157D02*
X93496829Y-151193157D01*
X93496829Y-151193157D02*
X93496829Y-149373157D01*
X92576829Y-149373157D02*
X92576829Y-151193157D01*
X93496829Y-149373157D02*
X92576829Y-149373157D01*
X90690000Y-158914992D02*
X91610000Y-158914992D01*
X91610000Y-158914992D02*
X91610000Y-157094992D01*
X90690000Y-157094992D02*
X90690000Y-158914992D01*
X91610000Y-157094992D02*
X90690000Y-157094992D01*
X93601829Y-151193157D02*
X94521829Y-151193157D01*
X94521829Y-151193157D02*
X94521829Y-149373157D01*
X93601829Y-149373157D02*
X93601829Y-151193157D01*
X94521829Y-149373157D02*
X93601829Y-149373157D01*
X93848672Y-158914992D02*
X94768672Y-158914992D01*
X94768672Y-158914992D02*
X94768672Y-157094992D01*
X93848672Y-157094992D02*
X93848672Y-158914992D01*
X94768672Y-157094992D02*
X93848672Y-157094992D01*
X96976829Y-150348157D02*
X96976829Y-151268157D01*
X96976829Y-151268157D02*
X98796829Y-151268157D01*
X98796829Y-150348157D02*
X96976829Y-150348157D01*
X98796829Y-151268157D02*
X98796829Y-150348157D01*
X91040000Y-151193157D02*
X91960000Y-151193157D01*
X91960000Y-151193157D02*
X91960000Y-149373157D01*
X91040000Y-149373157D02*
X91040000Y-151193157D01*
X91960000Y-149373157D02*
X91040000Y-149373157D01*
X97190000Y-154740000D02*
X97190000Y-155660000D01*
X97190000Y-155660000D02*
X99010000Y-155660000D01*
X99010000Y-154740000D02*
X97190000Y-154740000D01*
X99010000Y-155660000D02*
X99010000Y-154740000D01*
X89626829Y-150543157D02*
X90546829Y-150543157D01*
X90546829Y-150543157D02*
X90546829Y-148723157D01*
X89626829Y-148723157D02*
X89626829Y-150543157D01*
X90546829Y-148723157D02*
X89626829Y-148723157D01*
X91848672Y-158914992D02*
X92768672Y-158914992D01*
X92768672Y-158914992D02*
X92768672Y-157094992D01*
X91848672Y-157094992D02*
X91848672Y-158914992D01*
X92768672Y-157094992D02*
X91848672Y-157094992D01*
X88626829Y-150543157D02*
X89546829Y-150543157D01*
X89546829Y-150543157D02*
X89546829Y-148723157D01*
X88626829Y-148723157D02*
X88626829Y-150543157D01*
X89546829Y-148723157D02*
X88626829Y-148723157D01*
X89648672Y-158914992D02*
X90568672Y-158914992D01*
X90568672Y-158914992D02*
X90568672Y-157094992D01*
X89648672Y-157094992D02*
X89648672Y-158914992D01*
X90568672Y-157094992D02*
X89648672Y-157094992D01*
X99500501Y-148958851D02*
X96900501Y-148958851D01*
X96900501Y-148958851D02*
X96900501Y-150158851D01*
X96900501Y-150158851D02*
X99500501Y-150158851D01*
X99500501Y-150158851D02*
X99500501Y-148958851D01*
X91786829Y-153158157D02*
X94386829Y-153158157D01*
X94386829Y-153158157D02*
X94386829Y-151958157D01*
X94386829Y-151958157D02*
X91786829Y-151958157D01*
X91786829Y-151958157D02*
X91786829Y-153158157D01*
X69202200Y-172094000D02*
X70142200Y-172094000D01*
X70142200Y-172094000D02*
X70142200Y-170234000D01*
X69202200Y-170234000D02*
X69202200Y-172094000D01*
X70142200Y-170234000D02*
X69202200Y-170234000D01*
X70162701Y-163820000D02*
X69222701Y-163820000D01*
X69222701Y-163820000D02*
X69222701Y-165680000D01*
X70162701Y-165680000D02*
X70162701Y-163820000D01*
X69222701Y-165680000D02*
X70162701Y-165680000D01*
X99995501Y-163021000D02*
X99055501Y-163021000D01*
X99055501Y-163021000D02*
X99055501Y-164881000D01*
X99995501Y-164881000D02*
X99995501Y-163021000D01*
X99055501Y-164881000D02*
X99995501Y-164881000D01*
X99030000Y-158570000D02*
X99030000Y-157630000D01*
X99030000Y-157630000D02*
X97170000Y-157630000D01*
X97170000Y-158570000D02*
X99030000Y-158570000D01*
X97170000Y-157630000D02*
X97170000Y-158570000D01*
X97895501Y-163021000D02*
X96955501Y-163021000D01*
X96955501Y-163021000D02*
X96955501Y-164881000D01*
X97895501Y-164881000D02*
X97895501Y-163021000D01*
X96955501Y-164881000D02*
X97895501Y-164881000D01*
X102095501Y-163021000D02*
X101155501Y-163021000D01*
X101155501Y-163021000D02*
X101155501Y-164881000D01*
X102095501Y-164881000D02*
X102095501Y-163021000D01*
X101155501Y-164881000D02*
X102095501Y-164881000D01*
X101020501Y-163021000D02*
X100080501Y-163021000D01*
X100080501Y-163021000D02*
X100080501Y-164881000D01*
X101020501Y-164881000D02*
X101020501Y-163021000D01*
X100080501Y-164881000D02*
X101020501Y-164881000D01*
X93788672Y-155880000D02*
X94728672Y-155880000D01*
X94728672Y-155880000D02*
X94728672Y-154020000D01*
X93788672Y-154020000D02*
X93788672Y-155880000D01*
X94728672Y-154020000D02*
X93788672Y-154020000D01*
X85210501Y-152283149D02*
X86150501Y-152283149D01*
X86150501Y-152283149D02*
X86150501Y-150423149D01*
X85210501Y-150423149D02*
X85210501Y-152283149D01*
X86150501Y-150423149D02*
X85210501Y-150423149D01*
X86150501Y-154833149D02*
X85210501Y-154833149D01*
X85210501Y-154833149D02*
X85210501Y-156693149D01*
X86150501Y-156693149D02*
X86150501Y-154833149D01*
X85210501Y-156693149D02*
X86150501Y-156693149D01*
X95905501Y-162506000D02*
X96845501Y-162506000D01*
X96845501Y-162506000D02*
X96845501Y-160646000D01*
X95905501Y-160646000D02*
X95905501Y-162506000D01*
X96845501Y-160646000D02*
X95905501Y-160646000D01*
X96845501Y-163021000D02*
X95905501Y-163021000D01*
X95905501Y-163021000D02*
X95905501Y-164881000D01*
X96845501Y-164881000D02*
X96845501Y-163021000D01*
X95905501Y-164881000D02*
X96845501Y-164881000D01*
X98945501Y-163021000D02*
X98005501Y-163021000D01*
X98005501Y-163021000D02*
X98005501Y-164881000D01*
X98945501Y-164881000D02*
X98945501Y-163021000D01*
X98005501Y-164881000D02*
X98945501Y-164881000D01*
X96955501Y-162506000D02*
X97895501Y-162506000D01*
X97895501Y-162506000D02*
X97895501Y-160646000D01*
X96955501Y-160646000D02*
X96955501Y-162506000D01*
X97895501Y-160646000D02*
X96955501Y-160646000D01*
X116740501Y-172406000D02*
X116740501Y-173326000D01*
X116740501Y-173326000D02*
X118560501Y-173326000D01*
X118560501Y-172406000D02*
X116740501Y-172406000D01*
X118560501Y-173326000D02*
X118560501Y-172406000D01*
X148785501Y-162761000D02*
X148785501Y-161841000D01*
X148785501Y-161841000D02*
X146965501Y-161841000D01*
X146965501Y-162761000D02*
X148785501Y-162761000D01*
X146965501Y-161841000D02*
X146965501Y-162761000D01*
X181730000Y-197870000D02*
X181730000Y-196930000D01*
X181730000Y-196930000D02*
X179870000Y-196930000D01*
X179870000Y-197870000D02*
X181730000Y-197870000D01*
X179870000Y-196930000D02*
X179870000Y-197870000D01*
X145785501Y-173761000D02*
X145785501Y-172841000D01*
X145785501Y-172841000D02*
X143965501Y-172841000D01*
X143965501Y-173761000D02*
X145785501Y-173761000D01*
X143965501Y-172841000D02*
X143965501Y-173761000D01*
X150785001Y-180760501D02*
X150785001Y-179840501D01*
X150785001Y-179840501D02*
X148965001Y-179840501D01*
X148965001Y-180760501D02*
X150785001Y-180760501D01*
X148965001Y-179840501D02*
X148965001Y-180760501D01*
X74635100Y-143416700D02*
X75555100Y-143416700D01*
X75555100Y-143416700D02*
X75555100Y-141596700D01*
X74635100Y-141596700D02*
X74635100Y-143416700D01*
X75555100Y-141596700D02*
X74635100Y-141596700D01*
X181730000Y-194520000D02*
X181730000Y-193580000D01*
X181730000Y-193580000D02*
X179870000Y-193580000D01*
X179870000Y-194520000D02*
X181730000Y-194520000D01*
X179870000Y-193580000D02*
X179870000Y-194520000D01*
X144238700Y-201415301D02*
X145178700Y-201415301D01*
X145178700Y-201415301D02*
X145178700Y-199555301D01*
X144238700Y-199555301D02*
X144238700Y-201415301D01*
X145178700Y-199555301D02*
X144238700Y-199555301D01*
X142785001Y-171762500D02*
X142785001Y-170842500D01*
X142785001Y-170842500D02*
X140965001Y-170842500D01*
X140965001Y-171762500D02*
X142785001Y-171762500D01*
X140965001Y-170842500D02*
X140965001Y-171762500D01*
X158770500Y-180206001D02*
X158770500Y-181146001D01*
X158770500Y-181146001D02*
X160630500Y-181146001D01*
X160630500Y-180206001D02*
X158770500Y-180206001D01*
X160630500Y-181146001D02*
X160630500Y-180206001D01*
X143835501Y-171891000D02*
X142915501Y-171891000D01*
X142915501Y-171891000D02*
X142915501Y-173711000D01*
X143835501Y-173711000D02*
X143835501Y-171891000D01*
X142915501Y-173711000D02*
X143835501Y-173711000D01*
X76619000Y-131638400D02*
X77559000Y-131638400D01*
X77559000Y-131638400D02*
X77559000Y-129778400D01*
X76619000Y-129778400D02*
X76619000Y-131638400D01*
X77559000Y-129778400D02*
X76619000Y-129778400D01*
X142915001Y-178710500D02*
X143835001Y-178710500D01*
X143835001Y-178710500D02*
X143835001Y-176890500D01*
X142915001Y-176890500D02*
X142915001Y-178710500D01*
X143835001Y-176890500D02*
X142915001Y-176890500D01*
X149026200Y-130540000D02*
X149026200Y-131460000D01*
X149026200Y-131460000D02*
X150846200Y-131460000D01*
X150846200Y-130540000D02*
X149026200Y-130540000D01*
X150846200Y-131460000D02*
X150846200Y-130540000D01*
X146835001Y-182890500D02*
X145915001Y-182890500D01*
X145915001Y-182890500D02*
X145915001Y-184710500D01*
X146835001Y-184710500D02*
X146835001Y-182890500D01*
X145915001Y-184710500D02*
X146835001Y-184710500D01*
X195770000Y-171255000D02*
X195770000Y-172195000D01*
X195770000Y-172195000D02*
X197630000Y-172195000D01*
X197630000Y-171255000D02*
X195770000Y-171255000D01*
X197630000Y-172195000D02*
X197630000Y-171255000D01*
X136847001Y-159105500D02*
X136847001Y-160045500D01*
X136847001Y-160045500D02*
X138707001Y-160045500D01*
X138707001Y-159105500D02*
X136847001Y-159105500D01*
X138707001Y-160045500D02*
X138707001Y-159105500D01*
X146965501Y-166841000D02*
X146965501Y-167761000D01*
X146965501Y-167761000D02*
X148785501Y-167761000D01*
X148785501Y-166841000D02*
X146965501Y-166841000D01*
X148785501Y-167761000D02*
X148785501Y-166841000D01*
X148917001Y-182710500D02*
X149837001Y-182710500D01*
X149837001Y-182710500D02*
X149837001Y-180890500D01*
X148917001Y-180890500D02*
X148917001Y-182710500D01*
X149837001Y-180890500D02*
X148917001Y-180890500D01*
X158280000Y-201790800D02*
X159220000Y-201790800D01*
X159220000Y-201790800D02*
X159220000Y-199930800D01*
X158280000Y-199930800D02*
X158280000Y-201790800D01*
X159220000Y-199930800D02*
X158280000Y-199930800D01*
X136965001Y-176842500D02*
X136965001Y-177762500D01*
X136965001Y-177762500D02*
X138785001Y-177762500D01*
X138785001Y-176842500D02*
X136965001Y-176842500D01*
X138785001Y-177762500D02*
X138785001Y-176842500D01*
X135967001Y-172842500D02*
X135967001Y-173762500D01*
X135967001Y-173762500D02*
X137787001Y-173762500D01*
X137787001Y-172842500D02*
X135967001Y-172842500D01*
X137787001Y-173762500D02*
X137787001Y-172842500D01*
X202738400Y-149532600D02*
X202738400Y-148612600D01*
X202738400Y-148612600D02*
X200918400Y-148612600D01*
X200918400Y-149532600D02*
X202738400Y-149532600D01*
X200918400Y-148612600D02*
X200918400Y-149532600D01*
X119120501Y-176836000D02*
X120040501Y-176836000D01*
X120040501Y-176836000D02*
X120040501Y-175016000D01*
X119120501Y-175016000D02*
X119120501Y-176836000D01*
X120040501Y-175016000D02*
X119120501Y-175016000D01*
X140925001Y-169852500D02*
X140925001Y-170762500D01*
X140925001Y-170762500D02*
X142840201Y-170762500D01*
X142840201Y-169852500D02*
X140925001Y-169852500D01*
X142840201Y-170762500D02*
X142840201Y-169852500D01*
X159740000Y-201785800D02*
X160660000Y-201785800D01*
X160660000Y-201785800D02*
X160660000Y-199965800D01*
X159740000Y-199965800D02*
X159740000Y-201785800D01*
X160660000Y-199965800D02*
X159740000Y-199965800D01*
X139832001Y-161030000D02*
X140772001Y-161030000D01*
X140772001Y-161030000D02*
X140772001Y-159170000D01*
X139832001Y-159170000D02*
X139832001Y-161030000D01*
X140772001Y-159170000D02*
X139832001Y-159170000D01*
X149837001Y-182890500D02*
X148917001Y-182890500D01*
X148917001Y-182890500D02*
X148917001Y-184710500D01*
X149837001Y-184710500D02*
X149837001Y-182890500D01*
X148917001Y-184710500D02*
X149837001Y-184710500D01*
X138170501Y-186756000D02*
X139630501Y-186756000D01*
X139630501Y-186756000D02*
X139630501Y-183796000D01*
X138170501Y-183796000D02*
X138170501Y-186756000D01*
X139630501Y-183796000D02*
X138170501Y-183796000D01*
X134785501Y-163761000D02*
X134785501Y-162841000D01*
X134785501Y-162841000D02*
X132965501Y-162841000D01*
X132965501Y-163761000D02*
X134785501Y-163761000D01*
X132965501Y-162841000D02*
X132965501Y-163761000D01*
X138915001Y-179712500D02*
X139835001Y-179712500D01*
X139835001Y-179712500D02*
X139835001Y-177892500D01*
X138915001Y-177892500D02*
X138915001Y-179712500D01*
X139835001Y-177892500D02*
X138915001Y-177892500D01*
X146835001Y-184890501D02*
X145915001Y-184890501D01*
X145915001Y-184890501D02*
X145915001Y-186710501D01*
X146835001Y-186710501D02*
X146835001Y-184890501D01*
X145915001Y-186710501D02*
X146835001Y-186710501D01*
X140935501Y-175501000D02*
X143415501Y-175501000D01*
X143415501Y-175501000D02*
X143415501Y-174101000D01*
X143415501Y-174101000D02*
X140935501Y-174101000D01*
X140935501Y-174101000D02*
X140935501Y-175501000D01*
X138965001Y-170842500D02*
X138965001Y-171762500D01*
X138965001Y-171762500D02*
X140785001Y-171762500D01*
X140785001Y-170842500D02*
X138965001Y-170842500D01*
X140785001Y-171762500D02*
X140785001Y-170842500D01*
X155590501Y-174816000D02*
X155590501Y-175736000D01*
X155590501Y-175736000D02*
X157410501Y-175736000D01*
X157410501Y-174816000D02*
X155590501Y-174816000D01*
X157410501Y-175736000D02*
X157410501Y-174816000D01*
X202411001Y-171152000D02*
X203351001Y-171152000D01*
X203351001Y-171152000D02*
X203351001Y-169292000D01*
X202411001Y-169292000D02*
X202411001Y-171152000D01*
X203351001Y-169292000D02*
X202411001Y-169292000D01*
X171890501Y-195916000D02*
X171890501Y-196836000D01*
X171890501Y-196836000D02*
X173710501Y-196836000D01*
X173710501Y-195916000D02*
X171890501Y-195916000D01*
X173710501Y-196836000D02*
X173710501Y-195916000D01*
X140915501Y-178711000D02*
X141835501Y-178711000D01*
X141835501Y-178711000D02*
X141835501Y-176891000D01*
X140915501Y-176891000D02*
X140915501Y-178711000D01*
X141835501Y-176891000D02*
X140915501Y-176891000D01*
X124947001Y-172830500D02*
X124947001Y-173770500D01*
X124947001Y-173770500D02*
X126807001Y-173770500D01*
X126807001Y-172830500D02*
X124947001Y-172830500D01*
X126807001Y-173770500D02*
X126807001Y-172830500D01*
X148785501Y-176761000D02*
X148785501Y-175841000D01*
X148785501Y-175841000D02*
X146965501Y-175841000D01*
X146965501Y-176761000D02*
X148785501Y-176761000D01*
X146965501Y-175841000D02*
X146965501Y-176761000D01*
X146947001Y-176832500D02*
X146947001Y-177772500D01*
X146947001Y-177772500D02*
X148807001Y-177772500D01*
X148807001Y-176832500D02*
X146947001Y-176832500D01*
X148807001Y-177772500D02*
X148807001Y-176832500D01*
X145785001Y-180762500D02*
X145785001Y-179842500D01*
X145785001Y-179842500D02*
X143965001Y-179842500D01*
X143965001Y-180762500D02*
X145785001Y-180762500D01*
X143965001Y-179842500D02*
X143965001Y-180762500D01*
X129785501Y-168761000D02*
X129785501Y-167841000D01*
X129785501Y-167841000D02*
X127965501Y-167841000D01*
X127965501Y-168761000D02*
X129785501Y-168761000D01*
X127965501Y-167841000D02*
X127965501Y-168761000D01*
X198260501Y-197696000D02*
G75*
G03*
X195760501Y-197696000I-1250000J0D01*
G01*
X195760501Y-197696000D02*
G75*
G03*
X198260501Y-197696000I1250000J0D01*
G01*
X94710000Y-164911500D02*
X94710000Y-163991500D01*
X94710000Y-163991500D02*
X92890000Y-163991500D01*
X92890000Y-164911500D02*
X94710000Y-164911500D01*
X92890000Y-163991500D02*
X92890000Y-164911500D01*
X141055501Y-175531000D02*
X141055501Y-174071000D01*
X141055501Y-174071000D02*
X138095501Y-174071000D01*
X138095501Y-175531000D02*
X141055501Y-175531000D01*
X138095501Y-174071000D02*
X138095501Y-175531000D01*
X140965501Y-179841000D02*
X140965501Y-180761000D01*
X140965501Y-180761000D02*
X142785501Y-180761000D01*
X142785501Y-179841000D02*
X140965501Y-179841000D01*
X142785501Y-180761000D02*
X142785501Y-179841000D01*
X142925001Y-171752500D02*
X143835001Y-171752500D01*
X143835001Y-171752500D02*
X143835001Y-169837300D01*
X142925001Y-169837300D02*
X142925001Y-171752500D01*
X143835001Y-169837300D02*
X142925001Y-169837300D01*
X137785501Y-162761000D02*
X137785501Y-161841000D01*
X137785501Y-161841000D02*
X135965501Y-161841000D01*
X135965501Y-162761000D02*
X137785501Y-162761000D01*
X135965501Y-161841000D02*
X135965501Y-162761000D01*
X183685000Y-202935600D02*
X183685000Y-202015600D01*
X183685000Y-202015600D02*
X181865000Y-202015600D01*
X181865000Y-202935600D02*
X183685000Y-202935600D01*
X181865000Y-202015600D02*
X181865000Y-202935600D01*
X126835501Y-180891000D02*
X125915501Y-180891000D01*
X125915501Y-180891000D02*
X125915501Y-182711000D01*
X126835501Y-182711000D02*
X126835501Y-180891000D01*
X125915501Y-182711000D02*
X126835501Y-182711000D01*
X130835501Y-161891000D02*
X129915501Y-161891000D01*
X129915501Y-161891000D02*
X129915501Y-163711000D01*
X130835501Y-163711000D02*
X130835501Y-161891000D01*
X129915501Y-163711000D02*
X130835501Y-163711000D01*
X79125200Y-162034000D02*
X79125200Y-161094000D01*
X79125200Y-161094000D02*
X77265200Y-161094000D01*
X77265200Y-162034000D02*
X79125200Y-162034000D01*
X77265200Y-161094000D02*
X77265200Y-162034000D01*
X142247000Y-130540000D02*
X142247000Y-131460000D01*
X142247000Y-131460000D02*
X144067000Y-131460000D01*
X144067000Y-130540000D02*
X142247000Y-130540000D01*
X144067000Y-131460000D02*
X144067000Y-130540000D01*
X180728800Y-206209800D02*
X180728800Y-207149800D01*
X180728800Y-207149800D02*
X182588800Y-207149800D01*
X182588800Y-206209800D02*
X180728800Y-206209800D01*
X182588800Y-207149800D02*
X182588800Y-206209800D01*
X139915501Y-165711000D02*
X140835501Y-165711000D01*
X140835501Y-165711000D02*
X140835501Y-163891000D01*
X139915501Y-163891000D02*
X139915501Y-165711000D01*
X140835501Y-163891000D02*
X139915501Y-163891000D01*
X150835501Y-168892500D02*
X149915501Y-168892500D01*
X149915501Y-168892500D02*
X149915501Y-170712500D01*
X150835501Y-170712500D02*
X150835501Y-168892500D01*
X149915501Y-170712500D02*
X150835501Y-170712500D01*
X145787001Y-186760500D02*
X145787001Y-185840500D01*
X145787001Y-185840500D02*
X143967001Y-185840500D01*
X143967001Y-186760500D02*
X145787001Y-186760500D01*
X143967001Y-185840500D02*
X143967001Y-186760500D01*
X137835501Y-183891000D02*
X136915501Y-183891000D01*
X136915501Y-183891000D02*
X136915501Y-185711000D01*
X137835501Y-185711000D02*
X137835501Y-183891000D01*
X136915501Y-185711000D02*
X137835501Y-185711000D01*
X182998800Y-206169800D02*
X182998800Y-207089800D01*
X182998800Y-207089800D02*
X184818800Y-207089800D01*
X184818800Y-206169800D02*
X182998800Y-206169800D01*
X184818800Y-207089800D02*
X184818800Y-206169800D01*
X130835501Y-182890500D02*
X129915501Y-182890500D01*
X129915501Y-182890500D02*
X129915501Y-184710500D01*
X130835501Y-184710500D02*
X130835501Y-182890500D01*
X129915501Y-184710500D02*
X130835501Y-184710500D01*
X139915501Y-178711000D02*
X140835501Y-178711000D01*
X140835501Y-178711000D02*
X140835501Y-176891000D01*
X139915501Y-176891000D02*
X139915501Y-178711000D01*
X140835501Y-176891000D02*
X139915501Y-176891000D01*
X143967001Y-183840500D02*
X143967001Y-184760500D01*
X143967001Y-184760500D02*
X145787001Y-184760500D01*
X145787001Y-183840500D02*
X143967001Y-183840500D01*
X145787001Y-184760500D02*
X145787001Y-183840500D01*
X180728800Y-207209800D02*
X180728800Y-208149800D01*
X180728800Y-208149800D02*
X182588800Y-208149800D01*
X182588800Y-207209800D02*
X180728800Y-207209800D01*
X182588800Y-208149800D02*
X182588800Y-207209800D01*
X139915001Y-173712500D02*
X140835001Y-173712500D01*
X140835001Y-173712500D02*
X140835001Y-171892500D01*
X139915001Y-171892500D02*
X139915001Y-173712500D01*
X140835001Y-171892500D02*
X139915001Y-171892500D01*
X104490000Y-172898000D02*
X105410000Y-172898000D01*
X105410000Y-172898000D02*
X105410000Y-171078000D01*
X104490000Y-171078000D02*
X104490000Y-172898000D01*
X105410000Y-171078000D02*
X104490000Y-171078000D01*
X137787002Y-171762500D02*
X137787002Y-170842500D01*
X137787002Y-170842500D02*
X135967002Y-170842500D01*
X135967002Y-171762500D02*
X137787002Y-171762500D01*
X135967002Y-170842500D02*
X135967002Y-171762500D01*
X123280501Y-175896000D02*
X123280501Y-174956000D01*
X123280501Y-174956000D02*
X121420501Y-174956000D01*
X121420501Y-175896000D02*
X123280501Y-175896000D01*
X121420501Y-174956000D02*
X121420501Y-175896000D01*
X148785001Y-179760500D02*
X148785001Y-178840500D01*
X148785001Y-178840500D02*
X146965001Y-178840500D01*
X146965001Y-179760500D02*
X148785001Y-179760500D01*
X146965001Y-178840500D02*
X146965001Y-179760500D01*
X128785501Y-165761000D02*
X128785501Y-164841000D01*
X128785501Y-164841000D02*
X126965501Y-164841000D01*
X126965501Y-165761000D02*
X128785501Y-165761000D01*
X126965501Y-164841000D02*
X126965501Y-165761000D01*
X147835001Y-169890500D02*
X146915001Y-169890500D01*
X146915001Y-169890500D02*
X146915001Y-171710500D01*
X147835001Y-171710500D02*
X147835001Y-169890500D01*
X146915001Y-171710500D02*
X147835001Y-171710500D01*
X159430501Y-175746000D02*
X159430501Y-174806000D01*
X159430501Y-174806000D02*
X157570501Y-174806000D01*
X157570501Y-175746000D02*
X159430501Y-175746000D01*
X157570501Y-174806000D02*
X157570501Y-175746000D01*
X136915001Y-180712500D02*
X137835001Y-180712500D01*
X137835001Y-180712500D02*
X137835001Y-178892500D01*
X136915001Y-178892500D02*
X136915001Y-180712500D01*
X137835001Y-178892500D02*
X136915001Y-178892500D01*
X202405000Y-165780000D02*
X203345000Y-165780000D01*
X203345000Y-165780000D02*
X203345000Y-163920000D01*
X202405000Y-163920000D02*
X202405000Y-165780000D01*
X203345000Y-163920000D02*
X202405000Y-163920000D01*
X115005501Y-175246000D02*
X113545501Y-175246000D01*
X113545501Y-175246000D02*
X113545501Y-178206000D01*
X115005501Y-178206000D02*
X115005501Y-175246000D01*
X113545501Y-178206000D02*
X115005501Y-178206000D01*
X141785001Y-182760500D02*
X141785001Y-181840500D01*
X141785001Y-181840500D02*
X139965001Y-181840500D01*
X139965001Y-182760500D02*
X141785001Y-182760500D01*
X139965001Y-181840500D02*
X139965001Y-182760500D01*
X147805001Y-173772500D02*
X147805001Y-172832500D01*
X147805001Y-172832500D02*
X145945001Y-172832500D01*
X145945001Y-173772500D02*
X147805001Y-173772500D01*
X145945001Y-172832500D02*
X145945001Y-173772500D01*
X125220000Y-186920000D02*
X124280000Y-186920000D01*
X124280000Y-186920000D02*
X124280000Y-188780000D01*
X125220000Y-188780000D02*
X125220000Y-186920000D01*
X124280000Y-188780000D02*
X125220000Y-188780000D01*
X154705001Y-175770000D02*
X154705001Y-174830000D01*
X154705001Y-174830000D02*
X152845001Y-174830000D01*
X152845001Y-175770000D02*
X154705001Y-175770000D01*
X152845001Y-174830000D02*
X152845001Y-175770000D01*
X144835501Y-181891000D02*
X143915501Y-181891000D01*
X143915501Y-181891000D02*
X143915501Y-183711000D01*
X144835501Y-183711000D02*
X144835501Y-181891000D01*
X143915501Y-183711000D02*
X144835501Y-183711000D01*
X145915001Y-179710500D02*
X146835001Y-179710500D01*
X146835001Y-179710500D02*
X146835001Y-177890500D01*
X145915001Y-177890500D02*
X145915001Y-179710500D01*
X146835001Y-177890500D02*
X145915001Y-177890500D01*
X139787001Y-173762500D02*
X139787001Y-172842500D01*
X139787001Y-172842500D02*
X137967001Y-172842500D01*
X137967001Y-173762500D02*
X139787001Y-173762500D01*
X137967001Y-172842500D02*
X137967001Y-173762500D01*
X123230000Y-188780000D02*
X124170000Y-188780000D01*
X124170000Y-188780000D02*
X124170000Y-186920000D01*
X123230000Y-186920000D02*
X123230000Y-188780000D01*
X124170000Y-186920000D02*
X123230000Y-186920000D01*
X113870501Y-180779999D02*
X113870501Y-181719999D01*
X113870501Y-181719999D02*
X115730501Y-181719999D01*
X115730501Y-180779999D02*
X113870501Y-180779999D01*
X115730501Y-181719999D02*
X115730501Y-180779999D01*
X129835501Y-179891000D02*
X128915501Y-179891000D01*
X128915501Y-179891000D02*
X128915501Y-181711000D01*
X129835501Y-181711000D02*
X129835501Y-179891000D01*
X128915501Y-181711000D02*
X129835501Y-181711000D01*
X127915501Y-172711000D02*
X128835501Y-172711000D01*
X128835501Y-172711000D02*
X128835501Y-170891000D01*
X127915501Y-170891000D02*
X127915501Y-172711000D01*
X128835501Y-170891000D02*
X127915501Y-170891000D01*
X131835501Y-185891000D02*
X130915501Y-185891000D01*
X130915501Y-185891000D02*
X130915501Y-187711000D01*
X131835501Y-187711000D02*
X131835501Y-185891000D01*
X130915501Y-187711000D02*
X131835501Y-187711000D01*
X135967001Y-171842500D02*
X135967001Y-172762500D01*
X135967001Y-172762500D02*
X137787001Y-172762500D01*
X137787001Y-171842500D02*
X135967001Y-171842500D01*
X137787001Y-172762500D02*
X137787001Y-171842500D01*
X131835501Y-175891000D02*
X130915501Y-175891000D01*
X130915501Y-175891000D02*
X130915501Y-177711000D01*
X131835501Y-177711000D02*
X131835501Y-175891000D01*
X130915501Y-177711000D02*
X131835501Y-177711000D01*
X203410000Y-184440000D02*
X202490000Y-184440000D01*
X202490000Y-184440000D02*
X202490000Y-186260000D01*
X203410000Y-186260000D02*
X203410000Y-184440000D01*
X202490000Y-186260000D02*
X203410000Y-186260000D01*
X197630000Y-179870000D02*
X197630000Y-178930000D01*
X197630000Y-178930000D02*
X195770000Y-178930000D01*
X195770000Y-179870000D02*
X197630000Y-179870000D01*
X195770000Y-178930000D02*
X195770000Y-179870000D01*
X141965001Y-175842500D02*
X141965001Y-176762500D01*
X141965001Y-176762500D02*
X143785001Y-176762500D01*
X143785001Y-175842500D02*
X141965001Y-175842500D01*
X143785001Y-176762500D02*
X143785001Y-175842500D01*
X105500000Y-172890000D02*
X106420000Y-172890000D01*
X106420000Y-172890000D02*
X106420000Y-171070000D01*
X105500000Y-171070000D02*
X105500000Y-172890000D01*
X106420000Y-171070000D02*
X105500000Y-171070000D01*
X139965501Y-175841000D02*
X139965501Y-176761000D01*
X139965501Y-176761000D02*
X141785501Y-176761000D01*
X141785501Y-175841000D02*
X139965501Y-175841000D01*
X141785501Y-176761000D02*
X141785501Y-175841000D01*
X145965501Y-163841000D02*
X145965501Y-164761000D01*
X145965501Y-164761000D02*
X147785501Y-164761000D01*
X147785501Y-163841000D02*
X145965501Y-163841000D01*
X147785501Y-164761000D02*
X147785501Y-163841000D01*
X184768800Y-207219800D02*
X183848800Y-207219800D01*
X183848800Y-207219800D02*
X183848800Y-209039800D01*
X184768800Y-209039800D02*
X184768800Y-207219800D01*
X183848800Y-209039800D02*
X184768800Y-209039800D01*
X135915501Y-166711000D02*
X136835501Y-166711000D01*
X136835501Y-166711000D02*
X136835501Y-164891000D01*
X135915501Y-164891000D02*
X135915501Y-166711000D01*
X136835501Y-164891000D02*
X135915501Y-164891000D01*
X150287001Y-186610500D02*
X150287001Y-185690500D01*
X150287001Y-185690500D02*
X148467001Y-185690500D01*
X148467001Y-186610500D02*
X150287001Y-186610500D01*
X148467001Y-185690500D02*
X148467001Y-186610500D01*
X140940000Y-159140000D02*
X140940000Y-160060000D01*
X140940000Y-160060000D02*
X142760000Y-160060000D01*
X142760000Y-159140000D02*
X140940000Y-159140000D01*
X142760000Y-160060000D02*
X142760000Y-159140000D01*
X140965501Y-171841000D02*
X140965501Y-172761000D01*
X140965501Y-172761000D02*
X142785501Y-172761000D01*
X142785501Y-171841000D02*
X140965501Y-171841000D01*
X142785501Y-172761000D02*
X142785501Y-171841000D01*
X143965501Y-171841000D02*
X143965501Y-172761000D01*
X143965501Y-172761000D02*
X145785501Y-172761000D01*
X145785501Y-171841000D02*
X143965501Y-171841000D01*
X145785501Y-172761000D02*
X145785501Y-171841000D01*
X131835501Y-164891000D02*
X130915501Y-164891000D01*
X130915501Y-164891000D02*
X130915501Y-166711000D01*
X131835501Y-166711000D02*
X131835501Y-164891000D01*
X130915501Y-166711000D02*
X131835501Y-166711000D01*
X202455000Y-188580000D02*
X203395000Y-188580000D01*
X203395000Y-188580000D02*
X203395000Y-186720000D01*
X202455000Y-186720000D02*
X202455000Y-188580000D01*
X203395000Y-186720000D02*
X202455000Y-186720000D01*
X80937200Y-129803800D02*
X79997200Y-129803800D01*
X79997200Y-129803800D02*
X79997200Y-131663800D01*
X80937200Y-131663800D02*
X80937200Y-129803800D01*
X79997200Y-131663800D02*
X80937200Y-131663800D01*
X139915501Y-186711000D02*
X140835501Y-186711000D01*
X140835501Y-186711000D02*
X140835501Y-184891000D01*
X139915501Y-184891000D02*
X139915501Y-186711000D01*
X140835501Y-184891000D02*
X139915501Y-184891000D01*
X135805000Y-186770000D02*
X135805000Y-185830000D01*
X135805000Y-185830000D02*
X133945000Y-185830000D01*
X133945000Y-186770000D02*
X135805000Y-186770000D01*
X133945000Y-185830000D02*
X133945000Y-186770000D01*
X144915501Y-179711000D02*
X145835501Y-179711000D01*
X145835501Y-179711000D02*
X145835501Y-177891000D01*
X144915501Y-177891000D02*
X144915501Y-179711000D01*
X145835501Y-177891000D02*
X144915501Y-177891000D01*
X149965501Y-165841000D02*
X149965501Y-166761000D01*
X149965501Y-166761000D02*
X151785501Y-166761000D01*
X151785501Y-165841000D02*
X149965501Y-165841000D01*
X151785501Y-166761000D02*
X151785501Y-165841000D01*
X138785001Y-176762500D02*
X138785001Y-175842500D01*
X138785001Y-175842500D02*
X136965001Y-175842500D01*
X136965001Y-176762500D02*
X138785001Y-176762500D01*
X136965001Y-175842500D02*
X136965001Y-176762500D01*
X107618200Y-194745800D02*
X107618200Y-193825800D01*
X107618200Y-193825800D02*
X105798200Y-193825800D01*
X105798200Y-194745800D02*
X107618200Y-194745800D01*
X105798200Y-193825800D02*
X105798200Y-194745800D01*
X138915001Y-177712500D02*
X139835001Y-177712500D01*
X139835001Y-177712500D02*
X139835001Y-175892500D01*
X138915001Y-175892500D02*
X138915001Y-177712500D01*
X139835001Y-175892500D02*
X138915001Y-175892500D01*
X197630000Y-162420000D02*
X197630000Y-161480000D01*
X197630000Y-161480000D02*
X195770000Y-161480000D01*
X195770000Y-162420000D02*
X197630000Y-162420000D01*
X195770000Y-161480000D02*
X195770000Y-162420000D01*
X180728800Y-208209800D02*
X180728800Y-209149800D01*
X180728800Y-209149800D02*
X182588800Y-209149800D01*
X182588800Y-208209800D02*
X180728800Y-208209800D01*
X182588800Y-209149800D02*
X182588800Y-208209800D01*
X143185200Y-201418799D02*
X144125200Y-201418799D01*
X144125200Y-201418799D02*
X144125200Y-199558799D01*
X143185200Y-199558799D02*
X143185200Y-201418799D01*
X144125200Y-199558799D02*
X143185200Y-199558799D01*
X127835501Y-183891000D02*
X126915501Y-183891000D01*
X126915501Y-183891000D02*
X126915501Y-185711000D01*
X127835501Y-185711000D02*
X127835501Y-183891000D01*
X126915501Y-185711000D02*
X127835501Y-185711000D01*
X102880000Y-177114000D02*
X103800000Y-177114000D01*
X103800000Y-177114000D02*
X103800000Y-175294000D01*
X102880000Y-175294000D02*
X102880000Y-177114000D01*
X103800000Y-175294000D02*
X102880000Y-175294000D01*
X142835501Y-185891000D02*
X141915501Y-185891000D01*
X141915501Y-185891000D02*
X141915501Y-187711000D01*
X142835501Y-187711000D02*
X142835501Y-185891000D01*
X141915501Y-187711000D02*
X142835501Y-187711000D01*
X152785001Y-177760500D02*
X152785001Y-176840500D01*
X152785001Y-176840500D02*
X150965001Y-176840500D01*
X150965001Y-177760500D02*
X152785001Y-177760500D01*
X150965001Y-176840500D02*
X150965001Y-177760500D01*
X139607001Y-167922500D02*
X138147001Y-167922500D01*
X138147001Y-167922500D02*
X138147001Y-170882500D01*
X139607001Y-170882500D02*
X139607001Y-167922500D01*
X138147001Y-170882500D02*
X139607001Y-170882500D01*
X142965501Y-164841000D02*
X142965501Y-165761000D01*
X142965501Y-165761000D02*
X144785501Y-165761000D01*
X144785501Y-164841000D02*
X142965501Y-164841000D01*
X144785501Y-165761000D02*
X144785501Y-164841000D01*
X122220000Y-181530000D02*
X122220000Y-182470000D01*
X122220000Y-182470000D02*
X124080000Y-182470000D01*
X124080000Y-181530000D02*
X122220000Y-181530000D01*
X124080000Y-182470000D02*
X124080000Y-181530000D01*
X140940000Y-160240000D02*
X140940000Y-161160000D01*
X140940000Y-161160000D02*
X142760000Y-161160000D01*
X142760000Y-160240000D02*
X140940000Y-160240000D01*
X142760000Y-161160000D02*
X142760000Y-160240000D01*
X130620501Y-174046000D02*
X130620501Y-175506000D01*
X130620501Y-175506000D02*
X133580501Y-175506000D01*
X133580501Y-174046000D02*
X130620501Y-174046000D01*
X133580501Y-175506000D02*
X133580501Y-174046000D01*
X133915501Y-170711000D02*
X134835501Y-170711000D01*
X134835501Y-170711000D02*
X134835501Y-168891000D01*
X133915501Y-168891000D02*
X133915501Y-170711000D01*
X134835501Y-168891000D02*
X133915501Y-168891000D01*
X181730000Y-198870000D02*
X181730000Y-197930000D01*
X181730000Y-197930000D02*
X179870000Y-197930000D01*
X179870000Y-198870000D02*
X181730000Y-198870000D01*
X179870000Y-197930000D02*
X179870000Y-198870000D01*
X125595501Y-174071000D02*
X125595501Y-175531000D01*
X125595501Y-175531000D02*
X128555501Y-175531000D01*
X128555501Y-174071000D02*
X125595501Y-174071000D01*
X128555501Y-175531000D02*
X128555501Y-174071000D01*
X115730502Y-183070000D02*
X115730502Y-182130000D01*
X115730502Y-182130000D02*
X113870502Y-182130000D01*
X113870502Y-183070000D02*
X115730502Y-183070000D01*
X113870502Y-182130000D02*
X113870502Y-183070000D01*
X105500000Y-177114000D02*
X106420000Y-177114000D01*
X106420000Y-177114000D02*
X106420000Y-175294000D01*
X105500000Y-175294000D02*
X105500000Y-177114000D01*
X106420000Y-175294000D02*
X105500000Y-175294000D01*
X69217900Y-143064800D02*
X69217900Y-143984800D01*
X69217900Y-143984800D02*
X71037900Y-143984800D01*
X71037900Y-143064800D02*
X69217900Y-143064800D01*
X71037900Y-143984800D02*
X71037900Y-143064800D01*
X116040501Y-176016000D02*
X115120501Y-176016000D01*
X115120501Y-176016000D02*
X115120501Y-177836000D01*
X116040501Y-177836000D02*
X116040501Y-176016000D01*
X115120501Y-177836000D02*
X116040501Y-177836000D01*
X148965001Y-175840000D02*
X148965001Y-176760000D01*
X148965001Y-176760000D02*
X150785001Y-176760000D01*
X150785001Y-175840000D02*
X148965001Y-175840000D01*
X150785001Y-176760000D02*
X150785001Y-175840000D01*
X148615501Y-174101000D02*
X146135501Y-174101000D01*
X146135501Y-174101000D02*
X146135501Y-175501000D01*
X146135501Y-175501000D02*
X148615501Y-175501000D01*
X148615501Y-175501000D02*
X148615501Y-174101000D01*
X132915501Y-167711000D02*
X133835501Y-167711000D01*
X133835501Y-167711000D02*
X133835501Y-165891000D01*
X132915501Y-165891000D02*
X132915501Y-167711000D01*
X133835501Y-165891000D02*
X132915501Y-165891000D01*
X151835501Y-161891000D02*
X150915501Y-161891000D01*
X150915501Y-161891000D02*
X150915501Y-163711000D01*
X151835501Y-163711000D02*
X151835501Y-161891000D01*
X150915501Y-163711000D02*
X151835501Y-163711000D01*
X101190000Y-159090000D02*
X101190000Y-160010000D01*
X101190000Y-160010000D02*
X103010000Y-160010000D01*
X103010000Y-159090000D02*
X101190000Y-159090000D01*
X103010000Y-160010000D02*
X103010000Y-159090000D01*
X158770501Y-179206000D02*
X158770501Y-180146000D01*
X158770501Y-180146000D02*
X160630501Y-180146000D01*
X160630501Y-179206000D02*
X158770501Y-179206000D01*
X160630501Y-180146000D02*
X160630501Y-179206000D01*
X140965001Y-178842500D02*
X140965001Y-179762500D01*
X140965001Y-179762500D02*
X142785001Y-179762500D01*
X142785001Y-178842500D02*
X140965001Y-178842500D01*
X142785001Y-179762500D02*
X142785001Y-178842500D01*
X136915501Y-169711000D02*
X137835501Y-169711000D01*
X137835501Y-169711000D02*
X137835501Y-167891000D01*
X136915501Y-167891000D02*
X136915501Y-169711000D01*
X137835501Y-167891000D02*
X136915501Y-167891000D01*
X145915001Y-182712500D02*
X146835001Y-182712500D01*
X146835001Y-182712500D02*
X146835001Y-180892500D01*
X145915001Y-180892500D02*
X145915001Y-182712500D01*
X146835001Y-180892500D02*
X145915001Y-180892500D01*
X181730000Y-191470000D02*
X181730000Y-190530000D01*
X181730000Y-190530000D02*
X179870000Y-190530000D01*
X179870000Y-191470000D02*
X181730000Y-191470000D01*
X179870000Y-190530000D02*
X179870000Y-191470000D01*
X135345001Y-161682500D02*
X136805001Y-161682500D01*
X136805001Y-161682500D02*
X136805001Y-158722500D01*
X135345001Y-158722500D02*
X135345001Y-161682500D01*
X136805001Y-158722500D02*
X135345001Y-158722500D01*
X122220000Y-182629999D02*
X122220000Y-183569999D01*
X122220000Y-183569999D02*
X124080000Y-183569999D01*
X124080000Y-182629999D02*
X122220000Y-182629999D01*
X124080000Y-183569999D02*
X124080000Y-182629999D01*
X181730000Y-192470000D02*
X181730000Y-191530000D01*
X181730000Y-191530000D02*
X179870000Y-191530000D01*
X179870000Y-192470000D02*
X181730000Y-192470000D01*
X179870000Y-191530000D02*
X179870000Y-192470000D01*
X203360000Y-166990000D02*
X202440000Y-166990000D01*
X202440000Y-166990000D02*
X202440000Y-168810000D01*
X203360000Y-168810000D02*
X203360000Y-166990000D01*
X202440000Y-168810000D02*
X203360000Y-168810000D01*
X181730000Y-199870000D02*
X181730000Y-198930000D01*
X181730000Y-198930000D02*
X179870000Y-198930000D01*
X179870000Y-199870000D02*
X181730000Y-199870000D01*
X179870000Y-198930000D02*
X179870000Y-199870000D01*
X141915501Y-178711000D02*
X142835501Y-178711000D01*
X142835501Y-178711000D02*
X142835501Y-176891000D01*
X141915501Y-176891000D02*
X141915501Y-178711000D01*
X142835501Y-176891000D02*
X141915501Y-176891000D01*
X77239097Y-165067487D02*
X76319097Y-165067487D01*
X76319097Y-165067487D02*
X76319097Y-166887487D01*
X77239097Y-166887487D02*
X77239097Y-165067487D01*
X76319097Y-166887487D02*
X77239097Y-166887487D01*
X142785501Y-173761000D02*
X142785501Y-172841000D01*
X142785501Y-172841000D02*
X140965501Y-172841000D01*
X140965501Y-173761000D02*
X142785501Y-173761000D01*
X140965501Y-172841000D02*
X140965501Y-173761000D01*
X144835001Y-176892500D02*
X143915001Y-176892500D01*
X143915001Y-176892500D02*
X143915001Y-178712500D01*
X144835001Y-178712500D02*
X144835001Y-176892500D01*
X143915001Y-178712500D02*
X144835001Y-178712500D01*
X146255501Y-175531000D02*
X146255501Y-174071000D01*
X146255501Y-174071000D02*
X143295501Y-174071000D01*
X143295501Y-175531000D02*
X146255501Y-175531000D01*
X143295501Y-174071000D02*
X143295501Y-175531000D01*
X203586400Y-123926600D02*
G75*
G03*
X201086400Y-123926600I-1250000J0D01*
G01*
X201086400Y-123926600D02*
G75*
G03*
X203586400Y-123926600I1250000J0D01*
G01*
X127785501Y-162761000D02*
X127785501Y-161841000D01*
X127785501Y-161841000D02*
X125965501Y-161841000D01*
X125965501Y-162761000D02*
X127785501Y-162761000D01*
X125965501Y-161841000D02*
X125965501Y-162761000D01*
X148787001Y-178762500D02*
X148787001Y-177842500D01*
X148787001Y-177842500D02*
X146967001Y-177842500D01*
X146967001Y-178762500D02*
X148787001Y-178762500D01*
X146967001Y-177842500D02*
X146967001Y-178762500D01*
X140965501Y-168841000D02*
X140965501Y-169761000D01*
X140965501Y-169761000D02*
X142785501Y-169761000D01*
X142785501Y-168841000D02*
X140965501Y-168841000D01*
X142785501Y-169761000D02*
X142785501Y-168841000D01*
X86822600Y-214655400D02*
G75*
G03*
X84322600Y-214655400I-1250000J0D01*
G01*
X84322600Y-214655400D02*
G75*
G03*
X86822600Y-214655400I1250000J0D01*
G01*
X181730000Y-193470000D02*
X181730000Y-192530000D01*
X181730000Y-192530000D02*
X179870000Y-192530000D01*
X179870000Y-193470000D02*
X181730000Y-193470000D01*
X179870000Y-192530000D02*
X179870000Y-193470000D01*
X195770000Y-188705000D02*
X195770000Y-189645000D01*
X195770000Y-189645000D02*
X197630000Y-189645000D01*
X197630000Y-188705000D02*
X195770000Y-188705000D01*
X197630000Y-189645000D02*
X197630000Y-188705000D01*
X138707001Y-161270500D02*
X138707001Y-160330500D01*
X138707001Y-160330500D02*
X136847001Y-160330500D01*
X136847001Y-161270500D02*
X138707001Y-161270500D01*
X136847001Y-160330500D02*
X136847001Y-161270500D01*
X123280501Y-176946000D02*
X123280501Y-176006000D01*
X123280501Y-176006000D02*
X121420501Y-176006000D01*
X121420501Y-176946000D02*
X123280501Y-176946000D01*
X121420501Y-176006000D02*
X121420501Y-176946000D01*
X181730000Y-200870000D02*
X181730000Y-199930000D01*
X181730000Y-199930000D02*
X179870000Y-199930000D01*
X179870000Y-200870000D02*
X181730000Y-200870000D01*
X179870000Y-199930000D02*
X179870000Y-200870000D01*
X134100501Y-175731000D02*
X137900501Y-175731000D01*
X137900501Y-175731000D02*
X137900501Y-173871000D01*
X137900501Y-173871000D02*
X134100501Y-173871000D01*
X134100501Y-173871000D02*
X134100501Y-175731000D01*
X140772001Y-158195000D02*
X139832001Y-158195000D01*
X139832001Y-158195000D02*
X139832001Y-160055000D01*
X140772001Y-160055000D02*
X140772001Y-158195000D01*
X139832001Y-160055000D02*
X140772001Y-160055000D01*
X82269097Y-169187487D02*
X83189097Y-169187487D01*
X83189097Y-169187487D02*
X83189097Y-167367487D01*
X82269097Y-167367487D02*
X82269097Y-169187487D01*
X83189097Y-167367487D02*
X82269097Y-167367487D01*
X143785501Y-167761000D02*
X143785501Y-166841000D01*
X143785501Y-166841000D02*
X141965501Y-166841000D01*
X141965501Y-167761000D02*
X143785501Y-167761000D01*
X141965501Y-166841000D02*
X141965501Y-167761000D01*
X136965001Y-177842500D02*
X136965001Y-178762500D01*
X136965001Y-178762500D02*
X138785001Y-178762500D01*
X138785001Y-177842500D02*
X136965001Y-177842500D01*
X138785001Y-178762500D02*
X138785001Y-177842500D01*
X77301200Y-160104000D02*
X77301200Y-161024000D01*
X77301200Y-161024000D02*
X79121200Y-161024000D01*
X79121200Y-160104000D02*
X77301200Y-160104000D01*
X79121200Y-161024000D02*
X79121200Y-160104000D01*
X137960501Y-171836000D02*
X137960501Y-172756000D01*
X137960501Y-172756000D02*
X139780501Y-172756000D01*
X139780501Y-171836000D02*
X137960501Y-171836000D01*
X139780501Y-172756000D02*
X139780501Y-171836000D01*
X131703400Y-130540000D02*
X131703400Y-131460000D01*
X131703400Y-131460000D02*
X133523400Y-131460000D01*
X133523400Y-130540000D02*
X131703400Y-130540000D01*
X133523400Y-131460000D02*
X133523400Y-130540000D01*
X143965001Y-175842500D02*
X143965001Y-176762500D01*
X143965001Y-176762500D02*
X145785001Y-176762500D01*
X145785001Y-175842500D02*
X143965001Y-175842500D01*
X145785001Y-176762500D02*
X145785001Y-175842500D01*
X202455000Y-183330000D02*
X203395000Y-183330000D01*
X203395000Y-183330000D02*
X203395000Y-181470000D01*
X202455000Y-181470000D02*
X202455000Y-183330000D01*
X203395000Y-181470000D02*
X202455000Y-181470000D01*
X144915501Y-170711000D02*
X145835501Y-170711000D01*
X145835501Y-170711000D02*
X145835501Y-168891000D01*
X144915501Y-168891000D02*
X144915501Y-170711000D01*
X145835501Y-168891000D02*
X144915501Y-168891000D01*
X158770501Y-181206000D02*
X158770501Y-182146000D01*
X158770501Y-182146000D02*
X160630501Y-182146000D01*
X160630501Y-181206000D02*
X158770501Y-181206000D01*
X160630501Y-182146000D02*
X160630501Y-181206000D01*
X133690501Y-188816000D02*
X133690501Y-189736000D01*
X133690501Y-189736000D02*
X135510501Y-189736000D01*
X135510501Y-188816000D02*
X133690501Y-188816000D01*
X135510501Y-189736000D02*
X135510501Y-188816000D01*
X146835501Y-175891000D02*
X145915501Y-175891000D01*
X145915501Y-175891000D02*
X145915501Y-177711000D01*
X146835501Y-177711000D02*
X146835501Y-175891000D01*
X145915501Y-177711000D02*
X146835501Y-177711000D01*
X156930000Y-201790800D02*
X157870000Y-201790800D01*
X157870000Y-201790800D02*
X157870000Y-199930800D01*
X156930000Y-199930800D02*
X156930000Y-201790800D01*
X157870000Y-199930800D02*
X156930000Y-199930800D01*
X181870000Y-203055600D02*
X181870000Y-203995600D01*
X181870000Y-203995600D02*
X183730000Y-203995600D01*
X183730000Y-203055600D02*
X181870000Y-203055600D01*
X183730000Y-203995600D02*
X183730000Y-203055600D01*
X113890502Y-183340000D02*
X113890502Y-184260000D01*
X113890502Y-184260000D02*
X115710502Y-184260000D01*
X115710502Y-183340000D02*
X113890502Y-183340000D01*
X115710502Y-184260000D02*
X115710502Y-183340000D01*
X130915501Y-171711000D02*
X131835501Y-171711000D01*
X131835501Y-171711000D02*
X131835501Y-169891000D01*
X130915501Y-169891000D02*
X130915501Y-171711000D01*
X131835501Y-169891000D02*
X130915501Y-169891000D01*
X141965501Y-161841000D02*
X141965501Y-162761000D01*
X141965501Y-162761000D02*
X143785501Y-162761000D01*
X143785501Y-161841000D02*
X141965501Y-161841000D01*
X143785501Y-162761000D02*
X143785501Y-161841000D01*
X151795001Y-165972500D02*
X151795001Y-167432500D01*
X151795001Y-167432500D02*
X154755001Y-167432500D01*
X154755001Y-165972500D02*
X151795001Y-165972500D01*
X154755001Y-167432500D02*
X154755001Y-165972500D01*
M02*
