G04 #@! TF.GenerationSoftware,KiCad,Pcbnew,7.0.11-rc3*
G04 #@! TF.CreationDate,2024-11-10T09:22:12+01:00*
G04 #@! TF.ProjectId,sodimm-ddr5-tester,736f6469-6d6d-42d6-9464-72352d746573,1.2.0*
G04 #@! TF.SameCoordinates,Original*
G04 #@! TF.FileFunction,Paste,Top*
G04 #@! TF.FilePolarity,Positive*
%FSLAX46Y46*%
G04 Gerber Fmt 4.6, Leading zero omitted, Abs format (unit mm)*
G04 Created by KiCad (PCBNEW 7.0.11-rc3) date 2024-11-10 09:22:12*
%MOMM*%
%LPD*%
G01*
G04 APERTURE LIST*
G04 Aperture macros list*
%AMRoundRect*
0 Rectangle with rounded corners*
0 $1 Rounding radius*
0 $2 $3 $4 $5 $6 $7 $8 $9 X,Y pos of 4 corners*
0 Add a 4 corners polygon primitive as box body*
4,1,4,$2,$3,$4,$5,$6,$7,$8,$9,$2,$3,0*
0 Add four circle primitives for the rounded corners*
1,1,$1+$1,$2,$3*
1,1,$1+$1,$4,$5*
1,1,$1+$1,$6,$7*
1,1,$1+$1,$8,$9*
0 Add four rect primitives between the rounded corners*
20,1,$1+$1,$2,$3,$4,$5,0*
20,1,$1+$1,$4,$5,$6,$7,0*
20,1,$1+$1,$6,$7,$8,$9,0*
20,1,$1+$1,$8,$9,$2,$3,0*%
%AMOutline5P*
0 Free polygon, 5 corners , with rotation*
0 The origin of the aperture is its center*
0 number of corners: always 5*
0 $1 to $10 corner X, Y*
0 $11 Rotation angle, in degrees counterclockwise*
0 create outline with 5 corners*
4,1,5,$1,$2,$3,$4,$5,$6,$7,$8,$9,$10,$1,$2,$11*%
%AMOutline6P*
0 Free polygon, 6 corners , with rotation*
0 The origin of the aperture is its center*
0 number of corners: always 6*
0 $1 to $12 corner X, Y*
0 $13 Rotation angle, in degrees counterclockwise*
0 create outline with 6 corners*
4,1,6,$1,$2,$3,$4,$5,$6,$7,$8,$9,$10,$11,$12,$1,$2,$13*%
%AMOutline7P*
0 Free polygon, 7 corners , with rotation*
0 The origin of the aperture is its center*
0 number of corners: always 7*
0 $1 to $14 corner X, Y*
0 $15 Rotation angle, in degrees counterclockwise*
0 create outline with 7 corners*
4,1,7,$1,$2,$3,$4,$5,$6,$7,$8,$9,$10,$11,$12,$13,$14,$1,$2,$15*%
%AMOutline8P*
0 Free polygon, 8 corners , with rotation*
0 The origin of the aperture is its center*
0 number of corners: always 8*
0 $1 to $16 corner X, Y*
0 $17 Rotation angle, in degrees counterclockwise*
0 create outline with 8 corners*
4,1,8,$1,$2,$3,$4,$5,$6,$7,$8,$9,$10,$11,$12,$13,$14,$15,$16,$1,$2,$17*%
%AMFreePoly0*
4,1,14,0.410353,0.160356,0.535354,0.035356,0.549998,0.000001,0.549998,-0.124999,0.535353,-0.160354,0.499998,-0.174999,-0.400002,-0.174999,-0.435357,-0.160354,-0.450002,-0.124999,-0.450002,0.125001,-0.435357,0.160356,-0.400002,0.175001,0.374998,0.175001,0.410353,0.160356,0.410353,0.160356,$1*%
%AMFreePoly1*
4,1,16,0.985355,0.185355,1.000000,0.150000,1.000000,-0.150000,0.985355,-0.185355,0.950000,-0.200000,-0.950000,-0.200000,-0.985355,-0.185355,-1.000000,-0.150000,-1.000000,0.050000,-0.985355,0.085355,-0.950000,0.100000,-0.670710,0.100000,-0.585356,0.185355,-0.550000,0.200000,0.950000,0.200000,0.985355,0.185355,0.985355,0.185355,$1*%
%AMFreePoly2*
4,1,16,0.985355,0.185355,1.000000,0.150000,1.000000,-0.150000,0.985355,-0.185355,0.950000,-0.200000,-0.550000,-0.200000,-0.585356,-0.185355,-0.670710,-0.100000,-0.950000,-0.100000,-0.985355,-0.085355,-1.000000,-0.050000,-1.000000,0.150000,-0.985355,0.185355,-0.950000,0.200000,0.950000,0.200000,0.985355,0.185355,0.985355,0.185355,$1*%
%AMFreePoly3*
4,1,18,-2.400000,1.860000,-1.935000,2.325000,2.167500,2.325000,2.256474,2.307302,2.331902,2.256902,2.382302,2.181474,2.400000,2.092500,2.400000,-2.092500,2.382302,-2.181474,2.331902,-2.256902,2.256474,-2.307302,2.167500,-2.325000,-2.167500,-2.325000,-2.256474,-2.307302,-2.331902,-2.256902,-2.382302,-2.181474,-2.400000,-2.092500,-2.400000,1.860000,-2.400000,1.860000,$1*%
%AMFreePoly4*
4,1,21,1.372500,0.787500,0.862500,0.787500,0.862500,0.532500,1.372500,0.532500,1.372500,0.127500,0.862500,0.127500,0.862500,-0.127500,1.372500,-0.127500,1.372500,-0.532500,0.862500,-0.532500,0.862500,-0.787500,1.372500,-0.787500,1.372500,-1.195000,0.612500,-1.195000,0.612500,-1.117500,-0.862500,-1.117500,-0.862500,1.117500,0.612500,1.117500,0.612500,1.195000,1.372500,1.195000,
1.372500,0.787500,1.372500,0.787500,$1*%
G04 Aperture macros list end*
%ADD10C,0.010000*%
%ADD11RoundRect,0.140000X0.170000X-0.140000X0.170000X0.140000X-0.170000X0.140000X-0.170000X-0.140000X0*%
%ADD12Outline5P,-0.650000X0.550000X0.650000X0.550000X0.650000X-0.550000X-0.430000X-0.550000X-0.650000X-0.330000X90.000000*%
%ADD13R,1.100000X1.300000*%
%ADD14RoundRect,0.135000X-0.135000X-0.185000X0.135000X-0.185000X0.135000X0.185000X-0.135000X0.185000X0*%
%ADD15RoundRect,0.135000X-0.185000X0.135000X-0.185000X-0.135000X0.185000X-0.135000X0.185000X0.135000X0*%
%ADD16RoundRect,0.140000X-0.170000X0.140000X-0.170000X-0.140000X0.170000X-0.140000X0.170000X0.140000X0*%
%ADD17RoundRect,0.140000X-0.140000X-0.170000X0.140000X-0.170000X0.140000X0.170000X-0.140000X0.170000X0*%
%ADD18RoundRect,0.114300X0.430700X-0.266700X0.430700X0.266700X-0.430700X0.266700X-0.430700X-0.266700X0*%
%ADD19RoundRect,0.114300X-0.430700X0.266700X-0.430700X-0.266700X0.430700X-0.266700X0.430700X0.266700X0*%
%ADD20RoundRect,0.140000X0.140000X0.170000X-0.140000X0.170000X-0.140000X-0.170000X0.140000X-0.170000X0*%
%ADD21RoundRect,0.114300X-0.266700X-0.430700X0.266700X-0.430700X0.266700X0.430700X-0.266700X0.430700X0*%
%ADD22RoundRect,0.135000X0.185000X-0.135000X0.185000X0.135000X-0.185000X0.135000X-0.185000X-0.135000X0*%
%ADD23Outline5P,-0.650000X0.550000X0.650000X0.550000X0.650000X-0.550000X-0.430000X-0.550000X-0.650000X-0.330000X0.000000*%
%ADD24R,1.300000X1.100000*%
%ADD25O,0.300000X0.900000*%
%ADD26O,0.900000X0.300000*%
%ADD27R,3.500000X3.500000*%
%ADD28C,0.500000*%
%ADD29RoundRect,0.250000X-0.250000X-0.475000X0.250000X-0.475000X0.250000X0.475000X-0.250000X0.475000X0*%
%ADD30RoundRect,0.135000X0.135000X0.185000X-0.135000X0.185000X-0.135000X-0.185000X0.135000X-0.185000X0*%
%ADD31R,0.600000X0.600000*%
%ADD32RoundRect,0.250000X0.312500X0.625000X-0.312500X0.625000X-0.312500X-0.625000X0.312500X-0.625000X0*%
%ADD33RoundRect,0.225000X-0.225000X-0.250000X0.225000X-0.250000X0.225000X0.250000X-0.225000X0.250000X0*%
%ADD34R,0.800000X0.800000*%
%ADD35RoundRect,0.225000X0.250000X-0.225000X0.250000X0.225000X-0.250000X0.225000X-0.250000X-0.225000X0*%
%ADD36RoundRect,0.225000X0.225000X0.250000X-0.225000X0.250000X-0.225000X-0.250000X0.225000X-0.250000X0*%
%ADD37R,2.032000X1.143000*%
%ADD38R,0.570000X1.800000*%
%ADD39R,0.900000X1.000000*%
%ADD40RoundRect,0.225000X-0.250000X0.225000X-0.250000X-0.225000X0.250000X-0.225000X0.250000X0.225000X0*%
%ADD41R,1.200000X0.500000*%
%ADD42R,0.700000X0.700000*%
%ADD43R,0.500000X0.170000*%
%ADD44R,3.400000X1.800000*%
%ADD45FreePoly0,270.000000*%
%ADD46R,0.300000X1.900000*%
%ADD47R,0.900000X0.250000*%
%ADD48FreePoly1,270.000000*%
%ADD49FreePoly2,270.000000*%
%ADD50R,1.100000X0.400000*%
%ADD51RoundRect,0.150000X-0.512500X-0.150000X0.512500X-0.150000X0.512500X0.150000X-0.512500X0.150000X0*%
%ADD52RoundRect,0.062500X0.212500X-0.062500X0.212500X0.062500X-0.212500X0.062500X-0.212500X-0.062500X0*%
%ADD53RoundRect,0.100000X0.175000X-0.100000X0.175000X0.100000X-0.175000X0.100000X-0.175000X-0.100000X0*%
%ADD54RoundRect,0.222500X-0.222500X0.222500X-0.222500X-0.222500X0.222500X-0.222500X0.222500X0.222500X0*%
%ADD55RoundRect,0.062500X-0.062500X0.325000X-0.062500X-0.325000X0.062500X-0.325000X0.062500X0.325000X0*%
%ADD56RoundRect,0.062500X-0.325000X0.062500X-0.325000X-0.062500X0.325000X-0.062500X0.325000X0.062500X0*%
%ADD57RoundRect,0.120000X0.980000X-0.480000X0.980000X0.480000X-0.980000X0.480000X-0.980000X-0.480000X0*%
%ADD58R,0.800000X0.300000*%
%ADD59RoundRect,0.100000X0.550000X-0.100000X0.550000X0.100000X-0.550000X0.100000X-0.550000X-0.100000X0*%
%ADD60FreePoly3,180.000000*%
%ADD61R,1.000000X0.550000*%
%ADD62R,0.450000X0.350000*%
%ADD63R,0.450000X0.250000*%
%ADD64R,0.240000X0.900000*%
%ADD65R,0.900000X0.240000*%
%ADD66R,1.180000X1.180000*%
%ADD67R,0.630000X0.820000*%
%ADD68R,0.350000X0.650000*%
%ADD69RoundRect,0.200000X0.200000X0.275000X-0.200000X0.275000X-0.200000X-0.275000X0.200000X-0.275000X0*%
%ADD70R,1.700000X1.500000*%
%ADD71RoundRect,0.062500X-0.062500X-0.212500X0.062500X-0.212500X0.062500X0.212500X-0.062500X0.212500X0*%
%ADD72RoundRect,0.100000X-0.100000X-0.175000X0.100000X-0.175000X0.100000X0.175000X-0.100000X0.175000X0*%
%ADD73O,0.800000X0.300000*%
%ADD74O,0.300000X0.800000*%
%ADD75R,1.500000X1.000000*%
%ADD76RoundRect,0.250000X0.475000X-0.250000X0.475000X0.250000X-0.475000X0.250000X-0.475000X-0.250000X0*%
%ADD77R,0.405000X0.990000*%
%ADD78FreePoly4,90.000000*%
%ADD79RoundRect,0.120000X-0.980000X0.480000X-0.980000X-0.480000X0.980000X-0.480000X0.980000X0.480000X0*%
%ADD80RoundRect,0.050000X-0.250000X-0.050000X0.250000X-0.050000X0.250000X0.050000X-0.250000X0.050000X0*%
%ADD81RoundRect,0.050000X0.050000X-0.250000X0.050000X0.250000X-0.050000X0.250000X-0.050000X-0.250000X0*%
%ADD82RoundRect,0.050000X0.550000X-0.550000X0.550000X0.550000X-0.550000X0.550000X-0.550000X-0.550000X0*%
%ADD83RoundRect,0.150000X0.512500X0.150000X-0.512500X0.150000X-0.512500X-0.150000X0.512500X-0.150000X0*%
%ADD84R,0.600000X1.550000*%
%ADD85R,1.200000X1.800000*%
%ADD86R,0.850000X0.500000*%
%ADD87RoundRect,0.231000X-1.029000X0.924000X-1.029000X-0.924000X1.029000X-0.924000X1.029000X0.924000X0*%
%ADD88R,0.700000X1.900000*%
%ADD89R,1.700000X1.800000*%
%ADD90R,1.400000X2.600000*%
%ADD91C,0.400000*%
%ADD92R,1.800000X3.400000*%
%ADD93RoundRect,0.155000X0.620000X2.645000X-0.620000X2.645000X-0.620000X-2.645000X0.620000X-2.645000X0*%
%ADD94R,0.500000X1.200000*%
%ADD95RoundRect,0.235000X-0.420000X0.235000X-0.420000X-0.235000X0.420000X-0.235000X0.420000X0.235000X0*%
%ADD96RoundRect,0.137500X-0.517500X0.137500X-0.517500X-0.137500X0.517500X-0.137500X0.517500X0.137500X0*%
%ADD97RoundRect,0.150000X-0.425000X0.150000X-0.425000X-0.150000X0.425000X-0.150000X0.425000X0.150000X0*%
%ADD98RoundRect,0.075000X-0.500000X0.075000X-0.500000X-0.075000X0.500000X-0.075000X0.500000X0.075000X0*%
%ADD99RoundRect,0.150000X-0.150000X0.512500X-0.150000X-0.512500X0.150000X-0.512500X0.150000X0.512500X0*%
%ADD100RoundRect,0.125000X0.125000X0.175000X-0.125000X0.175000X-0.125000X-0.175000X0.125000X-0.175000X0*%
%ADD101RoundRect,0.250000X-0.315000X-0.315000X0.315000X-0.315000X0.315000X0.315000X-0.315000X0.315000X0*%
%ADD102RoundRect,0.075000X-0.362500X-0.075000X0.362500X-0.075000X0.362500X0.075000X-0.362500X0.075000X0*%
%ADD103RoundRect,0.075000X0.075000X-0.362500X0.075000X0.362500X-0.075000X0.362500X-0.075000X-0.362500X0*%
%ADD104R,2.750000X1.000000*%
G04 APERTURE END LIST*
D10*
X193772000Y-194149000D02*
X194575000Y-194149000D01*
X194575000Y-194149000D02*
X194575000Y-194647000D01*
X194575000Y-194647000D02*
X193772000Y-194647000D01*
X193772000Y-194647000D02*
X193772000Y-194149000D01*
G36*
X193772000Y-194149000D02*
G01*
X194575000Y-194149000D01*
X194575000Y-194647000D01*
X193772000Y-194647000D01*
X193772000Y-194149000D01*
G37*
X193772000Y-195050000D02*
X194575000Y-195050000D01*
X194575000Y-195050000D02*
X194575000Y-195548000D01*
X194575000Y-195548000D02*
X193772000Y-195548000D01*
X193772000Y-195548000D02*
X193772000Y-195050000D01*
G36*
X193772000Y-195050000D02*
G01*
X194575000Y-195050000D01*
X194575000Y-195548000D01*
X193772000Y-195548000D01*
X193772000Y-195050000D01*
G37*
D11*
X90690501Y-172016000D03*
X90690501Y-171056000D03*
X95272344Y-168032328D03*
X95272344Y-167072328D03*
D12*
X92847501Y-168026000D03*
D13*
X92847501Y-165726000D03*
X91048501Y-165726000D03*
X91048501Y-168026000D03*
D14*
X106265000Y-175020000D03*
X107285000Y-175020000D03*
X106265000Y-176045000D03*
X107285000Y-176045000D03*
X106270000Y-171260000D03*
X107290000Y-171260000D03*
X106270000Y-172260000D03*
X107290000Y-172260000D03*
D15*
X94500000Y-184090000D03*
X94500000Y-185110000D03*
X92300000Y-184090000D03*
X92300000Y-185110000D03*
X93422843Y-184088328D03*
X93422843Y-185108328D03*
X95600000Y-184090000D03*
X95600000Y-185110000D03*
D11*
X97272344Y-168032328D03*
X97272344Y-167072328D03*
X94059829Y-168027157D03*
X94059829Y-167067157D03*
D16*
X97900000Y-180120000D03*
X97900000Y-181080000D03*
D17*
X104987344Y-177267328D03*
X105947344Y-177267328D03*
D18*
X89310501Y-170144000D03*
X89310501Y-171923000D03*
D14*
X90542344Y-173382328D03*
X91562344Y-173382328D03*
D16*
X90690501Y-175556000D03*
X90690501Y-176516000D03*
X91689001Y-175555000D03*
X91689001Y-176515000D03*
D19*
X89310501Y-177426000D03*
X89310501Y-175647000D03*
D16*
X89523501Y-165695000D03*
X89523501Y-166655000D03*
D15*
X102290200Y-191907299D03*
X102290200Y-192927299D03*
D11*
X91689001Y-172015000D03*
X91689001Y-171055000D03*
X99847344Y-168022328D03*
X99847344Y-167062328D03*
X100927344Y-168022328D03*
X100927344Y-167062328D03*
D17*
X104988344Y-173767328D03*
X105948344Y-173767328D03*
X100420501Y-158958851D03*
X101380501Y-158958851D03*
X100420501Y-157958851D03*
X101380501Y-157958851D03*
D11*
X100400501Y-156938851D03*
X100400501Y-155978851D03*
D16*
X88500501Y-153578851D03*
X88500501Y-154538851D03*
D11*
X101500501Y-156938851D03*
X101500501Y-155978851D03*
X88500501Y-152213157D03*
X88500501Y-151253157D03*
X102600501Y-156938851D03*
X102600501Y-155978851D03*
D16*
X87400501Y-156978851D03*
X87400501Y-157938851D03*
X87400501Y-153578851D03*
X87400501Y-154538851D03*
D11*
X87400501Y-152213157D03*
X87400501Y-151253157D03*
D20*
X103280501Y-154958851D03*
X102320501Y-154958851D03*
D17*
X103520501Y-150158851D03*
X104480501Y-150158851D03*
D21*
X105391501Y-156223149D03*
X103612501Y-156223149D03*
D15*
X100400501Y-150848851D03*
X100400501Y-151868851D03*
D22*
X100400501Y-153868851D03*
X100400501Y-152848851D03*
D23*
X102199501Y-153507851D03*
D24*
X104499501Y-153507851D03*
X104499501Y-151708851D03*
X102199501Y-151708851D03*
D25*
X96300501Y-151286000D03*
X95800501Y-151286000D03*
X95300501Y-151286000D03*
X94800501Y-151286000D03*
X94300501Y-151286000D03*
X93800501Y-151286000D03*
X93302501Y-151286000D03*
X92802501Y-151286000D03*
X92301501Y-151286000D03*
X91801501Y-151286000D03*
X91301501Y-151286000D03*
X90801501Y-151286000D03*
D26*
X90051501Y-152036000D03*
X90051501Y-152536000D03*
X90051501Y-153036000D03*
X90051501Y-153536000D03*
X90051501Y-154036000D03*
X90051501Y-154536000D03*
X90051501Y-155034000D03*
X90051501Y-155534000D03*
X90051501Y-156035000D03*
X90051501Y-156535000D03*
X90051501Y-157035000D03*
X90051501Y-157535000D03*
D25*
X90801501Y-158285000D03*
X91301501Y-158285000D03*
X91801501Y-158285000D03*
X92301501Y-158285000D03*
X92802501Y-158285000D03*
X93302501Y-158285000D03*
X93800501Y-158285000D03*
X94300501Y-158285000D03*
X94800501Y-158285000D03*
X95300501Y-158285000D03*
X95800501Y-158285000D03*
X96300501Y-158285000D03*
D26*
X97050501Y-157535000D03*
X97050501Y-157035000D03*
X97050501Y-156535000D03*
X97050501Y-156035000D03*
X97050501Y-155534000D03*
X97050501Y-155034000D03*
X97050501Y-154536000D03*
X97050501Y-154036000D03*
X97050501Y-153536000D03*
X97050501Y-153036000D03*
X97050501Y-152536000D03*
X97050501Y-152036000D03*
D27*
X93550501Y-154786000D03*
D28*
X151375501Y-187301000D03*
X150375501Y-187301000D03*
X149375501Y-187301000D03*
X148375501Y-187301000D03*
X147375501Y-187301000D03*
X146375501Y-187301000D03*
X145375501Y-187301000D03*
X144375501Y-187301000D03*
X143375501Y-187301000D03*
X142375501Y-187301000D03*
X141375501Y-187301000D03*
X140375501Y-187301000D03*
X139375501Y-187301000D03*
X138376501Y-187301000D03*
X137376501Y-187301000D03*
X136376501Y-187301000D03*
X135376501Y-187301000D03*
X134376501Y-187301000D03*
X133376501Y-187301000D03*
X132376501Y-187301000D03*
X131376501Y-187301000D03*
X130376501Y-187301000D03*
X129376501Y-187301000D03*
X128376501Y-187301000D03*
X127376501Y-187301000D03*
X126376501Y-187301000D03*
X151375501Y-167302000D03*
X150375501Y-167302000D03*
X149375501Y-167302000D03*
X148375501Y-167302000D03*
X147375501Y-167302000D03*
X146375501Y-167302000D03*
X145375501Y-167302000D03*
X144375501Y-167302000D03*
X143375501Y-167302000D03*
X142375501Y-167302000D03*
X141375501Y-167302000D03*
X140375501Y-167302000D03*
X139375501Y-167302000D03*
X138376501Y-167302000D03*
X137376501Y-167302000D03*
X136376501Y-167302000D03*
X135376501Y-167302000D03*
X134376501Y-167302000D03*
X133376501Y-167302000D03*
X132376501Y-167302000D03*
X131376501Y-167302000D03*
X130376501Y-167302000D03*
X129376501Y-167302000D03*
X128376501Y-167302000D03*
X127376501Y-167302000D03*
X126376501Y-167302000D03*
X151375501Y-166302000D03*
X150375501Y-166302000D03*
X149375501Y-166302000D03*
X148375501Y-166302000D03*
X147375501Y-166302000D03*
X146375501Y-166302000D03*
X145375501Y-166302000D03*
X144375501Y-166302000D03*
X143375501Y-166302000D03*
X142375501Y-166302000D03*
X141375501Y-166302000D03*
X140375501Y-166302000D03*
X139375501Y-166302000D03*
X138376501Y-166302000D03*
X137376501Y-166302000D03*
X136376501Y-166302000D03*
X135376501Y-166302000D03*
X134376501Y-166302000D03*
X133376501Y-166302000D03*
X132376501Y-166302000D03*
X131376501Y-166302000D03*
X130376501Y-166302000D03*
X129376501Y-166302000D03*
X128376501Y-166302000D03*
X127376501Y-166302000D03*
X126376501Y-166302000D03*
X151375501Y-165302000D03*
X150375501Y-165302000D03*
X149375501Y-165302000D03*
X148375501Y-165302000D03*
X147375501Y-165302000D03*
X146375501Y-165302000D03*
X145375501Y-165302000D03*
X144375501Y-165302000D03*
X143375501Y-165302000D03*
X142375501Y-165302000D03*
X141375501Y-165302000D03*
X140375501Y-165302000D03*
X139375501Y-165302000D03*
X138376501Y-165302000D03*
X137376501Y-165302000D03*
X136376501Y-165302000D03*
X135376501Y-165302000D03*
X134376501Y-165302000D03*
X133376501Y-165302000D03*
X132376501Y-165302000D03*
X131376501Y-165302000D03*
X130376501Y-165302000D03*
X129376501Y-165302000D03*
X128376501Y-165302000D03*
X127376501Y-165302000D03*
X126376501Y-165302000D03*
X151375501Y-164302000D03*
X150375501Y-164302000D03*
X149375501Y-164302000D03*
X148375501Y-164302000D03*
X147375501Y-164302000D03*
X146375501Y-164302000D03*
X145375501Y-164302000D03*
X144375501Y-164302000D03*
X143375501Y-164302000D03*
X142375501Y-164302000D03*
X141375501Y-164302000D03*
X140375501Y-164302000D03*
X139375501Y-164302000D03*
X138376501Y-164302000D03*
X137376501Y-164302000D03*
X136376501Y-164302000D03*
X135376501Y-164302000D03*
X134376501Y-164302000D03*
X133376501Y-164302000D03*
X132376501Y-164302000D03*
X131376501Y-164302000D03*
X130376501Y-164302000D03*
X129376501Y-164302000D03*
X128376501Y-164302000D03*
X127376501Y-164302000D03*
X126376501Y-164302000D03*
X151375501Y-163302000D03*
X150375501Y-163302000D03*
X149375501Y-163302000D03*
X148375501Y-163302000D03*
X147375501Y-163302000D03*
X146375501Y-163302000D03*
X145375501Y-163302000D03*
X144375501Y-163302000D03*
X143375501Y-163302000D03*
X142375501Y-163302000D03*
X141375501Y-163302000D03*
X140375501Y-163302000D03*
X139375501Y-163302000D03*
X138376501Y-163302000D03*
X137376501Y-163302000D03*
X136376501Y-163302000D03*
X135376501Y-163302000D03*
X134376501Y-163302000D03*
X133376501Y-163302000D03*
X132376501Y-163302000D03*
X131376501Y-163302000D03*
X130376501Y-163302000D03*
X129376501Y-163302000D03*
X128376501Y-163302000D03*
X127376501Y-163302000D03*
X126376501Y-163302000D03*
X151375501Y-162302000D03*
X150375501Y-162302000D03*
X149375501Y-162302000D03*
X148375501Y-162302000D03*
X147375501Y-162302000D03*
X146375501Y-162302000D03*
X145375501Y-162302000D03*
X144375501Y-162302000D03*
X143375501Y-162302000D03*
X142375501Y-162302000D03*
X141375501Y-162302000D03*
X140375501Y-162302000D03*
X139375501Y-162302000D03*
X138376501Y-162302000D03*
X137376501Y-162302000D03*
X136376501Y-162302000D03*
X135376501Y-162302000D03*
X134376501Y-162302000D03*
X133376501Y-162302000D03*
X132376501Y-162302000D03*
X131376501Y-162302000D03*
X130376501Y-162302000D03*
X129376501Y-162302000D03*
X128376501Y-162302000D03*
X127376501Y-162302000D03*
X126376501Y-162302000D03*
X151375501Y-186301000D03*
X150375501Y-186301000D03*
X149375501Y-186301000D03*
X148375501Y-186301000D03*
X147375501Y-186301000D03*
X146375501Y-186301000D03*
X145375501Y-186301000D03*
X144375501Y-186301000D03*
X143375501Y-186301000D03*
X142375501Y-186301000D03*
X141375501Y-186301000D03*
X140375501Y-186301000D03*
X139375501Y-186301000D03*
X138376501Y-186301000D03*
X137376501Y-186301000D03*
X136376501Y-186301000D03*
X135376501Y-186301000D03*
X134376501Y-186301000D03*
X133376501Y-186301000D03*
X132376501Y-186301000D03*
X131376501Y-186301000D03*
X130376501Y-186301000D03*
X129376501Y-186301000D03*
X128376501Y-186301000D03*
X127376501Y-186301000D03*
X126376501Y-186301000D03*
X151375501Y-185301000D03*
X150375501Y-185301000D03*
X149375501Y-185301000D03*
X148375501Y-185301000D03*
X147375501Y-185301000D03*
X146375501Y-185301000D03*
X145375501Y-185301000D03*
X144375501Y-185301000D03*
X143375501Y-185301000D03*
X142375501Y-185301000D03*
X141375501Y-185301000D03*
X140375501Y-185301000D03*
X139375501Y-185301000D03*
X138376501Y-185301000D03*
X137376501Y-185301000D03*
X136376501Y-185301000D03*
X135376501Y-185301000D03*
X134376501Y-185301000D03*
X133376501Y-185301000D03*
X132376501Y-185301000D03*
X131376501Y-185301000D03*
X130376501Y-185301000D03*
X129376501Y-185301000D03*
X128376501Y-185301000D03*
X127376501Y-185301000D03*
X126376501Y-185301000D03*
X151375501Y-184301000D03*
X150375501Y-184301000D03*
X149375501Y-184301000D03*
X148375501Y-184301000D03*
X147375501Y-184301000D03*
X146375501Y-184301000D03*
X145375501Y-184301000D03*
X144375501Y-184301000D03*
X143375501Y-184301000D03*
X142375501Y-184301000D03*
X141375501Y-184301000D03*
X140375501Y-184301000D03*
X139375501Y-184301000D03*
X138376501Y-184301000D03*
X137376501Y-184301000D03*
X136376501Y-184301000D03*
X135376501Y-184301000D03*
X134376501Y-184301000D03*
X133376501Y-184301000D03*
X132376501Y-184301000D03*
X131376501Y-184301000D03*
X130376501Y-184301000D03*
X129376501Y-184301000D03*
X128376501Y-184301000D03*
X127376501Y-184301000D03*
X126376501Y-184301000D03*
X151375501Y-183301000D03*
X150375501Y-183301000D03*
X149375501Y-183301000D03*
X148375501Y-183301000D03*
X147375501Y-183301000D03*
X146375501Y-183301000D03*
X145375501Y-183301000D03*
X144375501Y-183301000D03*
X143375501Y-183301000D03*
X142375501Y-183301000D03*
X141375501Y-183301000D03*
X140375501Y-183301000D03*
X139375501Y-183301000D03*
X138376501Y-183301000D03*
X137376501Y-183301000D03*
X136376501Y-183301000D03*
X135376501Y-183301000D03*
X134376501Y-183301000D03*
X133376501Y-183301000D03*
X132376501Y-183301000D03*
X131376501Y-183301000D03*
X130376501Y-183301000D03*
X129376501Y-183301000D03*
X128376501Y-183301000D03*
X127376501Y-183301000D03*
X126376501Y-183301000D03*
X151375501Y-182301000D03*
X150375501Y-182301000D03*
X149375501Y-182301000D03*
X148375501Y-182301000D03*
X147375501Y-182301000D03*
X146375501Y-182301000D03*
X145375501Y-182301000D03*
X144375501Y-182301000D03*
X143375501Y-182301000D03*
X142375501Y-182301000D03*
X141375501Y-182301000D03*
X140375501Y-182301000D03*
X139375501Y-182301000D03*
X138376501Y-182301000D03*
X137376501Y-182301000D03*
X136376501Y-182301000D03*
X135376501Y-182301000D03*
X134376501Y-182301000D03*
X133376501Y-182301000D03*
X132376501Y-182301000D03*
X131376501Y-182301000D03*
X130376501Y-182301000D03*
X129376501Y-182301000D03*
X128376501Y-182301000D03*
X127376501Y-182301000D03*
X126376501Y-182301000D03*
X151375501Y-181301000D03*
X150375501Y-181301000D03*
X149375501Y-181301000D03*
X148375501Y-181301000D03*
X147375501Y-181301000D03*
X146375501Y-181301000D03*
X145375501Y-181301000D03*
X144375501Y-181301000D03*
X143375501Y-181301000D03*
X142375501Y-181301000D03*
X141375501Y-181301000D03*
X140375501Y-181301000D03*
X139375501Y-181301000D03*
X138376501Y-181301000D03*
X137376501Y-181301000D03*
X136376501Y-181301000D03*
X135376501Y-181301000D03*
X134376501Y-181301000D03*
X133376501Y-181301000D03*
X132376501Y-181301000D03*
X131376501Y-181301000D03*
X130376501Y-181301000D03*
X129376501Y-181301000D03*
X128376501Y-181301000D03*
X127376501Y-181301000D03*
X126376501Y-181301000D03*
X151375501Y-180301000D03*
X150375501Y-180301000D03*
X149375501Y-180301000D03*
X148375501Y-180301000D03*
X147375501Y-180301000D03*
X146375501Y-180301000D03*
X145375501Y-180301000D03*
X144375501Y-180301000D03*
X143375501Y-180301000D03*
X142375501Y-180301000D03*
X141375501Y-180301000D03*
X140375501Y-180301000D03*
X139375501Y-180301000D03*
X138376501Y-180301000D03*
X137376501Y-180301000D03*
X136376501Y-180301000D03*
X135376501Y-180301000D03*
X134376501Y-180301000D03*
X133376501Y-180301000D03*
X132376501Y-180301000D03*
X131376501Y-180301000D03*
X130376501Y-180301000D03*
X129376501Y-180301000D03*
X128376501Y-180301000D03*
X127376501Y-180301000D03*
X126376501Y-180301000D03*
X151375501Y-179301000D03*
X150375501Y-179301000D03*
X149375501Y-179301000D03*
X148375501Y-179301000D03*
X147375501Y-179301000D03*
X146375501Y-179301000D03*
X145375501Y-179301000D03*
X144375501Y-179301000D03*
X143375501Y-179301000D03*
X142375501Y-179301000D03*
X141375501Y-179301000D03*
X140375501Y-179301000D03*
X139375501Y-179301000D03*
X138376501Y-179301000D03*
X137376501Y-179301000D03*
X136376501Y-179301000D03*
X135376501Y-179301000D03*
X134376501Y-179301000D03*
X133376501Y-179301000D03*
X132376501Y-179301000D03*
X131376501Y-179301000D03*
X130376501Y-179301000D03*
X129376501Y-179301000D03*
X128376501Y-179301000D03*
X127376501Y-179301000D03*
X126376501Y-179301000D03*
X151375501Y-178301000D03*
X150375501Y-178301000D03*
X149375501Y-178301000D03*
X148375501Y-178301000D03*
X147375501Y-178301000D03*
X146375501Y-178301000D03*
X145375501Y-178301000D03*
X144375501Y-178301000D03*
X143375501Y-178301000D03*
X142375501Y-178301000D03*
X141375501Y-178301000D03*
X140375501Y-178301000D03*
X139375501Y-178301000D03*
X138376501Y-178301000D03*
X137376501Y-178301000D03*
X136376501Y-178301000D03*
X135376501Y-178301000D03*
X134376501Y-178301000D03*
X133376501Y-178301000D03*
X132376501Y-178301000D03*
X131376501Y-178301000D03*
X130376501Y-178301000D03*
X129376501Y-178301000D03*
X128376501Y-178301000D03*
X127376501Y-178301000D03*
X126376501Y-178301000D03*
X151375501Y-177301000D03*
X150375501Y-177301000D03*
X149375501Y-177301000D03*
X148375501Y-177301000D03*
X147375501Y-177301000D03*
X146375501Y-177301000D03*
X145375501Y-177301000D03*
X144375501Y-177301000D03*
X143375501Y-177301000D03*
X142375501Y-177301000D03*
X141375501Y-177301000D03*
X140375501Y-177301000D03*
X139375501Y-177301000D03*
X138376501Y-177301000D03*
X137376501Y-177301000D03*
X136376501Y-177301000D03*
X135376501Y-177301000D03*
X134376501Y-177301000D03*
X133376501Y-177301000D03*
X132376501Y-177301000D03*
X131376501Y-177301000D03*
X130376501Y-177301000D03*
X129376501Y-177301000D03*
X128376501Y-177301000D03*
X127376501Y-177301000D03*
X126376501Y-177301000D03*
X151375501Y-176301000D03*
X150375501Y-176301000D03*
X149375501Y-176301000D03*
X148375501Y-176301000D03*
X147375501Y-176301000D03*
X146375501Y-176301000D03*
X145375501Y-176301000D03*
X144375501Y-176301000D03*
X143375501Y-176301000D03*
X142375501Y-176301000D03*
X141375501Y-176301000D03*
X140375501Y-176301000D03*
X139375501Y-176301000D03*
X138376501Y-176301000D03*
X137376501Y-176301000D03*
X136376501Y-176301000D03*
X135376501Y-176301000D03*
X134376501Y-176301000D03*
X133376501Y-176301000D03*
X132376501Y-176301000D03*
X131376501Y-176301000D03*
X130376501Y-176301000D03*
X129376501Y-176301000D03*
X128376501Y-176301000D03*
X127376501Y-176301000D03*
X126376501Y-176301000D03*
X151375501Y-175301000D03*
X150375501Y-175301000D03*
X149375501Y-175301000D03*
X148375501Y-175301000D03*
X147375501Y-175301000D03*
X146375501Y-175301000D03*
X145375501Y-175301000D03*
X144375501Y-175301000D03*
X143375501Y-175301000D03*
X142375501Y-175301000D03*
X141375501Y-175301000D03*
X140375501Y-175301000D03*
X139375501Y-175301000D03*
X138376501Y-175301000D03*
X137376501Y-175301000D03*
X136376501Y-175301000D03*
X135376501Y-175301000D03*
X134376501Y-175301000D03*
X133376501Y-175301000D03*
X132376501Y-175301000D03*
X131376501Y-175301000D03*
X130376501Y-175301000D03*
X129376501Y-175301000D03*
X128376501Y-175301000D03*
X127376501Y-175301000D03*
X126376501Y-175301000D03*
X151375501Y-174302000D03*
X150375501Y-174302000D03*
X149375501Y-174302000D03*
X148375501Y-174302000D03*
X147375501Y-174302000D03*
X146375501Y-174302000D03*
X145375501Y-174302000D03*
X144375501Y-174302000D03*
X143375501Y-174302000D03*
X142375501Y-174302000D03*
X141375501Y-174302000D03*
X140375501Y-174302000D03*
X139375501Y-174302000D03*
X138376501Y-174302000D03*
X137376501Y-174302000D03*
X136376501Y-174302000D03*
X135376501Y-174302000D03*
X134376501Y-174302000D03*
X133376501Y-174302000D03*
X132376501Y-174302000D03*
X131376501Y-174302000D03*
X130376501Y-174302000D03*
X129376501Y-174302000D03*
X128376501Y-174302000D03*
X127376501Y-174302000D03*
X126376501Y-174302000D03*
X151375501Y-173302000D03*
X150375501Y-173302000D03*
X149375501Y-173302000D03*
X148375501Y-173302000D03*
X147375501Y-173302000D03*
X146375501Y-173302000D03*
X145375501Y-173302000D03*
X144375501Y-173302000D03*
X143375501Y-173302000D03*
X142375501Y-173302000D03*
X141375501Y-173302000D03*
X140375501Y-173302000D03*
X139375501Y-173302000D03*
X138376501Y-173302000D03*
X137376501Y-173302000D03*
X136376501Y-173302000D03*
X135376501Y-173302000D03*
X134376501Y-173302000D03*
X133376501Y-173302000D03*
X132376501Y-173302000D03*
X131376501Y-173302000D03*
X130376501Y-173302000D03*
X129376501Y-173302000D03*
X128376501Y-173302000D03*
X127376501Y-173302000D03*
X126376501Y-173302000D03*
X151375501Y-172302000D03*
X150375501Y-172302000D03*
X149375501Y-172302000D03*
X148375501Y-172302000D03*
X147375501Y-172302000D03*
X146375501Y-172302000D03*
X145375501Y-172302000D03*
X144375501Y-172302000D03*
X143375501Y-172302000D03*
X142375501Y-172302000D03*
X141375501Y-172302000D03*
X140375501Y-172302000D03*
X139375501Y-172302000D03*
X138376501Y-172302000D03*
X137376501Y-172302000D03*
X136376501Y-172302000D03*
X135376501Y-172302000D03*
X134376501Y-172302000D03*
X133376501Y-172302000D03*
X132376501Y-172302000D03*
X131376501Y-172302000D03*
X130376501Y-172302000D03*
X129376501Y-172302000D03*
X128376501Y-172302000D03*
X127376501Y-172302000D03*
X126376501Y-172302000D03*
X151375501Y-171302000D03*
X150375501Y-171302000D03*
X149375501Y-171302000D03*
X148375501Y-171302000D03*
X147375501Y-171302000D03*
X146375501Y-171302000D03*
X145375501Y-171302000D03*
X144375501Y-171302000D03*
X143375501Y-171302000D03*
X142375501Y-171302000D03*
X141375501Y-171302000D03*
X140375501Y-171302000D03*
X139375501Y-171302000D03*
X138376501Y-171302000D03*
X137376501Y-171302000D03*
X136376501Y-171302000D03*
X135376501Y-171302000D03*
X134376501Y-171302000D03*
X133376501Y-171302000D03*
X132376501Y-171302000D03*
X131376501Y-171302000D03*
X130376501Y-171302000D03*
X129376501Y-171302000D03*
X128376501Y-171302000D03*
X127376501Y-171302000D03*
X126376501Y-171302000D03*
X151375501Y-170302000D03*
X150375501Y-170302000D03*
X149375501Y-170302000D03*
X148375501Y-170302000D03*
X147375501Y-170302000D03*
X146375501Y-170302000D03*
X145375501Y-170302000D03*
X144375501Y-170302000D03*
X143375501Y-170302000D03*
X142375501Y-170302000D03*
X141375501Y-170302000D03*
X140375501Y-170302000D03*
X139375501Y-170302000D03*
X138376501Y-170302000D03*
X137376501Y-170302000D03*
X136376501Y-170302000D03*
X135376501Y-170302000D03*
X134376501Y-170302000D03*
X133376501Y-170302000D03*
X132376501Y-170302000D03*
X131376501Y-170302000D03*
X130376501Y-170302000D03*
X129376501Y-170302000D03*
X128376501Y-170302000D03*
X127376501Y-170302000D03*
X126376501Y-170302000D03*
X151375501Y-169302000D03*
X150375501Y-169302000D03*
X149375501Y-169302000D03*
X148375501Y-169302000D03*
X147375501Y-169302000D03*
X146375501Y-169302000D03*
X145375501Y-169302000D03*
X144375501Y-169302000D03*
X143375501Y-169302000D03*
X142375501Y-169302000D03*
X141375501Y-169302000D03*
X140375501Y-169302000D03*
X139375501Y-169302000D03*
X138376501Y-169302000D03*
X137376501Y-169302000D03*
X136376501Y-169302000D03*
X135376501Y-169302000D03*
X134376501Y-169302000D03*
X133376501Y-169302000D03*
X132376501Y-169302000D03*
X131376501Y-169302000D03*
X130376501Y-169302000D03*
X129376501Y-169302000D03*
X128376501Y-169302000D03*
X127376501Y-169302000D03*
X126376501Y-169302000D03*
X151375501Y-168302000D03*
X150375501Y-168302000D03*
X149375501Y-168302000D03*
X148375501Y-168302000D03*
X147375501Y-168302000D03*
X146375501Y-168302000D03*
X145375501Y-168302000D03*
X144375501Y-168302000D03*
X143375501Y-168302000D03*
X142375501Y-168302000D03*
X141375501Y-168302000D03*
X140375501Y-168302000D03*
X139375501Y-168302000D03*
X138376501Y-168302000D03*
X137376501Y-168302000D03*
X136376501Y-168302000D03*
X135376501Y-168302000D03*
X134376501Y-168302000D03*
X133376501Y-168302000D03*
X132376501Y-168302000D03*
X131376501Y-168302000D03*
X130376501Y-168302000D03*
X129376501Y-168302000D03*
X128376501Y-168302000D03*
X127376501Y-168302000D03*
X126376501Y-168302000D03*
D14*
X90690000Y-178000000D03*
X91710000Y-178000000D03*
D29*
X171969500Y-199314502D03*
X173869500Y-199314502D03*
D30*
X78113900Y-142024299D03*
X77093900Y-142024299D03*
D31*
X91051063Y-201588860D03*
X89751063Y-201588860D03*
X90401063Y-203689860D03*
D32*
X200962500Y-177173000D03*
X198037500Y-177173000D03*
D33*
X198725000Y-189475000D03*
X200275000Y-189475000D03*
D34*
X97857500Y-196378600D03*
X97857500Y-197878600D03*
X79058200Y-198500000D03*
X80558200Y-198500000D03*
D35*
X192745501Y-183698000D03*
X192745501Y-182148000D03*
D11*
X92956500Y-190509600D03*
X92956500Y-189549600D03*
D33*
X198750000Y-161722000D03*
X200300000Y-161722000D03*
D31*
X87365500Y-188323000D03*
X87365500Y-187023000D03*
X85264500Y-187673000D03*
D20*
X193630000Y-193050000D03*
X192670000Y-193050000D03*
D22*
X100600000Y-181960000D03*
X100600000Y-180940000D03*
D30*
X196391001Y-161922000D03*
X195371001Y-161922000D03*
D15*
X102000000Y-184290000D03*
X102000000Y-185310000D03*
D35*
X191168501Y-166247000D03*
X191168501Y-164697000D03*
D36*
X169430501Y-194114502D03*
X167880501Y-194114502D03*
D22*
X97353063Y-205653400D03*
X97353063Y-204633400D03*
D17*
X169976800Y-203733400D03*
X170936800Y-203733400D03*
D37*
X194128400Y-148172600D03*
X194128400Y-150872600D03*
D17*
X190490159Y-151829699D03*
X191450159Y-151829699D03*
D33*
X199220501Y-179073000D03*
X200770501Y-179073000D03*
D14*
X82799200Y-203901000D03*
X83819200Y-203901000D03*
D32*
X200462500Y-191325000D03*
X197537500Y-191325000D03*
D38*
X75374501Y-133297000D03*
X76224501Y-133297000D03*
X77075501Y-133297000D03*
X77925501Y-133297000D03*
X78774501Y-133297000D03*
X79624501Y-133297000D03*
X80474501Y-133297000D03*
X81325501Y-133297000D03*
X82175501Y-133297000D03*
X83024501Y-133297000D03*
X83874501Y-133297000D03*
X84724501Y-133297000D03*
X85575501Y-133297000D03*
X86425501Y-133297000D03*
X87274501Y-133297000D03*
X88124501Y-133297000D03*
X88974501Y-133297000D03*
X89825501Y-133297000D03*
X90675501Y-133297000D03*
X91524501Y-133297000D03*
X92374501Y-133297000D03*
X93224501Y-133297000D03*
X94075501Y-133297000D03*
X94925501Y-133297000D03*
X95774501Y-133297000D03*
X96624501Y-133297000D03*
X97474501Y-133297000D03*
X98325501Y-133297000D03*
X99175501Y-133297000D03*
X100024501Y-133297000D03*
X100874501Y-133297000D03*
X101724501Y-133297000D03*
X102575501Y-133297000D03*
X103425501Y-133297000D03*
X104274501Y-133297000D03*
X105124501Y-133297000D03*
X105974501Y-133297000D03*
X106825501Y-133297000D03*
X107674501Y-133297000D03*
X108523501Y-133297000D03*
X109375501Y-133297000D03*
X110224501Y-133297000D03*
X111075501Y-133297000D03*
X111924501Y-133297000D03*
X112773501Y-133297000D03*
X113625501Y-133297000D03*
X114474501Y-133297000D03*
X115325501Y-133297000D03*
X116174501Y-133297000D03*
X117023501Y-133297000D03*
X117875501Y-133297000D03*
X118724501Y-133297000D03*
X119575501Y-133297000D03*
X120424501Y-133297000D03*
X121273501Y-133297000D03*
X122125501Y-133297000D03*
X122975501Y-133297000D03*
X123825501Y-133297000D03*
X124674501Y-133297000D03*
X125524501Y-133297000D03*
X126374501Y-133297000D03*
X127225501Y-133297000D03*
X128075501Y-133297000D03*
X128924501Y-133297000D03*
X129774501Y-133297000D03*
X130625501Y-133297000D03*
X131474501Y-133297000D03*
X132325501Y-133297000D03*
X133174501Y-133297000D03*
X134025501Y-133297000D03*
X134874501Y-133297000D03*
X135724501Y-133297000D03*
X136575501Y-133297000D03*
X137424501Y-133297000D03*
X138275501Y-133297000D03*
X144225501Y-133297000D03*
X145073501Y-133297000D03*
X145924501Y-133297000D03*
X146773501Y-133297000D03*
X147625501Y-133297000D03*
X148475501Y-133297000D03*
X149324501Y-133297000D03*
X150173501Y-133297000D03*
X151023501Y-133297000D03*
X151875501Y-133297000D03*
X152725501Y-133297000D03*
X153574501Y-133297000D03*
X154423501Y-133297000D03*
X155274501Y-133297000D03*
X156125501Y-133297000D03*
X156974501Y-133297000D03*
X157823501Y-133297000D03*
X158675501Y-133297000D03*
X159524501Y-133297000D03*
X160375501Y-133297000D03*
X161224501Y-133297000D03*
X162073501Y-133297000D03*
X162925501Y-133297000D03*
X163774501Y-133297000D03*
X164625501Y-133297000D03*
X165474501Y-133297000D03*
X166323501Y-133297000D03*
X167175501Y-133297000D03*
X168024501Y-133297000D03*
X168875501Y-133297000D03*
X169724501Y-133297000D03*
X170573501Y-133297000D03*
X171425501Y-133297000D03*
X172275501Y-133297000D03*
X173123501Y-133297000D03*
X173974501Y-133297000D03*
X174824501Y-133297000D03*
X175675501Y-133297000D03*
X176525501Y-133297000D03*
X177373501Y-133297000D03*
X178224501Y-133297000D03*
X179074501Y-133297000D03*
X179925501Y-133297000D03*
X180775501Y-133297000D03*
X181623501Y-133297000D03*
X182473501Y-133297000D03*
X183324501Y-133297000D03*
X184175501Y-133297000D03*
X185025501Y-133297000D03*
X185873501Y-133297000D03*
X186723501Y-133297000D03*
X187574501Y-133297000D03*
X188425501Y-133297000D03*
X189275501Y-133297000D03*
X190123501Y-133297000D03*
X190973501Y-133297000D03*
X191824501Y-133297000D03*
X192675501Y-133297000D03*
X193525501Y-133297000D03*
X194373501Y-133297000D03*
X195223501Y-133297000D03*
X196074501Y-133297000D03*
X196925501Y-133297000D03*
X197775501Y-133297000D03*
X198623501Y-133297000D03*
X199473501Y-133297000D03*
X200324501Y-133297000D03*
X201175501Y-133297000D03*
X202025501Y-133297000D03*
X75374501Y-128699000D03*
X76224501Y-128699000D03*
X77075501Y-128699000D03*
X77925501Y-128699000D03*
X78774501Y-128699000D03*
X79624501Y-128699000D03*
X80474501Y-128699000D03*
X81325501Y-128699000D03*
X82175501Y-128699000D03*
X83024501Y-128699000D03*
X83874501Y-128699000D03*
X84724501Y-128699000D03*
X85575501Y-128699000D03*
X86425501Y-128699000D03*
X87274501Y-128699000D03*
X88124501Y-128699000D03*
X88974501Y-128699000D03*
X89825501Y-128699000D03*
X90675501Y-128699000D03*
X91524501Y-128699000D03*
X92374501Y-128699000D03*
X93224501Y-128699000D03*
X94075501Y-128699000D03*
X94925501Y-128699000D03*
X95774501Y-128699000D03*
X96624501Y-128699000D03*
X97474501Y-128699000D03*
X98325501Y-128699000D03*
X99175501Y-128699000D03*
X100024501Y-128699000D03*
X100874501Y-128699000D03*
X101724501Y-128699000D03*
X102575501Y-128699000D03*
X103425501Y-128699000D03*
X104274501Y-128699000D03*
X105124501Y-128699000D03*
X105974501Y-128699000D03*
X106825501Y-128699000D03*
X107674501Y-128699000D03*
X108523501Y-128699000D03*
X109375501Y-128699000D03*
X110224501Y-128699000D03*
X111075501Y-128699000D03*
X111924501Y-128699000D03*
X112773501Y-128699000D03*
X113625501Y-128699000D03*
X114474501Y-128699000D03*
X115325501Y-128699000D03*
X116174501Y-128699000D03*
X117023501Y-128699000D03*
X117875501Y-128699000D03*
X118724501Y-128699000D03*
X119575501Y-128699000D03*
X120424501Y-128699000D03*
X121273501Y-128699000D03*
X122125501Y-128699000D03*
X122975501Y-128699000D03*
X123825501Y-128699000D03*
X124674501Y-128699000D03*
X125524501Y-128699000D03*
X126374501Y-128699000D03*
X127225501Y-128699000D03*
X128075501Y-128699000D03*
X128924501Y-128699000D03*
X129774501Y-128699000D03*
X130625501Y-128699000D03*
X131474501Y-128699000D03*
X132325501Y-128699000D03*
X133174501Y-128699000D03*
X134025501Y-128699000D03*
X134874501Y-128699000D03*
X135724501Y-128699000D03*
X136575501Y-128699000D03*
X137424501Y-128699000D03*
X138275501Y-128699000D03*
X144225501Y-128699000D03*
X145073501Y-128699000D03*
X145924501Y-128699000D03*
X146773501Y-128699000D03*
X147625501Y-128699000D03*
X148475501Y-128699000D03*
X149324501Y-128699000D03*
X150173501Y-128699000D03*
X151023501Y-128699000D03*
X151875501Y-128699000D03*
X152725501Y-128699000D03*
X153574501Y-128699000D03*
X154423501Y-128699000D03*
X155274501Y-128699000D03*
X156125501Y-128699000D03*
X156974501Y-128699000D03*
X157823501Y-128699000D03*
X158675501Y-128699000D03*
X159524501Y-128699000D03*
X160375501Y-128699000D03*
X161224501Y-128699000D03*
X162073501Y-128699000D03*
X162925501Y-128699000D03*
X163774501Y-128699000D03*
X164625501Y-128699000D03*
X165474501Y-128699000D03*
X166323501Y-128699000D03*
X167175501Y-128699000D03*
X168024501Y-128699000D03*
X168875501Y-128699000D03*
X169724501Y-128699000D03*
X170573501Y-128699000D03*
X171425501Y-128699000D03*
X172275501Y-128699000D03*
X173123501Y-128699000D03*
X173974501Y-128699000D03*
X174824501Y-128699000D03*
X175675501Y-128699000D03*
X176525501Y-128699000D03*
X177373501Y-128699000D03*
X178224501Y-128699000D03*
X179074501Y-128699000D03*
X179925501Y-128699000D03*
X180775501Y-128699000D03*
X181623501Y-128699000D03*
X182473501Y-128699000D03*
X183324501Y-128699000D03*
X184175501Y-128699000D03*
X185025501Y-128699000D03*
X185873501Y-128699000D03*
X186723501Y-128699000D03*
X187574501Y-128699000D03*
X188425501Y-128699000D03*
X189275501Y-128699000D03*
X190123501Y-128699000D03*
X190973501Y-128699000D03*
X191824501Y-128699000D03*
X192675501Y-128699000D03*
X193525501Y-128699000D03*
X194373501Y-128699000D03*
X195223501Y-128699000D03*
X196074501Y-128699000D03*
X196925501Y-128699000D03*
X197775501Y-128699000D03*
X198623501Y-128699000D03*
X199473501Y-128699000D03*
X200324501Y-128699000D03*
X201175501Y-128699000D03*
X202025501Y-128699000D03*
D39*
X158385000Y-206946400D03*
X154287000Y-206946400D03*
X158385000Y-205344400D03*
X154287000Y-205344400D03*
D32*
X200962500Y-173975000D03*
X198037500Y-173975000D03*
D29*
X171969503Y-197376000D03*
X173869503Y-197376000D03*
D32*
X190118000Y-162001000D03*
X187193000Y-162001000D03*
D33*
X199206001Y-172122000D03*
X200756001Y-172122000D03*
D40*
X191168501Y-167297000D03*
X191168501Y-168847000D03*
D41*
X159300501Y-179675000D03*
X159300501Y-180675000D03*
X159300501Y-181675000D03*
X165200501Y-181675000D03*
X165200501Y-180675000D03*
X165200501Y-179675000D03*
D42*
X160100501Y-178675000D03*
X160100501Y-182675000D03*
X164400501Y-178675000D03*
X164400501Y-182675000D03*
D43*
X104380000Y-175009000D03*
X104380000Y-175360000D03*
X104380000Y-175710000D03*
X104380000Y-176061000D03*
X105240000Y-176061000D03*
X105240000Y-175710000D03*
X105240000Y-175360000D03*
X105240000Y-175009000D03*
D22*
X94256500Y-195354600D03*
X94256500Y-194334600D03*
D14*
X177402500Y-181315000D03*
X178422500Y-181315000D03*
D44*
X194000000Y-177100000D03*
D31*
X177824000Y-202275600D03*
X177824000Y-203575600D03*
X179925000Y-202925600D03*
D45*
X173369501Y-192815501D03*
D46*
X172869501Y-193365501D03*
D47*
X171021501Y-193214501D03*
X171021501Y-193716501D03*
X171021501Y-194216501D03*
X171021501Y-194714501D03*
X171021501Y-195215501D03*
D48*
X172371501Y-195065501D03*
D49*
X173369501Y-195065501D03*
D47*
X174720501Y-195215501D03*
X174720501Y-194714501D03*
X174720501Y-194216501D03*
X174720501Y-193716501D03*
X174720501Y-193214501D03*
D14*
X154322600Y-199143800D03*
X155342600Y-199143800D03*
D50*
X74247900Y-143519800D03*
X74247900Y-142869800D03*
X74247900Y-142219800D03*
X74247900Y-141569800D03*
X69947900Y-141569800D03*
X69947900Y-142219800D03*
X69947900Y-142869800D03*
X69947900Y-143519800D03*
D22*
X92656500Y-195354600D03*
X92656500Y-194334600D03*
D16*
X184150000Y-196170000D03*
X184150000Y-197130000D03*
X184150000Y-192420000D03*
X184150000Y-193380000D03*
D14*
X82799200Y-201201000D03*
X83819200Y-201201000D03*
D51*
X201504399Y-155462600D03*
X201504399Y-156412600D03*
X201504399Y-157362600D03*
X203779399Y-157362600D03*
X203779399Y-155462600D03*
D16*
X107251000Y-180104000D03*
X107251000Y-181064000D03*
D52*
X165487000Y-175200000D03*
X165487000Y-174700000D03*
D53*
X165487000Y-174200000D03*
D52*
X165487000Y-173702000D03*
X165487000Y-173202000D03*
X164715000Y-173202000D03*
X164715000Y-173702000D03*
D53*
X164715000Y-174200000D03*
D52*
X164715000Y-174700000D03*
X164715000Y-175200000D03*
D54*
X182387107Y-184914000D03*
D55*
X183137107Y-183451500D03*
X182637107Y-183451500D03*
X182137107Y-183451500D03*
X181637107Y-183451500D03*
D56*
X180924607Y-184164000D03*
X180924607Y-184664000D03*
X180924607Y-185164000D03*
X180924607Y-185664000D03*
D55*
X181637107Y-186376500D03*
X182137107Y-186376500D03*
X182637107Y-186376500D03*
X183137107Y-186376500D03*
D56*
X183849607Y-185664000D03*
X183849607Y-185164000D03*
X183849607Y-184664000D03*
X183849607Y-184164000D03*
D16*
X96500000Y-180170000D03*
X96500000Y-181130000D03*
D22*
X202945501Y-181455500D03*
X202945501Y-180435500D03*
D17*
X183070000Y-149675000D03*
X184030000Y-149675000D03*
D30*
X196305501Y-179410500D03*
X195285501Y-179410500D03*
D22*
X202881001Y-163982000D03*
X202881001Y-162962000D03*
D36*
X169430502Y-192614501D03*
X167880502Y-192614501D03*
D57*
X165400000Y-188151000D03*
X165400000Y-185050000D03*
D31*
X177824000Y-205025600D03*
X177824000Y-206325600D03*
X179925000Y-205675600D03*
D58*
X180100000Y-197300000D03*
X180100000Y-197800000D03*
X180100000Y-198300000D03*
X180100000Y-198800000D03*
X183200000Y-198800000D03*
X183200000Y-198300000D03*
X183200000Y-197800000D03*
X183200000Y-197300000D03*
D30*
X73756000Y-144967800D03*
X72736000Y-144967800D03*
D16*
X177219502Y-192234502D03*
X177219502Y-193194502D03*
D14*
X72245899Y-188430800D03*
X73265899Y-188430800D03*
D32*
X200514001Y-159699000D03*
X197589001Y-159699000D03*
D17*
X194670000Y-193075000D03*
X195630000Y-193075000D03*
D35*
X192668501Y-166247000D03*
X192668501Y-164697000D03*
D14*
X167746800Y-203733400D03*
X168766800Y-203733400D03*
D31*
X94001063Y-201575321D03*
X92701063Y-201575321D03*
X93351063Y-203676321D03*
D14*
X82799200Y-206601000D03*
X83819200Y-206601000D03*
D59*
X122649500Y-183804500D03*
X122649500Y-182535500D03*
X122649500Y-181265500D03*
X122649500Y-179995500D03*
X114650500Y-180024500D03*
X114650500Y-181296500D03*
X114650500Y-182565500D03*
X114650500Y-183835500D03*
D60*
X118650500Y-181900500D03*
D61*
X74704899Y-181079800D03*
X74704899Y-182030800D03*
X74704899Y-182979800D03*
X77405899Y-182979800D03*
X77405899Y-181079800D03*
D62*
X193200000Y-194297000D03*
D63*
X193200000Y-194850000D03*
X193200000Y-195347000D03*
X195147000Y-195347000D03*
X195147000Y-194850000D03*
X195147000Y-194350000D03*
D14*
X177390000Y-179115000D03*
X178410000Y-179115000D03*
X82799200Y-195801000D03*
X83819200Y-195801000D03*
D31*
X87360200Y-204551000D03*
X87360200Y-203251000D03*
X85259200Y-203901000D03*
D35*
X191245501Y-183698000D03*
X191245501Y-182148000D03*
D15*
X122850000Y-186090000D03*
X122850000Y-187110000D03*
D64*
X199618501Y-163721500D03*
X198968501Y-163721500D03*
X198321501Y-163721500D03*
X197668501Y-163721500D03*
X197021501Y-163721500D03*
X196369501Y-163721500D03*
D65*
X194857501Y-163933500D03*
X194857501Y-164584500D03*
X194857501Y-165234500D03*
X194857501Y-165884500D03*
X194857501Y-166531500D03*
X194857501Y-167184500D03*
X194857501Y-167831500D03*
X194857501Y-168483500D03*
X194857501Y-169132500D03*
X194857501Y-169781500D03*
D64*
X196369501Y-169995500D03*
X197021501Y-169995500D03*
X197668501Y-169995500D03*
X198321501Y-169995500D03*
X198968501Y-169995500D03*
X199618501Y-169995500D03*
D65*
X201131501Y-169781500D03*
X201131501Y-169132500D03*
X201131501Y-168483500D03*
X201131501Y-167831500D03*
X201131501Y-167184500D03*
X201131501Y-166531500D03*
X201131501Y-165884500D03*
X201131501Y-165234500D03*
X201131501Y-164584500D03*
X201131501Y-163933500D03*
D66*
X198856501Y-165996500D03*
X197133501Y-165996500D03*
X198856501Y-167719500D03*
X197133501Y-167719500D03*
D64*
X199645501Y-181172500D03*
X198995501Y-181172500D03*
X198348501Y-181172500D03*
X197695501Y-181172500D03*
X197048501Y-181172500D03*
X196396501Y-181172500D03*
D65*
X194884501Y-181384500D03*
X194884501Y-182035500D03*
X194884501Y-182685500D03*
X194884501Y-183335500D03*
X194884501Y-183982500D03*
X194884501Y-184635500D03*
X194884501Y-185282500D03*
X194884501Y-185934500D03*
X194884501Y-186583500D03*
X194884501Y-187232500D03*
D64*
X196396501Y-187446500D03*
X197048501Y-187446500D03*
X197695501Y-187446500D03*
X198348501Y-187446500D03*
X198995501Y-187446500D03*
X199645501Y-187446500D03*
D65*
X201158501Y-187232500D03*
X201158501Y-186583500D03*
X201158501Y-185934500D03*
X201158501Y-185282500D03*
X201158501Y-184635500D03*
X201158501Y-183982500D03*
X201158501Y-183335500D03*
X201158501Y-182685500D03*
X201158501Y-182035500D03*
X201158501Y-181384500D03*
D66*
X198883501Y-183447500D03*
X197160501Y-183447500D03*
X198883501Y-185170500D03*
X197160501Y-185170500D03*
D22*
X94363063Y-205663400D03*
X94363063Y-204643400D03*
D14*
X82985100Y-190373000D03*
X84005100Y-190373000D03*
D22*
X79678900Y-143164299D03*
X79678900Y-142144299D03*
D67*
X182141000Y-151875000D03*
X182941000Y-151875000D03*
D68*
X181891000Y-152925000D03*
X182541000Y-152925000D03*
X183191000Y-152925000D03*
X183191000Y-150825000D03*
X182541000Y-150825000D03*
X181891000Y-150825000D03*
D30*
X196905501Y-189160500D03*
X195885501Y-189160500D03*
D69*
X191550000Y-193300000D03*
X189900000Y-193300000D03*
D70*
X133730000Y-193000000D03*
X136269000Y-193000000D03*
X136269000Y-190799000D03*
X133730000Y-190799000D03*
D15*
X107300000Y-184290000D03*
X107300000Y-185310000D03*
D22*
X96353063Y-205666321D03*
X96353063Y-204646321D03*
D40*
X199691899Y-155087600D03*
X199691899Y-156637600D03*
D71*
X103949200Y-192624800D03*
X104449200Y-192624800D03*
D72*
X104949200Y-192624800D03*
D71*
X105447200Y-192624800D03*
X105947200Y-192624800D03*
X105947200Y-191852800D03*
X105447200Y-191852800D03*
D72*
X104949200Y-191852800D03*
D71*
X104449200Y-191852800D03*
X103949200Y-191852800D03*
D43*
X104380000Y-171309000D03*
X104380000Y-171660000D03*
X104380000Y-172010000D03*
X104380000Y-172361000D03*
X105240000Y-172361000D03*
X105240000Y-172010000D03*
X105240000Y-171660000D03*
X105240000Y-171309000D03*
D15*
X202895501Y-187150500D03*
X202895501Y-188170500D03*
D14*
X82985100Y-187680600D03*
X84005100Y-187680600D03*
D73*
X106151000Y-181435000D03*
D74*
X105651000Y-180435000D03*
X105151000Y-180435000D03*
X104651000Y-180435000D03*
X104157000Y-180435000D03*
X103657000Y-180435000D03*
D73*
X103152000Y-181435000D03*
X103152000Y-181929000D03*
D74*
X103657000Y-182934000D03*
X104157000Y-182934000D03*
X104651000Y-182934000D03*
X105151000Y-182934000D03*
X105651000Y-182934000D03*
D73*
X106151000Y-181929000D03*
D75*
X104651000Y-181685000D03*
D76*
X205395501Y-185410500D03*
X205395501Y-183510500D03*
D20*
X182030000Y-149650000D03*
X181070000Y-149650000D03*
D32*
X190137500Y-171700000D03*
X187212500Y-171700000D03*
D15*
X80692900Y-142157299D03*
X80692900Y-143177299D03*
D77*
X192858901Y-155480600D03*
X193518901Y-155480600D03*
X194178901Y-155480600D03*
X194838901Y-155480600D03*
D78*
X193848901Y-153488100D03*
D31*
X87360200Y-196451000D03*
X87360200Y-195151000D03*
X85259200Y-195801000D03*
D22*
X191775000Y-195845000D03*
X191775000Y-194825000D03*
D34*
X79058200Y-206600000D03*
X80558200Y-206600000D03*
D14*
X82799200Y-198501000D03*
X83819200Y-198501000D03*
D11*
X96550000Y-183180000D03*
X96550000Y-182220000D03*
D79*
X129900000Y-190349000D03*
X129900000Y-193450000D03*
D32*
X190162500Y-189100000D03*
X187237500Y-189100000D03*
D34*
X96257500Y-196378600D03*
X96257500Y-197878600D03*
D22*
X96256500Y-195369600D03*
X96256500Y-194349600D03*
D31*
X155437600Y-200192800D03*
X154137600Y-200192800D03*
X154787600Y-202293800D03*
D22*
X176770000Y-203480600D03*
X176770000Y-202460600D03*
D34*
X92124163Y-207096200D03*
X90624163Y-207096200D03*
X191803400Y-148722600D03*
X191803400Y-150222600D03*
D52*
X73142899Y-187230800D03*
X73142899Y-186730800D03*
D53*
X73142899Y-186230800D03*
D52*
X73142899Y-185732800D03*
X73142899Y-185232800D03*
X72370899Y-185232800D03*
X72370899Y-185732800D03*
D53*
X72370899Y-186230800D03*
D52*
X72370899Y-186730800D03*
X72370899Y-187230800D03*
D39*
X160918400Y-205270200D03*
X165016400Y-205270200D03*
X160918400Y-206872200D03*
X165016400Y-206872200D03*
D54*
X182387107Y-166750000D03*
D55*
X183137107Y-165287500D03*
X182637107Y-165287500D03*
X182137107Y-165287500D03*
X181637107Y-165287500D03*
D56*
X180924607Y-166000000D03*
X180924607Y-166500000D03*
X180924607Y-167000000D03*
X180924607Y-167500000D03*
D55*
X181637107Y-168212500D03*
X182137107Y-168212500D03*
X182637107Y-168212500D03*
X183137107Y-168212500D03*
D56*
X183849607Y-167500000D03*
X183849607Y-167000000D03*
X183849607Y-166500000D03*
X183849607Y-166000000D03*
D17*
X183061000Y-148650001D03*
X184021000Y-148650001D03*
D80*
X94104500Y-191279600D03*
X94104500Y-191676600D03*
X94104500Y-192079600D03*
X94104500Y-192476600D03*
D81*
X94655500Y-193027600D03*
X95052500Y-193027600D03*
X95455500Y-193027600D03*
X95852500Y-193027600D03*
D80*
X96403500Y-192476600D03*
X96403500Y-192079600D03*
X96403500Y-191676600D03*
X96403500Y-191279600D03*
D81*
X95852500Y-190728600D03*
X95455500Y-190728600D03*
X95052500Y-190728600D03*
X94655500Y-190728600D03*
D82*
X95255500Y-191879600D03*
D76*
X203331001Y-167872000D03*
X203331001Y-165972000D03*
D34*
X94257500Y-196378600D03*
X94257500Y-197878600D03*
D22*
X97856500Y-195354600D03*
X97856500Y-194334600D03*
D83*
X183896300Y-208629800D03*
X183896300Y-207679800D03*
X183896300Y-206729800D03*
X181621300Y-206729800D03*
X181621300Y-207679800D03*
X181621300Y-208629800D03*
D58*
X180100000Y-193550000D03*
X180100000Y-194050000D03*
X180100000Y-194550000D03*
X180100000Y-195050000D03*
X183200000Y-195050000D03*
X183200000Y-194550000D03*
X183200000Y-194050000D03*
X183200000Y-193550000D03*
D15*
X115450000Y-186090000D03*
X115450000Y-187110000D03*
X106250000Y-184290000D03*
X106250000Y-185310000D03*
D34*
X79058200Y-201200000D03*
X80558200Y-201200000D03*
D84*
X156400500Y-174426500D03*
X157398500Y-174426500D03*
X158399500Y-174426500D03*
X159399500Y-174426500D03*
D85*
X155100500Y-171901500D03*
X160700500Y-171901500D03*
D86*
X79014300Y-192134600D03*
X80762300Y-192134600D03*
X80762300Y-193131600D03*
X79014300Y-193131600D03*
D35*
X73204899Y-182555800D03*
X73204899Y-181005800D03*
D17*
X181086000Y-154050000D03*
X182046000Y-154050000D03*
D87*
X125000501Y-190876000D03*
X125000501Y-197076000D03*
D22*
X176080501Y-198286000D03*
X176080501Y-197266000D03*
D39*
X167547800Y-205270000D03*
X171645800Y-205270000D03*
X167547800Y-206872000D03*
X171645800Y-206872000D03*
D31*
X87360200Y-207251000D03*
X87360200Y-205951000D03*
X85259200Y-206601000D03*
D30*
X73265899Y-184130800D03*
X72245899Y-184130800D03*
D31*
X97001063Y-201575321D03*
X95701063Y-201575321D03*
X96351063Y-203676321D03*
D20*
X177099502Y-196214503D03*
X176139502Y-196214503D03*
X74396600Y-137261600D03*
X73436600Y-137261600D03*
D16*
X176119502Y-192234502D03*
X176119502Y-193194502D03*
D88*
X111115200Y-194997299D03*
X110015200Y-194997299D03*
X108915200Y-194997299D03*
X107815200Y-194997299D03*
X106715200Y-194997299D03*
X105615200Y-194997299D03*
X104515200Y-194997299D03*
X103415200Y-194997299D03*
X102315200Y-194997299D03*
D89*
X100765200Y-196052299D03*
D90*
X101015200Y-205647299D03*
D89*
X116265200Y-196052299D03*
D90*
X116715200Y-205647299D03*
D17*
X181086000Y-155074999D03*
X182046000Y-155074999D03*
D32*
X190137500Y-179499000D03*
X187212500Y-179499000D03*
D22*
X93353063Y-205666321D03*
X93353063Y-204646321D03*
D69*
X166925501Y-197114501D03*
X165275501Y-197114501D03*
D11*
X78704899Y-182044800D03*
X78704899Y-181084800D03*
D15*
X202881001Y-169712000D03*
X202881001Y-170732000D03*
X185000000Y-182605000D03*
X185000000Y-183625000D03*
D30*
X78123900Y-140994299D03*
X77103900Y-140994299D03*
D15*
X121799499Y-186090000D03*
X121799499Y-187110000D03*
D91*
X120650501Y-173926000D03*
X120650501Y-174926000D03*
X120650501Y-175926000D03*
X120650501Y-176926000D03*
X119650501Y-172926000D03*
X119650501Y-173926000D03*
X119650501Y-174926000D03*
X119650501Y-175926000D03*
X119650501Y-176926000D03*
X118650501Y-172926000D03*
X118650501Y-173926000D03*
X118650501Y-174926000D03*
X118650501Y-175926000D03*
X118650501Y-176926000D03*
X117650501Y-172926000D03*
X117650501Y-173926000D03*
X117650501Y-174926000D03*
X117650501Y-175926000D03*
X117650501Y-176926000D03*
X116650501Y-172926000D03*
X116650501Y-173926000D03*
X116650501Y-174926000D03*
X116650501Y-175926000D03*
X116650501Y-176926000D03*
D15*
X101650000Y-180940000D03*
X101650000Y-181960000D03*
D17*
X182640107Y-181815000D03*
X183600107Y-181815000D03*
D31*
X87360200Y-199151000D03*
X87360200Y-197851000D03*
X85259200Y-198501000D03*
X87360200Y-201851000D03*
X87360200Y-200551000D03*
X85259200Y-201201000D03*
D83*
X159837500Y-202325800D03*
X159837500Y-201375800D03*
X159837500Y-200425800D03*
X157562500Y-200425800D03*
X157562500Y-201375800D03*
X157562500Y-202325800D03*
D17*
X73436600Y-136259600D03*
X74396600Y-136259600D03*
D92*
X204800000Y-190000000D03*
D71*
X108399200Y-192624800D03*
X108899200Y-192624800D03*
D72*
X109399200Y-192624800D03*
D71*
X109897200Y-192624800D03*
X110397200Y-192624800D03*
X110397200Y-191852800D03*
X109897200Y-191852800D03*
D72*
X109399200Y-191852800D03*
D71*
X108899200Y-191852800D03*
X108399200Y-191852800D03*
D14*
X177390000Y-182415000D03*
X178410000Y-182415000D03*
X82908900Y-193065400D03*
X83928900Y-193065400D03*
D17*
X182640108Y-163651000D03*
X183600108Y-163651000D03*
D34*
X97224163Y-207096200D03*
X95724163Y-207096200D03*
D76*
X203395501Y-185410500D03*
X203395501Y-183510500D03*
D34*
X94663662Y-207120200D03*
X93163662Y-207120200D03*
D93*
X172850501Y-188176000D03*
X168800501Y-188176000D03*
D94*
X146705200Y-202713800D03*
X145705200Y-202713800D03*
X144705200Y-202713800D03*
X143705200Y-202713800D03*
X142705200Y-202713800D03*
X141705200Y-202713800D03*
X140705200Y-202713800D03*
X139705200Y-202713800D03*
X139705200Y-208613800D03*
X140705200Y-208613800D03*
X141705200Y-208613800D03*
X142705200Y-208613800D03*
X143705200Y-208613800D03*
X144705200Y-208613800D03*
X145705200Y-208613800D03*
X146705200Y-208613800D03*
D42*
X147705200Y-203513800D03*
X138705200Y-203513800D03*
X147705200Y-207813800D03*
X138705200Y-207813800D03*
D69*
X166925501Y-194150000D03*
X165275501Y-194150000D03*
D95*
X181776500Y-203279100D03*
D96*
X181776500Y-204998100D03*
X183774500Y-204998100D03*
X183774500Y-203079100D03*
D36*
X169430502Y-197114502D03*
X167880502Y-197114502D03*
D22*
X90401063Y-205649860D03*
X90401063Y-204629860D03*
X103050000Y-185295000D03*
X103050000Y-184275000D03*
D11*
X205181899Y-156882600D03*
X205181899Y-155922600D03*
D15*
X185000000Y-164441000D03*
X185000000Y-165461000D03*
D34*
X79058200Y-195800000D03*
X80558200Y-195800000D03*
D22*
X72255899Y-191555800D03*
X72255899Y-190535800D03*
D11*
X107251000Y-183198000D03*
X107251000Y-182238000D03*
D31*
X87365500Y-193723000D03*
X87365500Y-192423000D03*
X85264500Y-193073000D03*
D15*
X114400000Y-186090000D03*
X114400000Y-187110000D03*
D97*
X70256400Y-183044800D03*
X70256400Y-183846800D03*
D98*
X70256400Y-184996800D03*
X70256400Y-185996800D03*
X70256400Y-186494800D03*
X70256400Y-187495800D03*
D97*
X70256400Y-188644800D03*
X70256400Y-189446800D03*
X70256400Y-189446800D03*
X70256400Y-188644800D03*
D98*
X70256400Y-187995800D03*
X70256400Y-186994800D03*
X70256400Y-185496800D03*
X70256400Y-184496800D03*
D97*
X70256400Y-183846800D03*
X70256400Y-183044800D03*
D73*
X95400000Y-181450000D03*
D74*
X94900000Y-180450000D03*
X94400000Y-180450000D03*
X93900000Y-180450000D03*
X93406000Y-180450000D03*
X92906000Y-180450000D03*
D73*
X92401000Y-181450000D03*
X92401000Y-181944000D03*
D74*
X92906000Y-182949000D03*
X93406000Y-182949000D03*
X93900000Y-182949000D03*
X94400000Y-182949000D03*
X94900000Y-182949000D03*
D73*
X95400000Y-181944000D03*
D75*
X93900000Y-181700000D03*
D22*
X91000000Y-182225000D03*
X91000000Y-181205000D03*
D99*
X191320159Y-152992200D03*
X190370159Y-152992200D03*
X189420159Y-152992200D03*
X189420159Y-155267200D03*
X190370159Y-155267200D03*
X191320159Y-155267200D03*
D33*
X189695159Y-156829699D03*
X191245159Y-156829699D03*
D76*
X205281001Y-167872000D03*
X205281001Y-165972000D03*
D36*
X169430502Y-195614502D03*
X167880502Y-195614502D03*
D40*
X192745501Y-184748000D03*
X192745501Y-186298000D03*
D16*
X73280899Y-190565800D03*
X73280899Y-191525800D03*
D34*
X92656500Y-196378600D03*
X92656500Y-197878600D03*
D16*
X174900501Y-190596000D03*
X174900501Y-191556000D03*
D30*
X196991001Y-171722000D03*
X195971001Y-171722000D03*
D22*
X97656500Y-190539600D03*
X97656500Y-189519600D03*
D30*
X78113900Y-143044299D03*
X77093900Y-143044299D03*
D22*
X177100501Y-198286000D03*
X177100501Y-197266000D03*
D40*
X191245501Y-184748000D03*
X191245501Y-186298000D03*
X192668501Y-167297000D03*
X192668501Y-168847000D03*
D14*
X177390000Y-180215000D03*
X178410000Y-180215000D03*
X176109501Y-194214502D03*
X177129501Y-194214502D03*
D92*
X204789501Y-173401000D03*
D100*
X105351001Y-184485000D03*
X103951001Y-184485000D03*
D31*
X87365500Y-191023000D03*
X87365500Y-189723000D03*
X85264500Y-190373000D03*
D14*
X70836000Y-144967800D03*
X71856000Y-144967800D03*
D34*
X79058200Y-203900000D03*
X80558200Y-203900000D03*
D31*
X155649501Y-176826000D03*
X155649501Y-178126000D03*
X157750501Y-177476000D03*
D101*
X96458501Y-172285000D03*
X96458501Y-173686000D03*
X96458501Y-175085000D03*
X96458501Y-176486000D03*
X97859501Y-172285000D03*
X97859501Y-173686000D03*
X97859501Y-175085000D03*
X97859501Y-176486000D03*
X99258501Y-172285000D03*
X99258501Y-173686000D03*
X99258501Y-175085000D03*
X99258501Y-176486000D03*
X100659501Y-172285000D03*
X100659501Y-173686000D03*
X100659501Y-175085000D03*
X100659501Y-176486000D03*
D102*
X94621501Y-171136000D03*
X94621501Y-171636000D03*
X94621501Y-172136000D03*
X94621501Y-172636000D03*
X94621501Y-173136000D03*
X94621501Y-173636000D03*
X94621501Y-174136000D03*
X94621501Y-174635000D03*
X94621501Y-175135000D03*
X94621501Y-175635000D03*
X94621501Y-176135000D03*
X94621501Y-176635000D03*
X94621501Y-177135000D03*
X94621501Y-177635000D03*
D103*
X95309501Y-178323000D03*
X95809501Y-178323000D03*
X96309501Y-178323000D03*
X96809501Y-178323000D03*
X97309501Y-178323000D03*
X97809501Y-178323000D03*
X98309501Y-178323000D03*
X98808501Y-178323000D03*
X99308501Y-178323000D03*
X99808501Y-178323000D03*
X100308501Y-178323000D03*
X100808501Y-178323000D03*
X101308501Y-178323000D03*
X101808501Y-178323000D03*
D102*
X102496501Y-177635000D03*
X102496501Y-177135000D03*
X102496501Y-176635000D03*
X102496501Y-176135000D03*
X102496501Y-175635000D03*
X102496501Y-175135000D03*
X102496501Y-174635000D03*
X102496501Y-174136000D03*
X102496501Y-173636000D03*
X102496501Y-173136000D03*
X102496501Y-172636000D03*
X102496501Y-172136000D03*
X102496501Y-171636000D03*
X102496501Y-171136000D03*
D103*
X101808501Y-170448000D03*
X101308501Y-170448000D03*
X100808501Y-170448000D03*
X100308501Y-170448000D03*
X99808501Y-170448000D03*
X99308501Y-170448000D03*
X98808501Y-170448000D03*
X98309501Y-170448000D03*
X97809501Y-170448000D03*
X97309501Y-170448000D03*
X96809501Y-170448000D03*
X96309501Y-170448000D03*
X95809501Y-170448000D03*
X95309501Y-170448000D03*
D104*
X172928000Y-180400000D03*
X168670000Y-180400000D03*
X172928000Y-178400000D03*
X168670000Y-178400000D03*
X172928000Y-176400000D03*
X168670000Y-176400000D03*
X172928000Y-174400000D03*
X168670000Y-174400000D03*
X172928000Y-172401000D03*
X168670000Y-172401000D03*
X172928000Y-170401000D03*
X168670000Y-170401000D03*
X172928000Y-168402000D03*
X168670000Y-168402000D03*
M02*
