G04 #@! TF.GenerationSoftware,KiCad,Pcbnew,7.0.11-rc3*
G04 #@! TF.CreationDate,2024-11-10T09:22:12+01:00*
G04 #@! TF.ProjectId,sodimm-ddr5-tester,736f6469-6d6d-42d6-9464-72352d746573,1.2.0*
G04 #@! TF.SameCoordinates,Original*
G04 #@! TF.FileFunction,Legend,Bot*
G04 #@! TF.FilePolarity,Positive*
%FSLAX46Y46*%
G04 Gerber Fmt 4.6, Leading zero omitted, Abs format (unit mm)*
G04 Created by KiCad (PCBNEW 7.0.11-rc3) date 2024-11-10 09:22:12*
%MOMM*%
%LPD*%
G01*
G04 APERTURE LIST*
%ADD10C,0.120000*%
%ADD11C,0.150000*%
G04 APERTURE END LIST*
D10*
X142877001Y-168802500D02*
X142879501Y-169752500D01*
X180800000Y-192300000D02*
X180800000Y-191700000D01*
X139752001Y-158075500D02*
X140777001Y-158075500D01*
X140777001Y-159100500D01*
X139752001Y-159100500D01*
X139752001Y-158075500D01*
G36*
X139752001Y-158075500D02*
G01*
X140777001Y-158075500D01*
X140777001Y-159100500D01*
X139752001Y-159100500D01*
X139752001Y-158075500D01*
G37*
X135877001Y-171802500D02*
X145877001Y-171802500D01*
X85380501Y-155763149D02*
X85980501Y-155763149D01*
X180800000Y-200700000D02*
X180800000Y-200100000D01*
X136877001Y-175800500D02*
X148877001Y-175800500D01*
X144877001Y-177800500D02*
X150900000Y-177800000D01*
X143877001Y-175800500D02*
X143877001Y-178800500D01*
X135877001Y-170802500D02*
X135877001Y-173800000D01*
X180800000Y-198700000D02*
X180800000Y-198100000D01*
X143877001Y-171789000D02*
X143019501Y-171789000D01*
X143019501Y-169816001D01*
X143877001Y-169816001D01*
X143877001Y-171789000D01*
G36*
X143877001Y-171789000D02*
G01*
X143019501Y-171789000D01*
X143019501Y-169816001D01*
X143877001Y-169816001D01*
X143877001Y-171789000D01*
G37*
X98150501Y-161576000D02*
X98750501Y-161576000D01*
X139877001Y-171802500D02*
X139877001Y-173802500D01*
X143877001Y-173802500D02*
X143877001Y-171789000D01*
X85380501Y-151353149D02*
X85980501Y-151353149D01*
X145877001Y-176800500D02*
X139877001Y-176800500D01*
X83000000Y-153300000D02*
X86200000Y-153300000D01*
X83050000Y-154850000D02*
X83050000Y-153850000D01*
X86200000Y-154800000D02*
X84150000Y-154800000D01*
X100225501Y-161576000D02*
X100825501Y-161576000D01*
X98750000Y-180950000D02*
X99350000Y-180950000D01*
X142877001Y-173902500D02*
X142877001Y-170902500D01*
X145877001Y-171802500D02*
X145877001Y-173802500D01*
X140877001Y-179800500D02*
X142877001Y-179800500D01*
X135877001Y-173800000D02*
X147877001Y-173800000D01*
X148877001Y-179800500D02*
X144877001Y-179800500D01*
X148877001Y-175800500D02*
X148877001Y-179800500D01*
X137877001Y-170802500D02*
X137877001Y-173802500D01*
X97700000Y-180950000D02*
X98300000Y-180950000D01*
X96850000Y-157050000D02*
X96850000Y-153950000D01*
X180800000Y-191300000D02*
X180800000Y-190700000D01*
X99800000Y-180950000D02*
X100400000Y-180950000D01*
X99200501Y-161576000D02*
X99800501Y-161576000D01*
X144877001Y-176800500D02*
X145877001Y-176800500D01*
X145877001Y-177800500D01*
X144877001Y-177800500D01*
X144877001Y-176800500D01*
G36*
X144877001Y-176800500D02*
G01*
X145877001Y-176800500D01*
X145877001Y-177800500D01*
X144877001Y-177800500D01*
X144877001Y-176800500D01*
G37*
X135877001Y-170802500D02*
X137877001Y-170802500D01*
X96850000Y-153950000D02*
X94750000Y-153950000D01*
X144877001Y-179800500D02*
X144877001Y-176800500D01*
X86200000Y-149150000D02*
X84050000Y-149150000D01*
X142877001Y-180800500D02*
X142877001Y-176800500D01*
X84200000Y-152300000D02*
X86200000Y-152300000D01*
X202581001Y-170222000D02*
X203181001Y-170222000D01*
X103427001Y-162700500D02*
X95777001Y-162700500D01*
X144877001Y-169800000D02*
X139500000Y-169800000D01*
X83050000Y-153850000D02*
X86200000Y-153850000D01*
X141877001Y-175800500D02*
X141877001Y-178800500D01*
X94750000Y-153950000D02*
X92700000Y-153950000D01*
X96075501Y-163951000D02*
X96675501Y-163951000D01*
X180800000Y-199700000D02*
X180800000Y-199100000D01*
X196700000Y-179700000D02*
X196700000Y-179100000D01*
X138877001Y-179800500D02*
X138877001Y-175800500D01*
X139877001Y-179800500D02*
X138877001Y-179800500D01*
X83000000Y-152300000D02*
X83000000Y-153300000D01*
X124475000Y-187850000D02*
X125075000Y-187850000D01*
X146877001Y-176800500D02*
X148877001Y-176800500D01*
X148877001Y-177800500D01*
X146877001Y-177800500D01*
X146877001Y-176800500D01*
G36*
X146877001Y-176800500D02*
G01*
X148877001Y-176800500D01*
X148877001Y-177800500D01*
X146877001Y-177800500D01*
X146877001Y-176800500D01*
G37*
X86200000Y-153850000D02*
X86200000Y-158000000D01*
X144877001Y-178800500D02*
X139877001Y-178800500D01*
X180800000Y-193300000D02*
X180800000Y-192700000D01*
X84050000Y-158000000D02*
X84050000Y-154850000D01*
X146877001Y-175800500D02*
X146877001Y-179800500D01*
X196700000Y-172025000D02*
X196700000Y-171425000D01*
X95777001Y-160600500D02*
X103427001Y-160600500D01*
X103427001Y-167850500D01*
X95777001Y-167850500D01*
X95777001Y-160600500D01*
X140877001Y-168802500D02*
X140877001Y-169802500D01*
X150900000Y-177800000D02*
X150900000Y-176800000D01*
X138877001Y-178800500D02*
X136877001Y-178800500D01*
X145877001Y-175800500D02*
X145877001Y-179800500D01*
X146877001Y-176800500D02*
X150900000Y-176800000D01*
X136877001Y-176800500D02*
X138877001Y-176800500D01*
X97450000Y-180000000D02*
X102750000Y-180000000D01*
X102750000Y-181950000D01*
X97450000Y-181950000D01*
X97450000Y-180000000D01*
X102177001Y-160600500D02*
X102177001Y-167800500D01*
X139877001Y-176800500D02*
X139877001Y-175800500D01*
X101900000Y-180950000D02*
X102500000Y-180950000D01*
X196700000Y-189475000D02*
X196700000Y-188875000D01*
X136877001Y-177800500D02*
X139877001Y-177800500D01*
X146877001Y-178800500D02*
X148877001Y-178800500D01*
X138877001Y-170802500D02*
X138877001Y-171802500D01*
X147877001Y-172802500D02*
X143877001Y-172801000D01*
X92700000Y-157050000D02*
X96850000Y-157050000D01*
X103327001Y-164950500D02*
X95802001Y-164950500D01*
X202625000Y-182400000D02*
X203225000Y-182400000D01*
X84050000Y-149150000D02*
X84050000Y-152300000D01*
X142877001Y-172802500D02*
X140877001Y-172802500D01*
X142877001Y-180800500D02*
X140877001Y-180800500D01*
X94750000Y-156000000D02*
X94750000Y-153950000D01*
X147877001Y-173800000D02*
X147877001Y-172802500D01*
X86200000Y-153300000D02*
X86200000Y-149150000D01*
X86200000Y-158000000D02*
X84050000Y-158000000D01*
X84000000Y-154850000D02*
X83050000Y-154850000D01*
X140802001Y-163050500D02*
X138827001Y-163050500D01*
X140977001Y-169802500D02*
X142700000Y-169802500D01*
X142700000Y-170800000D01*
X140977001Y-170800000D01*
X140977001Y-169802500D01*
G36*
X140977001Y-169802500D02*
G01*
X142700000Y-169802500D01*
X142700000Y-170800000D01*
X140977001Y-170800000D01*
X140977001Y-169802500D01*
G37*
X94550000Y-154950000D02*
X93950000Y-154950000D01*
X142957001Y-170802500D02*
X138877001Y-170802500D01*
X97125501Y-163951000D02*
X97725501Y-163951000D01*
X202575000Y-164850000D02*
X203175000Y-164850000D01*
X114800501Y-181549999D02*
X114800501Y-180949999D01*
X196700000Y-162250000D02*
X196700000Y-161650000D01*
X136877001Y-178800500D02*
X136877001Y-175800500D01*
X140877001Y-168802500D02*
X142877001Y-168802500D01*
X100850000Y-180950000D02*
X101450000Y-180950000D01*
X140802001Y-163050500D02*
X140802001Y-156175500D01*
X139877001Y-179800500D02*
X139877001Y-176800500D01*
X92700000Y-153950000D02*
X92700000Y-157050000D01*
X138827001Y-163050500D02*
X138827001Y-156175500D01*
X138827001Y-156175500D02*
X140802001Y-156175500D01*
X202625000Y-187650000D02*
X203225000Y-187650000D01*
X140877001Y-170802500D02*
X140877001Y-173802500D01*
X139877001Y-172802500D02*
X135877001Y-172802500D01*
X139777001Y-160125500D02*
X140802001Y-160125500D01*
X140802001Y-161150500D01*
X139777001Y-161150500D01*
X139777001Y-160125500D01*
G36*
X139777001Y-160125500D02*
G01*
X140802001Y-160125500D01*
X140802001Y-161150500D01*
X139777001Y-161150500D01*
X139777001Y-160125500D01*
G37*
X84050000Y-152300000D02*
X83000000Y-152300000D01*
X101325501Y-161601000D02*
X101925501Y-161601000D01*
X140877001Y-180800500D02*
X140877001Y-176800500D01*
D11*
X199116666Y-200116033D02*
X199116666Y-199416033D01*
X199116666Y-199416033D02*
X198849999Y-199416033D01*
X198849999Y-199416033D02*
X198783333Y-199449366D01*
X198783333Y-199449366D02*
X198749999Y-199482700D01*
X198749999Y-199482700D02*
X198716666Y-199549366D01*
X198716666Y-199549366D02*
X198716666Y-199649366D01*
X198716666Y-199649366D02*
X198749999Y-199716033D01*
X198749999Y-199716033D02*
X198783333Y-199749366D01*
X198783333Y-199749366D02*
X198849999Y-199782700D01*
X198849999Y-199782700D02*
X199116666Y-199782700D01*
X198016666Y-200049366D02*
X198049999Y-200082700D01*
X198049999Y-200082700D02*
X198149999Y-200116033D01*
X198149999Y-200116033D02*
X198216666Y-200116033D01*
X198216666Y-200116033D02*
X198316666Y-200082700D01*
X198316666Y-200082700D02*
X198383333Y-200016033D01*
X198383333Y-200016033D02*
X198416666Y-199949366D01*
X198416666Y-199949366D02*
X198449999Y-199816033D01*
X198449999Y-199816033D02*
X198449999Y-199716033D01*
X198449999Y-199716033D02*
X198416666Y-199582700D01*
X198416666Y-199582700D02*
X198383333Y-199516033D01*
X198383333Y-199516033D02*
X198316666Y-199449366D01*
X198316666Y-199449366D02*
X198216666Y-199416033D01*
X198216666Y-199416033D02*
X198149999Y-199416033D01*
X198149999Y-199416033D02*
X198049999Y-199449366D01*
X198049999Y-199449366D02*
X198016666Y-199482700D01*
X197483333Y-199749366D02*
X197383333Y-199782700D01*
X197383333Y-199782700D02*
X197349999Y-199816033D01*
X197349999Y-199816033D02*
X197316666Y-199882700D01*
X197316666Y-199882700D02*
X197316666Y-199982700D01*
X197316666Y-199982700D02*
X197349999Y-200049366D01*
X197349999Y-200049366D02*
X197383333Y-200082700D01*
X197383333Y-200082700D02*
X197449999Y-200116033D01*
X197449999Y-200116033D02*
X197716666Y-200116033D01*
X197716666Y-200116033D02*
X197716666Y-199416033D01*
X197716666Y-199416033D02*
X197483333Y-199416033D01*
X197483333Y-199416033D02*
X197416666Y-199449366D01*
X197416666Y-199449366D02*
X197383333Y-199482700D01*
X197383333Y-199482700D02*
X197349999Y-199549366D01*
X197349999Y-199549366D02*
X197349999Y-199616033D01*
X197349999Y-199616033D02*
X197383333Y-199682700D01*
X197383333Y-199682700D02*
X197416666Y-199716033D01*
X197416666Y-199716033D02*
X197483333Y-199749366D01*
X197483333Y-199749366D02*
X197716666Y-199749366D01*
X196516666Y-200082700D02*
X196416666Y-200116033D01*
X196416666Y-200116033D02*
X196250000Y-200116033D01*
X196250000Y-200116033D02*
X196183333Y-200082700D01*
X196183333Y-200082700D02*
X196150000Y-200049366D01*
X196150000Y-200049366D02*
X196116666Y-199982700D01*
X196116666Y-199982700D02*
X196116666Y-199916033D01*
X196116666Y-199916033D02*
X196150000Y-199849366D01*
X196150000Y-199849366D02*
X196183333Y-199816033D01*
X196183333Y-199816033D02*
X196250000Y-199782700D01*
X196250000Y-199782700D02*
X196383333Y-199749366D01*
X196383333Y-199749366D02*
X196450000Y-199716033D01*
X196450000Y-199716033D02*
X196483333Y-199682700D01*
X196483333Y-199682700D02*
X196516666Y-199616033D01*
X196516666Y-199616033D02*
X196516666Y-199549366D01*
X196516666Y-199549366D02*
X196483333Y-199482700D01*
X196483333Y-199482700D02*
X196450000Y-199449366D01*
X196450000Y-199449366D02*
X196383333Y-199416033D01*
X196383333Y-199416033D02*
X196216666Y-199416033D01*
X196216666Y-199416033D02*
X196116666Y-199449366D01*
X195816666Y-200116033D02*
X195816666Y-199416033D01*
X195816666Y-199749366D02*
X195416666Y-199749366D01*
X195416666Y-200116033D02*
X195416666Y-199416033D01*
X195116666Y-199916033D02*
X194783333Y-199916033D01*
X195183333Y-200116033D02*
X194950000Y-199416033D01*
X194950000Y-199416033D02*
X194716666Y-200116033D01*
X193983333Y-199649366D02*
X193483333Y-199649366D01*
X193783333Y-199349366D02*
X193983333Y-200249366D01*
X193550000Y-199949366D02*
X194050000Y-199949366D01*
X193750000Y-200249366D02*
X193550000Y-199349366D01*
X193283333Y-199649366D02*
X192783333Y-199649366D01*
X193083333Y-199349366D02*
X193283333Y-200249366D01*
X192850000Y-199949366D02*
X193350000Y-199949366D01*
X193050000Y-200249366D02*
X192850000Y-199349366D01*
X192583333Y-199649366D02*
X192083333Y-199649366D01*
X192383333Y-199349366D02*
X192583333Y-200249366D01*
X192150000Y-199949366D02*
X192650000Y-199949366D01*
X192350000Y-200249366D02*
X192150000Y-199349366D01*
X191883333Y-199649366D02*
X191383333Y-199649366D01*
X191683333Y-199349366D02*
X191883333Y-200249366D01*
X191450000Y-199949366D02*
X191950000Y-199949366D01*
X191650000Y-200249366D02*
X191450000Y-199349366D01*
X191183333Y-199649366D02*
X190683333Y-199649366D01*
X190983333Y-199349366D02*
X191183333Y-200249366D01*
X190750000Y-199949366D02*
X191250000Y-199949366D01*
X190950000Y-200249366D02*
X190750000Y-199349366D01*
X190483333Y-199649366D02*
X189983333Y-199649366D01*
X190283333Y-199349366D02*
X190483333Y-200249366D01*
X190050000Y-199949366D02*
X190550000Y-199949366D01*
X190250000Y-200249366D02*
X190050000Y-199349366D01*
X189783333Y-199649366D02*
X189283333Y-199649366D01*
X189583333Y-199349366D02*
X189783333Y-200249366D01*
X189350000Y-199949366D02*
X189850000Y-199949366D01*
X189550000Y-200249366D02*
X189350000Y-199349366D01*
X189083333Y-199649366D02*
X188583333Y-199649366D01*
X188883333Y-199349366D02*
X189083333Y-200249366D01*
X188650000Y-199949366D02*
X189150000Y-199949366D01*
X188850000Y-200249366D02*
X188650000Y-199349366D01*
X95206533Y-177265350D02*
X95206533Y-177665350D01*
X95906533Y-177465350D02*
X95206533Y-177465350D01*
X95906533Y-177898683D02*
X95206533Y-177898683D01*
X95206533Y-177898683D02*
X95206533Y-178165350D01*
X95206533Y-178165350D02*
X95239866Y-178232017D01*
X95239866Y-178232017D02*
X95273200Y-178265350D01*
X95273200Y-178265350D02*
X95339866Y-178298683D01*
X95339866Y-178298683D02*
X95439866Y-178298683D01*
X95439866Y-178298683D02*
X95506533Y-178265350D01*
X95506533Y-178265350D02*
X95539866Y-178232017D01*
X95539866Y-178232017D02*
X95573200Y-178165350D01*
X95573200Y-178165350D02*
X95573200Y-177898683D01*
X95906533Y-178965350D02*
X95906533Y-178565350D01*
X95906533Y-178765350D02*
X95206533Y-178765350D01*
X95206533Y-178765350D02*
X95306533Y-178698683D01*
X95306533Y-178698683D02*
X95373200Y-178632017D01*
X95373200Y-178632017D02*
X95406533Y-178565350D01*
X184084649Y-197806533D02*
X184317982Y-197473200D01*
X184484649Y-197806533D02*
X184484649Y-197106533D01*
X184484649Y-197106533D02*
X184217982Y-197106533D01*
X184217982Y-197106533D02*
X184151316Y-197139866D01*
X184151316Y-197139866D02*
X184117982Y-197173200D01*
X184117982Y-197173200D02*
X184084649Y-197239866D01*
X184084649Y-197239866D02*
X184084649Y-197339866D01*
X184084649Y-197339866D02*
X184117982Y-197406533D01*
X184117982Y-197406533D02*
X184151316Y-197439866D01*
X184151316Y-197439866D02*
X184217982Y-197473200D01*
X184217982Y-197473200D02*
X184484649Y-197473200D01*
X183417982Y-197806533D02*
X183817982Y-197806533D01*
X183617982Y-197806533D02*
X183617982Y-197106533D01*
X183617982Y-197106533D02*
X183684649Y-197206533D01*
X183684649Y-197206533D02*
X183751316Y-197273200D01*
X183751316Y-197273200D02*
X183817982Y-197306533D01*
X182784649Y-197106533D02*
X183117982Y-197106533D01*
X183117982Y-197106533D02*
X183151315Y-197439866D01*
X183151315Y-197439866D02*
X183117982Y-197406533D01*
X183117982Y-197406533D02*
X183051315Y-197373200D01*
X183051315Y-197373200D02*
X182884649Y-197373200D01*
X182884649Y-197373200D02*
X182817982Y-197406533D01*
X182817982Y-197406533D02*
X182784649Y-197439866D01*
X182784649Y-197439866D02*
X182751315Y-197506533D01*
X182751315Y-197506533D02*
X182751315Y-197673200D01*
X182751315Y-197673200D02*
X182784649Y-197739866D01*
X182784649Y-197739866D02*
X182817982Y-197773200D01*
X182817982Y-197773200D02*
X182884649Y-197806533D01*
X182884649Y-197806533D02*
X183051315Y-197806533D01*
X183051315Y-197806533D02*
X183117982Y-197773200D01*
X183117982Y-197773200D02*
X183151315Y-197739866D01*
X182317982Y-197106533D02*
X182251315Y-197106533D01*
X182251315Y-197106533D02*
X182184648Y-197139866D01*
X182184648Y-197139866D02*
X182151315Y-197173200D01*
X182151315Y-197173200D02*
X182117982Y-197239866D01*
X182117982Y-197239866D02*
X182084648Y-197373200D01*
X182084648Y-197373200D02*
X182084648Y-197539866D01*
X182084648Y-197539866D02*
X182117982Y-197673200D01*
X182117982Y-197673200D02*
X182151315Y-197739866D01*
X182151315Y-197739866D02*
X182184648Y-197773200D01*
X182184648Y-197773200D02*
X182251315Y-197806533D01*
X182251315Y-197806533D02*
X182317982Y-197806533D01*
X182317982Y-197806533D02*
X182384648Y-197773200D01*
X182384648Y-197773200D02*
X182417982Y-197739866D01*
X182417982Y-197739866D02*
X182451315Y-197673200D01*
X182451315Y-197673200D02*
X182484648Y-197539866D01*
X182484648Y-197539866D02*
X182484648Y-197373200D01*
X182484648Y-197373200D02*
X182451315Y-197239866D01*
X182451315Y-197239866D02*
X182417982Y-197173200D01*
X182417982Y-197173200D02*
X182384648Y-197139866D01*
X182384648Y-197139866D02*
X182317982Y-197106533D01*
X184084649Y-194456533D02*
X184317982Y-194123200D01*
X184484649Y-194456533D02*
X184484649Y-193756533D01*
X184484649Y-193756533D02*
X184217982Y-193756533D01*
X184217982Y-193756533D02*
X184151316Y-193789866D01*
X184151316Y-193789866D02*
X184117982Y-193823200D01*
X184117982Y-193823200D02*
X184084649Y-193889866D01*
X184084649Y-193889866D02*
X184084649Y-193989866D01*
X184084649Y-193989866D02*
X184117982Y-194056533D01*
X184117982Y-194056533D02*
X184151316Y-194089866D01*
X184151316Y-194089866D02*
X184217982Y-194123200D01*
X184217982Y-194123200D02*
X184484649Y-194123200D01*
X183417982Y-194456533D02*
X183817982Y-194456533D01*
X183617982Y-194456533D02*
X183617982Y-193756533D01*
X183617982Y-193756533D02*
X183684649Y-193856533D01*
X183684649Y-193856533D02*
X183751316Y-193923200D01*
X183751316Y-193923200D02*
X183817982Y-193956533D01*
X182784649Y-193756533D02*
X183117982Y-193756533D01*
X183117982Y-193756533D02*
X183151315Y-194089866D01*
X183151315Y-194089866D02*
X183117982Y-194056533D01*
X183117982Y-194056533D02*
X183051315Y-194023200D01*
X183051315Y-194023200D02*
X182884649Y-194023200D01*
X182884649Y-194023200D02*
X182817982Y-194056533D01*
X182817982Y-194056533D02*
X182784649Y-194089866D01*
X182784649Y-194089866D02*
X182751315Y-194156533D01*
X182751315Y-194156533D02*
X182751315Y-194323200D01*
X182751315Y-194323200D02*
X182784649Y-194389866D01*
X182784649Y-194389866D02*
X182817982Y-194423200D01*
X182817982Y-194423200D02*
X182884649Y-194456533D01*
X182884649Y-194456533D02*
X183051315Y-194456533D01*
X183051315Y-194456533D02*
X183117982Y-194423200D01*
X183117982Y-194423200D02*
X183151315Y-194389866D01*
X182417982Y-194456533D02*
X182284648Y-194456533D01*
X182284648Y-194456533D02*
X182217982Y-194423200D01*
X182217982Y-194423200D02*
X182184648Y-194389866D01*
X182184648Y-194389866D02*
X182117982Y-194289866D01*
X182117982Y-194289866D02*
X182084648Y-194156533D01*
X182084648Y-194156533D02*
X182084648Y-193889866D01*
X182084648Y-193889866D02*
X182117982Y-193823200D01*
X182117982Y-193823200D02*
X182151315Y-193789866D01*
X182151315Y-193789866D02*
X182217982Y-193756533D01*
X182217982Y-193756533D02*
X182351315Y-193756533D01*
X182351315Y-193756533D02*
X182417982Y-193789866D01*
X182417982Y-193789866D02*
X182451315Y-193823200D01*
X182451315Y-193823200D02*
X182484648Y-193889866D01*
X182484648Y-193889866D02*
X182484648Y-194056533D01*
X182484648Y-194056533D02*
X182451315Y-194123200D01*
X182451315Y-194123200D02*
X182417982Y-194156533D01*
X182417982Y-194156533D02*
X182351315Y-194189866D01*
X182351315Y-194189866D02*
X182217982Y-194189866D01*
X182217982Y-194189866D02*
X182151315Y-194156533D01*
X182151315Y-194156533D02*
X182117982Y-194123200D01*
X182117982Y-194123200D02*
X182084648Y-194056533D01*
X76385933Y-130286048D02*
X76052600Y-130052715D01*
X76385933Y-129886048D02*
X75685933Y-129886048D01*
X75685933Y-129886048D02*
X75685933Y-130152715D01*
X75685933Y-130152715D02*
X75719266Y-130219382D01*
X75719266Y-130219382D02*
X75752600Y-130252715D01*
X75752600Y-130252715D02*
X75819266Y-130286048D01*
X75819266Y-130286048D02*
X75919266Y-130286048D01*
X75919266Y-130286048D02*
X75985933Y-130252715D01*
X75985933Y-130252715D02*
X76019266Y-130219382D01*
X76019266Y-130219382D02*
X76052600Y-130152715D01*
X76052600Y-130152715D02*
X76052600Y-129886048D01*
X75685933Y-130519382D02*
X75685933Y-130952715D01*
X75685933Y-130952715D02*
X75952600Y-130719382D01*
X75952600Y-130719382D02*
X75952600Y-130819382D01*
X75952600Y-130819382D02*
X75985933Y-130886048D01*
X75985933Y-130886048D02*
X76019266Y-130919382D01*
X76019266Y-130919382D02*
X76085933Y-130952715D01*
X76085933Y-130952715D02*
X76252600Y-130952715D01*
X76252600Y-130952715D02*
X76319266Y-130919382D01*
X76319266Y-130919382D02*
X76352600Y-130886048D01*
X76352600Y-130886048D02*
X76385933Y-130819382D01*
X76385933Y-130819382D02*
X76385933Y-130619382D01*
X76385933Y-130619382D02*
X76352600Y-130552715D01*
X76352600Y-130552715D02*
X76319266Y-130519382D01*
X76385933Y-131619382D02*
X76385933Y-131219382D01*
X76385933Y-131419382D02*
X75685933Y-131419382D01*
X75685933Y-131419382D02*
X75785933Y-131352715D01*
X75785933Y-131352715D02*
X75852600Y-131286049D01*
X75852600Y-131286049D02*
X75885933Y-131219382D01*
X199834649Y-172156533D02*
X200067982Y-171823200D01*
X200234649Y-172156533D02*
X200234649Y-171456533D01*
X200234649Y-171456533D02*
X199967982Y-171456533D01*
X199967982Y-171456533D02*
X199901316Y-171489866D01*
X199901316Y-171489866D02*
X199867982Y-171523200D01*
X199867982Y-171523200D02*
X199834649Y-171589866D01*
X199834649Y-171589866D02*
X199834649Y-171689866D01*
X199834649Y-171689866D02*
X199867982Y-171756533D01*
X199867982Y-171756533D02*
X199901316Y-171789866D01*
X199901316Y-171789866D02*
X199967982Y-171823200D01*
X199967982Y-171823200D02*
X200234649Y-171823200D01*
X199167982Y-172156533D02*
X199567982Y-172156533D01*
X199367982Y-172156533D02*
X199367982Y-171456533D01*
X199367982Y-171456533D02*
X199434649Y-171556533D01*
X199434649Y-171556533D02*
X199501316Y-171623200D01*
X199501316Y-171623200D02*
X199567982Y-171656533D01*
X198534649Y-171456533D02*
X198867982Y-171456533D01*
X198867982Y-171456533D02*
X198901315Y-171789866D01*
X198901315Y-171789866D02*
X198867982Y-171756533D01*
X198867982Y-171756533D02*
X198801315Y-171723200D01*
X198801315Y-171723200D02*
X198634649Y-171723200D01*
X198634649Y-171723200D02*
X198567982Y-171756533D01*
X198567982Y-171756533D02*
X198534649Y-171789866D01*
X198534649Y-171789866D02*
X198501315Y-171856533D01*
X198501315Y-171856533D02*
X198501315Y-172023200D01*
X198501315Y-172023200D02*
X198534649Y-172089866D01*
X198534649Y-172089866D02*
X198567982Y-172123200D01*
X198567982Y-172123200D02*
X198634649Y-172156533D01*
X198634649Y-172156533D02*
X198801315Y-172156533D01*
X198801315Y-172156533D02*
X198867982Y-172123200D01*
X198867982Y-172123200D02*
X198901315Y-172089866D01*
X197901315Y-171456533D02*
X198034648Y-171456533D01*
X198034648Y-171456533D02*
X198101315Y-171489866D01*
X198101315Y-171489866D02*
X198134648Y-171523200D01*
X198134648Y-171523200D02*
X198201315Y-171623200D01*
X198201315Y-171623200D02*
X198234648Y-171756533D01*
X198234648Y-171756533D02*
X198234648Y-172023200D01*
X198234648Y-172023200D02*
X198201315Y-172089866D01*
X198201315Y-172089866D02*
X198167982Y-172123200D01*
X198167982Y-172123200D02*
X198101315Y-172156533D01*
X198101315Y-172156533D02*
X197967982Y-172156533D01*
X197967982Y-172156533D02*
X197901315Y-172123200D01*
X197901315Y-172123200D02*
X197867982Y-172089866D01*
X197867982Y-172089866D02*
X197834648Y-172023200D01*
X197834648Y-172023200D02*
X197834648Y-171856533D01*
X197834648Y-171856533D02*
X197867982Y-171789866D01*
X197867982Y-171789866D02*
X197901315Y-171756533D01*
X197901315Y-171756533D02*
X197967982Y-171723200D01*
X197967982Y-171723200D02*
X198101315Y-171723200D01*
X198101315Y-171723200D02*
X198167982Y-171756533D01*
X198167982Y-171756533D02*
X198201315Y-171789866D01*
X198201315Y-171789866D02*
X198234648Y-171856533D01*
X203156533Y-172009834D02*
X202823200Y-171776501D01*
X203156533Y-171609834D02*
X202456533Y-171609834D01*
X202456533Y-171609834D02*
X202456533Y-171876501D01*
X202456533Y-171876501D02*
X202489866Y-171943168D01*
X202489866Y-171943168D02*
X202523200Y-171976501D01*
X202523200Y-171976501D02*
X202589866Y-172009834D01*
X202589866Y-172009834D02*
X202689866Y-172009834D01*
X202689866Y-172009834D02*
X202756533Y-171976501D01*
X202756533Y-171976501D02*
X202789866Y-171943168D01*
X202789866Y-171943168D02*
X202823200Y-171876501D01*
X202823200Y-171876501D02*
X202823200Y-171609834D01*
X203156533Y-172676501D02*
X203156533Y-172276501D01*
X203156533Y-172476501D02*
X202456533Y-172476501D01*
X202456533Y-172476501D02*
X202556533Y-172409834D01*
X202556533Y-172409834D02*
X202623200Y-172343168D01*
X202623200Y-172343168D02*
X202656533Y-172276501D01*
X202456533Y-173276501D02*
X202456533Y-173143168D01*
X202456533Y-173143168D02*
X202489866Y-173076501D01*
X202489866Y-173076501D02*
X202523200Y-173043168D01*
X202523200Y-173043168D02*
X202623200Y-172976501D01*
X202623200Y-172976501D02*
X202756533Y-172943168D01*
X202756533Y-172943168D02*
X203023200Y-172943168D01*
X203023200Y-172943168D02*
X203089866Y-172976501D01*
X203089866Y-172976501D02*
X203123200Y-173009835D01*
X203123200Y-173009835D02*
X203156533Y-173076501D01*
X203156533Y-173076501D02*
X203156533Y-173209835D01*
X203156533Y-173209835D02*
X203123200Y-173276501D01*
X203123200Y-173276501D02*
X203089866Y-173309835D01*
X203089866Y-173309835D02*
X203023200Y-173343168D01*
X203023200Y-173343168D02*
X202856533Y-173343168D01*
X202856533Y-173343168D02*
X202789866Y-173309835D01*
X202789866Y-173309835D02*
X202756533Y-173276501D01*
X202756533Y-173276501D02*
X202723200Y-173209835D01*
X202723200Y-173209835D02*
X202723200Y-173076501D01*
X202723200Y-173076501D02*
X202756533Y-173009835D01*
X202756533Y-173009835D02*
X202789866Y-172976501D01*
X202789866Y-172976501D02*
X202856533Y-172943168D01*
X203156533Y-173676502D02*
X203156533Y-173809835D01*
X203156533Y-173809835D02*
X203123200Y-173876502D01*
X203123200Y-173876502D02*
X203089866Y-173909835D01*
X203089866Y-173909835D02*
X202989866Y-173976502D01*
X202989866Y-173976502D02*
X202856533Y-174009835D01*
X202856533Y-174009835D02*
X202589866Y-174009835D01*
X202589866Y-174009835D02*
X202523200Y-173976502D01*
X202523200Y-173976502D02*
X202489866Y-173943168D01*
X202489866Y-173943168D02*
X202456533Y-173876502D01*
X202456533Y-173876502D02*
X202456533Y-173743168D01*
X202456533Y-173743168D02*
X202489866Y-173676502D01*
X202489866Y-173676502D02*
X202523200Y-173643168D01*
X202523200Y-173643168D02*
X202589866Y-173609835D01*
X202589866Y-173609835D02*
X202756533Y-173609835D01*
X202756533Y-173609835D02*
X202823200Y-173643168D01*
X202823200Y-173643168D02*
X202856533Y-173676502D01*
X202856533Y-173676502D02*
X202889866Y-173743168D01*
X202889866Y-173743168D02*
X202889866Y-173876502D01*
X202889866Y-173876502D02*
X202856533Y-173943168D01*
X202856533Y-173943168D02*
X202823200Y-173976502D01*
X202823200Y-173976502D02*
X202756533Y-174009835D01*
X203156533Y-161665350D02*
X202823200Y-161432017D01*
X203156533Y-161265350D02*
X202456533Y-161265350D01*
X202456533Y-161265350D02*
X202456533Y-161532017D01*
X202456533Y-161532017D02*
X202489866Y-161598684D01*
X202489866Y-161598684D02*
X202523200Y-161632017D01*
X202523200Y-161632017D02*
X202589866Y-161665350D01*
X202589866Y-161665350D02*
X202689866Y-161665350D01*
X202689866Y-161665350D02*
X202756533Y-161632017D01*
X202756533Y-161632017D02*
X202789866Y-161598684D01*
X202789866Y-161598684D02*
X202823200Y-161532017D01*
X202823200Y-161532017D02*
X202823200Y-161265350D01*
X203156533Y-162332017D02*
X203156533Y-161932017D01*
X203156533Y-162132017D02*
X202456533Y-162132017D01*
X202456533Y-162132017D02*
X202556533Y-162065350D01*
X202556533Y-162065350D02*
X202623200Y-161998684D01*
X202623200Y-161998684D02*
X202656533Y-161932017D01*
X202456533Y-162932017D02*
X202456533Y-162798684D01*
X202456533Y-162798684D02*
X202489866Y-162732017D01*
X202489866Y-162732017D02*
X202523200Y-162698684D01*
X202523200Y-162698684D02*
X202623200Y-162632017D01*
X202623200Y-162632017D02*
X202756533Y-162598684D01*
X202756533Y-162598684D02*
X203023200Y-162598684D01*
X203023200Y-162598684D02*
X203089866Y-162632017D01*
X203089866Y-162632017D02*
X203123200Y-162665351D01*
X203123200Y-162665351D02*
X203156533Y-162732017D01*
X203156533Y-162732017D02*
X203156533Y-162865351D01*
X203156533Y-162865351D02*
X203123200Y-162932017D01*
X203123200Y-162932017D02*
X203089866Y-162965351D01*
X203089866Y-162965351D02*
X203023200Y-162998684D01*
X203023200Y-162998684D02*
X202856533Y-162998684D01*
X202856533Y-162998684D02*
X202789866Y-162965351D01*
X202789866Y-162965351D02*
X202756533Y-162932017D01*
X202756533Y-162932017D02*
X202723200Y-162865351D01*
X202723200Y-162865351D02*
X202723200Y-162732017D01*
X202723200Y-162732017D02*
X202756533Y-162665351D01*
X202756533Y-162665351D02*
X202789866Y-162632017D01*
X202789866Y-162632017D02*
X202856533Y-162598684D01*
X202456533Y-163232018D02*
X202456533Y-163698684D01*
X202456533Y-163698684D02*
X203156533Y-163398684D01*
X125006533Y-189365350D02*
X124673200Y-189132017D01*
X125006533Y-188965350D02*
X124306533Y-188965350D01*
X124306533Y-188965350D02*
X124306533Y-189232017D01*
X124306533Y-189232017D02*
X124339866Y-189298684D01*
X124339866Y-189298684D02*
X124373200Y-189332017D01*
X124373200Y-189332017D02*
X124439866Y-189365350D01*
X124439866Y-189365350D02*
X124539866Y-189365350D01*
X124539866Y-189365350D02*
X124606533Y-189332017D01*
X124606533Y-189332017D02*
X124639866Y-189298684D01*
X124639866Y-189298684D02*
X124673200Y-189232017D01*
X124673200Y-189232017D02*
X124673200Y-188965350D01*
X124373200Y-189632017D02*
X124339866Y-189665350D01*
X124339866Y-189665350D02*
X124306533Y-189732017D01*
X124306533Y-189732017D02*
X124306533Y-189898684D01*
X124306533Y-189898684D02*
X124339866Y-189965350D01*
X124339866Y-189965350D02*
X124373200Y-189998684D01*
X124373200Y-189998684D02*
X124439866Y-190032017D01*
X124439866Y-190032017D02*
X124506533Y-190032017D01*
X124506533Y-190032017D02*
X124606533Y-189998684D01*
X124606533Y-189998684D02*
X125006533Y-189598684D01*
X125006533Y-189598684D02*
X125006533Y-190032017D01*
X124373200Y-190298684D02*
X124339866Y-190332017D01*
X124339866Y-190332017D02*
X124306533Y-190398684D01*
X124306533Y-190398684D02*
X124306533Y-190565351D01*
X124306533Y-190565351D02*
X124339866Y-190632017D01*
X124339866Y-190632017D02*
X124373200Y-190665351D01*
X124373200Y-190665351D02*
X124439866Y-190698684D01*
X124439866Y-190698684D02*
X124506533Y-190698684D01*
X124506533Y-190698684D02*
X124606533Y-190665351D01*
X124606533Y-190665351D02*
X125006533Y-190265351D01*
X125006533Y-190265351D02*
X125006533Y-190698684D01*
X123956533Y-189365350D02*
X123623200Y-189132017D01*
X123956533Y-188965350D02*
X123256533Y-188965350D01*
X123256533Y-188965350D02*
X123256533Y-189232017D01*
X123256533Y-189232017D02*
X123289866Y-189298684D01*
X123289866Y-189298684D02*
X123323200Y-189332017D01*
X123323200Y-189332017D02*
X123389866Y-189365350D01*
X123389866Y-189365350D02*
X123489866Y-189365350D01*
X123489866Y-189365350D02*
X123556533Y-189332017D01*
X123556533Y-189332017D02*
X123589866Y-189298684D01*
X123589866Y-189298684D02*
X123623200Y-189232017D01*
X123623200Y-189232017D02*
X123623200Y-188965350D01*
X123323200Y-189632017D02*
X123289866Y-189665350D01*
X123289866Y-189665350D02*
X123256533Y-189732017D01*
X123256533Y-189732017D02*
X123256533Y-189898684D01*
X123256533Y-189898684D02*
X123289866Y-189965350D01*
X123289866Y-189965350D02*
X123323200Y-189998684D01*
X123323200Y-189998684D02*
X123389866Y-190032017D01*
X123389866Y-190032017D02*
X123456533Y-190032017D01*
X123456533Y-190032017D02*
X123556533Y-189998684D01*
X123556533Y-189998684D02*
X123956533Y-189598684D01*
X123956533Y-189598684D02*
X123956533Y-190032017D01*
X123956533Y-190698684D02*
X123956533Y-190298684D01*
X123956533Y-190498684D02*
X123256533Y-190498684D01*
X123256533Y-190498684D02*
X123356533Y-190432017D01*
X123356533Y-190432017D02*
X123423200Y-190365351D01*
X123423200Y-190365351D02*
X123456533Y-190298684D01*
X113012666Y-181556533D02*
X113245999Y-181223200D01*
X113412666Y-181556533D02*
X113412666Y-180856533D01*
X113412666Y-180856533D02*
X113145999Y-180856533D01*
X113145999Y-180856533D02*
X113079333Y-180889866D01*
X113079333Y-180889866D02*
X113045999Y-180923200D01*
X113045999Y-180923200D02*
X113012666Y-180989866D01*
X113012666Y-180989866D02*
X113012666Y-181089866D01*
X113012666Y-181089866D02*
X113045999Y-181156533D01*
X113045999Y-181156533D02*
X113079333Y-181189866D01*
X113079333Y-181189866D02*
X113145999Y-181223200D01*
X113145999Y-181223200D02*
X113412666Y-181223200D01*
X112345999Y-181556533D02*
X112745999Y-181556533D01*
X112545999Y-181556533D02*
X112545999Y-180856533D01*
X112545999Y-180856533D02*
X112612666Y-180956533D01*
X112612666Y-180956533D02*
X112679333Y-181023200D01*
X112679333Y-181023200D02*
X112745999Y-181056533D01*
X111912666Y-180856533D02*
X111845999Y-180856533D01*
X111845999Y-180856533D02*
X111779332Y-180889866D01*
X111779332Y-180889866D02*
X111745999Y-180923200D01*
X111745999Y-180923200D02*
X111712666Y-180989866D01*
X111712666Y-180989866D02*
X111679332Y-181123200D01*
X111679332Y-181123200D02*
X111679332Y-181289866D01*
X111679332Y-181289866D02*
X111712666Y-181423200D01*
X111712666Y-181423200D02*
X111745999Y-181489866D01*
X111745999Y-181489866D02*
X111779332Y-181523200D01*
X111779332Y-181523200D02*
X111845999Y-181556533D01*
X111845999Y-181556533D02*
X111912666Y-181556533D01*
X111912666Y-181556533D02*
X111979332Y-181523200D01*
X111979332Y-181523200D02*
X112012666Y-181489866D01*
X112012666Y-181489866D02*
X112045999Y-181423200D01*
X112045999Y-181423200D02*
X112079332Y-181289866D01*
X112079332Y-181289866D02*
X112079332Y-181123200D01*
X112079332Y-181123200D02*
X112045999Y-180989866D01*
X112045999Y-180989866D02*
X112012666Y-180923200D01*
X112012666Y-180923200D02*
X111979332Y-180889866D01*
X111979332Y-180889866D02*
X111912666Y-180856533D01*
X199834649Y-179656533D02*
X200067982Y-179323200D01*
X200234649Y-179656533D02*
X200234649Y-178956533D01*
X200234649Y-178956533D02*
X199967982Y-178956533D01*
X199967982Y-178956533D02*
X199901316Y-178989866D01*
X199901316Y-178989866D02*
X199867982Y-179023200D01*
X199867982Y-179023200D02*
X199834649Y-179089866D01*
X199834649Y-179089866D02*
X199834649Y-179189866D01*
X199834649Y-179189866D02*
X199867982Y-179256533D01*
X199867982Y-179256533D02*
X199901316Y-179289866D01*
X199901316Y-179289866D02*
X199967982Y-179323200D01*
X199967982Y-179323200D02*
X200234649Y-179323200D01*
X199167982Y-179656533D02*
X199567982Y-179656533D01*
X199367982Y-179656533D02*
X199367982Y-178956533D01*
X199367982Y-178956533D02*
X199434649Y-179056533D01*
X199434649Y-179056533D02*
X199501316Y-179123200D01*
X199501316Y-179123200D02*
X199567982Y-179156533D01*
X198534649Y-178956533D02*
X198867982Y-178956533D01*
X198867982Y-178956533D02*
X198901315Y-179289866D01*
X198901315Y-179289866D02*
X198867982Y-179256533D01*
X198867982Y-179256533D02*
X198801315Y-179223200D01*
X198801315Y-179223200D02*
X198634649Y-179223200D01*
X198634649Y-179223200D02*
X198567982Y-179256533D01*
X198567982Y-179256533D02*
X198534649Y-179289866D01*
X198534649Y-179289866D02*
X198501315Y-179356533D01*
X198501315Y-179356533D02*
X198501315Y-179523200D01*
X198501315Y-179523200D02*
X198534649Y-179589866D01*
X198534649Y-179589866D02*
X198567982Y-179623200D01*
X198567982Y-179623200D02*
X198634649Y-179656533D01*
X198634649Y-179656533D02*
X198801315Y-179656533D01*
X198801315Y-179656533D02*
X198867982Y-179623200D01*
X198867982Y-179623200D02*
X198901315Y-179589866D01*
X197901315Y-179189866D02*
X197901315Y-179656533D01*
X198067982Y-178923200D02*
X198234648Y-179423200D01*
X198234648Y-179423200D02*
X197801315Y-179423200D01*
X203156533Y-189415350D02*
X202823200Y-189182017D01*
X203156533Y-189015350D02*
X202456533Y-189015350D01*
X202456533Y-189015350D02*
X202456533Y-189282017D01*
X202456533Y-189282017D02*
X202489866Y-189348684D01*
X202489866Y-189348684D02*
X202523200Y-189382017D01*
X202523200Y-189382017D02*
X202589866Y-189415350D01*
X202589866Y-189415350D02*
X202689866Y-189415350D01*
X202689866Y-189415350D02*
X202756533Y-189382017D01*
X202756533Y-189382017D02*
X202789866Y-189348684D01*
X202789866Y-189348684D02*
X202823200Y-189282017D01*
X202823200Y-189282017D02*
X202823200Y-189015350D01*
X203156533Y-190082017D02*
X203156533Y-189682017D01*
X203156533Y-189882017D02*
X202456533Y-189882017D01*
X202456533Y-189882017D02*
X202556533Y-189815350D01*
X202556533Y-189815350D02*
X202623200Y-189748684D01*
X202623200Y-189748684D02*
X202656533Y-189682017D01*
X202456533Y-190682017D02*
X202456533Y-190548684D01*
X202456533Y-190548684D02*
X202489866Y-190482017D01*
X202489866Y-190482017D02*
X202523200Y-190448684D01*
X202523200Y-190448684D02*
X202623200Y-190382017D01*
X202623200Y-190382017D02*
X202756533Y-190348684D01*
X202756533Y-190348684D02*
X203023200Y-190348684D01*
X203023200Y-190348684D02*
X203089866Y-190382017D01*
X203089866Y-190382017D02*
X203123200Y-190415351D01*
X203123200Y-190415351D02*
X203156533Y-190482017D01*
X203156533Y-190482017D02*
X203156533Y-190615351D01*
X203156533Y-190615351D02*
X203123200Y-190682017D01*
X203123200Y-190682017D02*
X203089866Y-190715351D01*
X203089866Y-190715351D02*
X203023200Y-190748684D01*
X203023200Y-190748684D02*
X202856533Y-190748684D01*
X202856533Y-190748684D02*
X202789866Y-190715351D01*
X202789866Y-190715351D02*
X202756533Y-190682017D01*
X202756533Y-190682017D02*
X202723200Y-190615351D01*
X202723200Y-190615351D02*
X202723200Y-190482017D01*
X202723200Y-190482017D02*
X202756533Y-190415351D01*
X202756533Y-190415351D02*
X202789866Y-190382017D01*
X202789866Y-190382017D02*
X202856533Y-190348684D01*
X202456533Y-191382018D02*
X202456533Y-191048684D01*
X202456533Y-191048684D02*
X202789866Y-191015351D01*
X202789866Y-191015351D02*
X202756533Y-191048684D01*
X202756533Y-191048684D02*
X202723200Y-191115351D01*
X202723200Y-191115351D02*
X202723200Y-191282018D01*
X202723200Y-191282018D02*
X202756533Y-191348684D01*
X202756533Y-191348684D02*
X202789866Y-191382018D01*
X202789866Y-191382018D02*
X202856533Y-191415351D01*
X202856533Y-191415351D02*
X203023200Y-191415351D01*
X203023200Y-191415351D02*
X203089866Y-191382018D01*
X203089866Y-191382018D02*
X203123200Y-191348684D01*
X203123200Y-191348684D02*
X203156533Y-191282018D01*
X203156533Y-191282018D02*
X203156533Y-191115351D01*
X203156533Y-191115351D02*
X203123200Y-191048684D01*
X203123200Y-191048684D02*
X203089866Y-191015351D01*
X79713333Y-130281550D02*
X79380000Y-130048217D01*
X79713333Y-129881550D02*
X79013333Y-129881550D01*
X79013333Y-129881550D02*
X79013333Y-130148217D01*
X79013333Y-130148217D02*
X79046666Y-130214884D01*
X79046666Y-130214884D02*
X79080000Y-130248217D01*
X79080000Y-130248217D02*
X79146666Y-130281550D01*
X79146666Y-130281550D02*
X79246666Y-130281550D01*
X79246666Y-130281550D02*
X79313333Y-130248217D01*
X79313333Y-130248217D02*
X79346666Y-130214884D01*
X79346666Y-130214884D02*
X79380000Y-130148217D01*
X79380000Y-130148217D02*
X79380000Y-129881550D01*
X79013333Y-130514884D02*
X79013333Y-130948217D01*
X79013333Y-130948217D02*
X79280000Y-130714884D01*
X79280000Y-130714884D02*
X79280000Y-130814884D01*
X79280000Y-130814884D02*
X79313333Y-130881550D01*
X79313333Y-130881550D02*
X79346666Y-130914884D01*
X79346666Y-130914884D02*
X79413333Y-130948217D01*
X79413333Y-130948217D02*
X79580000Y-130948217D01*
X79580000Y-130948217D02*
X79646666Y-130914884D01*
X79646666Y-130914884D02*
X79680000Y-130881550D01*
X79680000Y-130881550D02*
X79713333Y-130814884D01*
X79713333Y-130814884D02*
X79713333Y-130614884D01*
X79713333Y-130614884D02*
X79680000Y-130548217D01*
X79680000Y-130548217D02*
X79646666Y-130514884D01*
X79313333Y-131348217D02*
X79280000Y-131281551D01*
X79280000Y-131281551D02*
X79246666Y-131248217D01*
X79246666Y-131248217D02*
X79180000Y-131214884D01*
X79180000Y-131214884D02*
X79146666Y-131214884D01*
X79146666Y-131214884D02*
X79080000Y-131248217D01*
X79080000Y-131248217D02*
X79046666Y-131281551D01*
X79046666Y-131281551D02*
X79013333Y-131348217D01*
X79013333Y-131348217D02*
X79013333Y-131481551D01*
X79013333Y-131481551D02*
X79046666Y-131548217D01*
X79046666Y-131548217D02*
X79080000Y-131581551D01*
X79080000Y-131581551D02*
X79146666Y-131614884D01*
X79146666Y-131614884D02*
X79180000Y-131614884D01*
X79180000Y-131614884D02*
X79246666Y-131581551D01*
X79246666Y-131581551D02*
X79280000Y-131548217D01*
X79280000Y-131548217D02*
X79313333Y-131481551D01*
X79313333Y-131481551D02*
X79313333Y-131348217D01*
X79313333Y-131348217D02*
X79346666Y-131281551D01*
X79346666Y-131281551D02*
X79380000Y-131248217D01*
X79380000Y-131248217D02*
X79446666Y-131214884D01*
X79446666Y-131214884D02*
X79580000Y-131214884D01*
X79580000Y-131214884D02*
X79646666Y-131248217D01*
X79646666Y-131248217D02*
X79680000Y-131281551D01*
X79680000Y-131281551D02*
X79713333Y-131348217D01*
X79713333Y-131348217D02*
X79713333Y-131481551D01*
X79713333Y-131481551D02*
X79680000Y-131548217D01*
X79680000Y-131548217D02*
X79646666Y-131581551D01*
X79646666Y-131581551D02*
X79580000Y-131614884D01*
X79580000Y-131614884D02*
X79446666Y-131614884D01*
X79446666Y-131614884D02*
X79380000Y-131581551D01*
X79380000Y-131581551D02*
X79346666Y-131548217D01*
X79346666Y-131548217D02*
X79313333Y-131481551D01*
X199834649Y-162156533D02*
X200067982Y-161823200D01*
X200234649Y-162156533D02*
X200234649Y-161456533D01*
X200234649Y-161456533D02*
X199967982Y-161456533D01*
X199967982Y-161456533D02*
X199901316Y-161489866D01*
X199901316Y-161489866D02*
X199867982Y-161523200D01*
X199867982Y-161523200D02*
X199834649Y-161589866D01*
X199834649Y-161589866D02*
X199834649Y-161689866D01*
X199834649Y-161689866D02*
X199867982Y-161756533D01*
X199867982Y-161756533D02*
X199901316Y-161789866D01*
X199901316Y-161789866D02*
X199967982Y-161823200D01*
X199967982Y-161823200D02*
X200234649Y-161823200D01*
X199167982Y-162156533D02*
X199567982Y-162156533D01*
X199367982Y-162156533D02*
X199367982Y-161456533D01*
X199367982Y-161456533D02*
X199434649Y-161556533D01*
X199434649Y-161556533D02*
X199501316Y-161623200D01*
X199501316Y-161623200D02*
X199567982Y-161656533D01*
X198534649Y-161456533D02*
X198867982Y-161456533D01*
X198867982Y-161456533D02*
X198901315Y-161789866D01*
X198901315Y-161789866D02*
X198867982Y-161756533D01*
X198867982Y-161756533D02*
X198801315Y-161723200D01*
X198801315Y-161723200D02*
X198634649Y-161723200D01*
X198634649Y-161723200D02*
X198567982Y-161756533D01*
X198567982Y-161756533D02*
X198534649Y-161789866D01*
X198534649Y-161789866D02*
X198501315Y-161856533D01*
X198501315Y-161856533D02*
X198501315Y-162023200D01*
X198501315Y-162023200D02*
X198534649Y-162089866D01*
X198534649Y-162089866D02*
X198567982Y-162123200D01*
X198567982Y-162123200D02*
X198634649Y-162156533D01*
X198634649Y-162156533D02*
X198801315Y-162156533D01*
X198801315Y-162156533D02*
X198867982Y-162123200D01*
X198867982Y-162123200D02*
X198901315Y-162089866D01*
X198101315Y-161756533D02*
X198167982Y-161723200D01*
X198167982Y-161723200D02*
X198201315Y-161689866D01*
X198201315Y-161689866D02*
X198234648Y-161623200D01*
X198234648Y-161623200D02*
X198234648Y-161589866D01*
X198234648Y-161589866D02*
X198201315Y-161523200D01*
X198201315Y-161523200D02*
X198167982Y-161489866D01*
X198167982Y-161489866D02*
X198101315Y-161456533D01*
X198101315Y-161456533D02*
X197967982Y-161456533D01*
X197967982Y-161456533D02*
X197901315Y-161489866D01*
X197901315Y-161489866D02*
X197867982Y-161523200D01*
X197867982Y-161523200D02*
X197834648Y-161589866D01*
X197834648Y-161589866D02*
X197834648Y-161623200D01*
X197834648Y-161623200D02*
X197867982Y-161689866D01*
X197867982Y-161689866D02*
X197901315Y-161723200D01*
X197901315Y-161723200D02*
X197967982Y-161756533D01*
X197967982Y-161756533D02*
X198101315Y-161756533D01*
X198101315Y-161756533D02*
X198167982Y-161789866D01*
X198167982Y-161789866D02*
X198201315Y-161823200D01*
X198201315Y-161823200D02*
X198234648Y-161889866D01*
X198234648Y-161889866D02*
X198234648Y-162023200D01*
X198234648Y-162023200D02*
X198201315Y-162089866D01*
X198201315Y-162089866D02*
X198167982Y-162123200D01*
X198167982Y-162123200D02*
X198101315Y-162156533D01*
X198101315Y-162156533D02*
X197967982Y-162156533D01*
X197967982Y-162156533D02*
X197901315Y-162123200D01*
X197901315Y-162123200D02*
X197867982Y-162089866D01*
X197867982Y-162089866D02*
X197834648Y-162023200D01*
X197834648Y-162023200D02*
X197834648Y-161889866D01*
X197834648Y-161889866D02*
X197867982Y-161823200D01*
X197867982Y-161823200D02*
X197901315Y-161789866D01*
X197901315Y-161789866D02*
X197967982Y-161756533D01*
X184084649Y-198806533D02*
X184317982Y-198473200D01*
X184484649Y-198806533D02*
X184484649Y-198106533D01*
X184484649Y-198106533D02*
X184217982Y-198106533D01*
X184217982Y-198106533D02*
X184151316Y-198139866D01*
X184151316Y-198139866D02*
X184117982Y-198173200D01*
X184117982Y-198173200D02*
X184084649Y-198239866D01*
X184084649Y-198239866D02*
X184084649Y-198339866D01*
X184084649Y-198339866D02*
X184117982Y-198406533D01*
X184117982Y-198406533D02*
X184151316Y-198439866D01*
X184151316Y-198439866D02*
X184217982Y-198473200D01*
X184217982Y-198473200D02*
X184484649Y-198473200D01*
X183417982Y-198806533D02*
X183817982Y-198806533D01*
X183617982Y-198806533D02*
X183617982Y-198106533D01*
X183617982Y-198106533D02*
X183684649Y-198206533D01*
X183684649Y-198206533D02*
X183751316Y-198273200D01*
X183751316Y-198273200D02*
X183817982Y-198306533D01*
X183184649Y-198106533D02*
X182717982Y-198106533D01*
X182717982Y-198106533D02*
X183017982Y-198806533D01*
X182117982Y-198106533D02*
X182451315Y-198106533D01*
X182451315Y-198106533D02*
X182484648Y-198439866D01*
X182484648Y-198439866D02*
X182451315Y-198406533D01*
X182451315Y-198406533D02*
X182384648Y-198373200D01*
X182384648Y-198373200D02*
X182217982Y-198373200D01*
X182217982Y-198373200D02*
X182151315Y-198406533D01*
X182151315Y-198406533D02*
X182117982Y-198439866D01*
X182117982Y-198439866D02*
X182084648Y-198506533D01*
X182084648Y-198506533D02*
X182084648Y-198673200D01*
X182084648Y-198673200D02*
X182117982Y-198739866D01*
X182117982Y-198739866D02*
X182151315Y-198773200D01*
X182151315Y-198773200D02*
X182217982Y-198806533D01*
X182217982Y-198806533D02*
X182384648Y-198806533D01*
X182384648Y-198806533D02*
X182451315Y-198773200D01*
X182451315Y-198773200D02*
X182484648Y-198739866D01*
X184084649Y-191406533D02*
X184317982Y-191073200D01*
X184484649Y-191406533D02*
X184484649Y-190706533D01*
X184484649Y-190706533D02*
X184217982Y-190706533D01*
X184217982Y-190706533D02*
X184151316Y-190739866D01*
X184151316Y-190739866D02*
X184117982Y-190773200D01*
X184117982Y-190773200D02*
X184084649Y-190839866D01*
X184084649Y-190839866D02*
X184084649Y-190939866D01*
X184084649Y-190939866D02*
X184117982Y-191006533D01*
X184117982Y-191006533D02*
X184151316Y-191039866D01*
X184151316Y-191039866D02*
X184217982Y-191073200D01*
X184217982Y-191073200D02*
X184484649Y-191073200D01*
X183417982Y-191406533D02*
X183817982Y-191406533D01*
X183617982Y-191406533D02*
X183617982Y-190706533D01*
X183617982Y-190706533D02*
X183684649Y-190806533D01*
X183684649Y-190806533D02*
X183751316Y-190873200D01*
X183751316Y-190873200D02*
X183817982Y-190906533D01*
X183184649Y-190706533D02*
X182717982Y-190706533D01*
X182717982Y-190706533D02*
X183017982Y-191406533D01*
X182517982Y-190706533D02*
X182051315Y-190706533D01*
X182051315Y-190706533D02*
X182351315Y-191406533D01*
X184084649Y-192406533D02*
X184317982Y-192073200D01*
X184484649Y-192406533D02*
X184484649Y-191706533D01*
X184484649Y-191706533D02*
X184217982Y-191706533D01*
X184217982Y-191706533D02*
X184151316Y-191739866D01*
X184151316Y-191739866D02*
X184117982Y-191773200D01*
X184117982Y-191773200D02*
X184084649Y-191839866D01*
X184084649Y-191839866D02*
X184084649Y-191939866D01*
X184084649Y-191939866D02*
X184117982Y-192006533D01*
X184117982Y-192006533D02*
X184151316Y-192039866D01*
X184151316Y-192039866D02*
X184217982Y-192073200D01*
X184217982Y-192073200D02*
X184484649Y-192073200D01*
X183417982Y-192406533D02*
X183817982Y-192406533D01*
X183617982Y-192406533D02*
X183617982Y-191706533D01*
X183617982Y-191706533D02*
X183684649Y-191806533D01*
X183684649Y-191806533D02*
X183751316Y-191873200D01*
X183751316Y-191873200D02*
X183817982Y-191906533D01*
X183184649Y-191706533D02*
X182717982Y-191706533D01*
X182717982Y-191706533D02*
X183017982Y-192406533D01*
X182417982Y-192406533D02*
X182284648Y-192406533D01*
X182284648Y-192406533D02*
X182217982Y-192373200D01*
X182217982Y-192373200D02*
X182184648Y-192339866D01*
X182184648Y-192339866D02*
X182117982Y-192239866D01*
X182117982Y-192239866D02*
X182084648Y-192106533D01*
X182084648Y-192106533D02*
X182084648Y-191839866D01*
X182084648Y-191839866D02*
X182117982Y-191773200D01*
X182117982Y-191773200D02*
X182151315Y-191739866D01*
X182151315Y-191739866D02*
X182217982Y-191706533D01*
X182217982Y-191706533D02*
X182351315Y-191706533D01*
X182351315Y-191706533D02*
X182417982Y-191739866D01*
X182417982Y-191739866D02*
X182451315Y-191773200D01*
X182451315Y-191773200D02*
X182484648Y-191839866D01*
X182484648Y-191839866D02*
X182484648Y-192006533D01*
X182484648Y-192006533D02*
X182451315Y-192073200D01*
X182451315Y-192073200D02*
X182417982Y-192106533D01*
X182417982Y-192106533D02*
X182351315Y-192139866D01*
X182351315Y-192139866D02*
X182217982Y-192139866D01*
X182217982Y-192139866D02*
X182151315Y-192106533D01*
X182151315Y-192106533D02*
X182117982Y-192073200D01*
X182117982Y-192073200D02*
X182084648Y-192006533D01*
X184084649Y-199806533D02*
X184317982Y-199473200D01*
X184484649Y-199806533D02*
X184484649Y-199106533D01*
X184484649Y-199106533D02*
X184217982Y-199106533D01*
X184217982Y-199106533D02*
X184151316Y-199139866D01*
X184151316Y-199139866D02*
X184117982Y-199173200D01*
X184117982Y-199173200D02*
X184084649Y-199239866D01*
X184084649Y-199239866D02*
X184084649Y-199339866D01*
X184084649Y-199339866D02*
X184117982Y-199406533D01*
X184117982Y-199406533D02*
X184151316Y-199439866D01*
X184151316Y-199439866D02*
X184217982Y-199473200D01*
X184217982Y-199473200D02*
X184484649Y-199473200D01*
X183417982Y-199806533D02*
X183817982Y-199806533D01*
X183617982Y-199806533D02*
X183617982Y-199106533D01*
X183617982Y-199106533D02*
X183684649Y-199206533D01*
X183684649Y-199206533D02*
X183751316Y-199273200D01*
X183751316Y-199273200D02*
X183817982Y-199306533D01*
X183184649Y-199106533D02*
X182717982Y-199106533D01*
X182717982Y-199106533D02*
X183017982Y-199806533D01*
X182151315Y-199106533D02*
X182284648Y-199106533D01*
X182284648Y-199106533D02*
X182351315Y-199139866D01*
X182351315Y-199139866D02*
X182384648Y-199173200D01*
X182384648Y-199173200D02*
X182451315Y-199273200D01*
X182451315Y-199273200D02*
X182484648Y-199406533D01*
X182484648Y-199406533D02*
X182484648Y-199673200D01*
X182484648Y-199673200D02*
X182451315Y-199739866D01*
X182451315Y-199739866D02*
X182417982Y-199773200D01*
X182417982Y-199773200D02*
X182351315Y-199806533D01*
X182351315Y-199806533D02*
X182217982Y-199806533D01*
X182217982Y-199806533D02*
X182151315Y-199773200D01*
X182151315Y-199773200D02*
X182117982Y-199739866D01*
X182117982Y-199739866D02*
X182084648Y-199673200D01*
X182084648Y-199673200D02*
X182084648Y-199506533D01*
X182084648Y-199506533D02*
X182117982Y-199439866D01*
X182117982Y-199439866D02*
X182151315Y-199406533D01*
X182151315Y-199406533D02*
X182217982Y-199373200D01*
X182217982Y-199373200D02*
X182351315Y-199373200D01*
X182351315Y-199373200D02*
X182417982Y-199406533D01*
X182417982Y-199406533D02*
X182451315Y-199439866D01*
X182451315Y-199439866D02*
X182484648Y-199506533D01*
X184084649Y-193406533D02*
X184317982Y-193073200D01*
X184484649Y-193406533D02*
X184484649Y-192706533D01*
X184484649Y-192706533D02*
X184217982Y-192706533D01*
X184217982Y-192706533D02*
X184151316Y-192739866D01*
X184151316Y-192739866D02*
X184117982Y-192773200D01*
X184117982Y-192773200D02*
X184084649Y-192839866D01*
X184084649Y-192839866D02*
X184084649Y-192939866D01*
X184084649Y-192939866D02*
X184117982Y-193006533D01*
X184117982Y-193006533D02*
X184151316Y-193039866D01*
X184151316Y-193039866D02*
X184217982Y-193073200D01*
X184217982Y-193073200D02*
X184484649Y-193073200D01*
X183417982Y-193406533D02*
X183817982Y-193406533D01*
X183617982Y-193406533D02*
X183617982Y-192706533D01*
X183617982Y-192706533D02*
X183684649Y-192806533D01*
X183684649Y-192806533D02*
X183751316Y-192873200D01*
X183751316Y-192873200D02*
X183817982Y-192906533D01*
X183184649Y-192706533D02*
X182717982Y-192706533D01*
X182717982Y-192706533D02*
X183017982Y-193406533D01*
X182351315Y-193006533D02*
X182417982Y-192973200D01*
X182417982Y-192973200D02*
X182451315Y-192939866D01*
X182451315Y-192939866D02*
X182484648Y-192873200D01*
X182484648Y-192873200D02*
X182484648Y-192839866D01*
X182484648Y-192839866D02*
X182451315Y-192773200D01*
X182451315Y-192773200D02*
X182417982Y-192739866D01*
X182417982Y-192739866D02*
X182351315Y-192706533D01*
X182351315Y-192706533D02*
X182217982Y-192706533D01*
X182217982Y-192706533D02*
X182151315Y-192739866D01*
X182151315Y-192739866D02*
X182117982Y-192773200D01*
X182117982Y-192773200D02*
X182084648Y-192839866D01*
X182084648Y-192839866D02*
X182084648Y-192873200D01*
X182084648Y-192873200D02*
X182117982Y-192939866D01*
X182117982Y-192939866D02*
X182151315Y-192973200D01*
X182151315Y-192973200D02*
X182217982Y-193006533D01*
X182217982Y-193006533D02*
X182351315Y-193006533D01*
X182351315Y-193006533D02*
X182417982Y-193039866D01*
X182417982Y-193039866D02*
X182451315Y-193073200D01*
X182451315Y-193073200D02*
X182484648Y-193139866D01*
X182484648Y-193139866D02*
X182484648Y-193273200D01*
X182484648Y-193273200D02*
X182451315Y-193339866D01*
X182451315Y-193339866D02*
X182417982Y-193373200D01*
X182417982Y-193373200D02*
X182351315Y-193406533D01*
X182351315Y-193406533D02*
X182217982Y-193406533D01*
X182217982Y-193406533D02*
X182151315Y-193373200D01*
X182151315Y-193373200D02*
X182117982Y-193339866D01*
X182117982Y-193339866D02*
X182084648Y-193273200D01*
X182084648Y-193273200D02*
X182084648Y-193139866D01*
X182084648Y-193139866D02*
X182117982Y-193073200D01*
X182117982Y-193073200D02*
X182151315Y-193039866D01*
X182151315Y-193039866D02*
X182217982Y-193006533D01*
X199834649Y-189406533D02*
X200067982Y-189073200D01*
X200234649Y-189406533D02*
X200234649Y-188706533D01*
X200234649Y-188706533D02*
X199967982Y-188706533D01*
X199967982Y-188706533D02*
X199901316Y-188739866D01*
X199901316Y-188739866D02*
X199867982Y-188773200D01*
X199867982Y-188773200D02*
X199834649Y-188839866D01*
X199834649Y-188839866D02*
X199834649Y-188939866D01*
X199834649Y-188939866D02*
X199867982Y-189006533D01*
X199867982Y-189006533D02*
X199901316Y-189039866D01*
X199901316Y-189039866D02*
X199967982Y-189073200D01*
X199967982Y-189073200D02*
X200234649Y-189073200D01*
X199167982Y-189406533D02*
X199567982Y-189406533D01*
X199367982Y-189406533D02*
X199367982Y-188706533D01*
X199367982Y-188706533D02*
X199434649Y-188806533D01*
X199434649Y-188806533D02*
X199501316Y-188873200D01*
X199501316Y-188873200D02*
X199567982Y-188906533D01*
X198534649Y-188706533D02*
X198867982Y-188706533D01*
X198867982Y-188706533D02*
X198901315Y-189039866D01*
X198901315Y-189039866D02*
X198867982Y-189006533D01*
X198867982Y-189006533D02*
X198801315Y-188973200D01*
X198801315Y-188973200D02*
X198634649Y-188973200D01*
X198634649Y-188973200D02*
X198567982Y-189006533D01*
X198567982Y-189006533D02*
X198534649Y-189039866D01*
X198534649Y-189039866D02*
X198501315Y-189106533D01*
X198501315Y-189106533D02*
X198501315Y-189273200D01*
X198501315Y-189273200D02*
X198534649Y-189339866D01*
X198534649Y-189339866D02*
X198567982Y-189373200D01*
X198567982Y-189373200D02*
X198634649Y-189406533D01*
X198634649Y-189406533D02*
X198801315Y-189406533D01*
X198801315Y-189406533D02*
X198867982Y-189373200D01*
X198867982Y-189373200D02*
X198901315Y-189339866D01*
X198234648Y-188773200D02*
X198201315Y-188739866D01*
X198201315Y-188739866D02*
X198134648Y-188706533D01*
X198134648Y-188706533D02*
X197967982Y-188706533D01*
X197967982Y-188706533D02*
X197901315Y-188739866D01*
X197901315Y-188739866D02*
X197867982Y-188773200D01*
X197867982Y-188773200D02*
X197834648Y-188839866D01*
X197834648Y-188839866D02*
X197834648Y-188906533D01*
X197834648Y-188906533D02*
X197867982Y-189006533D01*
X197867982Y-189006533D02*
X198267982Y-189406533D01*
X198267982Y-189406533D02*
X197834648Y-189406533D01*
X184084649Y-200806533D02*
X184317982Y-200473200D01*
X184484649Y-200806533D02*
X184484649Y-200106533D01*
X184484649Y-200106533D02*
X184217982Y-200106533D01*
X184217982Y-200106533D02*
X184151316Y-200139866D01*
X184151316Y-200139866D02*
X184117982Y-200173200D01*
X184117982Y-200173200D02*
X184084649Y-200239866D01*
X184084649Y-200239866D02*
X184084649Y-200339866D01*
X184084649Y-200339866D02*
X184117982Y-200406533D01*
X184117982Y-200406533D02*
X184151316Y-200439866D01*
X184151316Y-200439866D02*
X184217982Y-200473200D01*
X184217982Y-200473200D02*
X184484649Y-200473200D01*
X183417982Y-200806533D02*
X183817982Y-200806533D01*
X183617982Y-200806533D02*
X183617982Y-200106533D01*
X183617982Y-200106533D02*
X183684649Y-200206533D01*
X183684649Y-200206533D02*
X183751316Y-200273200D01*
X183751316Y-200273200D02*
X183817982Y-200306533D01*
X183184649Y-200106533D02*
X182717982Y-200106533D01*
X182717982Y-200106533D02*
X183017982Y-200806533D01*
X182151315Y-200339866D02*
X182151315Y-200806533D01*
X182317982Y-200073200D02*
X182484648Y-200573200D01*
X182484648Y-200573200D02*
X182051315Y-200573200D01*
X203156533Y-179165350D02*
X202823200Y-178932017D01*
X203156533Y-178765350D02*
X202456533Y-178765350D01*
X202456533Y-178765350D02*
X202456533Y-179032017D01*
X202456533Y-179032017D02*
X202489866Y-179098684D01*
X202489866Y-179098684D02*
X202523200Y-179132017D01*
X202523200Y-179132017D02*
X202589866Y-179165350D01*
X202589866Y-179165350D02*
X202689866Y-179165350D01*
X202689866Y-179165350D02*
X202756533Y-179132017D01*
X202756533Y-179132017D02*
X202789866Y-179098684D01*
X202789866Y-179098684D02*
X202823200Y-179032017D01*
X202823200Y-179032017D02*
X202823200Y-178765350D01*
X203156533Y-179832017D02*
X203156533Y-179432017D01*
X203156533Y-179632017D02*
X202456533Y-179632017D01*
X202456533Y-179632017D02*
X202556533Y-179565350D01*
X202556533Y-179565350D02*
X202623200Y-179498684D01*
X202623200Y-179498684D02*
X202656533Y-179432017D01*
X202456533Y-180432017D02*
X202456533Y-180298684D01*
X202456533Y-180298684D02*
X202489866Y-180232017D01*
X202489866Y-180232017D02*
X202523200Y-180198684D01*
X202523200Y-180198684D02*
X202623200Y-180132017D01*
X202623200Y-180132017D02*
X202756533Y-180098684D01*
X202756533Y-180098684D02*
X203023200Y-180098684D01*
X203023200Y-180098684D02*
X203089866Y-180132017D01*
X203089866Y-180132017D02*
X203123200Y-180165351D01*
X203123200Y-180165351D02*
X203156533Y-180232017D01*
X203156533Y-180232017D02*
X203156533Y-180365351D01*
X203156533Y-180365351D02*
X203123200Y-180432017D01*
X203123200Y-180432017D02*
X203089866Y-180465351D01*
X203089866Y-180465351D02*
X203023200Y-180498684D01*
X203023200Y-180498684D02*
X202856533Y-180498684D01*
X202856533Y-180498684D02*
X202789866Y-180465351D01*
X202789866Y-180465351D02*
X202756533Y-180432017D01*
X202756533Y-180432017D02*
X202723200Y-180365351D01*
X202723200Y-180365351D02*
X202723200Y-180232017D01*
X202723200Y-180232017D02*
X202756533Y-180165351D01*
X202756533Y-180165351D02*
X202789866Y-180132017D01*
X202789866Y-180132017D02*
X202856533Y-180098684D01*
X202456533Y-180732018D02*
X202456533Y-181165351D01*
X202456533Y-181165351D02*
X202723200Y-180932018D01*
X202723200Y-180932018D02*
X202723200Y-181032018D01*
X202723200Y-181032018D02*
X202756533Y-181098684D01*
X202756533Y-181098684D02*
X202789866Y-181132018D01*
X202789866Y-181132018D02*
X202856533Y-181165351D01*
X202856533Y-181165351D02*
X203023200Y-181165351D01*
X203023200Y-181165351D02*
X203089866Y-181132018D01*
X203089866Y-181132018D02*
X203123200Y-181098684D01*
X203123200Y-181098684D02*
X203156533Y-181032018D01*
X203156533Y-181032018D02*
X203156533Y-180832018D01*
X203156533Y-180832018D02*
X203123200Y-180765351D01*
X203123200Y-180765351D02*
X203089866Y-180732018D01*
D10*
X98380000Y-180796359D02*
X98380000Y-181103641D01*
X97620000Y-180796359D02*
X97620000Y-181103641D01*
X99430000Y-180796359D02*
X99430000Y-181103641D01*
X98670000Y-180796359D02*
X98670000Y-181103641D01*
X100480000Y-180796359D02*
X100480000Y-181103641D01*
X99720000Y-180796359D02*
X99720000Y-181103641D01*
X102580000Y-180796359D02*
X102580000Y-181103641D01*
X101820000Y-180796359D02*
X101820000Y-181103641D01*
X101530000Y-180796359D02*
X101530000Y-181103641D01*
X100770000Y-180796359D02*
X100770000Y-181103641D01*
X107478200Y-192439441D02*
X107478200Y-192132159D01*
X108238200Y-192439441D02*
X108238200Y-192132159D01*
X108478200Y-192439441D02*
X108478200Y-192132159D01*
X109238200Y-192439441D02*
X109238200Y-192132159D01*
X103978200Y-192439441D02*
X103978200Y-192132159D01*
X104738200Y-192439441D02*
X104738200Y-192132159D01*
X102962200Y-192443942D02*
X102962200Y-192136660D01*
X103722200Y-192443942D02*
X103722200Y-192136660D01*
X105003200Y-192429441D02*
X105003200Y-192122159D01*
X105763200Y-192429441D02*
X105763200Y-192122159D01*
X109478200Y-192439441D02*
X109478200Y-192132159D01*
X110238200Y-192439441D02*
X110238200Y-192132159D01*
X110478200Y-192439441D02*
X110478200Y-192132159D01*
X111238200Y-192439441D02*
X111238200Y-192132159D01*
X99120501Y-161729641D02*
X99120501Y-161422359D01*
X99880501Y-161729641D02*
X99880501Y-161422359D01*
X98070501Y-161729641D02*
X98070501Y-161422359D01*
X98830501Y-161729641D02*
X98830501Y-161422359D01*
X101245501Y-161754641D02*
X101245501Y-161447359D01*
X102005501Y-161754641D02*
X102005501Y-161447359D01*
X100145501Y-161729641D02*
X100145501Y-161422359D01*
X100905501Y-161729641D02*
X100905501Y-161422359D01*
X94928672Y-155103641D02*
X94928672Y-154796359D01*
X95688672Y-155103641D02*
X95688672Y-154796359D01*
X97946359Y-153420000D02*
X98253641Y-153420000D01*
X97946359Y-154180000D02*
X98253641Y-154180000D01*
X85354142Y-153193149D02*
X85046860Y-153193149D01*
X85354142Y-152433149D02*
X85046860Y-152433149D01*
X85354142Y-154693149D02*
X85046860Y-154693149D01*
X85354142Y-153933149D02*
X85046860Y-153933149D01*
X95240000Y-150407836D02*
X95240000Y-150192164D01*
X95960000Y-150407836D02*
X95960000Y-150192164D01*
X92948672Y-158112828D02*
X92948672Y-157897156D01*
X93668672Y-158112828D02*
X93668672Y-157897156D01*
X94948672Y-158112828D02*
X94948672Y-157897156D01*
X95668672Y-158112828D02*
X95668672Y-157897156D01*
X92676829Y-150390993D02*
X92676829Y-150175321D01*
X93396829Y-150390993D02*
X93396829Y-150175321D01*
X90790000Y-158112828D02*
X90790000Y-157897156D01*
X91510000Y-158112828D02*
X91510000Y-157897156D01*
X93701829Y-150390993D02*
X93701829Y-150175321D01*
X94421829Y-150390993D02*
X94421829Y-150175321D01*
X93948672Y-158112828D02*
X93948672Y-157897156D01*
X94668672Y-158112828D02*
X94668672Y-157897156D01*
X97778993Y-150448157D02*
X97994665Y-150448157D01*
X97778993Y-151168157D02*
X97994665Y-151168157D01*
X91140000Y-150390993D02*
X91140000Y-150175321D01*
X91860000Y-150390993D02*
X91860000Y-150175321D01*
X97992164Y-154840000D02*
X98207836Y-154840000D01*
X97992164Y-155560000D02*
X98207836Y-155560000D01*
X89726829Y-149740993D02*
X89726829Y-149525321D01*
X90446829Y-149740993D02*
X90446829Y-149525321D01*
X91948672Y-158112828D02*
X91948672Y-157897156D01*
X92668672Y-158112828D02*
X92668672Y-157897156D01*
X88726829Y-149740993D02*
X88726829Y-149525321D01*
X89446829Y-149740993D02*
X89446829Y-149525321D01*
X89748672Y-158112828D02*
X89748672Y-157897156D01*
X90468672Y-158112828D02*
X90468672Y-157897156D01*
D11*
X98396501Y-149964851D02*
X98007501Y-149964851D01*
X98396501Y-149150851D02*
X98007501Y-149150851D01*
X92890829Y-152152157D02*
X93279829Y-152152157D01*
X92890829Y-152966157D02*
X93279829Y-152966157D01*
D10*
X69292200Y-171317641D02*
X69292200Y-171010359D01*
X70052200Y-171317641D02*
X70052200Y-171010359D01*
X70072701Y-164596359D02*
X70072701Y-164903641D01*
X69312701Y-164596359D02*
X69312701Y-164903641D01*
X99905501Y-163797359D02*
X99905501Y-164104641D01*
X99145501Y-163797359D02*
X99145501Y-164104641D01*
X98253641Y-158480000D02*
X97946359Y-158480000D01*
X98253641Y-157720000D02*
X97946359Y-157720000D01*
X97805501Y-163797359D02*
X97805501Y-164104641D01*
X97045501Y-163797359D02*
X97045501Y-164104641D01*
X102005501Y-163797359D02*
X102005501Y-164104641D01*
X101245501Y-163797359D02*
X101245501Y-164104641D01*
X100930501Y-163797359D02*
X100930501Y-164104641D01*
X100170501Y-163797359D02*
X100170501Y-164104641D01*
X93878672Y-155103641D02*
X93878672Y-154796359D01*
X94638672Y-155103641D02*
X94638672Y-154796359D01*
X85300501Y-151506790D02*
X85300501Y-151199508D01*
X86060501Y-151506790D02*
X86060501Y-151199508D01*
X86060501Y-155609508D02*
X86060501Y-155916790D01*
X85300501Y-155609508D02*
X85300501Y-155916790D01*
X95995501Y-161729641D02*
X95995501Y-161422359D01*
X96755501Y-161729641D02*
X96755501Y-161422359D01*
X96755501Y-163797359D02*
X96755501Y-164104641D01*
X95995501Y-163797359D02*
X95995501Y-164104641D01*
X98855501Y-163797359D02*
X98855501Y-164104641D01*
X98095501Y-163797359D02*
X98095501Y-164104641D01*
X97045501Y-161729641D02*
X97045501Y-161422359D01*
X97805501Y-161729641D02*
X97805501Y-161422359D01*
X117542665Y-172506000D02*
X117758337Y-172506000D01*
X117542665Y-173226000D02*
X117758337Y-173226000D01*
X147983337Y-162661000D02*
X147767665Y-162661000D01*
X147983337Y-161941000D02*
X147767665Y-161941000D01*
X180953641Y-197780000D02*
X180646359Y-197780000D01*
X180953641Y-197020000D02*
X180646359Y-197020000D01*
X144983337Y-173661000D02*
X144767665Y-173661000D01*
X144983337Y-172941000D02*
X144767665Y-172941000D01*
X149982837Y-180660501D02*
X149767165Y-180660501D01*
X149982837Y-179940501D02*
X149767165Y-179940501D01*
X74735100Y-142614536D02*
X74735100Y-142398864D01*
X75455100Y-142614536D02*
X75455100Y-142398864D01*
X180953641Y-194430000D02*
X180646359Y-194430000D01*
X180953641Y-193670000D02*
X180646359Y-193670000D01*
X144328700Y-200638942D02*
X144328700Y-200331660D01*
X145088700Y-200638942D02*
X145088700Y-200331660D01*
X141982837Y-171662500D02*
X141767165Y-171662500D01*
X141982837Y-170942500D02*
X141767165Y-170942500D01*
G36*
X84600000Y-150473299D02*
G01*
X84658579Y-150486157D01*
X84717634Y-150501397D01*
X84780975Y-150519019D01*
X84717634Y-150536640D01*
X84658579Y-150551880D01*
X84600000Y-150565215D01*
X84539040Y-150577121D01*
X84539040Y-150461869D01*
X84600000Y-150473299D01*
G37*
G36*
X84749662Y-151862401D02*
G01*
X84778594Y-151883475D01*
X84794667Y-151916217D01*
X84800025Y-151958246D01*
X84799549Y-151987298D01*
X84797168Y-152016349D01*
X84606667Y-152016349D01*
X84606667Y-151968724D01*
X84612263Y-151919432D01*
X84629051Y-151883951D01*
X84659412Y-151862520D01*
X84705727Y-151855376D01*
X84749662Y-151862401D01*
G37*
G36*
X84675247Y-149954186D02*
G01*
X84739065Y-149974189D01*
X84783356Y-150013241D01*
X84800025Y-150077059D01*
X84799549Y-150094204D01*
X84797168Y-150111349D01*
X84400927Y-150111349D01*
X84399975Y-150100871D01*
X84399975Y-150090394D01*
X84415215Y-150023242D01*
X84457125Y-149979427D01*
X84520466Y-149955615D01*
X84558923Y-149950257D01*
X84600953Y-149948471D01*
X84675247Y-149954186D01*
G37*
G36*
X85179755Y-149366494D02*
G01*
X85179755Y-152133506D01*
X85179755Y-152331944D01*
X84020245Y-152331944D01*
X84020245Y-152133506D01*
X84020245Y-152016349D01*
X84305677Y-152016349D01*
X84305677Y-152133506D01*
X84887655Y-152133506D01*
X84894323Y-152094930D01*
X84898609Y-152051591D01*
X84900990Y-152008729D01*
X84901943Y-151971581D01*
X84896810Y-151902260D01*
X84881411Y-151844158D01*
X84855746Y-151797274D01*
X84818440Y-151762878D01*
X84768116Y-151742240D01*
X84704775Y-151735361D01*
X84640799Y-151742293D01*
X84589840Y-151763090D01*
X84551899Y-151797750D01*
X84525705Y-151845110D01*
X84509989Y-151904007D01*
X84504750Y-151974439D01*
X84504750Y-152016349D01*
X84305677Y-152016349D01*
X84020245Y-152016349D01*
X84020245Y-151275304D01*
X84305677Y-151275304D01*
X84305677Y-151392461D01*
X84565710Y-151392461D01*
X84565710Y-151548671D01*
X84305677Y-151548671D01*
X84305677Y-151665829D01*
X84895275Y-151665829D01*
X84895275Y-151548671D01*
X84662865Y-151548671D01*
X84662865Y-151392461D01*
X84895275Y-151392461D01*
X84895275Y-151275304D01*
X84305677Y-151275304D01*
X84020245Y-151275304D01*
X84020245Y-150934309D01*
X84305677Y-150934309D01*
X84305677Y-151052419D01*
X84529515Y-151052419D01*
X84590634Y-151085915D01*
X84650800Y-151116554D01*
X84710014Y-151144335D01*
X84769757Y-151170317D01*
X84831510Y-151195558D01*
X84895275Y-151220059D01*
X84895275Y-151094329D01*
X84826100Y-151071231D01*
X84755734Y-151045751D01*
X84687749Y-151018605D01*
X84625717Y-150990506D01*
X84680962Y-150966218D01*
X84751448Y-150938595D01*
X84788833Y-150925022D01*
X84826695Y-150911925D01*
X84895275Y-150888589D01*
X84895275Y-150767621D01*
X84847412Y-150785719D01*
X84800978Y-150803816D01*
X84755496Y-150822390D01*
X84710490Y-150841916D01*
X84665842Y-150862633D01*
X84621431Y-150884779D01*
X84576545Y-150908591D01*
X84530468Y-150934309D01*
X84305677Y-150934309D01*
X84020245Y-150934309D01*
X84020245Y-150414244D01*
X84305677Y-150414244D01*
X84441885Y-150441866D01*
X84441885Y-150599029D01*
X84305677Y-150625699D01*
X84305677Y-150747619D01*
X84374162Y-150730817D01*
X84440170Y-150713938D01*
X84503702Y-150696984D01*
X84564758Y-150679953D01*
X84623336Y-150662846D01*
X84694089Y-150641594D01*
X84762997Y-150620698D01*
X84830059Y-150600160D01*
X84895275Y-150579979D01*
X84895275Y-150452344D01*
X84829523Y-150431419D01*
X84761806Y-150410553D01*
X84692125Y-150389747D01*
X84620479Y-150369000D01*
X84561405Y-150352522D01*
X84500388Y-150336234D01*
X84437427Y-150320137D01*
X84372524Y-150304230D01*
X84305677Y-150288514D01*
X84305677Y-150414244D01*
X84020245Y-150414244D01*
X84020245Y-150102776D01*
X84298057Y-150102776D01*
X84301391Y-150164213D01*
X84312345Y-150228506D01*
X84887655Y-150228506D01*
X84899085Y-150153259D01*
X84901943Y-150087536D01*
X84897656Y-150031934D01*
X84884798Y-149981332D01*
X84862771Y-149936922D01*
X84830981Y-149899894D01*
X84789309Y-149870247D01*
X84737636Y-149847982D01*
X84675128Y-149834052D01*
X84600953Y-149829409D01*
X84525110Y-149834528D01*
X84461411Y-149849887D01*
X84409143Y-149874295D01*
X84367590Y-149906561D01*
X84336277Y-149946209D01*
X84314726Y-149992763D01*
X84302225Y-150045269D01*
X84298057Y-150102776D01*
X84020245Y-150102776D01*
X84020245Y-149366494D01*
X84305677Y-149366494D01*
X84305677Y-149724634D01*
X84402832Y-149724634D01*
X84402832Y-149600809D01*
X84732398Y-149600809D01*
X84698584Y-149661769D01*
X84675247Y-149719871D01*
X84772403Y-149757971D01*
X84794310Y-149708441D01*
X84823838Y-149655101D01*
X84858128Y-149604619D01*
X84895275Y-149563661D01*
X84895275Y-149483651D01*
X84402832Y-149483651D01*
X84402832Y-149366494D01*
X84305677Y-149366494D01*
X84020245Y-149366494D01*
X84020245Y-149168056D01*
X85179755Y-149168056D01*
X85179755Y-149366494D01*
G37*
X159546859Y-180296001D02*
X159854141Y-180296001D01*
X159546859Y-181056001D02*
X159854141Y-181056001D01*
G36*
X140276049Y-157091686D02*
G01*
X140334627Y-157104545D01*
X140393682Y-157119785D01*
X140457024Y-157137406D01*
X140393682Y-157155027D01*
X140334627Y-157170268D01*
X140276049Y-157183602D01*
X140215089Y-157195509D01*
X140215089Y-157080256D01*
X140276049Y-157091686D01*
G37*
G36*
X140351296Y-157525074D02*
G01*
X140415114Y-157545076D01*
X140459405Y-157584129D01*
X140476074Y-157647946D01*
X140475597Y-157665091D01*
X140473216Y-157682236D01*
X140076976Y-157682236D01*
X140076024Y-157671759D01*
X140076024Y-157661281D01*
X140091264Y-157594130D01*
X140133174Y-157550315D01*
X140196515Y-157526503D01*
X140234972Y-157521145D01*
X140277001Y-157519359D01*
X140351296Y-157525074D01*
G37*
G36*
X140783096Y-156324309D02*
G01*
X140783096Y-157926691D01*
X140783096Y-158125129D01*
X139770906Y-158125129D01*
X139770906Y-157926691D01*
X139770906Y-157673664D01*
X139974106Y-157673664D01*
X139977440Y-157735100D01*
X139988394Y-157799394D01*
X140563704Y-157799394D01*
X140575134Y-157724146D01*
X140577991Y-157658424D01*
X140573705Y-157602822D01*
X140560846Y-157552220D01*
X140538819Y-157507810D01*
X140507030Y-157470781D01*
X140465358Y-157441135D01*
X140413685Y-157418870D01*
X140351177Y-157404940D01*
X140277001Y-157400296D01*
X140201158Y-157405416D01*
X140137460Y-157420775D01*
X140085191Y-157445183D01*
X140043639Y-157477449D01*
X140012325Y-157517097D01*
X139990775Y-157563650D01*
X139978273Y-157616157D01*
X139974106Y-157673664D01*
X139770906Y-157673664D01*
X139770906Y-157032631D01*
X139981726Y-157032631D01*
X140117934Y-157060254D01*
X140117934Y-157217416D01*
X139981726Y-157244086D01*
X139981726Y-157366006D01*
X140050211Y-157349204D01*
X140116219Y-157332326D01*
X140179751Y-157315371D01*
X140240806Y-157298341D01*
X140299385Y-157281234D01*
X140370138Y-157259981D01*
X140439045Y-157239086D01*
X140506107Y-157218547D01*
X140571324Y-157198366D01*
X140571324Y-157070731D01*
X140505571Y-157049806D01*
X140437854Y-157028940D01*
X140368173Y-157008134D01*
X140296527Y-156987387D01*
X140237453Y-156970909D01*
X140176436Y-156954621D01*
X140113476Y-156938524D01*
X140048572Y-156922618D01*
X139981726Y-156906901D01*
X139981726Y-157032631D01*
X139770906Y-157032631D01*
X139770906Y-156616389D01*
X139969343Y-156616389D01*
X139978234Y-156693012D01*
X140004904Y-156756512D01*
X140049354Y-156806889D01*
X140093585Y-156835642D01*
X140146270Y-156856181D01*
X140207409Y-156868504D01*
X140277001Y-156872611D01*
X140346295Y-156867611D01*
X140407494Y-156852609D01*
X140460238Y-156828677D01*
X140504172Y-156796887D01*
X140538939Y-156757835D01*
X140564180Y-156712115D01*
X140579539Y-156660799D01*
X140584659Y-156604959D01*
X140579420Y-156548285D01*
X140567514Y-156503994D01*
X140553226Y-156472085D01*
X140541796Y-156452559D01*
X140448451Y-156483039D01*
X140472740Y-156535903D01*
X140482741Y-156606864D01*
X140472740Y-156660680D01*
X140439402Y-156707352D01*
X140377014Y-156740690D01*
X140333199Y-156750334D01*
X140279859Y-156753549D01*
X140217787Y-156749686D01*
X140166194Y-156738097D01*
X140125077Y-156718782D01*
X140084715Y-156672943D01*
X140071261Y-156604959D01*
X140081739Y-156529235D01*
X140102694Y-156481134D01*
X140010301Y-156451606D01*
X139982202Y-156518757D01*
X139972558Y-156564358D01*
X139969343Y-156616389D01*
X139770906Y-156616389D01*
X139770906Y-156324309D01*
X139770906Y-156125871D01*
X140783096Y-156125871D01*
X140783096Y-156324309D01*
G37*
X143735501Y-172693164D02*
X143735501Y-172908836D01*
X143015501Y-172693164D02*
X143015501Y-172908836D01*
X76709000Y-130862041D02*
X76709000Y-130554759D01*
X77469000Y-130862041D02*
X77469000Y-130554759D01*
X143015001Y-177908336D02*
X143015001Y-177692664D01*
X143735001Y-177908336D02*
X143735001Y-177692664D01*
X149828364Y-130640000D02*
X150044036Y-130640000D01*
X149828364Y-131360000D02*
X150044036Y-131360000D01*
X146735001Y-183692664D02*
X146735001Y-183908336D01*
X146015001Y-183692664D02*
X146015001Y-183908336D01*
X196546359Y-171345000D02*
X196853641Y-171345000D01*
X196546359Y-172105000D02*
X196853641Y-172105000D01*
X137623360Y-159195500D02*
X137930642Y-159195500D01*
X137623360Y-159955500D02*
X137930642Y-159955500D01*
G36*
X101772590Y-182333319D02*
G01*
X101787830Y-182392374D01*
X101801165Y-182450952D01*
X101813071Y-182511912D01*
X101697819Y-182511912D01*
X101709249Y-182450952D01*
X101722108Y-182392374D01*
X101737348Y-182333319D01*
X101754969Y-182269977D01*
X101772590Y-182333319D01*
G37*
G36*
X98915090Y-182333319D02*
G01*
X98930330Y-182392374D01*
X98943665Y-182450952D01*
X98955571Y-182511912D01*
X98840319Y-182511912D01*
X98851749Y-182450952D01*
X98864607Y-182392374D01*
X98879847Y-182333319D01*
X98897469Y-182269977D01*
X98915090Y-182333319D01*
G37*
G36*
X102798998Y-182956095D02*
G01*
X102600561Y-182956095D01*
X101650194Y-182956095D01*
X101279671Y-182956095D01*
X100700551Y-182956095D01*
X99879496Y-182956095D01*
X99313711Y-182956095D01*
X98792694Y-182956095D01*
X98391691Y-182956095D01*
X97599439Y-182956095D01*
X97401002Y-182956095D01*
X97401002Y-182185205D01*
X98216431Y-182185205D01*
X98246911Y-182278550D01*
X98298346Y-182254737D01*
X98361211Y-182244260D01*
X98431696Y-182259500D01*
X98478845Y-182301886D01*
X98505515Y-182366656D01*
X98511587Y-182406304D01*
X98513611Y-182450000D01*
X98509907Y-182514294D01*
X98498795Y-182566205D01*
X98480274Y-182605734D01*
X98439078Y-182643238D01*
X98382166Y-182655740D01*
X98359306Y-182654787D01*
X98336446Y-182651930D01*
X98336446Y-182436665D01*
X98219289Y-182436665D01*
X98219289Y-182730987D01*
X98284535Y-182748132D01*
X98333470Y-182755276D01*
X98391691Y-182757658D01*
X98444198Y-182752776D01*
X98468286Y-182745275D01*
X98666964Y-182745275D01*
X98792694Y-182745275D01*
X98820316Y-182609067D01*
X98977479Y-182609067D01*
X99004149Y-182745275D01*
X99126069Y-182745275D01*
X99109267Y-182676790D01*
X99092388Y-182610782D01*
X99075434Y-182547250D01*
X99058403Y-182486195D01*
X99041296Y-182427616D01*
X99020044Y-182356863D01*
X98999148Y-182287956D01*
X98978610Y-182220894D01*
X98958429Y-182155677D01*
X99158454Y-182155677D01*
X99158454Y-182252832D01*
X99313711Y-182252832D01*
X99313711Y-182745275D01*
X99431821Y-182745275D01*
X99431821Y-182252832D01*
X99587079Y-182252832D01*
X99587079Y-182155677D01*
X99669946Y-182155677D01*
X99669946Y-182548107D01*
X99672685Y-182589779D01*
X99680900Y-182629070D01*
X99717095Y-182695745D01*
X99746027Y-182721343D01*
X99782341Y-182740989D01*
X99826633Y-182753490D01*
X99879496Y-182757658D01*
X99934503Y-182753847D01*
X99968256Y-182745275D01*
X100573869Y-182745275D01*
X100700551Y-182745275D01*
X100720673Y-182694078D01*
X100744843Y-182637642D01*
X100771632Y-182578587D01*
X100799611Y-182519532D01*
X100827234Y-182576802D01*
X100854856Y-182636214D01*
X100880574Y-182693721D01*
X100902481Y-182745275D01*
X101029164Y-182745275D01*
X101001065Y-182683362D01*
X100981539Y-182645739D01*
X100960108Y-182605257D01*
X100937128Y-182562752D01*
X100912959Y-182519056D01*
X100888670Y-182475598D01*
X100865334Y-182433807D01*
X101019639Y-182155677D01*
X101076789Y-182155677D01*
X101076789Y-182531915D01*
X101079170Y-182580969D01*
X101086314Y-182625260D01*
X101099411Y-182664074D01*
X101119651Y-182696697D01*
X101147274Y-182722772D01*
X101182516Y-182741941D01*
X101226331Y-182753728D01*
X101279671Y-182757658D01*
X101332178Y-182753728D01*
X101363173Y-182745275D01*
X101524464Y-182745275D01*
X101650194Y-182745275D01*
X101677816Y-182609067D01*
X101834979Y-182609067D01*
X101861649Y-182745275D01*
X101983569Y-182745275D01*
X101966767Y-182676790D01*
X101949888Y-182610782D01*
X101932934Y-182547250D01*
X101915903Y-182486195D01*
X101898796Y-182427616D01*
X101877544Y-182356863D01*
X101856648Y-182287956D01*
X101836110Y-182220894D01*
X101815929Y-182155677D01*
X101688294Y-182155677D01*
X101667369Y-182221430D01*
X101646503Y-182289147D01*
X101625697Y-182358828D01*
X101604950Y-182430474D01*
X101588472Y-182489548D01*
X101572184Y-182550565D01*
X101556087Y-182613525D01*
X101540180Y-182678429D01*
X101524464Y-182745275D01*
X101363173Y-182745275D01*
X101375398Y-182741941D01*
X101436834Y-182696697D01*
X101456360Y-182664074D01*
X101469219Y-182625260D01*
X101476363Y-182580969D01*
X101478744Y-182531915D01*
X101478744Y-182155677D01*
X101360634Y-182155677D01*
X101360634Y-182524295D01*
X101356824Y-182586684D01*
X101343965Y-182627165D01*
X101318724Y-182649072D01*
X101277766Y-182655740D01*
X101236809Y-182649072D01*
X101211091Y-182626689D01*
X101197756Y-182585731D01*
X101193946Y-182523342D01*
X101193946Y-182155677D01*
X101076789Y-182155677D01*
X101019639Y-182155677D01*
X100892956Y-182155677D01*
X100799611Y-182344272D01*
X100701504Y-182155677D01*
X100583394Y-182155677D01*
X100733889Y-182430950D01*
X100708409Y-182472860D01*
X100683406Y-182516675D01*
X100659475Y-182560847D01*
X100637210Y-182603829D01*
X100617088Y-182644786D01*
X100599586Y-182682886D01*
X100573869Y-182745275D01*
X99968256Y-182745275D01*
X99979509Y-182742417D01*
X100047136Y-182705270D01*
X100002369Y-182611925D01*
X99949505Y-182641452D01*
X99889974Y-182655740D01*
X99848659Y-182649668D01*
X99816155Y-182631451D01*
X99795081Y-182596804D01*
X99788056Y-182541440D01*
X99788056Y-182252832D01*
X99985224Y-182252832D01*
X99985224Y-182155677D01*
X99669946Y-182155677D01*
X99587079Y-182155677D01*
X99158454Y-182155677D01*
X98958429Y-182155677D01*
X98830794Y-182155677D01*
X98809869Y-182221430D01*
X98789003Y-182289147D01*
X98768197Y-182358828D01*
X98747450Y-182430474D01*
X98730972Y-182489548D01*
X98714684Y-182550565D01*
X98698587Y-182613525D01*
X98682680Y-182678429D01*
X98666964Y-182745275D01*
X98468286Y-182745275D01*
X98491227Y-182738131D01*
X98532304Y-182713842D01*
X98566951Y-182680029D01*
X98594812Y-182636690D01*
X98615529Y-182583826D01*
X98628387Y-182521557D01*
X98632674Y-182450000D01*
X98627673Y-182379158D01*
X98612671Y-182317126D01*
X98589097Y-182264143D01*
X98558379Y-182220447D01*
X98520993Y-182186277D01*
X98477416Y-182161869D01*
X98429077Y-182147224D01*
X98377404Y-182142342D01*
X98315967Y-182147581D01*
X98268819Y-182159487D01*
X98235957Y-182173775D01*
X98216431Y-182185205D01*
X97401002Y-182185205D01*
X97401002Y-181943905D01*
X97599439Y-181943905D01*
X102600561Y-181943905D01*
X102798998Y-181943905D01*
X102798998Y-182956095D01*
G37*
G36*
X139448210Y-159754805D02*
G01*
X139476308Y-159776236D01*
X139492739Y-159809336D01*
X139498216Y-159851484D01*
X139497740Y-159867676D01*
X139495359Y-159886726D01*
X139318194Y-159886726D01*
X139318194Y-159861009D01*
X139324028Y-159809336D01*
X139341530Y-159774331D01*
X139407728Y-159747661D01*
X139448210Y-159754805D01*
G37*
G36*
X139798571Y-156350218D02*
G01*
X139798571Y-162850782D01*
X139798571Y-163049220D01*
X138805431Y-163049220D01*
X138805431Y-162850782D01*
X138805431Y-160354404D01*
X139003868Y-160354404D01*
X139073877Y-160377978D01*
X139152458Y-160402981D01*
X139207651Y-160419809D01*
X139262737Y-160436001D01*
X139317717Y-160451559D01*
X139371639Y-160466270D01*
X139423551Y-160479922D01*
X139473451Y-160492516D01*
X139540126Y-160508233D01*
X139593466Y-160519186D01*
X139593466Y-160395361D01*
X139544055Y-160388218D01*
X139487262Y-160378216D01*
X139425826Y-160366191D01*
X139362485Y-160352975D01*
X139298667Y-160338688D01*
X139235802Y-160323448D01*
X139176628Y-160307850D01*
X139123884Y-160292491D01*
X139175914Y-160277251D01*
X139234850Y-160262011D01*
X139297715Y-160247248D01*
X139361532Y-160233436D01*
X139424993Y-160220578D01*
X139486786Y-160208671D01*
X139543936Y-160198194D01*
X139593466Y-160189621D01*
X139593466Y-160066749D01*
X139532982Y-160079488D01*
X139465831Y-160094848D01*
X139393560Y-160112707D01*
X139317717Y-160132948D01*
X139265647Y-160147711D01*
X139212942Y-160163428D01*
X139159602Y-160180096D01*
X139106527Y-160197453D01*
X139054616Y-160215233D01*
X139003868Y-160233436D01*
X139003868Y-160354404D01*
X138805431Y-160354404D01*
X138805431Y-159589546D01*
X139003868Y-159589546D01*
X139003868Y-159712419D01*
X139059947Y-159736112D01*
X139113882Y-159763377D01*
X139167103Y-159793500D01*
X139221039Y-159825766D01*
X139221039Y-159886726D01*
X139003868Y-159886726D01*
X139003868Y-160003884D01*
X139584894Y-160003884D01*
X139592037Y-159966260D01*
X139596800Y-159924826D01*
X139599181Y-159884821D01*
X139600134Y-159851484D01*
X139597276Y-159803383D01*
X139588704Y-159760044D01*
X139574178Y-159721944D01*
X139553461Y-159689559D01*
X139492977Y-159644315D01*
X139453091Y-159632528D01*
X139406776Y-159628599D01*
X139357722Y-159633837D01*
X139313431Y-159649554D01*
X139276522Y-159677414D01*
X139249613Y-159719086D01*
X139194845Y-159684796D01*
X139131980Y-159649554D01*
X139066257Y-159616693D01*
X139003868Y-159589546D01*
X138805431Y-159589546D01*
X138805431Y-159519061D01*
X139003868Y-159519061D01*
X139593466Y-159519061D01*
X139593466Y-159161874D01*
X139496311Y-159161874D01*
X139496311Y-159401904D01*
X139363914Y-159401904D01*
X139363914Y-159193306D01*
X139266759Y-159193306D01*
X139266759Y-159401904D01*
X139101023Y-159401904D01*
X139101023Y-159140919D01*
X139003868Y-159140919D01*
X139003868Y-159519061D01*
X138805431Y-159519061D01*
X138805431Y-159042811D01*
X139003868Y-159042811D01*
X139593466Y-159042811D01*
X139593466Y-158681814D01*
X139496311Y-158681814D01*
X139496311Y-158925654D01*
X139353436Y-158925654D01*
X139353436Y-158712294D01*
X139256281Y-158712294D01*
X139256281Y-158925654D01*
X139003868Y-158925654D01*
X139003868Y-159042811D01*
X138805431Y-159042811D01*
X138805431Y-156350218D01*
X138805431Y-156151780D01*
X139798571Y-156151780D01*
X139798571Y-156350218D01*
G37*
X147767665Y-166941000D02*
X147983337Y-166941000D01*
X147767665Y-167661000D02*
X147983337Y-167661000D01*
X149017001Y-181908336D02*
X149017001Y-181692664D01*
X149737001Y-181908336D02*
X149737001Y-181692664D01*
X158370000Y-201014441D02*
X158370000Y-200707159D01*
X159130000Y-201014441D02*
X159130000Y-200707159D01*
X137767165Y-176942500D02*
X137982837Y-176942500D01*
X137767165Y-177662500D02*
X137982837Y-177662500D01*
X136769165Y-172942500D02*
X136984837Y-172942500D01*
X136769165Y-173662500D02*
X136984837Y-173662500D01*
X201936236Y-149432600D02*
X201720564Y-149432600D01*
X201936236Y-148712600D02*
X201720564Y-148712600D01*
X119220501Y-176033836D02*
X119220501Y-175818164D01*
X119940501Y-176033836D02*
X119940501Y-175818164D01*
X159840000Y-200983636D02*
X159840000Y-200767964D01*
X160560000Y-200983636D02*
X160560000Y-200767964D01*
X139922001Y-160253641D02*
X139922001Y-159946359D01*
X140682001Y-160253641D02*
X140682001Y-159946359D01*
X149737001Y-183692664D02*
X149737001Y-183908336D01*
X149017001Y-183692664D02*
X149017001Y-183908336D01*
X138390501Y-185416580D02*
X138390501Y-185135420D01*
X139410501Y-185416580D02*
X139410501Y-185135420D01*
G36*
X149637116Y-177183319D02*
G01*
X149652356Y-177242374D01*
X149665691Y-177300952D01*
X149677597Y-177361912D01*
X149562345Y-177361912D01*
X149573775Y-177300952D01*
X149586634Y-177242374D01*
X149601874Y-177183319D01*
X149619495Y-177119977D01*
X149637116Y-177183319D01*
G37*
G36*
X150621525Y-177101404D02*
G01*
X150640575Y-177103785D01*
X150640575Y-177280950D01*
X150614858Y-177280950D01*
X150563184Y-177275116D01*
X150528180Y-177257614D01*
X150501510Y-177191415D01*
X150508654Y-177150934D01*
X150530085Y-177122835D01*
X150563184Y-177106404D01*
X150605333Y-177100927D01*
X150621525Y-177101404D01*
G37*
G36*
X150956170Y-177806095D02*
G01*
X150757733Y-177806095D01*
X150343395Y-177806095D01*
X150050978Y-177806095D01*
X149514720Y-177806095D01*
X148942267Y-177806095D01*
X148743830Y-177806095D01*
X148743830Y-177595275D01*
X148942267Y-177595275D01*
X149312790Y-177595275D01*
X149388990Y-177595275D01*
X149514720Y-177595275D01*
X149542342Y-177459067D01*
X149699505Y-177459067D01*
X149726175Y-177595275D01*
X149848095Y-177595275D01*
X149841084Y-177566700D01*
X149886195Y-177566700D01*
X149953346Y-177594799D01*
X149998947Y-177604443D01*
X150050978Y-177607658D01*
X150127601Y-177598767D01*
X150135915Y-177595275D01*
X150343395Y-177595275D01*
X150466268Y-177595275D01*
X150489961Y-177539197D01*
X150517226Y-177485261D01*
X150547349Y-177432040D01*
X150579615Y-177378105D01*
X150640575Y-177378105D01*
X150640575Y-177595275D01*
X150757733Y-177595275D01*
X150757733Y-177014250D01*
X150720109Y-177007106D01*
X150678675Y-177002344D01*
X150638670Y-176999962D01*
X150605333Y-176999010D01*
X150557231Y-177001867D01*
X150513892Y-177010440D01*
X150475793Y-177024966D01*
X150443408Y-177045682D01*
X150398164Y-177106166D01*
X150386377Y-177146052D01*
X150382448Y-177192367D01*
X150387686Y-177241421D01*
X150403403Y-177285712D01*
X150431263Y-177322622D01*
X150472935Y-177349530D01*
X150438645Y-177404299D01*
X150403403Y-177467164D01*
X150370541Y-177532886D01*
X150343395Y-177595275D01*
X150135915Y-177595275D01*
X150191101Y-177572097D01*
X150241478Y-177527647D01*
X150270231Y-177483416D01*
X150290769Y-177430731D01*
X150303092Y-177369592D01*
X150307200Y-177300000D01*
X150302199Y-177230706D01*
X150287197Y-177169507D01*
X150263266Y-177116763D01*
X150231476Y-177072829D01*
X150192424Y-177038062D01*
X150146704Y-177012821D01*
X150095388Y-176997462D01*
X150039548Y-176992342D01*
X149982874Y-176997581D01*
X149938582Y-177009487D01*
X149906674Y-177023775D01*
X149887148Y-177035205D01*
X149917628Y-177128550D01*
X149970491Y-177104261D01*
X150041452Y-177094260D01*
X150095269Y-177104261D01*
X150141941Y-177137599D01*
X150175279Y-177199987D01*
X150184923Y-177243802D01*
X150188138Y-177297142D01*
X150184275Y-177359214D01*
X150172686Y-177410807D01*
X150153371Y-177451924D01*
X150107532Y-177492286D01*
X150039548Y-177505740D01*
X149963824Y-177495262D01*
X149915722Y-177474307D01*
X149886195Y-177566700D01*
X149841084Y-177566700D01*
X149831293Y-177526790D01*
X149814415Y-177460782D01*
X149797460Y-177397250D01*
X149780429Y-177336195D01*
X149763322Y-177277616D01*
X149742070Y-177206863D01*
X149721174Y-177137956D01*
X149700636Y-177070894D01*
X149680455Y-177005677D01*
X149552820Y-177005677D01*
X149531895Y-177071430D01*
X149511029Y-177139147D01*
X149490223Y-177208828D01*
X149469476Y-177280474D01*
X149452998Y-177339548D01*
X149436710Y-177400565D01*
X149420613Y-177463525D01*
X149404706Y-177528429D01*
X149388990Y-177595275D01*
X149312790Y-177595275D01*
X149312790Y-177005677D01*
X149194680Y-177005677D01*
X149194680Y-177498120D01*
X148942267Y-177498120D01*
X148942267Y-177595275D01*
X148743830Y-177595275D01*
X148743830Y-176793905D01*
X148942267Y-176793905D01*
X150757733Y-176793905D01*
X150956170Y-176793905D01*
X150956170Y-177806095D01*
G37*
X133983337Y-163661000D02*
X133767665Y-163661000D01*
X133983337Y-162941000D02*
X133767665Y-162941000D01*
X139015001Y-178910336D02*
X139015001Y-178694664D01*
X139735001Y-178910336D02*
X139735001Y-178694664D01*
X146735001Y-185692665D02*
X146735001Y-185908337D01*
X146015001Y-185692665D02*
X146015001Y-185908337D01*
G36*
X96451296Y-166300487D02*
G01*
X96515114Y-166320490D01*
X96559405Y-166359542D01*
X96576074Y-166423360D01*
X96575597Y-166440505D01*
X96573216Y-166457650D01*
X96176976Y-166457650D01*
X96176024Y-166447172D01*
X96176024Y-166436695D01*
X96191264Y-166369544D01*
X96233174Y-166325729D01*
X96296515Y-166301916D01*
X96334972Y-166296558D01*
X96377001Y-166294772D01*
X96451296Y-166300487D01*
G37*
G36*
X96418554Y-166771856D02*
G01*
X96457487Y-166774356D01*
X96522734Y-166787691D01*
X96566549Y-166815790D01*
X96582741Y-166864367D01*
X96566549Y-166912945D01*
X96522257Y-166941044D01*
X96457011Y-166954379D01*
X96418435Y-166956879D01*
X96377001Y-166957712D01*
X96335448Y-166956879D01*
X96296515Y-166954379D01*
X96231269Y-166941044D01*
X96187454Y-166912945D01*
X96171261Y-166864367D01*
X96187454Y-166816266D01*
X96231745Y-166787691D01*
X96296991Y-166774356D01*
X96335567Y-166771856D01*
X96377001Y-166771022D01*
X96418554Y-166771856D01*
G37*
G36*
X96962471Y-165099494D02*
G01*
X96962471Y-167701506D01*
X96962471Y-167899943D01*
X95791531Y-167899943D01*
X95791531Y-167701506D01*
X95791531Y-167124400D01*
X96081726Y-167124400D01*
X96081726Y-167232032D01*
X96539879Y-167226317D01*
X96290324Y-167298707D01*
X96290324Y-167384432D01*
X96539879Y-167453965D01*
X96081726Y-167449202D01*
X96081726Y-167556835D01*
X96155545Y-167553858D01*
X96232221Y-167550644D01*
X96310088Y-167547191D01*
X96387479Y-167543500D01*
X96463440Y-167539333D01*
X96537021Y-167534451D01*
X96606792Y-167528855D01*
X96671324Y-167522545D01*
X96671324Y-167425390D01*
X96619889Y-167408721D01*
X96552261Y-167387290D01*
X96478919Y-167364430D01*
X96410339Y-167342522D01*
X96483205Y-167318710D01*
X96555595Y-167294897D01*
X96620841Y-167273942D01*
X96671324Y-167256797D01*
X96671324Y-167159642D01*
X96595124Y-167153094D01*
X96520829Y-167146784D01*
X96447843Y-167141069D01*
X96375572Y-167136306D01*
X96303420Y-167132377D01*
X96230792Y-167129162D01*
X96157093Y-167126543D01*
X96081726Y-167124400D01*
X95791531Y-167124400D01*
X95791531Y-166863415D01*
X96069343Y-166863415D01*
X96077969Y-166927180D01*
X96103845Y-166980043D01*
X96146972Y-167022006D01*
X96190460Y-167045968D01*
X96243294Y-167063083D01*
X96305474Y-167073352D01*
X96377001Y-167076775D01*
X96448528Y-167073263D01*
X96510708Y-167062726D01*
X96563542Y-167045164D01*
X96607030Y-167020577D01*
X96650157Y-166978244D01*
X96676033Y-166926174D01*
X96684659Y-166864367D01*
X96676033Y-166800656D01*
X96650157Y-166747951D01*
X96607030Y-166706252D01*
X96563542Y-166682500D01*
X96510708Y-166665533D01*
X96448528Y-166655353D01*
X96377001Y-166651960D01*
X96305474Y-166655413D01*
X96243294Y-166665771D01*
X96190460Y-166683035D01*
X96146972Y-166707205D01*
X96103845Y-166749115D01*
X96077969Y-166801185D01*
X96069343Y-166863415D01*
X95791531Y-166863415D01*
X95791531Y-166449077D01*
X96074106Y-166449077D01*
X96077440Y-166510514D01*
X96088394Y-166574807D01*
X96663704Y-166574807D01*
X96675134Y-166499560D01*
X96677991Y-166433837D01*
X96673705Y-166378235D01*
X96660846Y-166327634D01*
X96638819Y-166283223D01*
X96607030Y-166246195D01*
X96565358Y-166216548D01*
X96513685Y-166194284D01*
X96451177Y-166180353D01*
X96377001Y-166175710D01*
X96301158Y-166180830D01*
X96237460Y-166196189D01*
X96185191Y-166220597D01*
X96143639Y-166252862D01*
X96112325Y-166292510D01*
X96090775Y-166339064D01*
X96078273Y-166391570D01*
X96074106Y-166449077D01*
X95791531Y-166449077D01*
X95791531Y-166089985D01*
X96081726Y-166089985D01*
X96671324Y-166089985D01*
X96671324Y-165732797D01*
X96574169Y-165732797D01*
X96574169Y-165972827D01*
X96441771Y-165972827D01*
X96441771Y-165764230D01*
X96344616Y-165764230D01*
X96344616Y-165972827D01*
X96178881Y-165972827D01*
X96178881Y-165711842D01*
X96081726Y-165711842D01*
X96081726Y-166089985D01*
X95791531Y-166089985D01*
X95791531Y-165470860D01*
X96069343Y-165470860D01*
X96072677Y-165517056D01*
X96080773Y-165563729D01*
X96091251Y-165605162D01*
X96101729Y-165634690D01*
X96199836Y-165611830D01*
X96179834Y-165555156D01*
X96171975Y-165516937D01*
X96169356Y-165471812D01*
X96175785Y-165420735D01*
X96195074Y-165387516D01*
X96258891Y-165363227D01*
X96298539Y-165372514D01*
X96324137Y-165400375D01*
X96338068Y-165442523D01*
X96342711Y-165494672D01*
X96342711Y-165530867D01*
X96439866Y-165530867D01*
X96439866Y-165487052D01*
X96443676Y-165450857D01*
X96456059Y-165418472D01*
X96478919Y-165395136D01*
X96515114Y-165386087D01*
X96566072Y-165405614D01*
X96584646Y-165459430D01*
X96573692Y-165525629D01*
X96546546Y-165582302D01*
X96632271Y-165624212D01*
X96667037Y-165556109D01*
X96680253Y-165510984D01*
X96684659Y-165460382D01*
X96681563Y-165414067D01*
X96672276Y-165374181D01*
X96637510Y-165313697D01*
X96584646Y-165278455D01*
X96518924Y-165267025D01*
X96451296Y-165287027D01*
X96401766Y-165340367D01*
X96378192Y-165299767D01*
X96345569Y-165269406D01*
X96304849Y-165250475D01*
X96256986Y-165244165D01*
X96181739Y-165257500D01*
X96122207Y-165298457D01*
X96099824Y-165329890D01*
X96083155Y-165368942D01*
X96072796Y-165415853D01*
X96069343Y-165470860D01*
X95791531Y-165470860D01*
X95791531Y-165099494D01*
X95791531Y-164901057D01*
X96962471Y-164901057D01*
X96962471Y-165099494D01*
G37*
D11*
X141875501Y-174501000D02*
X142475501Y-174501000D01*
X141875501Y-175101000D02*
X142475501Y-175101000D01*
D10*
X139767165Y-170942500D02*
X139982837Y-170942500D01*
X139767165Y-171662500D02*
X139982837Y-171662500D01*
X156392665Y-174916000D02*
X156608337Y-174916000D01*
X156392665Y-175636000D02*
X156608337Y-175636000D01*
X202501001Y-170375641D02*
X202501001Y-170068359D01*
X203261001Y-170375641D02*
X203261001Y-170068359D01*
X172692665Y-196016000D02*
X172908337Y-196016000D01*
X172692665Y-196736000D02*
X172908337Y-196736000D01*
X141015501Y-177908836D02*
X141015501Y-177693164D01*
X141735501Y-177908836D02*
X141735501Y-177693164D01*
X125723360Y-172920500D02*
X126030642Y-172920500D01*
X125723360Y-173680500D02*
X126030642Y-173680500D01*
X147983337Y-176661000D02*
X147767665Y-176661000D01*
X147983337Y-175941000D02*
X147767665Y-175941000D01*
G36*
X93312918Y-155003745D02*
G01*
X93364194Y-155012158D01*
X93404781Y-155026181D01*
X93444429Y-155057257D01*
X93457645Y-155100000D01*
X93444429Y-155142148D01*
X93404781Y-155173342D01*
X93364194Y-155187630D01*
X93312918Y-155196203D01*
X93250953Y-155199060D01*
X93188458Y-155196203D01*
X93136864Y-155187630D01*
X93096171Y-155173342D01*
X93056523Y-155142148D01*
X93043308Y-155100000D01*
X93043602Y-155099047D01*
X93197613Y-155099047D01*
X93216186Y-155138100D01*
X93260478Y-155152388D01*
X93305245Y-155138100D01*
X93324295Y-155099047D01*
X93305245Y-155061424D01*
X93260478Y-155046660D01*
X93216186Y-155061424D01*
X93197613Y-155099047D01*
X93043602Y-155099047D01*
X93056523Y-155057257D01*
X93096171Y-155026181D01*
X93136864Y-155012158D01*
X93188458Y-155003745D01*
X93250953Y-155000940D01*
X93312918Y-155003745D01*
G37*
G36*
X93756095Y-154397283D02*
G01*
X93756095Y-155802717D01*
X93756095Y-156199592D01*
X92743905Y-156199592D01*
X92743905Y-155802717D01*
X92743905Y-155100000D01*
X92942342Y-155100000D01*
X92950809Y-155161383D01*
X92976209Y-155212183D01*
X93018543Y-155252400D01*
X93061643Y-155275320D01*
X93114745Y-155291691D01*
X93177848Y-155301513D01*
X93250953Y-155304788D01*
X93323223Y-155301454D01*
X93385731Y-155291453D01*
X93438476Y-155274784D01*
X93481458Y-155251447D01*
X93523791Y-155210913D01*
X93549191Y-155160431D01*
X93557658Y-155100000D01*
X93549244Y-155038617D01*
X93524003Y-154987817D01*
X93481934Y-154947600D01*
X93439101Y-154924680D01*
X93386327Y-154908309D01*
X93323610Y-154898487D01*
X93250953Y-154895212D01*
X93177848Y-154898487D01*
X93114745Y-154908309D01*
X93061643Y-154924680D01*
X93018543Y-154947600D01*
X92976209Y-154987817D01*
X92950809Y-155038617D01*
X92942342Y-155100000D01*
X92743905Y-155100000D01*
X92743905Y-154397283D01*
X92743905Y-154000408D01*
X93756095Y-154000408D01*
X93756095Y-154397283D01*
G37*
X147723360Y-176922500D02*
X148030642Y-176922500D01*
X147723360Y-177682500D02*
X148030642Y-177682500D01*
X144982837Y-180662500D02*
X144767165Y-180662500D01*
X144982837Y-179942500D02*
X144767165Y-179942500D01*
X128983337Y-168661000D02*
X128767665Y-168661000D01*
X128983337Y-167941000D02*
X128767665Y-167941000D01*
X93907836Y-164811500D02*
X93692164Y-164811500D01*
X93907836Y-164091500D02*
X93692164Y-164091500D01*
X139716081Y-175311000D02*
X139434921Y-175311000D01*
X139716081Y-174291000D02*
X139434921Y-174291000D01*
X141767665Y-179941000D02*
X141983337Y-179941000D01*
X141767665Y-180661000D02*
X141983337Y-180661000D01*
X136983337Y-162661000D02*
X136767665Y-162661000D01*
X136983337Y-161941000D02*
X136767665Y-161941000D01*
X182882836Y-202835600D02*
X182667164Y-202835600D01*
X182882836Y-202115600D02*
X182667164Y-202115600D01*
X126735501Y-181693164D02*
X126735501Y-181908836D01*
X126015501Y-181693164D02*
X126015501Y-181908836D01*
G36*
X85712918Y-157253745D02*
G01*
X85764194Y-157262158D01*
X85804781Y-157276181D01*
X85844429Y-157307257D01*
X85857645Y-157350000D01*
X85844429Y-157392148D01*
X85804781Y-157423342D01*
X85764194Y-157437630D01*
X85712918Y-157446203D01*
X85650953Y-157449060D01*
X85588458Y-157446203D01*
X85536864Y-157437630D01*
X85496171Y-157423342D01*
X85456523Y-157392148D01*
X85443308Y-157350000D01*
X85443602Y-157349047D01*
X85597613Y-157349047D01*
X85616186Y-157388100D01*
X85660478Y-157402388D01*
X85705245Y-157388100D01*
X85724295Y-157349047D01*
X85705245Y-157311424D01*
X85660478Y-157296660D01*
X85616186Y-157311424D01*
X85597613Y-157349047D01*
X85443602Y-157349047D01*
X85456523Y-157307257D01*
X85496171Y-157276181D01*
X85536864Y-157262158D01*
X85588458Y-157253745D01*
X85650953Y-157250940D01*
X85712918Y-157253745D01*
G37*
G36*
X86156095Y-156898679D02*
G01*
X86156095Y-157801321D01*
X86156095Y-157999759D01*
X85143905Y-157999759D01*
X85143905Y-157801321D01*
X85143905Y-157350000D01*
X85342342Y-157350000D01*
X85350809Y-157411383D01*
X85376209Y-157462183D01*
X85418543Y-157502400D01*
X85461643Y-157525320D01*
X85514745Y-157541691D01*
X85577848Y-157551513D01*
X85650953Y-157554788D01*
X85723223Y-157551454D01*
X85785731Y-157541453D01*
X85838476Y-157524784D01*
X85881458Y-157501447D01*
X85923791Y-157460913D01*
X85949191Y-157410431D01*
X85957658Y-157350000D01*
X85949244Y-157288617D01*
X85924003Y-157237817D01*
X85881934Y-157197600D01*
X85839101Y-157174680D01*
X85786327Y-157158309D01*
X85723610Y-157148487D01*
X85650953Y-157145212D01*
X85577848Y-157148487D01*
X85514745Y-157158309D01*
X85461643Y-157174680D01*
X85418543Y-157197600D01*
X85376209Y-157237817D01*
X85350809Y-157288617D01*
X85342342Y-157350000D01*
X85143905Y-157350000D01*
X85143905Y-156898679D01*
X85143905Y-156700241D01*
X86156095Y-156700241D01*
X86156095Y-156898679D01*
G37*
X130735501Y-162693164D02*
X130735501Y-162908836D01*
X130015501Y-162693164D02*
X130015501Y-162908836D01*
X78348841Y-161944000D02*
X78041559Y-161944000D01*
X78348841Y-161184000D02*
X78041559Y-161184000D01*
X143049164Y-130640000D02*
X143264836Y-130640000D01*
X143049164Y-131360000D02*
X143264836Y-131360000D01*
X181505159Y-206299800D02*
X181812441Y-206299800D01*
X181505159Y-207059800D02*
X181812441Y-207059800D01*
X140015501Y-164908836D02*
X140015501Y-164693164D01*
X140735501Y-164908836D02*
X140735501Y-164693164D01*
X150735501Y-169694664D02*
X150735501Y-169910336D01*
X150015501Y-169694664D02*
X150015501Y-169910336D01*
X144984837Y-186660500D02*
X144769165Y-186660500D01*
X144984837Y-185940500D02*
X144769165Y-185940500D01*
X137735501Y-184693164D02*
X137735501Y-184908836D01*
X137015501Y-184693164D02*
X137015501Y-184908836D01*
X183800964Y-206269800D02*
X184016636Y-206269800D01*
X183800964Y-206989800D02*
X184016636Y-206989800D01*
G36*
X102284861Y-164980432D02*
G01*
X102284861Y-167820568D01*
X102284861Y-167899943D01*
X100969141Y-167899943D01*
X100969141Y-167820568D01*
X100969141Y-167538261D01*
X101391733Y-167538261D01*
X101400623Y-167614885D01*
X101427293Y-167678385D01*
X101471744Y-167728761D01*
X101515975Y-167757515D01*
X101568660Y-167778053D01*
X101629799Y-167790376D01*
X101699391Y-167794484D01*
X101768685Y-167789483D01*
X101829884Y-167774481D01*
X101882628Y-167750550D01*
X101926562Y-167718760D01*
X101961329Y-167679708D01*
X101986570Y-167633988D01*
X102001929Y-167582672D01*
X102007049Y-167526831D01*
X102001810Y-167470158D01*
X101989904Y-167425866D01*
X101975616Y-167393958D01*
X101964186Y-167374431D01*
X101870841Y-167404911D01*
X101895130Y-167457775D01*
X101905131Y-167528736D01*
X101895130Y-167582553D01*
X101861792Y-167629225D01*
X101799404Y-167662563D01*
X101755589Y-167672207D01*
X101702249Y-167675421D01*
X101640177Y-167671558D01*
X101588583Y-167659970D01*
X101547467Y-167640655D01*
X101507105Y-167594816D01*
X101493651Y-167526831D01*
X101504128Y-167451108D01*
X101525084Y-167403006D01*
X101432691Y-167373479D01*
X101404592Y-167440630D01*
X101394948Y-167486231D01*
X101391733Y-167538261D01*
X100969141Y-167538261D01*
X100969141Y-166905801D01*
X101404116Y-166905801D01*
X101404116Y-167276324D01*
X101993714Y-167276324D01*
X101993714Y-167158214D01*
X101501271Y-167158214D01*
X101501271Y-166905801D01*
X101404116Y-166905801D01*
X100969141Y-166905801D01*
X100969141Y-166534326D01*
X101404116Y-166534326D01*
X101476030Y-166564330D01*
X101514130Y-166584928D01*
X101551277Y-166607669D01*
X101586758Y-166632077D01*
X101619857Y-166657675D01*
X101673674Y-166707681D01*
X101404116Y-166707681D01*
X101404116Y-166824839D01*
X101993714Y-166824839D01*
X101993714Y-166707681D01*
X101748921Y-166707681D01*
X101807976Y-166663866D01*
X101872746Y-166620528D01*
X101936564Y-166582904D01*
X101993714Y-166554329D01*
X101993714Y-166421931D01*
X101935135Y-166453840D01*
X101901559Y-166473723D01*
X101866555Y-166496226D01*
X101830479Y-166520872D01*
X101793689Y-166547185D01*
X101757255Y-166574927D01*
X101722251Y-166603859D01*
X101691533Y-166574093D01*
X101656528Y-166543851D01*
X101618071Y-166514205D01*
X101576995Y-166486225D01*
X101534132Y-166460388D01*
X101490317Y-166437171D01*
X101446621Y-166417407D01*
X101404116Y-166401929D01*
X101404116Y-166534326D01*
X100969141Y-166534326D01*
X100969141Y-165922821D01*
X101246953Y-165922821D01*
X101246953Y-166383831D01*
X101348871Y-166383831D01*
X101348871Y-165922821D01*
X101246953Y-165922821D01*
X100969141Y-165922821D01*
X100969141Y-165855194D01*
X101404116Y-165855194D01*
X101993714Y-165855194D01*
X101993714Y-165498006D01*
X101896559Y-165498006D01*
X101896559Y-165738036D01*
X101764161Y-165738036D01*
X101764161Y-165529439D01*
X101667006Y-165529439D01*
X101667006Y-165738036D01*
X101501271Y-165738036D01*
X101501271Y-165477051D01*
X101404116Y-165477051D01*
X101404116Y-165855194D01*
X100969141Y-165855194D01*
X100969141Y-165100814D01*
X101404116Y-165100814D01*
X101469468Y-165128278D01*
X101534714Y-165157329D01*
X101599855Y-165187968D01*
X101664995Y-165220194D01*
X101730241Y-165254008D01*
X101795594Y-165289409D01*
X101404116Y-165289409D01*
X101404116Y-165395136D01*
X101993714Y-165395136D01*
X101993714Y-165300839D01*
X101950018Y-165274169D01*
X101902750Y-165247499D01*
X101853815Y-165221186D01*
X101805119Y-165195587D01*
X101757255Y-165171299D01*
X101710821Y-165148915D01*
X101667959Y-165129032D01*
X101630811Y-165112244D01*
X101993714Y-165112244D01*
X101993714Y-165006516D01*
X101404116Y-165006516D01*
X101404116Y-165100814D01*
X100969141Y-165100814D01*
X100969141Y-164980432D01*
X100969141Y-164901057D01*
X102284861Y-164901057D01*
X102284861Y-164980432D01*
G37*
X130735501Y-183692664D02*
X130735501Y-183908336D01*
X130015501Y-183692664D02*
X130015501Y-183908336D01*
G36*
X100573667Y-166125227D02*
G01*
X100632246Y-166138086D01*
X100691301Y-166153326D01*
X100754642Y-166170947D01*
X100691301Y-166188569D01*
X100632246Y-166203809D01*
X100573667Y-166217144D01*
X100512707Y-166229050D01*
X100512707Y-166113797D01*
X100573667Y-166125227D01*
G37*
G36*
X100723329Y-167514330D02*
G01*
X100752261Y-167535404D01*
X100768334Y-167568146D01*
X100773692Y-167610175D01*
X100773216Y-167639226D01*
X100770835Y-167668277D01*
X100580335Y-167668277D01*
X100580335Y-167620652D01*
X100585931Y-167571361D01*
X100602718Y-167535880D01*
X100633079Y-167514449D01*
X100679395Y-167507305D01*
X100723329Y-167514330D01*
G37*
G36*
X100648915Y-165606115D02*
G01*
X100712732Y-165626117D01*
X100757023Y-165665170D01*
X100773692Y-165728987D01*
X100773216Y-165746132D01*
X100770835Y-165763277D01*
X100374595Y-165763277D01*
X100373642Y-165752800D01*
X100373642Y-165742322D01*
X100388882Y-165675171D01*
X100430792Y-165631356D01*
X100494133Y-165607544D01*
X100532591Y-165602186D01*
X100574620Y-165600400D01*
X100648915Y-165606115D01*
G37*
G36*
X101160090Y-164980432D02*
G01*
X101160090Y-167820568D01*
X101160090Y-167899943D01*
X99993912Y-167899943D01*
X99993912Y-167820568D01*
X99993912Y-167668277D01*
X100279345Y-167668277D01*
X100279345Y-167785435D01*
X100861322Y-167785435D01*
X100867990Y-167746859D01*
X100872276Y-167703520D01*
X100874657Y-167660657D01*
X100875610Y-167623510D01*
X100870477Y-167554189D01*
X100855078Y-167496087D01*
X100829413Y-167449202D01*
X100792107Y-167414807D01*
X100741783Y-167394169D01*
X100678442Y-167387290D01*
X100614466Y-167394222D01*
X100563507Y-167415018D01*
X100525566Y-167449679D01*
X100499372Y-167497039D01*
X100483656Y-167555935D01*
X100478417Y-167626367D01*
X100478417Y-167668277D01*
X100279345Y-167668277D01*
X99993912Y-167668277D01*
X99993912Y-166927232D01*
X100279345Y-166927232D01*
X100279345Y-167044390D01*
X100539377Y-167044390D01*
X100539377Y-167200600D01*
X100279345Y-167200600D01*
X100279345Y-167317757D01*
X100868942Y-167317757D01*
X100868942Y-167200600D01*
X100636532Y-167200600D01*
X100636532Y-167044390D01*
X100868942Y-167044390D01*
X100868942Y-166927232D01*
X100279345Y-166927232D01*
X99993912Y-166927232D01*
X99993912Y-166586237D01*
X100279345Y-166586237D01*
X100279345Y-166704347D01*
X100503182Y-166704347D01*
X100564301Y-166737844D01*
X100624467Y-166768482D01*
X100683681Y-166796264D01*
X100743424Y-166822246D01*
X100805178Y-166847487D01*
X100868942Y-166871987D01*
X100868942Y-166746257D01*
X100799767Y-166723159D01*
X100729401Y-166697680D01*
X100661416Y-166670534D01*
X100599385Y-166642435D01*
X100654630Y-166618146D01*
X100725115Y-166590524D01*
X100762500Y-166576951D01*
X100800362Y-166563854D01*
X100868942Y-166540517D01*
X100868942Y-166419550D01*
X100821079Y-166437647D01*
X100774645Y-166455745D01*
X100729163Y-166474319D01*
X100684157Y-166493845D01*
X100639509Y-166514562D01*
X100595098Y-166536707D01*
X100550212Y-166560520D01*
X100504135Y-166586237D01*
X100279345Y-166586237D01*
X99993912Y-166586237D01*
X99993912Y-166066172D01*
X100279345Y-166066172D01*
X100415552Y-166093795D01*
X100415552Y-166250957D01*
X100279345Y-166277627D01*
X100279345Y-166399547D01*
X100347829Y-166382745D01*
X100413838Y-166365867D01*
X100477369Y-166348913D01*
X100538425Y-166331882D01*
X100597003Y-166314775D01*
X100667756Y-166293522D01*
X100736664Y-166272627D01*
X100803726Y-166252089D01*
X100868942Y-166231907D01*
X100868942Y-166104272D01*
X100803190Y-166083347D01*
X100735473Y-166062482D01*
X100665792Y-166041675D01*
X100594146Y-166020929D01*
X100535072Y-166004450D01*
X100474055Y-165988163D01*
X100411095Y-165972065D01*
X100346191Y-165956159D01*
X100279345Y-165940442D01*
X100279345Y-166066172D01*
X99993912Y-166066172D01*
X99993912Y-165754705D01*
X100271725Y-165754705D01*
X100275058Y-165816141D01*
X100286012Y-165880435D01*
X100861322Y-165880435D01*
X100872752Y-165805187D01*
X100875610Y-165739465D01*
X100871324Y-165683863D01*
X100858465Y-165633261D01*
X100836438Y-165588851D01*
X100804649Y-165551822D01*
X100762977Y-165522176D01*
X100711304Y-165499911D01*
X100648796Y-165485981D01*
X100574620Y-165481337D01*
X100498777Y-165486457D01*
X100435078Y-165501816D01*
X100382810Y-165526224D01*
X100341257Y-165558490D01*
X100309944Y-165598138D01*
X100288394Y-165644691D01*
X100275892Y-165697198D01*
X100271725Y-165754705D01*
X99993912Y-165754705D01*
X99993912Y-165015565D01*
X100279345Y-165015565D01*
X100279345Y-165400375D01*
X100303157Y-165402756D01*
X100323160Y-165402280D01*
X100368880Y-165397875D01*
X100410790Y-165384659D01*
X100449247Y-165364656D01*
X100484609Y-165339891D01*
X100517232Y-165311792D01*
X100547474Y-165281789D01*
X100575929Y-165251785D01*
X100603195Y-165223686D01*
X100654630Y-165178919D01*
X100705112Y-165161297D01*
X100760833Y-165183205D01*
X100780360Y-165238450D01*
X100767025Y-165296552D01*
X100722257Y-165356560D01*
X100804172Y-165414662D01*
X100838939Y-165373586D01*
X100863227Y-165326556D01*
X100877515Y-165276669D01*
X100882277Y-165227020D01*
X100871800Y-165157487D01*
X100840367Y-165098432D01*
X100787504Y-165057475D01*
X100713685Y-165042235D01*
X100655106Y-165053665D01*
X100600337Y-165084145D01*
X100548902Y-165127007D01*
X100501277Y-165175585D01*
X100474131Y-165204160D01*
X100441746Y-165234640D01*
X100407932Y-165258929D01*
X100376500Y-165268930D01*
X100376500Y-165015565D01*
X100279345Y-165015565D01*
X99993912Y-165015565D01*
X99993912Y-164980432D01*
X99993912Y-164901057D01*
X101160090Y-164901057D01*
X101160090Y-164980432D01*
G37*
X140015501Y-177908836D02*
X140015501Y-177693164D01*
X140735501Y-177908836D02*
X140735501Y-177693164D01*
G36*
X84299759Y-153293236D02*
G01*
X84101321Y-153293236D01*
X83454261Y-153293236D01*
X83198679Y-153293236D01*
X83000241Y-153293236D01*
X83000241Y-153094799D01*
X83454261Y-153094799D01*
X83812401Y-153094799D01*
X83812401Y-152997644D01*
X83688576Y-152997644D01*
X83688576Y-152668079D01*
X83749536Y-152701893D01*
X83807639Y-152725229D01*
X83845739Y-152628074D01*
X83796209Y-152606166D01*
X83742869Y-152576639D01*
X83692386Y-152542349D01*
X83651429Y-152505201D01*
X83571419Y-152505201D01*
X83571419Y-152997644D01*
X83454261Y-152997644D01*
X83454261Y-153094799D01*
X83000241Y-153094799D01*
X83000241Y-152306764D01*
X83198679Y-152306764D01*
X84101321Y-152306764D01*
X84299759Y-152306764D01*
X84299759Y-153293236D01*
G37*
G36*
X84599048Y-156126156D02*
G01*
X84657626Y-156139015D01*
X84716681Y-156154255D01*
X84780023Y-156171876D01*
X84716681Y-156189497D01*
X84657626Y-156204737D01*
X84599048Y-156218072D01*
X84538088Y-156229979D01*
X84538088Y-156114726D01*
X84599048Y-156126156D01*
G37*
G36*
X84748709Y-157515258D02*
G01*
X84777641Y-157536332D01*
X84793715Y-157569075D01*
X84799073Y-157611104D01*
X84798596Y-157640155D01*
X84796215Y-157669206D01*
X84605715Y-157669206D01*
X84605715Y-157621581D01*
X84611311Y-157572289D01*
X84628099Y-157536809D01*
X84658460Y-157515377D01*
X84704775Y-157508234D01*
X84748709Y-157515258D01*
G37*
G36*
X84674295Y-155607044D02*
G01*
X84738113Y-155627046D01*
X84782404Y-155666099D01*
X84799073Y-155729916D01*
X84798596Y-155747061D01*
X84796215Y-155764206D01*
X84399975Y-155764206D01*
X84399023Y-155753729D01*
X84399023Y-155743251D01*
X84414263Y-155676100D01*
X84456173Y-155632285D01*
X84519514Y-155608472D01*
X84557971Y-155603115D01*
X84600000Y-155601329D01*
X84674295Y-155607044D01*
G37*
G36*
X84662918Y-155122168D02*
G01*
X84714194Y-155130582D01*
X84754781Y-155144605D01*
X84794429Y-155175680D01*
X84807645Y-155218424D01*
X84794429Y-155260572D01*
X84754781Y-155291766D01*
X84714194Y-155306054D01*
X84662918Y-155314626D01*
X84600953Y-155317484D01*
X84538458Y-155314626D01*
X84486864Y-155306054D01*
X84446171Y-155291766D01*
X84406523Y-155260572D01*
X84393308Y-155218424D01*
X84393602Y-155217471D01*
X84547613Y-155217471D01*
X84566186Y-155256524D01*
X84610478Y-155270811D01*
X84655245Y-155256524D01*
X84674295Y-155217471D01*
X84655245Y-155179847D01*
X84610478Y-155165084D01*
X84566186Y-155179847D01*
X84547613Y-155217471D01*
X84393602Y-155217471D01*
X84406523Y-155175680D01*
X84446171Y-155144605D01*
X84486864Y-155130582D01*
X84538458Y-155122168D01*
X84600953Y-155119364D01*
X84662918Y-155122168D01*
G37*
G36*
X85185470Y-155013636D02*
G01*
X85185470Y-157786364D01*
X85185470Y-157984801D01*
X84014530Y-157984801D01*
X84014530Y-157786364D01*
X84014530Y-157669206D01*
X84304725Y-157669206D01*
X84304725Y-157786364D01*
X84886703Y-157786364D01*
X84893370Y-157747787D01*
X84897656Y-157704449D01*
X84900038Y-157661586D01*
X84900990Y-157624439D01*
X84895857Y-157555118D01*
X84880458Y-157497015D01*
X84854794Y-157450131D01*
X84817488Y-157415735D01*
X84767164Y-157395098D01*
X84703823Y-157388219D01*
X84639846Y-157395151D01*
X84588888Y-157415947D01*
X84550946Y-157450607D01*
X84524753Y-157497968D01*
X84509036Y-157556864D01*
X84503798Y-157627296D01*
X84503798Y-157669206D01*
X84304725Y-157669206D01*
X84014530Y-157669206D01*
X84014530Y-156928161D01*
X84304725Y-156928161D01*
X84304725Y-157045319D01*
X84564758Y-157045319D01*
X84564758Y-157201529D01*
X84304725Y-157201529D01*
X84304725Y-157318686D01*
X84894323Y-157318686D01*
X84894323Y-157201529D01*
X84661913Y-157201529D01*
X84661913Y-157045319D01*
X84894323Y-157045319D01*
X84894323Y-156928161D01*
X84304725Y-156928161D01*
X84014530Y-156928161D01*
X84014530Y-156587166D01*
X84304725Y-156587166D01*
X84304725Y-156705276D01*
X84528563Y-156705276D01*
X84589681Y-156738772D01*
X84649848Y-156769411D01*
X84709061Y-156797192D01*
X84768804Y-156823175D01*
X84830558Y-156848416D01*
X84894323Y-156872916D01*
X84894323Y-156747186D01*
X84825147Y-156724088D01*
X84754781Y-156698609D01*
X84686797Y-156671462D01*
X84624765Y-156643364D01*
X84680010Y-156619075D01*
X84750495Y-156591452D01*
X84787881Y-156577879D01*
X84825743Y-156564782D01*
X84894323Y-156541446D01*
X84894323Y-156420479D01*
X84846459Y-156438576D01*
X84800025Y-156456674D01*
X84754543Y-156475247D01*
X84709538Y-156494774D01*
X84664889Y-156515491D01*
X84620479Y-156537636D01*
X84575592Y-156561449D01*
X84529515Y-156587166D01*
X84304725Y-156587166D01*
X84014530Y-156587166D01*
X84014530Y-156067101D01*
X84304725Y-156067101D01*
X84440933Y-156094724D01*
X84440933Y-156251886D01*
X84304725Y-156278556D01*
X84304725Y-156400476D01*
X84373210Y-156383674D01*
X84439218Y-156366796D01*
X84502750Y-156349841D01*
X84563805Y-156332811D01*
X84622384Y-156315704D01*
X84693137Y-156294451D01*
X84762044Y-156273556D01*
X84829106Y-156253017D01*
X84894323Y-156232836D01*
X84894323Y-156105201D01*
X84828570Y-156084276D01*
X84760853Y-156063410D01*
X84691172Y-156042604D01*
X84619526Y-156021857D01*
X84560452Y-156005379D01*
X84499435Y-155989091D01*
X84436475Y-155972994D01*
X84371571Y-155957087D01*
X84304725Y-155941371D01*
X84304725Y-156067101D01*
X84014530Y-156067101D01*
X84014530Y-155755634D01*
X84297105Y-155755634D01*
X84300439Y-155817070D01*
X84311393Y-155881364D01*
X84886703Y-155881364D01*
X84898133Y-155806116D01*
X84900990Y-155740394D01*
X84896704Y-155684792D01*
X84883845Y-155634190D01*
X84861818Y-155589780D01*
X84830029Y-155552751D01*
X84788357Y-155523105D01*
X84736684Y-155500840D01*
X84674176Y-155486910D01*
X84600000Y-155482266D01*
X84524157Y-155487386D01*
X84460459Y-155502745D01*
X84408190Y-155527153D01*
X84366638Y-155559419D01*
X84335324Y-155599067D01*
X84313774Y-155645620D01*
X84301272Y-155698127D01*
X84297105Y-155755634D01*
X84014530Y-155755634D01*
X84014530Y-155218424D01*
X84292342Y-155218424D01*
X84300809Y-155279807D01*
X84326209Y-155330607D01*
X84368543Y-155370824D01*
X84411643Y-155393743D01*
X84464745Y-155410114D01*
X84527848Y-155419937D01*
X84600953Y-155423211D01*
X84673223Y-155419877D01*
X84735731Y-155409876D01*
X84788476Y-155393207D01*
X84831458Y-155369871D01*
X84873791Y-155329337D01*
X84899191Y-155278855D01*
X84907658Y-155218424D01*
X84899244Y-155157040D01*
X84874003Y-155106240D01*
X84831934Y-155066024D01*
X84789101Y-155043104D01*
X84736327Y-155026733D01*
X84673610Y-155016910D01*
X84600953Y-155013636D01*
X84527848Y-155016910D01*
X84464745Y-155026733D01*
X84411643Y-155043104D01*
X84368543Y-155066024D01*
X84326209Y-155106240D01*
X84300809Y-155157040D01*
X84292342Y-155218424D01*
X84014530Y-155218424D01*
X84014530Y-155013636D01*
X84014530Y-154815199D01*
X85185470Y-154815199D01*
X85185470Y-155013636D01*
G37*
X144769165Y-183940500D02*
X144984837Y-183940500D01*
X144769165Y-184660500D02*
X144984837Y-184660500D01*
X181505159Y-207299800D02*
X181812441Y-207299800D01*
X181505159Y-208059800D02*
X181812441Y-208059800D01*
X140015001Y-172910336D02*
X140015001Y-172694664D01*
X140735001Y-172910336D02*
X140735001Y-172694664D01*
X104590000Y-172095836D02*
X104590000Y-171880164D01*
X105310000Y-172095836D02*
X105310000Y-171880164D01*
X136984838Y-171662500D02*
X136769166Y-171662500D01*
X136984838Y-170942500D02*
X136769166Y-170942500D01*
X122504142Y-175806000D02*
X122196860Y-175806000D01*
X122504142Y-175046000D02*
X122196860Y-175046000D01*
X147982837Y-179660500D02*
X147767165Y-179660500D01*
X147982837Y-178940500D02*
X147767165Y-178940500D01*
X127983337Y-165661000D02*
X127767665Y-165661000D01*
X127983337Y-164941000D02*
X127767665Y-164941000D01*
X147735001Y-170692664D02*
X147735001Y-170908336D01*
X147015001Y-170692664D02*
X147015001Y-170908336D01*
G36*
X95581526Y-156301404D02*
G01*
X95598671Y-156303785D01*
X95598671Y-156700025D01*
X95588194Y-156700977D01*
X95577716Y-156700977D01*
X95510565Y-156685737D01*
X95466750Y-156643827D01*
X95442938Y-156580486D01*
X95437580Y-156542029D01*
X95435794Y-156500000D01*
X95441509Y-156425705D01*
X95461511Y-156361887D01*
X95500564Y-156317596D01*
X95564381Y-156300927D01*
X95581526Y-156301404D01*
G37*
G36*
X93676526Y-156301404D02*
G01*
X93693671Y-156303785D01*
X93693671Y-156700025D01*
X93683194Y-156700977D01*
X93672716Y-156700977D01*
X93605565Y-156685737D01*
X93561750Y-156643827D01*
X93537938Y-156580486D01*
X93532580Y-156542029D01*
X93530794Y-156500000D01*
X93536509Y-156425705D01*
X93556511Y-156361887D01*
X93595564Y-156317596D01*
X93659381Y-156300927D01*
X93676526Y-156301404D01*
G37*
G36*
X94148966Y-156310452D02*
G01*
X94177065Y-156354744D01*
X94190400Y-156419990D01*
X94192900Y-156458566D01*
X94193734Y-156500000D01*
X94192900Y-156541553D01*
X94190400Y-156580486D01*
X94177065Y-156645732D01*
X94148966Y-156689547D01*
X94100389Y-156705740D01*
X94052288Y-156689547D01*
X94023713Y-156645256D01*
X94010378Y-156580010D01*
X94007877Y-156541434D01*
X94007044Y-156500000D01*
X94007877Y-156458447D01*
X94010378Y-156419514D01*
X94023713Y-156354267D01*
X94051811Y-156310452D01*
X94100389Y-156294260D01*
X94148966Y-156310452D01*
G37*
G36*
X96850574Y-157085470D02*
G01*
X96652136Y-157085470D01*
X96281614Y-157085470D01*
X96183506Y-157085470D01*
X95590099Y-157085470D01*
X94360421Y-157085470D01*
X94099436Y-157085470D01*
X93685099Y-157085470D01*
X93326006Y-157085470D01*
X92947864Y-157085470D01*
X92749426Y-157085470D01*
X92749426Y-156795275D01*
X92947864Y-156795275D01*
X93326006Y-156795275D01*
X93326006Y-156500000D01*
X93411731Y-156500000D01*
X93416851Y-156575843D01*
X93432210Y-156639541D01*
X93456618Y-156691810D01*
X93488884Y-156733362D01*
X93528532Y-156764676D01*
X93575085Y-156786226D01*
X93627592Y-156798728D01*
X93685099Y-156802895D01*
X93746535Y-156799561D01*
X93810829Y-156788607D01*
X93810829Y-156500000D01*
X93887981Y-156500000D01*
X93891434Y-156571527D01*
X93901793Y-156633707D01*
X93919057Y-156686541D01*
X93943226Y-156730029D01*
X93985136Y-156773156D01*
X94037206Y-156799032D01*
X94099436Y-156807658D01*
X94163201Y-156799032D01*
X94170876Y-156795275D01*
X94360421Y-156795275D01*
X94468054Y-156795275D01*
X94462339Y-156337122D01*
X94534729Y-156586677D01*
X94620454Y-156586677D01*
X94689986Y-156337122D01*
X94685224Y-156795275D01*
X94792856Y-156795275D01*
X94789880Y-156721456D01*
X94786665Y-156644780D01*
X94783212Y-156566913D01*
X94780021Y-156500000D01*
X95316731Y-156500000D01*
X95321851Y-156575843D01*
X95337210Y-156639541D01*
X95361618Y-156691810D01*
X95393884Y-156733362D01*
X95433532Y-156764676D01*
X95480085Y-156786226D01*
X95532592Y-156798728D01*
X95590099Y-156802895D01*
X95651535Y-156799561D01*
X95676691Y-156795275D01*
X95805364Y-156795275D01*
X96183506Y-156795275D01*
X96281614Y-156795275D01*
X96652136Y-156795275D01*
X96652136Y-156205677D01*
X96534026Y-156205677D01*
X96534026Y-156698120D01*
X96281614Y-156698120D01*
X96281614Y-156795275D01*
X96183506Y-156795275D01*
X96183506Y-156205677D01*
X95826319Y-156205677D01*
X95826319Y-156302832D01*
X96066349Y-156302832D01*
X96066349Y-156435230D01*
X95857751Y-156435230D01*
X95857751Y-156532385D01*
X96066349Y-156532385D01*
X96066349Y-156698120D01*
X95805364Y-156698120D01*
X95805364Y-156795275D01*
X95676691Y-156795275D01*
X95715829Y-156788607D01*
X95715829Y-156213297D01*
X95640581Y-156201867D01*
X95574859Y-156199010D01*
X95519257Y-156203296D01*
X95468655Y-156216155D01*
X95424245Y-156238182D01*
X95387216Y-156269971D01*
X95357570Y-156311643D01*
X95335305Y-156363316D01*
X95321375Y-156425824D01*
X95316731Y-156500000D01*
X94780021Y-156500000D01*
X94779521Y-156489522D01*
X94775354Y-156413561D01*
X94770473Y-156339980D01*
X94764877Y-156270209D01*
X94758566Y-156205677D01*
X94661411Y-156205677D01*
X94644743Y-156257112D01*
X94623311Y-156324740D01*
X94600451Y-156398082D01*
X94578544Y-156466662D01*
X94554731Y-156393796D01*
X94530919Y-156321406D01*
X94509964Y-156256160D01*
X94492819Y-156205677D01*
X94395664Y-156205677D01*
X94389115Y-156281877D01*
X94382805Y-156356172D01*
X94377090Y-156429158D01*
X94372328Y-156501429D01*
X94368398Y-156573581D01*
X94365184Y-156646209D01*
X94362564Y-156719908D01*
X94360421Y-156795275D01*
X94170876Y-156795275D01*
X94216065Y-156773156D01*
X94258028Y-156730029D01*
X94281989Y-156686541D01*
X94299104Y-156633707D01*
X94309373Y-156571527D01*
X94312796Y-156500000D01*
X94309284Y-156428473D01*
X94298747Y-156366293D01*
X94281185Y-156313459D01*
X94256599Y-156269971D01*
X94214265Y-156226844D01*
X94162195Y-156200968D01*
X94100389Y-156192342D01*
X94036677Y-156200968D01*
X93983972Y-156226844D01*
X93942274Y-156269971D01*
X93918521Y-156313459D01*
X93901554Y-156366293D01*
X93891375Y-156428473D01*
X93887981Y-156500000D01*
X93810829Y-156500000D01*
X93810829Y-156213297D01*
X93735581Y-156201867D01*
X93669859Y-156199010D01*
X93614257Y-156203296D01*
X93563655Y-156216155D01*
X93519245Y-156238182D01*
X93482216Y-156269971D01*
X93452570Y-156311643D01*
X93430305Y-156363316D01*
X93416375Y-156425824D01*
X93411731Y-156500000D01*
X93326006Y-156500000D01*
X93326006Y-156205677D01*
X92968819Y-156205677D01*
X92968819Y-156302832D01*
X93208849Y-156302832D01*
X93208849Y-156435230D01*
X93000251Y-156435230D01*
X93000251Y-156532385D01*
X93208849Y-156532385D01*
X93208849Y-156698120D01*
X92947864Y-156698120D01*
X92947864Y-156795275D01*
X92749426Y-156795275D01*
X92749426Y-155914530D01*
X92947864Y-155914530D01*
X96652136Y-155914530D01*
X96850574Y-155914530D01*
X96850574Y-157085470D01*
G37*
X158654142Y-175656000D02*
X158346860Y-175656000D01*
X158654142Y-174896000D02*
X158346860Y-174896000D01*
X137015001Y-179910336D02*
X137015001Y-179694664D01*
X137735001Y-179910336D02*
X137735001Y-179694664D01*
X202495000Y-165003641D02*
X202495000Y-164696359D01*
X203255000Y-165003641D02*
X203255000Y-164696359D01*
G36*
X140243339Y-170104261D02*
G01*
X140262389Y-170106642D01*
X140262389Y-170283807D01*
X140236671Y-170283807D01*
X140184998Y-170277973D01*
X140149994Y-170260471D01*
X140123324Y-170194273D01*
X140130468Y-170153791D01*
X140151899Y-170125693D01*
X140184998Y-170109262D01*
X140227146Y-170103785D01*
X140243339Y-170104261D01*
G37*
G36*
X139757088Y-170104261D02*
G01*
X139786139Y-170106642D01*
X139786139Y-170297143D01*
X139738514Y-170297143D01*
X139689222Y-170291547D01*
X139653741Y-170274759D01*
X139632310Y-170244398D01*
X139625166Y-170198083D01*
X139632191Y-170154148D01*
X139653265Y-170125216D01*
X139686007Y-170109143D01*
X139728036Y-170103785D01*
X139757088Y-170104261D01*
G37*
G36*
X140974224Y-170796570D02*
G01*
X140894849Y-170796570D01*
X140730066Y-170796570D01*
X139965209Y-170796570D01*
X139786139Y-170796570D01*
X139505151Y-170796570D01*
X139425776Y-170796570D01*
X139425776Y-170199035D01*
X139505151Y-170199035D01*
X139512083Y-170263011D01*
X139532880Y-170313970D01*
X139567540Y-170351911D01*
X139614900Y-170378105D01*
X139673797Y-170393821D01*
X139744229Y-170399060D01*
X139786139Y-170399060D01*
X139786139Y-170598133D01*
X139903296Y-170598133D01*
X139965209Y-170598133D01*
X140088081Y-170598133D01*
X140111775Y-170542054D01*
X140139040Y-170488119D01*
X140169163Y-170434898D01*
X140201429Y-170380962D01*
X140262389Y-170380962D01*
X140262389Y-170598133D01*
X140379546Y-170598133D01*
X140379546Y-170017107D01*
X140341923Y-170009964D01*
X140329492Y-170008535D01*
X140442411Y-170008535D01*
X140455151Y-170069019D01*
X140470510Y-170136170D01*
X140488369Y-170208441D01*
X140508610Y-170284284D01*
X140523374Y-170336354D01*
X140539090Y-170389059D01*
X140555759Y-170442399D01*
X140573115Y-170495474D01*
X140590895Y-170547385D01*
X140609099Y-170598133D01*
X140730066Y-170598133D01*
X140753641Y-170528124D01*
X140778644Y-170449543D01*
X140795471Y-170394350D01*
X140811664Y-170339264D01*
X140827221Y-170284284D01*
X140841932Y-170230362D01*
X140855585Y-170178450D01*
X140868179Y-170128550D01*
X140883895Y-170061875D01*
X140894849Y-170008535D01*
X140771024Y-170008535D01*
X140763880Y-170057946D01*
X140753879Y-170114739D01*
X140741853Y-170176175D01*
X140728638Y-170239516D01*
X140714350Y-170303334D01*
X140699110Y-170366199D01*
X140683513Y-170425373D01*
X140668154Y-170478117D01*
X140652914Y-170426087D01*
X140637674Y-170367151D01*
X140622910Y-170304286D01*
X140609099Y-170240469D01*
X140596240Y-170177008D01*
X140584334Y-170115215D01*
X140573856Y-170058065D01*
X140565284Y-170008535D01*
X140442411Y-170008535D01*
X140329492Y-170008535D01*
X140300489Y-170005201D01*
X140260484Y-170002820D01*
X140227146Y-170001867D01*
X140179045Y-170004725D01*
X140135706Y-170013297D01*
X140097606Y-170027823D01*
X140065221Y-170048540D01*
X140019978Y-170109024D01*
X140008190Y-170148910D01*
X140004261Y-170195225D01*
X140009500Y-170244279D01*
X140025216Y-170288570D01*
X140053077Y-170325479D01*
X140094749Y-170352388D01*
X140060459Y-170407156D01*
X140025216Y-170470021D01*
X139992355Y-170535744D01*
X139965209Y-170598133D01*
X139903296Y-170598133D01*
X139903296Y-170016155D01*
X139864720Y-170009487D01*
X139821381Y-170005201D01*
X139778519Y-170002820D01*
X139741371Y-170001867D01*
X139672050Y-170007000D01*
X139613948Y-170022399D01*
X139567064Y-170048064D01*
X139532668Y-170085370D01*
X139512030Y-170135694D01*
X139505151Y-170199035D01*
X139425776Y-170199035D01*
X139425776Y-169803430D01*
X139505151Y-169803430D01*
X140894849Y-169803430D01*
X140974224Y-169803430D01*
X140974224Y-170796570D01*
G37*
X114785501Y-176585420D02*
X114785501Y-176866580D01*
X113765501Y-176585420D02*
X113765501Y-176866580D01*
X140982837Y-182660500D02*
X140767165Y-182660500D01*
X140982837Y-181940500D02*
X140767165Y-181940500D01*
X147028642Y-173682500D02*
X146721360Y-173682500D01*
X147028642Y-172922500D02*
X146721360Y-172922500D01*
X125130000Y-187696359D02*
X125130000Y-188003641D01*
X124370000Y-187696359D02*
X124370000Y-188003641D01*
G36*
X140352248Y-162459123D02*
G01*
X140416066Y-162479125D01*
X140460357Y-162518178D01*
X140477026Y-162581995D01*
X140476550Y-162599140D01*
X140474169Y-162616285D01*
X140077928Y-162616285D01*
X140076976Y-162605808D01*
X140076976Y-162595330D01*
X140092216Y-162528179D01*
X140134126Y-162484364D01*
X140197467Y-162460551D01*
X140235924Y-162455193D01*
X140277954Y-162453408D01*
X140352248Y-162459123D01*
G37*
G36*
X140777381Y-161249309D02*
G01*
X140777381Y-162851691D01*
X140777381Y-163050129D01*
X139776621Y-163050129D01*
X139776621Y-162851691D01*
X139776621Y-162607713D01*
X139975058Y-162607713D01*
X139978392Y-162669149D01*
X139989346Y-162733443D01*
X140564656Y-162733443D01*
X140576086Y-162658195D01*
X140578944Y-162592473D01*
X140574657Y-162536870D01*
X140561799Y-162486269D01*
X140539772Y-162441858D01*
X140507982Y-162404830D01*
X140466310Y-162375183D01*
X140414637Y-162352919D01*
X140352129Y-162338988D01*
X140277954Y-162334345D01*
X140202111Y-162339465D01*
X140138412Y-162354824D01*
X140086144Y-162379232D01*
X140044591Y-162411498D01*
X140013278Y-162451145D01*
X139991727Y-162497699D01*
X139979226Y-162550205D01*
X139975058Y-162607713D01*
X139776621Y-162607713D01*
X139776621Y-162257193D01*
X139982678Y-162257193D01*
X140079833Y-162257193D01*
X140079833Y-162128605D01*
X140475121Y-162128605D01*
X140475121Y-162257193D01*
X140572276Y-162257193D01*
X140572276Y-161882860D01*
X140475121Y-161882860D01*
X140475121Y-162010495D01*
X140079833Y-162010495D01*
X140079833Y-161882860D01*
X139982678Y-161882860D01*
X139982678Y-162257193D01*
X139776621Y-162257193D01*
X139776621Y-161655213D01*
X139982678Y-161655213D01*
X140052687Y-161678787D01*
X140131268Y-161703790D01*
X140186461Y-161720618D01*
X140241547Y-161736810D01*
X140296527Y-161752368D01*
X140350449Y-161767078D01*
X140402361Y-161780731D01*
X140452261Y-161793325D01*
X140518936Y-161809041D01*
X140572276Y-161819995D01*
X140572276Y-161696170D01*
X140522865Y-161689026D01*
X140466072Y-161679025D01*
X140404636Y-161667000D01*
X140341295Y-161653784D01*
X140277477Y-161639496D01*
X140214612Y-161624256D01*
X140155438Y-161608659D01*
X140102694Y-161593300D01*
X140154724Y-161578060D01*
X140213660Y-161562820D01*
X140276525Y-161548056D01*
X140340342Y-161534245D01*
X140403803Y-161521386D01*
X140465596Y-161509480D01*
X140522746Y-161499003D01*
X140572276Y-161490430D01*
X140572276Y-161367557D01*
X140511792Y-161380297D01*
X140444641Y-161395656D01*
X140372370Y-161413516D01*
X140296527Y-161433756D01*
X140244457Y-161448520D01*
X140191752Y-161464236D01*
X140138412Y-161480905D01*
X140085337Y-161498262D01*
X140033426Y-161516042D01*
X139982678Y-161534245D01*
X139982678Y-161655213D01*
X139776621Y-161655213D01*
X139776621Y-161249309D01*
X139776621Y-161050871D01*
X140777381Y-161050871D01*
X140777381Y-161249309D01*
G37*
X153928642Y-175680000D02*
X153621360Y-175680000D01*
X153928642Y-174920000D02*
X153621360Y-174920000D01*
X144735501Y-182693164D02*
X144735501Y-182908836D01*
X144015501Y-182693164D02*
X144015501Y-182908836D01*
X146015001Y-178908336D02*
X146015001Y-178692664D01*
X146735001Y-178908336D02*
X146735001Y-178692664D01*
X138984837Y-173662500D02*
X138769165Y-173662500D01*
X138984837Y-172942500D02*
X138769165Y-172942500D01*
X123320000Y-188003641D02*
X123320000Y-187696359D01*
X124080000Y-188003641D02*
X124080000Y-187696359D01*
G36*
X85712918Y-149703745D02*
G01*
X85764194Y-149712158D01*
X85804781Y-149726181D01*
X85844429Y-149757257D01*
X85857645Y-149800000D01*
X85844429Y-149842148D01*
X85804781Y-149873342D01*
X85764194Y-149887630D01*
X85712918Y-149896203D01*
X85650953Y-149899060D01*
X85588458Y-149896203D01*
X85536864Y-149887630D01*
X85496171Y-149873342D01*
X85456523Y-149842148D01*
X85443308Y-149800000D01*
X85443602Y-149799047D01*
X85597613Y-149799047D01*
X85616186Y-149838100D01*
X85660478Y-149852388D01*
X85705245Y-149838100D01*
X85724295Y-149799047D01*
X85705245Y-149761424D01*
X85660478Y-149746660D01*
X85616186Y-149761424D01*
X85597613Y-149799047D01*
X85443602Y-149799047D01*
X85456523Y-149757257D01*
X85496171Y-149726181D01*
X85536864Y-149712158D01*
X85588458Y-149703745D01*
X85650953Y-149700940D01*
X85712918Y-149703745D01*
G37*
G36*
X86156095Y-149348679D02*
G01*
X86156095Y-150251321D01*
X86156095Y-150449759D01*
X85143905Y-150449759D01*
X85143905Y-150251321D01*
X85143905Y-149800000D01*
X85342342Y-149800000D01*
X85350809Y-149861383D01*
X85376209Y-149912183D01*
X85418543Y-149952400D01*
X85461643Y-149975320D01*
X85514745Y-149991691D01*
X85577848Y-150001513D01*
X85650953Y-150004788D01*
X85723223Y-150001454D01*
X85785731Y-149991453D01*
X85838476Y-149974784D01*
X85881458Y-149951447D01*
X85923791Y-149910913D01*
X85949191Y-149860431D01*
X85957658Y-149800000D01*
X85949244Y-149738617D01*
X85924003Y-149687817D01*
X85881934Y-149647600D01*
X85839101Y-149624680D01*
X85786327Y-149608309D01*
X85723610Y-149598487D01*
X85650953Y-149595212D01*
X85577848Y-149598487D01*
X85514745Y-149608309D01*
X85461643Y-149624680D01*
X85418543Y-149647600D01*
X85376209Y-149687817D01*
X85350809Y-149738617D01*
X85342342Y-149800000D01*
X85143905Y-149800000D01*
X85143905Y-149348679D01*
X85143905Y-149150241D01*
X86156095Y-149150241D01*
X86156095Y-149348679D01*
G37*
X114646860Y-180869999D02*
X114954142Y-180869999D01*
X114646860Y-181629999D02*
X114954142Y-181629999D01*
X129735501Y-180693164D02*
X129735501Y-180908836D01*
X129015501Y-180693164D02*
X129015501Y-180908836D01*
X128015501Y-171908836D02*
X128015501Y-171693164D01*
X128735501Y-171908836D02*
X128735501Y-171693164D01*
X131735501Y-186693164D02*
X131735501Y-186908836D01*
X131015501Y-186693164D02*
X131015501Y-186908836D01*
X136769165Y-171942500D02*
X136984837Y-171942500D01*
X136769165Y-172662500D02*
X136984837Y-172662500D01*
X131735501Y-176693164D02*
X131735501Y-176908836D01*
X131015501Y-176693164D02*
X131015501Y-176908836D01*
X203310000Y-185242164D02*
X203310000Y-185457836D01*
X202590000Y-185242164D02*
X202590000Y-185457836D01*
X196853641Y-179780000D02*
X196546359Y-179780000D01*
X196853641Y-179020000D02*
X196546359Y-179020000D01*
X142767165Y-175942500D02*
X142982837Y-175942500D01*
X142767165Y-176662500D02*
X142982837Y-176662500D01*
X105600000Y-172087836D02*
X105600000Y-171872164D01*
X106320000Y-172087836D02*
X106320000Y-171872164D01*
X140767665Y-175941000D02*
X140983337Y-175941000D01*
X140767665Y-176661000D02*
X140983337Y-176661000D01*
X146767665Y-163941000D02*
X146983337Y-163941000D01*
X146767665Y-164661000D02*
X146983337Y-164661000D01*
X184668800Y-208021964D02*
X184668800Y-208237636D01*
X183948800Y-208021964D02*
X183948800Y-208237636D01*
X136015501Y-165908836D02*
X136015501Y-165693164D01*
X136735501Y-165908836D02*
X136735501Y-165693164D01*
X149484837Y-186510500D02*
X149269165Y-186510500D01*
X149484837Y-185790500D02*
X149269165Y-185790500D01*
X141742164Y-159240000D02*
X141957836Y-159240000D01*
X141742164Y-159960000D02*
X141957836Y-159960000D01*
X141767665Y-171941000D02*
X141983337Y-171941000D01*
X141767665Y-172661000D02*
X141983337Y-172661000D01*
X144767665Y-171941000D02*
X144983337Y-171941000D01*
X144767665Y-172661000D02*
X144983337Y-172661000D01*
X131735501Y-165693164D02*
X131735501Y-165908836D01*
X131015501Y-165693164D02*
X131015501Y-165908836D01*
X202545000Y-187803641D02*
X202545000Y-187496359D01*
X203305000Y-187803641D02*
X203305000Y-187496359D01*
X80847200Y-130580159D02*
X80847200Y-130887441D01*
X80087200Y-130580159D02*
X80087200Y-130887441D01*
G36*
X84299759Y-154843236D02*
G01*
X84101321Y-154843236D01*
X83454261Y-154843236D01*
X83198679Y-154843236D01*
X83000241Y-154843236D01*
X83000241Y-154644799D01*
X83454261Y-154644799D01*
X83812401Y-154644799D01*
X83812401Y-154547644D01*
X83688576Y-154547644D01*
X83688576Y-154218079D01*
X83749536Y-154251893D01*
X83807639Y-154275229D01*
X83845739Y-154178074D01*
X83796209Y-154156166D01*
X83742869Y-154126639D01*
X83692386Y-154092349D01*
X83651429Y-154055201D01*
X83571419Y-154055201D01*
X83571419Y-154547644D01*
X83454261Y-154547644D01*
X83454261Y-154644799D01*
X83000241Y-154644799D01*
X83000241Y-153856764D01*
X83198679Y-153856764D01*
X84101321Y-153856764D01*
X84299759Y-153856764D01*
X84299759Y-154843236D01*
G37*
X140015501Y-185908836D02*
X140015501Y-185693164D01*
X140735501Y-185908836D02*
X140735501Y-185693164D01*
X135028641Y-186680000D02*
X134721359Y-186680000D01*
X135028641Y-185920000D02*
X134721359Y-185920000D01*
X145015501Y-178908836D02*
X145015501Y-178693164D01*
X145735501Y-178908836D02*
X145735501Y-178693164D01*
X150767665Y-165941000D02*
X150983337Y-165941000D01*
X150767665Y-166661000D02*
X150983337Y-166661000D01*
X137982837Y-176662500D02*
X137767165Y-176662500D01*
X137982837Y-175942500D02*
X137767165Y-175942500D01*
X106816036Y-194645800D02*
X106600364Y-194645800D01*
X106816036Y-193925800D02*
X106600364Y-193925800D01*
X139015001Y-176910336D02*
X139015001Y-176694664D01*
X139735001Y-176910336D02*
X139735001Y-176694664D01*
X196853641Y-162330000D02*
X196546359Y-162330000D01*
X196853641Y-161570000D02*
X196546359Y-161570000D01*
G36*
X98551296Y-166304298D02*
G01*
X98615114Y-166324300D01*
X98659405Y-166363352D01*
X98676074Y-166427170D01*
X98675597Y-166444315D01*
X98673216Y-166461460D01*
X98276976Y-166461460D01*
X98276024Y-166450982D01*
X98276024Y-166440505D01*
X98291264Y-166373354D01*
X98333174Y-166329539D01*
X98396515Y-166305726D01*
X98434972Y-166300368D01*
X98477001Y-166298582D01*
X98551296Y-166304298D01*
G37*
G36*
X98518554Y-166775666D02*
G01*
X98557487Y-166778166D01*
X98622734Y-166791501D01*
X98666549Y-166819600D01*
X98682741Y-166868177D01*
X98666549Y-166916755D01*
X98622257Y-166944854D01*
X98557011Y-166958189D01*
X98518435Y-166960689D01*
X98477001Y-166961523D01*
X98435448Y-166960689D01*
X98396515Y-166958189D01*
X98331269Y-166944854D01*
X98287454Y-166916755D01*
X98271261Y-166868177D01*
X98287454Y-166820076D01*
X98331745Y-166791501D01*
X98396991Y-166778166D01*
X98435567Y-166775666D01*
X98477001Y-166774832D01*
X98518554Y-166775666D01*
G37*
G36*
X99062471Y-165099494D02*
G01*
X99062471Y-167701506D01*
X99062471Y-167899943D01*
X97891531Y-167899943D01*
X97891531Y-167701506D01*
X97891531Y-167128210D01*
X98181726Y-167128210D01*
X98181726Y-167235843D01*
X98639879Y-167230127D01*
X98390324Y-167302517D01*
X98390324Y-167388243D01*
X98639879Y-167457775D01*
X98181726Y-167453013D01*
X98181726Y-167560645D01*
X98255545Y-167557668D01*
X98332221Y-167554454D01*
X98410088Y-167551001D01*
X98487479Y-167547310D01*
X98563440Y-167543143D01*
X98637021Y-167538261D01*
X98706792Y-167532665D01*
X98771324Y-167526355D01*
X98771324Y-167429200D01*
X98719889Y-167412531D01*
X98652261Y-167391100D01*
X98578919Y-167368240D01*
X98510339Y-167346333D01*
X98583205Y-167322520D01*
X98655595Y-167298707D01*
X98720841Y-167277753D01*
X98771324Y-167260607D01*
X98771324Y-167163452D01*
X98695124Y-167156904D01*
X98620829Y-167150594D01*
X98547843Y-167144879D01*
X98475572Y-167140116D01*
X98403420Y-167136187D01*
X98330792Y-167132973D01*
X98257093Y-167130353D01*
X98181726Y-167128210D01*
X97891531Y-167128210D01*
X97891531Y-166867225D01*
X98169343Y-166867225D01*
X98177969Y-166930990D01*
X98203845Y-166983853D01*
X98246972Y-167025816D01*
X98290460Y-167049778D01*
X98343294Y-167066893D01*
X98405474Y-167077162D01*
X98477001Y-167080585D01*
X98548528Y-167077073D01*
X98610708Y-167066536D01*
X98663542Y-167048974D01*
X98707030Y-167024387D01*
X98750157Y-166982054D01*
X98776033Y-166929984D01*
X98784659Y-166868177D01*
X98776033Y-166804466D01*
X98750157Y-166751761D01*
X98707030Y-166710062D01*
X98663542Y-166686310D01*
X98610708Y-166669343D01*
X98548528Y-166659163D01*
X98477001Y-166655770D01*
X98405474Y-166659223D01*
X98343294Y-166669581D01*
X98290460Y-166686845D01*
X98246972Y-166711015D01*
X98203845Y-166752925D01*
X98177969Y-166804995D01*
X98169343Y-166867225D01*
X97891531Y-166867225D01*
X97891531Y-166452888D01*
X98174106Y-166452888D01*
X98177440Y-166514324D01*
X98188394Y-166578617D01*
X98763704Y-166578617D01*
X98775134Y-166503370D01*
X98777991Y-166437648D01*
X98773705Y-166382045D01*
X98760846Y-166331444D01*
X98738819Y-166287033D01*
X98707030Y-166250005D01*
X98665358Y-166220358D01*
X98613685Y-166198094D01*
X98551177Y-166184163D01*
X98477001Y-166179520D01*
X98401158Y-166184640D01*
X98337460Y-166199999D01*
X98285191Y-166224407D01*
X98243639Y-166256672D01*
X98212325Y-166296320D01*
X98190775Y-166342874D01*
X98178273Y-166395380D01*
X98174106Y-166452888D01*
X97891531Y-166452888D01*
X97891531Y-166093795D01*
X98181726Y-166093795D01*
X98771324Y-166093795D01*
X98771324Y-165736607D01*
X98674169Y-165736607D01*
X98674169Y-165976637D01*
X98541771Y-165976637D01*
X98541771Y-165768040D01*
X98444616Y-165768040D01*
X98444616Y-165976637D01*
X98278881Y-165976637D01*
X98278881Y-165715652D01*
X98181726Y-165715652D01*
X98181726Y-166093795D01*
X97891531Y-166093795D01*
X97891531Y-165240355D01*
X98181726Y-165240355D01*
X98181726Y-165598495D01*
X98278881Y-165598495D01*
X98278881Y-165474670D01*
X98608446Y-165474670D01*
X98574632Y-165535630D01*
X98551296Y-165593732D01*
X98648451Y-165631832D01*
X98670359Y-165582302D01*
X98699886Y-165528962D01*
X98734176Y-165478480D01*
X98771324Y-165437522D01*
X98771324Y-165357512D01*
X98278881Y-165357512D01*
X98278881Y-165240355D01*
X98181726Y-165240355D01*
X97891531Y-165240355D01*
X97891531Y-165099494D01*
X97891531Y-164901057D01*
X99062471Y-164901057D01*
X99062471Y-165099494D01*
G37*
X181505159Y-208299800D02*
X181812441Y-208299800D01*
X181505159Y-209059800D02*
X181812441Y-209059800D01*
X143275200Y-200642440D02*
X143275200Y-200335158D01*
X144035200Y-200642440D02*
X144035200Y-200335158D01*
G36*
X99601296Y-166307155D02*
G01*
X99665114Y-166327158D01*
X99709405Y-166366210D01*
X99726074Y-166430027D01*
X99725597Y-166447173D01*
X99723216Y-166464318D01*
X99326976Y-166464318D01*
X99326024Y-166453840D01*
X99326024Y-166443363D01*
X99341264Y-166376211D01*
X99383174Y-166332396D01*
X99446515Y-166308584D01*
X99484972Y-166303226D01*
X99527001Y-166301440D01*
X99601296Y-166307155D01*
G37*
G36*
X99568554Y-166778523D02*
G01*
X99607487Y-166781024D01*
X99672734Y-166794359D01*
X99716549Y-166822458D01*
X99732741Y-166871035D01*
X99716549Y-166919613D01*
X99672257Y-166947711D01*
X99607011Y-166961046D01*
X99568435Y-166963547D01*
X99527001Y-166964380D01*
X99485448Y-166963547D01*
X99446515Y-166961046D01*
X99381269Y-166947711D01*
X99337454Y-166919613D01*
X99321261Y-166871035D01*
X99337454Y-166822934D01*
X99381745Y-166794359D01*
X99446991Y-166781024D01*
X99485567Y-166778523D01*
X99527001Y-166777690D01*
X99568554Y-166778523D01*
G37*
G36*
X99589919Y-165346030D02*
G01*
X99641195Y-165354443D01*
X99681782Y-165368466D01*
X99721430Y-165399542D01*
X99734646Y-165442285D01*
X99721430Y-165484433D01*
X99681782Y-165515627D01*
X99641195Y-165529915D01*
X99589919Y-165538487D01*
X99527954Y-165541345D01*
X99465459Y-165538487D01*
X99413865Y-165529915D01*
X99373172Y-165515627D01*
X99333524Y-165484433D01*
X99320309Y-165442285D01*
X99320603Y-165441332D01*
X99474614Y-165441332D01*
X99493187Y-165480385D01*
X99537479Y-165494673D01*
X99582246Y-165480385D01*
X99601296Y-165441332D01*
X99582246Y-165403709D01*
X99537479Y-165388945D01*
X99493187Y-165403709D01*
X99474614Y-165441332D01*
X99320603Y-165441332D01*
X99333524Y-165399542D01*
X99373172Y-165368466D01*
X99413865Y-165354443D01*
X99465459Y-165346030D01*
X99527954Y-165343225D01*
X99589919Y-165346030D01*
G37*
G36*
X100112471Y-165099494D02*
G01*
X100112471Y-167701506D01*
X100112471Y-167899943D01*
X98941531Y-167899943D01*
X98941531Y-167701506D01*
X98941531Y-167131068D01*
X99231726Y-167131068D01*
X99231726Y-167238700D01*
X99689879Y-167232985D01*
X99440324Y-167305375D01*
X99440324Y-167391100D01*
X99689879Y-167460633D01*
X99231726Y-167455870D01*
X99231726Y-167563503D01*
X99305545Y-167560526D01*
X99382221Y-167557311D01*
X99460088Y-167553858D01*
X99537479Y-167550168D01*
X99613440Y-167546000D01*
X99687021Y-167541119D01*
X99756792Y-167535523D01*
X99821324Y-167529213D01*
X99821324Y-167432058D01*
X99769889Y-167415389D01*
X99702261Y-167393958D01*
X99628919Y-167371098D01*
X99560339Y-167349190D01*
X99633205Y-167325378D01*
X99705595Y-167301565D01*
X99770841Y-167280610D01*
X99821324Y-167263465D01*
X99821324Y-167166310D01*
X99745124Y-167159762D01*
X99670829Y-167153451D01*
X99597843Y-167147736D01*
X99525572Y-167142974D01*
X99453420Y-167139045D01*
X99380792Y-167135830D01*
X99307093Y-167133211D01*
X99231726Y-167131068D01*
X98941531Y-167131068D01*
X98941531Y-166870083D01*
X99219343Y-166870083D01*
X99227969Y-166933847D01*
X99253845Y-166986711D01*
X99296972Y-167028674D01*
X99340460Y-167052635D01*
X99393294Y-167069750D01*
X99455474Y-167080019D01*
X99527001Y-167083443D01*
X99598528Y-167079930D01*
X99660708Y-167069393D01*
X99713542Y-167051831D01*
X99757030Y-167027245D01*
X99800157Y-166984912D01*
X99826033Y-166932842D01*
X99834659Y-166871035D01*
X99826033Y-166807323D01*
X99800157Y-166754618D01*
X99757030Y-166712920D01*
X99713542Y-166689167D01*
X99660708Y-166672201D01*
X99598528Y-166662021D01*
X99527001Y-166658628D01*
X99455474Y-166662080D01*
X99393294Y-166672439D01*
X99340460Y-166689703D01*
X99296972Y-166713873D01*
X99253845Y-166755783D01*
X99227969Y-166807853D01*
X99219343Y-166870083D01*
X98941531Y-166870083D01*
X98941531Y-166455745D01*
X99224106Y-166455745D01*
X99227440Y-166517181D01*
X99238394Y-166581475D01*
X99813704Y-166581475D01*
X99825134Y-166506228D01*
X99827991Y-166440505D01*
X99823705Y-166384903D01*
X99810846Y-166334301D01*
X99788819Y-166289891D01*
X99757030Y-166252863D01*
X99715358Y-166223216D01*
X99663685Y-166200951D01*
X99601177Y-166187021D01*
X99527001Y-166182377D01*
X99451158Y-166187497D01*
X99387460Y-166202856D01*
X99335191Y-166227264D01*
X99293639Y-166259530D01*
X99262325Y-166299178D01*
X99240775Y-166345731D01*
X99228273Y-166398238D01*
X99224106Y-166455745D01*
X98941531Y-166455745D01*
X98941531Y-166096653D01*
X99231726Y-166096653D01*
X99821324Y-166096653D01*
X99821324Y-165739465D01*
X99724169Y-165739465D01*
X99724169Y-165979495D01*
X99591771Y-165979495D01*
X99591771Y-165770898D01*
X99494616Y-165770898D01*
X99494616Y-165979495D01*
X99328881Y-165979495D01*
X99328881Y-165718510D01*
X99231726Y-165718510D01*
X99231726Y-166096653D01*
X98941531Y-166096653D01*
X98941531Y-165442285D01*
X99219343Y-165442285D01*
X99227810Y-165503668D01*
X99253210Y-165554468D01*
X99295544Y-165594685D01*
X99338644Y-165617605D01*
X99391746Y-165633976D01*
X99454849Y-165643798D01*
X99527954Y-165647072D01*
X99600224Y-165643739D01*
X99662732Y-165633737D01*
X99715477Y-165617069D01*
X99758459Y-165593733D01*
X99800792Y-165553198D01*
X99826192Y-165502716D01*
X99834659Y-165442285D01*
X99826245Y-165380902D01*
X99801004Y-165330102D01*
X99758935Y-165289885D01*
X99716102Y-165266965D01*
X99663328Y-165250594D01*
X99600611Y-165240772D01*
X99527954Y-165237498D01*
X99454849Y-165240772D01*
X99391746Y-165250594D01*
X99338644Y-165266965D01*
X99295544Y-165289885D01*
X99253210Y-165330102D01*
X99227810Y-165380902D01*
X99219343Y-165442285D01*
X98941531Y-165442285D01*
X98941531Y-165099494D01*
X98941531Y-164901057D01*
X100112471Y-164901057D01*
X100112471Y-165099494D01*
G37*
X127735501Y-184693164D02*
X127735501Y-184908836D01*
X127015501Y-184693164D02*
X127015501Y-184908836D01*
X102980000Y-176311836D02*
X102980000Y-176096164D01*
X103700000Y-176311836D02*
X103700000Y-176096164D01*
X142735501Y-186693164D02*
X142735501Y-186908836D01*
X142015501Y-186693164D02*
X142015501Y-186908836D01*
X151982837Y-177660500D02*
X151767165Y-177660500D01*
X151982837Y-176940500D02*
X151767165Y-176940500D01*
X139387001Y-169261920D02*
X139387001Y-169543080D01*
X138367001Y-169261920D02*
X138367001Y-169543080D01*
X143767665Y-164941000D02*
X143983337Y-164941000D01*
X143767665Y-165661000D02*
X143983337Y-165661000D01*
X122996359Y-181620000D02*
X123303641Y-181620000D01*
X122996359Y-182380000D02*
X123303641Y-182380000D01*
X141742164Y-160340000D02*
X141957836Y-160340000D01*
X141742164Y-161060000D02*
X141957836Y-161060000D01*
X131959921Y-174266000D02*
X132241081Y-174266000D01*
X131959921Y-175286000D02*
X132241081Y-175286000D01*
X134015501Y-169908836D02*
X134015501Y-169693164D01*
X134735501Y-169908836D02*
X134735501Y-169693164D01*
X180953641Y-198780000D02*
X180646359Y-198780000D01*
X180953641Y-198020000D02*
X180646359Y-198020000D01*
X126934921Y-174291000D02*
X127216081Y-174291000D01*
X126934921Y-175311000D02*
X127216081Y-175311000D01*
X114954143Y-182980000D02*
X114646861Y-182980000D01*
X114954143Y-182220000D02*
X114646861Y-182220000D01*
X105600000Y-176311836D02*
X105600000Y-176096164D01*
X106320000Y-176311836D02*
X106320000Y-176096164D01*
X70020064Y-143164800D02*
X70235736Y-143164800D01*
X70020064Y-143884800D02*
X70235736Y-143884800D01*
X115940501Y-176818164D02*
X115940501Y-177033836D01*
X115220501Y-176818164D02*
X115220501Y-177033836D01*
X149767165Y-175940000D02*
X149982837Y-175940000D01*
X149767165Y-176660000D02*
X149982837Y-176660000D01*
D11*
X147675501Y-175101000D02*
X147075501Y-175101000D01*
X147675501Y-174501000D02*
X147075501Y-174501000D01*
D10*
X133015501Y-166908836D02*
X133015501Y-166693164D01*
X133735501Y-166908836D02*
X133735501Y-166693164D01*
X151735501Y-162693164D02*
X151735501Y-162908836D01*
X151015501Y-162693164D02*
X151015501Y-162908836D01*
X101992164Y-159190000D02*
X102207836Y-159190000D01*
X101992164Y-159910000D02*
X102207836Y-159910000D01*
X159546860Y-179296000D02*
X159854142Y-179296000D01*
X159546860Y-180056000D02*
X159854142Y-180056000D01*
X141767165Y-178942500D02*
X141982837Y-178942500D01*
X141767165Y-179662500D02*
X141982837Y-179662500D01*
X137015501Y-168908836D02*
X137015501Y-168693164D01*
X137735501Y-168908836D02*
X137735501Y-168693164D01*
X146015001Y-181910336D02*
X146015001Y-181694664D01*
X146735001Y-181910336D02*
X146735001Y-181694664D01*
X180953641Y-191380000D02*
X180646359Y-191380000D01*
X180953641Y-190620000D02*
X180646359Y-190620000D01*
X135565001Y-160343080D02*
X135565001Y-160061920D01*
X136585001Y-160343080D02*
X136585001Y-160061920D01*
X122996359Y-182719999D02*
X123303641Y-182719999D01*
X122996359Y-183479999D02*
X123303641Y-183479999D01*
X180953641Y-192380000D02*
X180646359Y-192380000D01*
X180953641Y-191620000D02*
X180646359Y-191620000D01*
X203260000Y-167792164D02*
X203260000Y-168007836D01*
X202540000Y-167792164D02*
X202540000Y-168007836D01*
X180953641Y-199780000D02*
X180646359Y-199780000D01*
X180953641Y-199020000D02*
X180646359Y-199020000D01*
G36*
X102839919Y-163704245D02*
G01*
X102891195Y-163712658D01*
X102931782Y-163726681D01*
X102971430Y-163757757D01*
X102984646Y-163800500D01*
X102971430Y-163842648D01*
X102931782Y-163873842D01*
X102891195Y-163888130D01*
X102839919Y-163896703D01*
X102777953Y-163899560D01*
X102715459Y-163896703D01*
X102663865Y-163888130D01*
X102623172Y-163873842D01*
X102583524Y-163842648D01*
X102570308Y-163800500D01*
X102570603Y-163799547D01*
X102724613Y-163799547D01*
X102743187Y-163838600D01*
X102787478Y-163852888D01*
X102832246Y-163838600D01*
X102851296Y-163799547D01*
X102832246Y-163761924D01*
X102787478Y-163747160D01*
X102743187Y-163761924D01*
X102724613Y-163799547D01*
X102570603Y-163799547D01*
X102583524Y-163757757D01*
X102623172Y-163726681D01*
X102663865Y-163712658D01*
X102715459Y-163704245D01*
X102777953Y-163701440D01*
X102839919Y-163704245D01*
G37*
G36*
X103402158Y-163097783D02*
G01*
X103402158Y-164503217D01*
X103402158Y-164900092D01*
X102151843Y-164900092D01*
X102151843Y-164503217D01*
X102151843Y-163800500D01*
X102469343Y-163800500D01*
X102477810Y-163861883D01*
X102503210Y-163912683D01*
X102545543Y-163952900D01*
X102588644Y-163975820D01*
X102641746Y-163992191D01*
X102704849Y-164002013D01*
X102777953Y-164005288D01*
X102850224Y-164001954D01*
X102912732Y-163991953D01*
X102965477Y-163975284D01*
X103008458Y-163951947D01*
X103050792Y-163911413D01*
X103076192Y-163860931D01*
X103084658Y-163800500D01*
X103076245Y-163739117D01*
X103051003Y-163688317D01*
X103008935Y-163648100D01*
X102966102Y-163625180D01*
X102913328Y-163608809D01*
X102850611Y-163598987D01*
X102777953Y-163595712D01*
X102704849Y-163598987D01*
X102641746Y-163608809D01*
X102588644Y-163625180D01*
X102545543Y-163648100D01*
X102503210Y-163688317D01*
X102477810Y-163739117D01*
X102469343Y-163800500D01*
X102151843Y-163800500D01*
X102151843Y-163097783D01*
X102151843Y-162700908D01*
X103402158Y-162700908D01*
X103402158Y-163097783D01*
G37*
X142015501Y-177908836D02*
X142015501Y-177693164D01*
X142735501Y-177908836D02*
X142735501Y-177693164D01*
X77139097Y-165869651D02*
X77139097Y-166085323D01*
X76419097Y-165869651D02*
X76419097Y-166085323D01*
X141983337Y-173661000D02*
X141767665Y-173661000D01*
X141983337Y-172941000D02*
X141767665Y-172941000D01*
X144735001Y-177694664D02*
X144735001Y-177910336D01*
X144015001Y-177694664D02*
X144015001Y-177910336D01*
X144916081Y-175311000D02*
X144634921Y-175311000D01*
X144916081Y-174291000D02*
X144634921Y-174291000D01*
X126983337Y-162661000D02*
X126767665Y-162661000D01*
X126983337Y-161941000D02*
X126767665Y-161941000D01*
X147984837Y-178662500D02*
X147769165Y-178662500D01*
X147984837Y-177942500D02*
X147769165Y-177942500D01*
X141767665Y-168941000D02*
X141983337Y-168941000D01*
X141767665Y-169661000D02*
X141983337Y-169661000D01*
X180953641Y-193380000D02*
X180646359Y-193380000D01*
X180953641Y-192620000D02*
X180646359Y-192620000D01*
X196546359Y-188795000D02*
X196853641Y-188795000D01*
X196546359Y-189555000D02*
X196853641Y-189555000D01*
X137930642Y-161180500D02*
X137623360Y-161180500D01*
X137930642Y-160420500D02*
X137623360Y-160420500D01*
G36*
X96843236Y-154148809D02*
G01*
X96843236Y-155751191D01*
X96843236Y-155949629D01*
X95856764Y-155949629D01*
X95856764Y-155751191D01*
X95856764Y-154754261D01*
X96055201Y-154754261D01*
X96055201Y-155112401D01*
X96152356Y-155112401D01*
X96152356Y-154988576D01*
X96481921Y-154988576D01*
X96448107Y-155049536D01*
X96424771Y-155107639D01*
X96521926Y-155145739D01*
X96543834Y-155096209D01*
X96573361Y-155042869D01*
X96607651Y-154992386D01*
X96644799Y-154951429D01*
X96644799Y-154871419D01*
X96152356Y-154871419D01*
X96152356Y-154754261D01*
X96055201Y-154754261D01*
X95856764Y-154754261D01*
X95856764Y-154148809D01*
X95856764Y-153950371D01*
X96843236Y-153950371D01*
X96843236Y-154148809D01*
G37*
X122504142Y-176856000D02*
X122196860Y-176856000D01*
X122504142Y-176096000D02*
X122196860Y-176096000D01*
X180953641Y-200780000D02*
X180646359Y-200780000D01*
X180953641Y-200020000D02*
X180646359Y-200020000D01*
G36*
X144496209Y-170721895D02*
G01*
X144524307Y-170743326D01*
X144540738Y-170776426D01*
X144546215Y-170818574D01*
X144545739Y-170834766D01*
X144543358Y-170853816D01*
X144366193Y-170853816D01*
X144366193Y-170828099D01*
X144372027Y-170776426D01*
X144389529Y-170741421D01*
X144455727Y-170714751D01*
X144496209Y-170721895D01*
G37*
G36*
X144846570Y-169998809D02*
G01*
X144846570Y-171601191D01*
X144846570Y-171799629D01*
X143853430Y-171799629D01*
X143853430Y-171601191D01*
X143853430Y-171321494D01*
X144051867Y-171321494D01*
X144121876Y-171345068D01*
X144200457Y-171370071D01*
X144255650Y-171386899D01*
X144310736Y-171403091D01*
X144365716Y-171418649D01*
X144419638Y-171433360D01*
X144471550Y-171447012D01*
X144521450Y-171459606D01*
X144588125Y-171475322D01*
X144641465Y-171486276D01*
X144641465Y-171362451D01*
X144592054Y-171355308D01*
X144535261Y-171345306D01*
X144473825Y-171333281D01*
X144410484Y-171320065D01*
X144346666Y-171305778D01*
X144283801Y-171290537D01*
X144224627Y-171274940D01*
X144171883Y-171259581D01*
X144223913Y-171244341D01*
X144282849Y-171229101D01*
X144345714Y-171214337D01*
X144409531Y-171200526D01*
X144472992Y-171187667D01*
X144534785Y-171175761D01*
X144591935Y-171165284D01*
X144641465Y-171156711D01*
X144641465Y-171033839D01*
X144580981Y-171046578D01*
X144513830Y-171061938D01*
X144441559Y-171079797D01*
X144365716Y-171100037D01*
X144313646Y-171114801D01*
X144260941Y-171130517D01*
X144207601Y-171147186D01*
X144154526Y-171164543D01*
X144102615Y-171182323D01*
X144051867Y-171200526D01*
X144051867Y-171321494D01*
X143853430Y-171321494D01*
X143853430Y-170556636D01*
X144051867Y-170556636D01*
X144051867Y-170679509D01*
X144107946Y-170703202D01*
X144161881Y-170730467D01*
X144215102Y-170760590D01*
X144269038Y-170792856D01*
X144269038Y-170853816D01*
X144051867Y-170853816D01*
X144051867Y-170970974D01*
X144632893Y-170970974D01*
X144640036Y-170933350D01*
X144644799Y-170891916D01*
X144647180Y-170851911D01*
X144648133Y-170818574D01*
X144645275Y-170770473D01*
X144636703Y-170727134D01*
X144622177Y-170689034D01*
X144601460Y-170656649D01*
X144540976Y-170611405D01*
X144501090Y-170599618D01*
X144454775Y-170595689D01*
X144405721Y-170600927D01*
X144361430Y-170616644D01*
X144324521Y-170644504D01*
X144297612Y-170686176D01*
X144242844Y-170651886D01*
X144179979Y-170616644D01*
X144114256Y-170583782D01*
X144051867Y-170556636D01*
X143853430Y-170556636D01*
X143853430Y-170208021D01*
X144051867Y-170208021D01*
X144117220Y-170235485D01*
X144182466Y-170264536D01*
X144247606Y-170295175D01*
X144312747Y-170327401D01*
X144377993Y-170361215D01*
X144443345Y-170396616D01*
X144051867Y-170396616D01*
X144051867Y-170502344D01*
X144641465Y-170502344D01*
X144641465Y-170408046D01*
X144597769Y-170381376D01*
X144550501Y-170354706D01*
X144501567Y-170328393D01*
X144452870Y-170302795D01*
X144405007Y-170278506D01*
X144358573Y-170256122D01*
X144315710Y-170236239D01*
X144278562Y-170219451D01*
X144641465Y-170219451D01*
X144641465Y-170113724D01*
X144051867Y-170113724D01*
X144051867Y-170208021D01*
X143853430Y-170208021D01*
X143853430Y-169998809D01*
X143853430Y-169800371D01*
X144846570Y-169800371D01*
X144846570Y-169998809D01*
G37*
D11*
X135700501Y-174001000D02*
X136300501Y-174001000D01*
X135700501Y-175601000D02*
X136300501Y-175601000D01*
D10*
X140682001Y-158971359D02*
X140682001Y-159278641D01*
X139922001Y-158971359D02*
X139922001Y-159278641D01*
X82369097Y-168385323D02*
X82369097Y-168169651D01*
X83089097Y-168385323D02*
X83089097Y-168169651D01*
G36*
X103389300Y-160849309D02*
G01*
X103389300Y-162451691D01*
X103389300Y-162650129D01*
X102164702Y-162650129D01*
X102164702Y-162451691D01*
X102164702Y-161454761D01*
X102482202Y-161454761D01*
X102482202Y-161812901D01*
X102579357Y-161812901D01*
X102579357Y-161689076D01*
X102908922Y-161689076D01*
X102875108Y-161750036D01*
X102851772Y-161808139D01*
X102948927Y-161846239D01*
X102970835Y-161796709D01*
X103000362Y-161743369D01*
X103034652Y-161692886D01*
X103071800Y-161651929D01*
X103071800Y-161571919D01*
X102579357Y-161571919D01*
X102579357Y-161454761D01*
X102482202Y-161454761D01*
X102164702Y-161454761D01*
X102164702Y-160849309D01*
X102164702Y-160650871D01*
X103389300Y-160650871D01*
X103389300Y-160849309D01*
G37*
G36*
X97501296Y-166305726D02*
G01*
X97565114Y-166325729D01*
X97609405Y-166364781D01*
X97626074Y-166428599D01*
X97625597Y-166445744D01*
X97623216Y-166462889D01*
X97226976Y-166462889D01*
X97226024Y-166452411D01*
X97226024Y-166441934D01*
X97241264Y-166374783D01*
X97283174Y-166330968D01*
X97346515Y-166307155D01*
X97384972Y-166301797D01*
X97427001Y-166300011D01*
X97501296Y-166305726D01*
G37*
G36*
X97468554Y-166777095D02*
G01*
X97507487Y-166779595D01*
X97572734Y-166792930D01*
X97616549Y-166821029D01*
X97632741Y-166869606D01*
X97616549Y-166918184D01*
X97572257Y-166946283D01*
X97507011Y-166959618D01*
X97468435Y-166962118D01*
X97427001Y-166962951D01*
X97385448Y-166962118D01*
X97346515Y-166959618D01*
X97281269Y-166946283D01*
X97237454Y-166918184D01*
X97221261Y-166869606D01*
X97237454Y-166821505D01*
X97281745Y-166792930D01*
X97346991Y-166779595D01*
X97385567Y-166777095D01*
X97427001Y-166776261D01*
X97468554Y-166777095D01*
G37*
G36*
X98012471Y-165099494D02*
G01*
X98012471Y-167701506D01*
X98012471Y-167899943D01*
X96841531Y-167899943D01*
X96841531Y-167701506D01*
X96841531Y-167129639D01*
X97131726Y-167129639D01*
X97131726Y-167237271D01*
X97589879Y-167231556D01*
X97340324Y-167303946D01*
X97340324Y-167389671D01*
X97589879Y-167459204D01*
X97131726Y-167454441D01*
X97131726Y-167562074D01*
X97205545Y-167559097D01*
X97282221Y-167555883D01*
X97360088Y-167552430D01*
X97437479Y-167548739D01*
X97513440Y-167544572D01*
X97587021Y-167539690D01*
X97656792Y-167534094D01*
X97721324Y-167527784D01*
X97721324Y-167430629D01*
X97669889Y-167413960D01*
X97602261Y-167392529D01*
X97528919Y-167369669D01*
X97460339Y-167347761D01*
X97533205Y-167323949D01*
X97605595Y-167300136D01*
X97670841Y-167279181D01*
X97721324Y-167262036D01*
X97721324Y-167164881D01*
X97645124Y-167158333D01*
X97570829Y-167152023D01*
X97497843Y-167146308D01*
X97425572Y-167141545D01*
X97353420Y-167137616D01*
X97280792Y-167134401D01*
X97207093Y-167131782D01*
X97131726Y-167129639D01*
X96841531Y-167129639D01*
X96841531Y-166868654D01*
X97119343Y-166868654D01*
X97127969Y-166932418D01*
X97153845Y-166985282D01*
X97196972Y-167027245D01*
X97240460Y-167051206D01*
X97293294Y-167068322D01*
X97355474Y-167078591D01*
X97427001Y-167082014D01*
X97498528Y-167078501D01*
X97560708Y-167067964D01*
X97613542Y-167050403D01*
X97657030Y-167025816D01*
X97700157Y-166983483D01*
X97726033Y-166931413D01*
X97734659Y-166869606D01*
X97726033Y-166805895D01*
X97700157Y-166753190D01*
X97657030Y-166711491D01*
X97613542Y-166687738D01*
X97560708Y-166670772D01*
X97498528Y-166660592D01*
X97427001Y-166657199D01*
X97355474Y-166660652D01*
X97293294Y-166671010D01*
X97240460Y-166688274D01*
X97196972Y-166712444D01*
X97153845Y-166754354D01*
X97127969Y-166806424D01*
X97119343Y-166868654D01*
X96841531Y-166868654D01*
X96841531Y-166454316D01*
X97124106Y-166454316D01*
X97127440Y-166515753D01*
X97138394Y-166580046D01*
X97713704Y-166580046D01*
X97725134Y-166504799D01*
X97727991Y-166439076D01*
X97723705Y-166383474D01*
X97710846Y-166332872D01*
X97688819Y-166288462D01*
X97657030Y-166251434D01*
X97615358Y-166221787D01*
X97563685Y-166199522D01*
X97501177Y-166185592D01*
X97427001Y-166180949D01*
X97351158Y-166186068D01*
X97287460Y-166201428D01*
X97235191Y-166225835D01*
X97193639Y-166258101D01*
X97162325Y-166297749D01*
X97140775Y-166344302D01*
X97128273Y-166396809D01*
X97124106Y-166454316D01*
X96841531Y-166454316D01*
X96841531Y-166095224D01*
X97131726Y-166095224D01*
X97721324Y-166095224D01*
X97721324Y-165738036D01*
X97624169Y-165738036D01*
X97624169Y-165978066D01*
X97491771Y-165978066D01*
X97491771Y-165769469D01*
X97394616Y-165769469D01*
X97394616Y-165978066D01*
X97228881Y-165978066D01*
X97228881Y-165717081D01*
X97131726Y-165717081D01*
X97131726Y-166095224D01*
X96841531Y-166095224D01*
X96841531Y-165238926D01*
X97131726Y-165238926D01*
X97131726Y-165623736D01*
X97155539Y-165626117D01*
X97175541Y-165625641D01*
X97221261Y-165621236D01*
X97263171Y-165608020D01*
X97301628Y-165588017D01*
X97336990Y-165563253D01*
X97369613Y-165535154D01*
X97399855Y-165505150D01*
X97428311Y-165475146D01*
X97455576Y-165447047D01*
X97507011Y-165402280D01*
X97557494Y-165384659D01*
X97613215Y-165406566D01*
X97632741Y-165461811D01*
X97619406Y-165519914D01*
X97574639Y-165579921D01*
X97656554Y-165638024D01*
X97691320Y-165596947D01*
X97715609Y-165549917D01*
X97729896Y-165500030D01*
X97734659Y-165450381D01*
X97724181Y-165380849D01*
X97692749Y-165321794D01*
X97639885Y-165280836D01*
X97566066Y-165265596D01*
X97507487Y-165277026D01*
X97452719Y-165307506D01*
X97401284Y-165350369D01*
X97353659Y-165398946D01*
X97326512Y-165427521D01*
X97294127Y-165458001D01*
X97260314Y-165482290D01*
X97228881Y-165492291D01*
X97228881Y-165238926D01*
X97131726Y-165238926D01*
X96841531Y-165238926D01*
X96841531Y-165099494D01*
X96841531Y-164901057D01*
X98012471Y-164901057D01*
X98012471Y-165099494D01*
G37*
X142983337Y-167661000D02*
X142767665Y-167661000D01*
X142983337Y-166941000D02*
X142767665Y-166941000D01*
X137767165Y-177942500D02*
X137982837Y-177942500D01*
X137767165Y-178662500D02*
X137982837Y-178662500D01*
X78103364Y-160204000D02*
X78319036Y-160204000D01*
X78103364Y-160924000D02*
X78319036Y-160924000D01*
X138762665Y-171936000D02*
X138978337Y-171936000D01*
X138762665Y-172656000D02*
X138978337Y-172656000D01*
X132505564Y-130640000D02*
X132721236Y-130640000D01*
X132505564Y-131360000D02*
X132721236Y-131360000D01*
X144767165Y-175942500D02*
X144982837Y-175942500D01*
X144767165Y-176662500D02*
X144982837Y-176662500D01*
X202545000Y-182553641D02*
X202545000Y-182246359D01*
X203305000Y-182553641D02*
X203305000Y-182246359D01*
X145015501Y-169908836D02*
X145015501Y-169693164D01*
X145735501Y-169908836D02*
X145735501Y-169693164D01*
X159546860Y-181296000D02*
X159854142Y-181296000D01*
X159546860Y-182056000D02*
X159854142Y-182056000D01*
G36*
X120389861Y-186324777D02*
G01*
X120362715Y-186327635D01*
X120333664Y-186328587D01*
X120294611Y-186325254D01*
X120260797Y-186312871D01*
X120236509Y-186287154D01*
X120226984Y-186244768D01*
X120254130Y-186183331D01*
X120326996Y-186164757D01*
X120389861Y-186164757D01*
X120389861Y-186324777D01*
G37*
G36*
X120364144Y-185929490D02*
G01*
X120389861Y-185932347D01*
X120389861Y-186067602D01*
X120344141Y-186067602D01*
X120276514Y-186048076D01*
X120253654Y-185994260D01*
X120260321Y-185960446D01*
X120278419Y-185940444D01*
X120305089Y-185930919D01*
X120336521Y-185928537D01*
X120364144Y-185929490D01*
G37*
G36*
X122742060Y-185929014D02*
G01*
X122771111Y-185931395D01*
X122771111Y-186121895D01*
X122723486Y-186121895D01*
X122674194Y-186116299D01*
X122638714Y-186099511D01*
X122617282Y-186069150D01*
X122610139Y-186022835D01*
X122617163Y-185978901D01*
X122638237Y-185949969D01*
X122670980Y-185933895D01*
X122713009Y-185928537D01*
X122742060Y-185929014D01*
G37*
G36*
X121801466Y-185929014D02*
G01*
X121818611Y-185931395D01*
X121818611Y-186327635D01*
X121808134Y-186328587D01*
X121797656Y-186328587D01*
X121730505Y-186313347D01*
X121686690Y-186271438D01*
X121662877Y-186208096D01*
X121657520Y-186169639D01*
X121655734Y-186127610D01*
X121661449Y-186053315D01*
X121681451Y-185989497D01*
X121720504Y-185945206D01*
X121784321Y-185928537D01*
X121801466Y-185929014D01*
G37*
G36*
X123472363Y-186200000D02*
G01*
X123086706Y-186778485D01*
X122888269Y-186778485D01*
X122771111Y-186778485D01*
X122227234Y-186778485D01*
X121810039Y-186778485D01*
X121229014Y-186778485D01*
X120566074Y-186778485D01*
X120343189Y-186778485D01*
X120111731Y-186778485D01*
X119913294Y-186778485D01*
X119527637Y-186778485D01*
X119727874Y-186478130D01*
X120566074Y-186478130D01*
X120566074Y-186580048D01*
X121027084Y-186580048D01*
X121027084Y-186478130D01*
X120566074Y-186478130D01*
X119727874Y-186478130D01*
X119883449Y-186244768D01*
X120111731Y-186244768D01*
X120116256Y-186293702D01*
X120129829Y-186333826D01*
X120178882Y-186390976D01*
X120212696Y-186409312D01*
X120252225Y-186421456D01*
X120296159Y-186428243D01*
X120343189Y-186430505D01*
X120382956Y-186429433D01*
X120424151Y-186426219D01*
X120465823Y-186420861D01*
X120507019Y-186413360D01*
X120507019Y-186394310D01*
X121064231Y-186394310D01*
X121131382Y-186422409D01*
X121176983Y-186432053D01*
X121229014Y-186435268D01*
X121305637Y-186426378D01*
X121369137Y-186399708D01*
X121419514Y-186355257D01*
X121448267Y-186311026D01*
X121468806Y-186258341D01*
X121481129Y-186197202D01*
X121485236Y-186127610D01*
X121536671Y-186127610D01*
X121541791Y-186203453D01*
X121557150Y-186267151D01*
X121581558Y-186319420D01*
X121613824Y-186360973D01*
X121653472Y-186392286D01*
X121700025Y-186413836D01*
X121752532Y-186426338D01*
X121810039Y-186430505D01*
X121871475Y-186427171D01*
X121935769Y-186416218D01*
X121935769Y-185840907D01*
X121885604Y-185833287D01*
X122024351Y-185833287D01*
X122024351Y-186209525D01*
X122026732Y-186258579D01*
X122033876Y-186302870D01*
X122046973Y-186341684D01*
X122067214Y-186374307D01*
X122094836Y-186400382D01*
X122130079Y-186419551D01*
X122173894Y-186431338D01*
X122227234Y-186435268D01*
X122279740Y-186431338D01*
X122322960Y-186419551D01*
X122384396Y-186374307D01*
X122403922Y-186341684D01*
X122416781Y-186302870D01*
X122423925Y-186258579D01*
X122426306Y-186209525D01*
X122426306Y-186023787D01*
X122490124Y-186023787D01*
X122497056Y-186087764D01*
X122517852Y-186138722D01*
X122552513Y-186176664D01*
X122599873Y-186202857D01*
X122658769Y-186218574D01*
X122729201Y-186223813D01*
X122771111Y-186223813D01*
X122771111Y-186422885D01*
X122888269Y-186422885D01*
X122888269Y-185840907D01*
X122849692Y-185834240D01*
X122806354Y-185829954D01*
X122763491Y-185827572D01*
X122726344Y-185826620D01*
X122657023Y-185831753D01*
X122598920Y-185847152D01*
X122552036Y-185872816D01*
X122517640Y-185910122D01*
X122497003Y-185960446D01*
X122490124Y-186023787D01*
X122426306Y-186023787D01*
X122426306Y-185833287D01*
X122308196Y-185833287D01*
X122308196Y-186201905D01*
X122304386Y-186264294D01*
X122291527Y-186304775D01*
X122266286Y-186326683D01*
X122225329Y-186333350D01*
X122184371Y-186326683D01*
X122158654Y-186304299D01*
X122145319Y-186263341D01*
X122141509Y-186200953D01*
X122141509Y-185833287D01*
X122024351Y-185833287D01*
X121885604Y-185833287D01*
X121860521Y-185829477D01*
X121794799Y-185826620D01*
X121739197Y-185830906D01*
X121688595Y-185843765D01*
X121644185Y-185865792D01*
X121607156Y-185897581D01*
X121577510Y-185939253D01*
X121555245Y-185990926D01*
X121541315Y-186053434D01*
X121536671Y-186127610D01*
X121485236Y-186127610D01*
X121480236Y-186058316D01*
X121465234Y-185997117D01*
X121441302Y-185944373D01*
X121409512Y-185900439D01*
X121370460Y-185865672D01*
X121324740Y-185840431D01*
X121273424Y-185825072D01*
X121217584Y-185819952D01*
X121160910Y-185825191D01*
X121116619Y-185837097D01*
X121084710Y-185851385D01*
X121065184Y-185862815D01*
X121095664Y-185956160D01*
X121148527Y-185931871D01*
X121219489Y-185921870D01*
X121273305Y-185931871D01*
X121319977Y-185965209D01*
X121353315Y-186027597D01*
X121362959Y-186071412D01*
X121366174Y-186124752D01*
X121362311Y-186186824D01*
X121350722Y-186238418D01*
X121331407Y-186279534D01*
X121285568Y-186319896D01*
X121217584Y-186333350D01*
X121141860Y-186322873D01*
X121093759Y-186301917D01*
X121064231Y-186394310D01*
X120507019Y-186394310D01*
X120507019Y-185840907D01*
X120433676Y-185830906D01*
X120354619Y-185826620D01*
X120294135Y-185830073D01*
X120246034Y-185840431D01*
X120180311Y-185876626D01*
X120147926Y-185926632D01*
X120139354Y-185981877D01*
X120144473Y-186021406D01*
X120159832Y-186056172D01*
X120214601Y-186107608D01*
X120164238Y-186133325D01*
X120133162Y-186166663D01*
X120117089Y-186204763D01*
X120111731Y-186244768D01*
X119883449Y-186244768D01*
X119913294Y-186200000D01*
X119527637Y-185621515D01*
X119913294Y-185621515D01*
X120111731Y-185621515D01*
X122888269Y-185621515D01*
X123086706Y-185621515D01*
X123472363Y-186200000D01*
G37*
X134492665Y-188916000D02*
X134708337Y-188916000D01*
X134492665Y-189636000D02*
X134708337Y-189636000D01*
X146735501Y-176693164D02*
X146735501Y-176908836D01*
X146015501Y-176693164D02*
X146015501Y-176908836D01*
X157020000Y-201014441D02*
X157020000Y-200707159D01*
X157780000Y-201014441D02*
X157780000Y-200707159D01*
X182646359Y-203145600D02*
X182953641Y-203145600D01*
X182646359Y-203905600D02*
X182953641Y-203905600D01*
G36*
X123429342Y-184700000D02*
G01*
X123091945Y-185206095D01*
X122893508Y-185206095D01*
X122022923Y-185206095D01*
X121719075Y-185206095D01*
X121242825Y-185206095D01*
X120610365Y-185206095D01*
X120238890Y-185206095D01*
X120106492Y-185206095D01*
X119908055Y-185206095D01*
X119570658Y-185206095D01*
X119711205Y-184995275D01*
X120106492Y-184995275D01*
X120238890Y-184995275D01*
X120268894Y-184923361D01*
X120289492Y-184885261D01*
X120312232Y-184848114D01*
X120336640Y-184812633D01*
X120362239Y-184779534D01*
X120412245Y-184725717D01*
X120412245Y-184995275D01*
X120529403Y-184995275D01*
X120610365Y-184995275D01*
X120980887Y-184995275D01*
X120980887Y-184966700D01*
X121078043Y-184966700D01*
X121145194Y-184994799D01*
X121190795Y-185004443D01*
X121242825Y-185007658D01*
X121319448Y-184998767D01*
X121382948Y-184972097D01*
X121389065Y-184966700D01*
X121554293Y-184966700D01*
X121621444Y-184994799D01*
X121667045Y-185004443D01*
X121719075Y-185007658D01*
X121795698Y-184998767D01*
X121804012Y-184995275D01*
X122022923Y-184995275D01*
X122130555Y-184995275D01*
X122124840Y-184537122D01*
X122197230Y-184786677D01*
X122282955Y-184786677D01*
X122352488Y-184537122D01*
X122347725Y-184995275D01*
X122455358Y-184995275D01*
X122515365Y-184995275D01*
X122893508Y-184995275D01*
X122893508Y-184405677D01*
X122536320Y-184405677D01*
X122536320Y-184502832D01*
X122776350Y-184502832D01*
X122776350Y-184635230D01*
X122567753Y-184635230D01*
X122567753Y-184732385D01*
X122776350Y-184732385D01*
X122776350Y-184898120D01*
X122515365Y-184898120D01*
X122515365Y-184995275D01*
X122455358Y-184995275D01*
X122452381Y-184921456D01*
X122449166Y-184844780D01*
X122445713Y-184766913D01*
X122442023Y-184689522D01*
X122437855Y-184613561D01*
X122432974Y-184539980D01*
X122427378Y-184470209D01*
X122421068Y-184405677D01*
X122323913Y-184405677D01*
X122307244Y-184457112D01*
X122285813Y-184524740D01*
X122262953Y-184598082D01*
X122241045Y-184666662D01*
X122217233Y-184593796D01*
X122193420Y-184521406D01*
X122172465Y-184456160D01*
X122155320Y-184405677D01*
X122058165Y-184405677D01*
X122051617Y-184481877D01*
X122045306Y-184556172D01*
X122039591Y-184629158D01*
X122034829Y-184701429D01*
X122030900Y-184773581D01*
X122027685Y-184846209D01*
X122025066Y-184919908D01*
X122022923Y-184995275D01*
X121804012Y-184995275D01*
X121859198Y-184972097D01*
X121909575Y-184927647D01*
X121938329Y-184883416D01*
X121958867Y-184830731D01*
X121971190Y-184769592D01*
X121975298Y-184700000D01*
X121970297Y-184630706D01*
X121955295Y-184569507D01*
X121931363Y-184516763D01*
X121899574Y-184472829D01*
X121860521Y-184438062D01*
X121814801Y-184412821D01*
X121763485Y-184397462D01*
X121707645Y-184392342D01*
X121650971Y-184397581D01*
X121606680Y-184409487D01*
X121574771Y-184423775D01*
X121555245Y-184435205D01*
X121585725Y-184528550D01*
X121638589Y-184504261D01*
X121709550Y-184494260D01*
X121763366Y-184504261D01*
X121810039Y-184537599D01*
X121843376Y-184599987D01*
X121853020Y-184643802D01*
X121856235Y-184697142D01*
X121852372Y-184759214D01*
X121840783Y-184810807D01*
X121821469Y-184851924D01*
X121775630Y-184892286D01*
X121707645Y-184905740D01*
X121631921Y-184895262D01*
X121583820Y-184874307D01*
X121554293Y-184966700D01*
X121389065Y-184966700D01*
X121433325Y-184927647D01*
X121462079Y-184883416D01*
X121482617Y-184830731D01*
X121494940Y-184769592D01*
X121499047Y-184700000D01*
X121494047Y-184630706D01*
X121479045Y-184569507D01*
X121455113Y-184516763D01*
X121423324Y-184472829D01*
X121384271Y-184438062D01*
X121338551Y-184412821D01*
X121287235Y-184397462D01*
X121231395Y-184392342D01*
X121174721Y-184397581D01*
X121130430Y-184409487D01*
X121098521Y-184423775D01*
X121078995Y-184435205D01*
X121109475Y-184528550D01*
X121162339Y-184504261D01*
X121233300Y-184494260D01*
X121287116Y-184504261D01*
X121333789Y-184537599D01*
X121367126Y-184599987D01*
X121376770Y-184643802D01*
X121379985Y-184697142D01*
X121376122Y-184759214D01*
X121364533Y-184810807D01*
X121345219Y-184851924D01*
X121299380Y-184892286D01*
X121231395Y-184905740D01*
X121155671Y-184895262D01*
X121107570Y-184874307D01*
X121078043Y-184966700D01*
X120980887Y-184966700D01*
X120980887Y-184405677D01*
X120862778Y-184405677D01*
X120862778Y-184898120D01*
X120610365Y-184898120D01*
X120610365Y-184995275D01*
X120529403Y-184995275D01*
X120529403Y-184405677D01*
X120412245Y-184405677D01*
X120412245Y-184650470D01*
X120368430Y-184591415D01*
X120325091Y-184526645D01*
X120287467Y-184462827D01*
X120258892Y-184405677D01*
X120126495Y-184405677D01*
X120158404Y-184464256D01*
X120178287Y-184497832D01*
X120200790Y-184532836D01*
X120225436Y-184568912D01*
X120251749Y-184605702D01*
X120279490Y-184642136D01*
X120308423Y-184677140D01*
X120278657Y-184707858D01*
X120248415Y-184742862D01*
X120218768Y-184781320D01*
X120190789Y-184822396D01*
X120164952Y-184865259D01*
X120141735Y-184909074D01*
X120121971Y-184952770D01*
X120106492Y-184995275D01*
X119711205Y-184995275D01*
X119908055Y-184700000D01*
X119570658Y-184193905D01*
X119908055Y-184193905D01*
X120106492Y-184193905D01*
X122893508Y-184193905D01*
X123091945Y-184193905D01*
X123429342Y-184700000D01*
G37*
X114692666Y-183440000D02*
X114908338Y-183440000D01*
X114692666Y-184160000D02*
X114908338Y-184160000D01*
X131015501Y-170908836D02*
X131015501Y-170693164D01*
X131735501Y-170908836D02*
X131735501Y-170693164D01*
X142767665Y-161941000D02*
X142983337Y-161941000D01*
X142767665Y-162661000D02*
X142983337Y-162661000D01*
X153134421Y-166192500D02*
X153415581Y-166192500D01*
X153134421Y-167212500D02*
X153415581Y-167212500D01*
M02*
