M48
; DRILL file {KiCad 7.0.11-rc3} date Sun Nov 10 09:20:59 2024
; FORMAT={-:-/ absolute / inch / decimal}
; #@! TF.CreationDate,2024-11-10T09:20:59+01:00
; #@! TF.GenerationSoftware,Kicad,Pcbnew,7.0.11-rc3
; #@! TF.FileFunction,Plated,1,12,PTH
FMAT,2
INCH
; #@! TA.AperFunction,Plated,PTH,ViaDrill
T1C0.0039
; #@! TA.AperFunction,Plated,PTH,ComponentDrill
T2C0.0236
; #@! TA.AperFunction,Plated,PTH,ComponentDrill
T3C0.0350
; #@! TA.AperFunction,Plated,PTH,ComponentDrill
T4C0.0394
; #@! TA.AperFunction,Plated,PTH,ComponentDrill
T5C0.0400
; #@! TA.AperFunction,Plated,PTH,ComponentDrill
T6C0.0492
; #@! TA.AperFunction,Plated,PTH,ComponentDrill
T7C0.0630
; #@! TA.AperFunction,Plated,PTH,ComponentDrill
T8C0.0630
; #@! TA.AperFunction,Plated,PTH,ComponentDrill
T9C0.1181
%
G90
G05
T1
X2.7117Y-5.6506
X2.7297Y-7.3771
X2.7298Y-7.2887
X2.7305Y-7.3162
X2.7305Y-7.3489
X2.743Y-6.535
X2.743Y-6.6915
X2.7628Y-5.7074
X2.8039Y-5.6506
X2.8251Y-7.3319
X2.826Y-7.1823
X2.8279Y-7.4587
X2.829Y-5.737
X2.8353Y-5.3574
X2.8353Y-5.381
X2.8353Y-5.4046
X2.8589Y-5.3568
X2.8589Y-5.3804
X2.8589Y-5.4046
X2.864Y-6.026
X2.8821Y-7.2079
X2.8829Y-7.45
X2.8851Y-7.5672
X2.9038Y-7.2729
X2.9038Y-7.3319
X2.9189Y-7.5406
X2.9213Y-5.4316
X2.9219Y-5.4552
X2.9239Y-5.7078
X2.9449Y-5.4316
X2.9455Y-5.4552
X2.9692Y-5.3843
X2.9692Y-5.4079
X2.9692Y-5.4316
X2.9692Y-5.4552
X2.9704Y-5.5695
X2.9716Y-5.6506
X2.9904Y-7.139
X2.9904Y-7.1863
X2.9904Y-7.2335
X3.0056Y-5.5987
X3.0068Y-5.6238
X3.0108Y-5.549
X3.035Y-5.014
X3.035Y-5.193
X3.0513Y-6.516
X3.068Y-5.1225
X3.068Y-5.3035
X3.083Y-7.7087
X3.083Y-7.815
X3.083Y-7.9213
X3.083Y-8.0276
X3.083Y-8.1339
X3.0862Y-7.5643
X3.095Y-6.044
X3.095Y-6.112
X3.0967Y-7.1902
X3.0973Y-6.2958
X3.099Y-5.551
X3.1015Y-5.304
X3.1085Y-7.234
X3.1085Y-7.2931
X3.1262Y-7.1331
X3.1269Y-6.3214
X3.1321Y-7.1548
X3.1345Y-5.014
X3.1348Y-5.195
X3.168Y-5.014
X3.168Y-5.193
X3.1741Y-8.2485
X3.1769Y-5.5675
X3.202Y-5.195
X3.235Y-5.014
X3.235Y-5.311
X3.2586Y-6.6736
X3.2688Y-5.195
X3.269Y-5.122
X3.292Y-6.075
X3.293Y-6.017
X3.302Y-5.014
X3.302Y-5.311
X3.3355Y-5.195
X3.336Y-5.122
X3.369Y-5.014
X3.3731Y-5.311
X3.3757Y-6.2178
X3.376Y-6.184
X3.3986Y-5.311
X3.403Y-5.122
X3.4055Y-6.0438
X3.406Y-6.019
X3.407Y-5.9619
X3.4091Y-6.086
X3.436Y-5.014
X3.436Y-5.195
X3.4406Y-5.9285
X3.4423Y-6.1461
X3.4641Y-7.6831
X3.4641Y-7.7343
X3.4641Y-7.7894
X3.4641Y-7.8406
X3.4641Y-7.8957
X3.4641Y-7.9469
X3.4641Y-8.002
X3.4641Y-8.0532
X3.4641Y-8.1083
X3.4641Y-8.1595
X3.4644Y-7.3631
X3.4644Y-7.4694
X3.4644Y-7.5757
X3.4651Y-7.4163
X3.4651Y-7.5226
X3.4651Y-7.6289
X3.47Y-5.122
X3.4713Y-5.3098
X3.4839Y-5.93
X3.4879Y-6.1248
X3.503Y-5.014
X3.5035Y-5.195
X3.5075Y-5.8494
X3.5089Y-6.1431
X3.51Y-6.065
X3.51Y-6.1007
X3.5129Y-5.9938
X3.5157Y-6.8031
X3.5158Y-7.0117
X3.5166Y-6.2026
X3.5247Y-6.5864
X3.5355Y-7.9085
X3.536Y-5.122
X3.536Y-5.31
X3.5387Y-6.8261
X3.5469Y-5.8498
X3.5531Y-7.1339
X3.5532Y-6.6973
X3.57Y-5.014
X3.57Y-5.195
X3.5702Y-6.972
X3.5709Y-7.205
X3.5748Y-5.9236
X3.5792Y-6.0946
X3.5792Y-6.1541
X3.5798Y-5.9899
X3.5827Y-6.7047
X3.5846Y-6.6594
X3.5847Y-7.9085
X3.5937Y-6.2677
X3.5975Y-6.0176
X3.603Y-5.31
X3.6034Y-5.9895
X3.604Y-5.122
X3.6063Y-7.063
X3.6097Y-6.7067
X3.6098Y-6.9712
X3.6122Y-6.1791
X3.6122Y-7.1319
X3.6164Y-7.7925
X3.6289Y-8.1849
X3.6321Y-7.4618
X3.6339Y-5.8878
X3.6339Y-7.314
X3.6339Y-5.9236
X3.6365Y-5.014
X3.637Y-5.195
X3.64Y-7.5209
X3.6496Y-6.4745
X3.6497Y-7.9085
X3.6535Y-6.1791
X3.6536Y-6.2845
X3.67Y-5.123
X3.67Y-5.31
X3.6732Y-6.2677
X3.6752Y-6.9862
X3.6781Y-7.3139
X3.6794Y-7.7925
X3.685Y-6.0945
X3.689Y-6.9547
X3.6929Y-6.1791
X3.6937Y-6.9148
X3.6969Y-7.0689
X3.6988Y-6.7106
X3.701Y-7.909
X3.7026Y-6.5533
X3.7031Y-6.5215
X3.7035Y-5.014
X3.7035Y-5.195
X3.7165Y-7.0531
X3.719Y-8.1826
X3.7215Y-7.314
X3.7303Y-6.6772
X3.7323Y-6.1791
X3.7323Y-5.9236
X3.7362Y-5.8878
X3.737Y-5.31
X3.7402Y-6.4745
X3.7411Y-5.1211
X3.744Y-8.096
X3.7507Y-6.5537
X3.752Y-6.2717
X3.752Y-6.5197
X3.7559Y-6.4095
X3.7579Y-6.6555
X3.7581Y-7.4697
X3.7581Y-7.7925
X3.7618Y-6.4744
X3.7628Y-7.314
X3.7667Y-5.1211
X3.7668Y-7.9095
X3.7705Y-5.195
X3.7776Y-6.063
X3.7779Y-6.6156
X3.7831Y-6.1248
X3.7854Y-6.1811
X3.7914Y-5.9236
X3.7923Y-6.6703
X3.7933Y-6.4085
X3.8031Y-6.6156
X3.804Y-5.014
X3.8048Y-7.4624
X3.805Y-5.31
X3.8061Y-6.2628
X3.8111Y-7.0551
X3.8172Y-7.5238
X3.819Y-7.91
X3.819Y-8.1819
X3.8211Y-7.7925
X3.8238Y-7.0938
X3.8248Y-7.1261
X3.8249Y-7.5761
X3.8268Y-7.1772
X3.8278Y-7.2126
X3.8296Y-6.5534
X3.8307Y-7.1496
X3.8329Y-7.6035
X3.8353Y-6.4063
X3.8375Y-5.195
X3.838Y-5.121
X3.8425Y-7.0551
X3.8447Y-7.5248
X3.8548Y-6.1402
X3.8566Y-7.576
X3.8583Y-7.1713
X3.8617Y-8.0956
X3.8622Y-6.0836
X3.8666Y-6.1841
X3.8701Y-7.0551
X3.871Y-5.014
X3.871Y-5.31
X3.876Y-6.4065
X3.8803Y-6.8656
X3.8819Y-7.19
X3.8833Y-6.2544
X3.8839Y-6.1417
X3.886Y-5.964
X3.8898Y-7.0748
X3.901Y-5.861
X3.9045Y-5.195
X3.905Y-5.121
X3.9065Y-7.1742
X3.9093Y-6.194
X3.9094Y-6.6437
X3.9094Y-7.0551
X3.9114Y-6.0689
X3.9173Y-6.4065
X3.9291Y-7.0748
X3.9302Y-6.5517
X3.9311Y-6.6752
X3.9341Y-7.19
X3.938Y-5.014
X3.938Y-5.311
X3.9488Y-7.0551
X3.9528Y-5.9139
X3.9567Y-6.4075
X3.9581Y-6.6756
X3.964Y-7.9771
X3.9646Y-7.5354
X3.9671Y-7.6502
X3.971Y-5.122
X3.9715Y-5.195
X3.9748Y-6.1951
X3.9792Y-7.256
X3.9882Y-7.0768
X3.9912Y-6.3108
X3.9961Y-7.8819
X4.0Y-6.4065
X4.0006Y-6.5772
X4.003Y-6.6155
X4.005Y-5.014
X4.005Y-5.311
X4.0233Y-5.936
X4.0252Y-6.2065
X4.0295Y-6.3435
X4.0315Y-7.1811
X4.0385Y-5.195
X4.039Y-5.122
X4.0492Y-7.124
X4.0512Y-6.2061
X4.0548Y-5.8902
X4.059Y-7.6216
X4.0597Y-6.7571
X4.063Y-6.315
X4.0673Y-6.7142
X4.0679Y-6.7868
X4.0679Y-6.889
X4.072Y-5.014
X4.0728Y-7.5153
X4.0758Y-5.311
X4.0773Y-7.3133
X4.091Y-6.0998
X4.0925Y-7.9661
X4.098Y-6.9508
X4.1Y-7.8
X4.1004Y-7.5113
X4.1007Y-7.0703
X4.1014Y-5.311
X4.106Y-5.122
X4.1201Y-7.0506
X4.122Y-7.8819
X4.125Y-6.7138
X4.1324Y-6.8158
X4.1332Y-7.0041
X4.1386Y-7.5074
X4.139Y-5.014
X4.139Y-5.195
X4.1398Y-7.0703
X4.157Y-6.0581
X4.1593Y-7.0506
X4.1594Y-7.6366
X4.1602Y-6.8752
X4.1606Y-6.7276
X4.1614Y-7.5133
X4.1629Y-7.3139
X4.1702Y-6.8162
X4.172Y-5.122
X4.1725Y-7.004
X4.173Y-5.311
X4.1909Y-7.5212
X4.198Y-7.807
X4.206Y-5.014
X4.206Y-5.195
X4.2067Y-7.5842
X4.2185Y-7.9661
X4.231Y-6.141
X4.239Y-5.122
X4.239Y-5.311
X4.2441Y-7.637
X4.2441Y-6.8016
X4.2445Y-6.8906
X4.2451Y-7.0945
X4.2461Y-7.1326
X4.247Y-6.153
X4.247Y-6.448
X4.2472Y-6.7571
X4.248Y-7.5153
X4.248Y-7.8819
X4.2481Y-7.1752
X4.2491Y-7.2133
X4.2502Y-6.9183
X4.255Y-6.635
X4.2725Y-5.014
X4.2725Y-5.195
X4.2756Y-7.5113
X4.278Y-6.416
X4.3Y-7.8
X4.306Y-5.122
X4.306Y-5.311
X4.3071Y-7.5212
X4.325Y-6.636
X4.3307Y-7.4646
X4.3366Y-7.5133
X4.3395Y-5.014
X4.3395Y-5.195
X4.3445Y-7.9661
X4.3661Y-7.5212
X4.373Y-5.122
X4.373Y-5.311
X4.374Y-7.8819
X4.388Y-7.583
X4.398Y-7.807
X4.406Y-5.195
X4.4065Y-5.014
X4.413Y-6.609
X4.44Y-5.311
X4.4439Y-5.1225
X4.448Y-5.926
X4.459Y-7.587
X4.4695Y-5.1225
X4.4704Y-7.9661
X4.473Y-5.195
X4.4744Y-7.1382
X4.4744Y-7.1882
X4.4744Y-7.2382
X4.503Y-7.3898
X4.507Y-5.014
X4.508Y-5.311
X4.5394Y-7.2638
X4.54Y-5.122
X4.54Y-5.195
X4.5453Y-7.3898
X4.55Y-7.05
X4.5571Y-7.1122
X4.566Y-7.638
X4.5709Y-6.7795
X4.5729Y-6.8278
X4.5729Y-6.8672
X4.5729Y-6.9459
X4.5729Y-6.9853
X4.574Y-5.014
X4.5748Y-6.9046
X4.575Y-5.311
X4.584Y-6.087
X4.607Y-5.122
X4.607Y-5.195
X4.6122Y-6.9459
X4.6122Y-6.8278
X4.6122Y-6.8672
X4.6122Y-6.9065
X4.6122Y-6.9853
X4.6167Y-7.9483
X4.628Y-5.93
X4.641Y-5.014
X4.642Y-5.311
X4.644Y-6.145
X4.6516Y-6.8278
X4.6516Y-6.9065
X4.6516Y-6.9459
X4.674Y-5.195
X4.675Y-5.122
X4.689Y-6.9853
X4.696Y-6.094
X4.707Y-5.311
X4.7075Y-5.014
X4.7303Y-6.8278
X4.7303Y-6.8672
X4.7303Y-6.9065
X4.7303Y-6.9459
X4.74Y-5.122
X4.741Y-5.195
X4.7636Y-7.4793
X4.7697Y-6.9065
X4.7697Y-6.9459
X4.7745Y-5.014
X4.7785Y-5.3072
X4.7815Y-6.815
X4.7894Y-7.1654
X4.7894Y-7.2087
X4.7943Y-7.3898
X4.8012Y-7.751
X4.8012Y-7.7943
X4.8031Y-6.9853
X4.8041Y-5.3072
X4.808Y-5.125
X4.812Y-7.7727
X4.8268Y-7.751
X4.8268Y-7.7943
X4.8366Y-7.3898
X4.8386Y-7.4862
X4.8386Y-7.5295
X4.8396Y-7.7727
X4.841Y-6.243
X4.8415Y-5.014
X4.8415Y-5.195
X4.8465Y-7.4281
X4.8524Y-7.751
X4.8524Y-7.7943
X4.8543Y-7.5079
X4.8583Y-6.8858
X4.8583Y-6.9252
X4.8681Y-7.0859
X4.8681Y-7.1359
X4.8681Y-7.2358
X4.875Y-5.125
X4.875Y-5.31
X4.9Y-7.875
X4.9085Y-5.014
X4.9085Y-5.195
X4.9154Y-7.0197
X4.942Y-5.125
X4.942Y-5.3095
X4.95Y-7.85
X4.955Y-7.1575
X4.9557Y-6.8819
X4.9558Y-6.3702
X4.9558Y-6.4095
X4.9558Y-6.4489
X4.9558Y-6.4883
X4.9558Y-6.5277
X4.9558Y-6.567
X4.9558Y-6.6064
X4.9558Y-6.6458
X4.9558Y-6.6851
X4.9558Y-6.7245
X4.9558Y-6.7639
X4.9558Y-6.8032
X4.9558Y-6.8426
X4.9558Y-6.9213
X4.9558Y-6.9606
X4.9558Y-7.0
X4.9558Y-7.0394
X4.9558Y-7.0788
X4.9558Y-7.1181
X4.9558Y-7.1969
X4.9558Y-7.2362
X4.9558Y-7.2756
X4.9558Y-7.315
X4.9558Y-7.3544
X4.9558Y-7.3937
X4.9755Y-5.125
X4.9755Y-5.3095
X4.9951Y-6.8819
X4.9952Y-6.3702
X4.9952Y-6.4095
X4.9952Y-6.4489
X4.9952Y-6.4883
X4.9952Y-6.5277
X4.9952Y-6.567
X4.9952Y-6.6064
X4.9952Y-6.6458
X4.9952Y-6.6851
X4.9952Y-6.7245
X4.9952Y-6.7639
X4.9952Y-6.8032
X4.9952Y-6.8426
X4.9952Y-6.9213
X4.9952Y-6.9606
X4.9952Y-7.0394
X4.9952Y-7.0788
X4.9952Y-7.1181
X4.9952Y-7.1575
X4.9952Y-7.1969
X4.9952Y-7.2362
X4.9952Y-7.2756
X4.9952Y-7.315
X4.9952Y-7.3937
X4.9952Y-7.0
X4.9952Y-7.3544
X4.9961Y-7.4833
X4.9961Y-7.5266
X4.9961Y-7.752
X4.9961Y-7.7953
X5.0Y-7.875
X5.0069Y-7.505
X5.0069Y-7.7737
X5.009Y-5.014
X5.009Y-5.195
X5.0217Y-7.4833
X5.0217Y-7.5266
X5.0217Y-7.752
X5.0217Y-7.7953
X5.0315Y-7.8425
X5.0345Y-7.505
X5.0345Y-7.7737
X5.0345Y-6.3702
X5.0345Y-6.4095
X5.0345Y-6.4489
X5.0345Y-6.4883
X5.0345Y-6.5277
X5.0345Y-6.567
X5.0345Y-6.6064
X5.0345Y-6.6458
X5.0345Y-6.6851
X5.0345Y-6.7245
X5.0345Y-6.7639
X5.0345Y-6.8032
X5.0345Y-6.8426
X5.0345Y-6.9213
X5.0345Y-6.9606
X5.0345Y-7.0
X5.0345Y-7.0394
X5.0345Y-7.0788
X5.0345Y-7.1181
X5.0345Y-7.1575
X5.0345Y-7.1969
X5.0345Y-7.2362
X5.0345Y-7.2756
X5.0345Y-7.315
X5.0345Y-7.3544
X5.0345Y-7.3937
X5.0394Y-7.6378
X5.042Y-5.125
X5.0425Y-5.3095
X5.0473Y-7.4833
X5.0473Y-7.5266
X5.0473Y-7.752
X5.0473Y-7.7953
X5.0738Y-6.8819
X5.0739Y-6.3702
X5.0739Y-6.4489
X5.0739Y-6.4883
X5.0739Y-6.5277
X5.0739Y-6.567
X5.0739Y-6.6064
X5.0739Y-6.6458
X5.0739Y-6.6851
X5.0739Y-6.7245
X5.0739Y-6.8032
X5.0739Y-6.8426
X5.0739Y-6.9606
X5.0739Y-7.0
X5.0739Y-7.0394
X5.0739Y-7.1181
X5.0739Y-7.1575
X5.0739Y-7.2362
X5.0739Y-7.315
X5.0739Y-7.3544
X5.0739Y-7.3937
X5.0739Y-6.4095
X5.0739Y-6.7639
X5.0739Y-6.9213
X5.0739Y-7.0788
X5.0739Y-7.2756
X5.075Y-7.1969
X5.076Y-5.125
X5.076Y-5.3095
X5.0827Y-7.6969
X5.1Y-7.775
X5.109Y-5.014
X5.109Y-5.195
X5.1133Y-6.4095
X5.1133Y-6.567
X5.1133Y-6.6064
X5.1133Y-6.7639
X5.1133Y-6.9213
X5.1133Y-7.0788
X5.1133Y-7.2756
X5.1133Y-6.3702
X5.1133Y-6.4489
X5.1133Y-6.4883
X5.1133Y-6.5277
X5.1133Y-6.6458
X5.1133Y-6.6851
X5.1133Y-6.7245
X5.1133Y-6.8032
X5.1133Y-6.8426
X5.1133Y-6.9606
X5.1133Y-7.0
X5.1133Y-7.0394
X5.1133Y-7.1181
X5.1133Y-7.1575
X5.1133Y-7.1969
X5.1133Y-7.2362
X5.1133Y-7.315
X5.1133Y-7.3544
X5.1133Y-7.3937
X5.1142Y-7.6969
X5.1142Y-6.8819
X5.1425Y-5.125
X5.143Y-5.3095
X5.1496Y-7.6969
X5.1526Y-7.315
X5.1526Y-6.3702
X5.1526Y-6.4095
X5.1526Y-6.4489
X5.1526Y-6.4883
X5.1526Y-6.5277
X5.1526Y-6.567
X5.1526Y-6.6064
X5.1526Y-6.6458
X5.1526Y-6.6851
X5.1526Y-6.7245
X5.1526Y-6.7639
X5.1526Y-6.8032
X5.1526Y-6.8426
X5.1526Y-6.9213
X5.1526Y-6.9606
X5.1526Y-7.0
X5.1526Y-7.0394
X5.1526Y-7.0788
X5.1526Y-7.1181
X5.1526Y-7.1575
X5.1526Y-7.1969
X5.1526Y-7.2362
X5.1526Y-7.2756
X5.1526Y-7.3544
X5.1526Y-7.3937
X5.1536Y-6.8809
X5.176Y-5.125
X5.1765Y-5.3095
X5.1831Y-7.4794
X5.1831Y-7.5227
X5.185Y-7.6969
X5.192Y-6.3702
X5.192Y-6.4883
X5.192Y-6.6851
X5.192Y-7.0
X5.192Y-7.3544
X5.192Y-6.4095
X5.192Y-6.4489
X5.192Y-6.5277
X5.192Y-6.567
X5.192Y-6.6064
X5.192Y-6.6458
X5.192Y-6.7245
X5.192Y-6.7639
X5.192Y-6.8032
X5.192Y-6.8426
X5.192Y-6.9213
X5.192Y-6.9606
X5.192Y-7.0394
X5.192Y-7.0788
X5.192Y-7.1181
X5.192Y-7.1575
X5.192Y-7.1969
X5.192Y-7.2362
X5.192Y-7.2756
X5.192Y-7.315
X5.192Y-7.3937
X5.1929Y-6.8809
X5.194Y-7.6428
X5.1959Y-7.501
X5.2024Y-5.1294
X5.2095Y-5.014
X5.2095Y-5.195
X5.2314Y-6.3702
X5.2314Y-6.4095
X5.2314Y-6.4489
X5.2314Y-6.4883
X5.2314Y-6.5277
X5.2314Y-6.567
X5.2314Y-6.6064
X5.2314Y-6.6458
X5.2314Y-6.6851
X5.2314Y-6.7245
X5.2314Y-6.7639
X5.2314Y-6.8032
X5.2314Y-6.8426
X5.2314Y-6.9213
X5.2314Y-6.9606
X5.2314Y-7.0
X5.2314Y-7.0394
X5.2314Y-7.0788
X5.2314Y-7.1181
X5.2314Y-7.1575
X5.2314Y-7.1969
X5.2314Y-7.2362
X5.2314Y-7.2756
X5.2314Y-7.315
X5.2314Y-7.3544
X5.2314Y-7.3937
X5.2404Y-5.1294
X5.2435Y-5.3095
X5.2707Y-6.3702
X5.2707Y-6.4095
X5.2707Y-6.4489
X5.2707Y-6.4883
X5.2707Y-6.5277
X5.2707Y-6.567
X5.2707Y-6.6064
X5.2707Y-6.6458
X5.2707Y-6.6851
X5.2707Y-6.7245
X5.2707Y-6.7639
X5.2707Y-6.8032
X5.2707Y-6.8426
X5.2707Y-6.9213
X5.2707Y-6.9606
X5.2707Y-7.0
X5.2707Y-7.0394
X5.2707Y-7.0788
X5.2707Y-7.1181
X5.2707Y-7.1575
X5.2707Y-7.1969
X5.2707Y-7.2362
X5.2707Y-7.2756
X5.2707Y-7.315
X5.2707Y-7.3544
X5.2707Y-7.3937
X5.2717Y-6.8809
X5.2795Y-7.4714
X5.31Y-5.014
X5.31Y-5.195
X5.3101Y-6.3702
X5.3101Y-6.4095
X5.3101Y-6.4489
X5.3101Y-6.4883
X5.3101Y-6.5277
X5.3101Y-6.567
X5.3101Y-6.6064
X5.3101Y-6.6458
X5.3101Y-6.6851
X5.3101Y-6.7245
X5.3101Y-6.7639
X5.3101Y-6.8032
X5.3101Y-6.8426
X5.3101Y-6.9213
X5.3101Y-6.9606
X5.3101Y-7.0
X5.3101Y-7.0394
X5.3101Y-7.0788
X5.3101Y-7.1181
X5.3101Y-7.1575
X5.3101Y-7.1969
X5.3101Y-7.2362
X5.3101Y-7.2756
X5.3101Y-7.315
X5.3101Y-7.3544
X5.3101Y-7.3937
X5.3437Y-7.4514
X5.3465Y-5.198
X5.3481Y-6.243
X5.3484Y-5.131
X5.3494Y-6.8819
X5.3495Y-6.3702
X5.3495Y-6.4095
X5.3495Y-6.4489
X5.3495Y-6.5277
X5.3495Y-6.567
X5.3495Y-6.6064
X5.3495Y-6.6458
X5.3495Y-6.7245
X5.3495Y-6.7639
X5.3495Y-6.8032
X5.3495Y-6.8426
X5.3495Y-6.9213
X5.3495Y-6.9606
X5.3495Y-7.0394
X5.3495Y-7.0788
X5.3495Y-7.1181
X5.3495Y-7.1575
X5.3495Y-7.1969
X5.3495Y-7.2362
X5.3495Y-7.2756
X5.3495Y-7.315
X5.3495Y-7.3937
X5.3495Y-6.4883
X5.3495Y-6.6851
X5.3495Y-7.0
X5.3495Y-7.3544
X5.372Y-5.131
X5.374Y-5.198
X5.3889Y-6.3702
X5.3889Y-6.4095
X5.3889Y-6.4489
X5.3889Y-6.4883
X5.3889Y-6.567
X5.3889Y-6.6064
X5.3889Y-6.6458
X5.3889Y-6.6851
X5.3889Y-6.7245
X5.3889Y-6.7639
X5.3889Y-6.8032
X5.3889Y-6.9213
X5.3889Y-6.9606
X5.3889Y-7.0
X5.3889Y-7.0394
X5.3889Y-7.0788
X5.3889Y-7.1181
X5.3889Y-7.1575
X5.3889Y-7.1969
X5.3889Y-7.2362
X5.3889Y-7.2756
X5.3889Y-7.315
X5.3889Y-7.3544
X5.3889Y-7.3937
X5.3901Y-6.8406
X5.3937Y-7.6447
X5.4105Y-5.014
X5.4282Y-6.567
X5.4282Y-6.3702
X5.4282Y-6.4489
X5.4282Y-6.4883
X5.4282Y-6.5277
X5.4282Y-6.6458
X5.4282Y-6.6851
X5.4282Y-6.7245
X5.4282Y-6.8032
X5.4282Y-6.8426
X5.4282Y-6.9606
X5.4282Y-7.0
X5.4282Y-7.0394
X5.4282Y-7.1181
X5.4282Y-7.1575
X5.4282Y-7.1969
X5.4282Y-7.2362
X5.4282Y-7.315
X5.4282Y-7.3544
X5.4282Y-7.3937
X5.4282Y-6.4095
X5.4282Y-6.6064
X5.4282Y-6.7639
X5.4282Y-6.9213
X5.4282Y-7.0788
X5.4282Y-7.2756
X5.4447Y-5.1997
X5.4609Y-7.9721
X5.461Y-8.2219
X5.4673Y-7.2365
X5.4675Y-6.8426
X5.4675Y-6.9213
X5.4676Y-6.567
X5.4676Y-7.3937
X5.4676Y-6.6064
X5.4676Y-6.7235
X5.4685Y-7.3534
X5.5Y-7.941
X5.5002Y-8.2526
X5.5069Y-7.0
X5.5069Y-6.3702
X5.5069Y-6.4095
X5.5069Y-6.4489
X5.5069Y-6.4883
X5.5069Y-6.5277
X5.5069Y-6.567
X5.5069Y-6.6064
X5.5069Y-6.6458
X5.5069Y-6.6851
X5.5069Y-6.7245
X5.5069Y-6.7639
X5.5069Y-6.8032
X5.5069Y-6.8426
X5.5069Y-6.9213
X5.5069Y-6.9606
X5.5069Y-7.0394
X5.5069Y-7.0788
X5.5069Y-7.1181
X5.5069Y-7.1575
X5.5069Y-7.1969
X5.5069Y-7.2362
X5.5069Y-7.2756
X5.5069Y-7.315
X5.5069Y-7.3544
X5.5069Y-7.3937
X5.5244Y-7.4686
X5.5393Y-7.941
X5.5393Y-8.1736
X5.546Y-7.49
X5.5463Y-6.3702
X5.5463Y-6.4095
X5.5463Y-6.4489
X5.5463Y-6.4883
X5.5463Y-6.5277
X5.5463Y-6.567
X5.5463Y-6.6064
X5.5463Y-6.6458
X5.5463Y-6.6851
X5.5463Y-6.7245
X5.5463Y-6.7639
X5.5463Y-6.8032
X5.5463Y-6.8426
X5.5463Y-6.9213
X5.5463Y-6.9606
X5.5463Y-7.0
X5.5463Y-7.0394
X5.5463Y-7.0788
X5.5463Y-7.1181
X5.5463Y-7.1575
X5.5463Y-7.1969
X5.5463Y-7.2362
X5.5463Y-7.2756
X5.5463Y-6.8819
X5.5786Y-7.941
X5.5786Y-8.1736
X5.5856Y-6.3702
X5.5856Y-6.4489
X5.5856Y-6.4883
X5.5856Y-6.5277
X5.5856Y-6.567
X5.5856Y-6.6064
X5.5856Y-6.6458
X5.5856Y-6.6851
X5.5856Y-6.7245
X5.5856Y-6.8032
X5.5856Y-6.8426
X5.5856Y-6.9213
X5.5856Y-6.9606
X5.5856Y-7.0
X5.5856Y-7.0394
X5.5856Y-7.0788
X5.5856Y-7.1181
X5.5856Y-7.1575
X5.5856Y-7.1969
X5.5856Y-7.2362
X5.5856Y-7.315
X5.5856Y-7.3544
X5.5856Y-7.3937
X5.5856Y-6.4095
X5.5856Y-6.7639
X5.5856Y-7.2756
X5.6165Y-5.13
X5.618Y-7.941
X5.618Y-8.1736
X5.625Y-6.3702
X5.625Y-6.4095
X5.625Y-6.4489
X5.625Y-6.4883
X5.625Y-6.5277
X5.625Y-6.567
X5.625Y-6.6064
X5.625Y-6.6458
X5.625Y-6.6851
X5.625Y-6.7245
X5.625Y-6.7639
X5.625Y-6.8032
X5.625Y-6.8426
X5.625Y-6.9213
X5.625Y-6.9606
X5.625Y-7.0
X5.625Y-7.0394
X5.625Y-7.0788
X5.625Y-7.1181
X5.625Y-7.1575
X5.625Y-7.1969
X5.625Y-7.2362
X5.625Y-7.2756
X5.625Y-7.315
X5.625Y-7.3544
X5.625Y-7.3937
X5.6545Y-5.13
X5.6552Y-7.941
X5.6562Y-7.8412
X5.6577Y-8.2526
X5.6644Y-6.3702
X5.6644Y-6.4095
X5.6644Y-6.4489
X5.6644Y-6.5277
X5.6644Y-6.567
X5.6644Y-6.6064
X5.6644Y-6.6458
X5.6644Y-6.7245
X5.6644Y-6.7639
X5.6644Y-6.8032
X5.6644Y-6.9213
X5.6644Y-6.9606
X5.6644Y-7.0394
X5.6644Y-7.0788
X5.6644Y-7.1181
X5.6644Y-7.1575
X5.6644Y-7.2362
X5.6644Y-7.2756
X5.6644Y-7.315
X5.6644Y-7.3937
X5.6644Y-6.4883
X5.6644Y-6.6851
X5.6644Y-6.8426
X5.6644Y-7.0
X5.6644Y-7.3544
X5.6646Y-7.197
X5.697Y-7.8163
X5.6971Y-8.2526
X5.6972Y-7.941
X5.7037Y-6.4883
X5.7037Y-6.6851
X5.7037Y-6.8426
X5.7037Y-7.0
X5.7037Y-7.3544
X5.7037Y-6.3702
X5.7037Y-6.4095
X5.7037Y-6.4489
X5.7037Y-6.5277
X5.7037Y-6.567
X5.7037Y-6.6064
X5.7037Y-6.6458
X5.7037Y-6.7245
X5.7037Y-6.7639
X5.7037Y-6.8032
X5.7037Y-6.9213
X5.7037Y-6.9606
X5.7037Y-7.0394
X5.7037Y-7.0788
X5.7037Y-7.1181
X5.7037Y-7.1575
X5.7037Y-7.2362
X5.7037Y-7.2756
X5.7037Y-7.315
X5.7037Y-7.3937
X5.704Y-7.197
X5.7115Y-5.014
X5.7115Y-5.195
X5.7364Y-7.9414
X5.7431Y-6.3702
X5.7431Y-6.4095
X5.7431Y-6.4489
X5.7431Y-6.4883
X5.7431Y-6.5277
X5.7431Y-6.567
X5.7431Y-6.6064
X5.7431Y-6.6458
X5.7431Y-6.6851
X5.7431Y-6.7245
X5.7431Y-6.7639
X5.7431Y-6.8032
X5.7431Y-6.8426
X5.7431Y-6.9213
X5.7431Y-6.9606
X5.7431Y-7.0
X5.7431Y-7.0394
X5.7431Y-7.0788
X5.7431Y-7.1181
X5.7431Y-7.1575
X5.7431Y-7.1969
X5.7431Y-7.2362
X5.7431Y-7.2756
X5.7431Y-7.315
X5.7431Y-7.3544
X5.7431Y-7.3937
X5.75Y-5.1185
X5.75Y-5.3034
X5.7736Y-5.1185
X5.7736Y-5.3034
X5.7758Y-7.9414
X5.7825Y-6.4095
X5.7825Y-6.7639
X5.7825Y-6.8426
X5.7825Y-6.3702
X5.7825Y-6.4489
X5.7825Y-6.4883
X5.7825Y-6.5277
X5.7825Y-6.567
X5.7825Y-6.6064
X5.7825Y-6.6458
X5.7825Y-6.6851
X5.7825Y-6.7245
X5.7825Y-6.8032
X5.7825Y-6.9213
X5.7825Y-6.9606
X5.7825Y-7.0
X5.7825Y-7.0394
X5.7825Y-7.0788
X5.7825Y-7.1181
X5.7825Y-7.1575
X5.7825Y-7.1969
X5.7825Y-7.2362
X5.7825Y-7.315
X5.7825Y-7.3937
X5.783Y-7.276
X5.812Y-5.014
X5.812Y-5.195
X5.8151Y-7.9721
X5.8152Y-8.2219
X5.8219Y-6.3702
X5.8219Y-6.4095
X5.8219Y-6.4489
X5.8219Y-6.4883
X5.8219Y-6.5277
X5.8219Y-6.567
X5.8219Y-6.6064
X5.8219Y-6.6458
X5.8219Y-6.6851
X5.8219Y-6.7245
X5.8219Y-6.7639
X5.8219Y-6.8032
X5.8219Y-6.8426
X5.8219Y-6.9213
X5.8219Y-6.9606
X5.8219Y-7.0
X5.8219Y-7.0394
X5.8219Y-7.0788
X5.8219Y-7.1181
X5.8219Y-7.1575
X5.8219Y-7.1969
X5.8219Y-7.2362
X5.8219Y-7.315
X5.822Y-7.276
X5.8612Y-6.3702
X5.8612Y-6.4095
X5.8612Y-6.4489
X5.8612Y-6.4883
X5.8612Y-6.5277
X5.8612Y-6.567
X5.8612Y-6.6064
X5.8612Y-6.6458
X5.8612Y-6.6851
X5.8612Y-6.7245
X5.8612Y-6.7639
X5.8612Y-6.8032
X5.8612Y-6.8426
X5.8612Y-6.9213
X5.8612Y-6.9606
X5.8612Y-7.0394
X5.8612Y-7.0788
X5.8612Y-7.1181
X5.8612Y-7.1969
X5.8612Y-7.2756
X5.8612Y-7.3544
X5.8612Y-7.0
X5.8612Y-6.8819
X5.879Y-5.303
X5.8844Y-5.1305
X5.9006Y-6.3702
X5.9006Y-6.4095
X5.9006Y-6.4489
X5.9006Y-6.4883
X5.9006Y-6.5277
X5.9006Y-6.567
X5.9006Y-6.6064
X5.9006Y-6.6458
X5.9006Y-6.6851
X5.9006Y-6.7245
X5.9006Y-6.7639
X5.9006Y-6.8032
X5.9006Y-6.8426
X5.9006Y-6.9213
X5.9006Y-6.9606
X5.9006Y-7.0
X5.9006Y-7.0394
X5.9006Y-7.0788
X5.9006Y-7.1181
X5.9006Y-7.1969
X5.9006Y-7.2756
X5.9006Y-7.3544
X5.9125Y-5.014
X5.9125Y-5.195
X5.9224Y-5.1305
X5.94Y-6.3702
X5.94Y-6.4489
X5.94Y-6.4883
X5.94Y-6.5277
X5.94Y-6.567
X5.94Y-6.6064
X5.94Y-6.6458
X5.94Y-6.6851
X5.94Y-6.7245
X5.94Y-6.8032
X5.94Y-6.8426
X5.94Y-7.0
X5.94Y-7.3937
X5.94Y-7.437
X5.94Y-6.4095
X5.94Y-6.7639
X5.94Y-6.9213
X5.94Y-6.9606
X5.94Y-7.0394
X5.94Y-7.0788
X5.94Y-7.1181
X5.946Y-5.1255
X5.946Y-5.303
X5.9793Y-6.3702
X5.9793Y-6.4095
X5.9793Y-6.4489
X5.9793Y-6.4883
X5.9793Y-6.5277
X5.9793Y-6.567
X5.9793Y-6.6064
X5.9793Y-6.6458
X5.9793Y-6.6851
X5.9793Y-6.7245
X5.9793Y-6.7639
X5.9793Y-6.8032
X5.9793Y-6.8426
X5.9793Y-6.9213
X5.9793Y-6.9606
X5.9793Y-7.0
X5.9793Y-7.0394
X5.9793Y-7.0788
X5.9793Y-7.1181
X5.9795Y-5.1255
X5.9795Y-5.303
X5.9921Y-7.1378
X5.999Y-7.2166
X5.999Y-7.2953
X5.999Y-7.3741
X6.0Y-7.5827
X6.012Y-6.919
X6.013Y-5.014
X6.013Y-5.195
X6.0157Y-6.8034
X6.034Y-8.1476
X6.0465Y-5.1255
X6.0465Y-5.3025
X6.0591Y-6.685
X6.063Y-6.8072
X6.0659Y-6.5946
X6.0756Y-7.8081
X6.0795Y-5.1255
X6.0795Y-5.3025
X6.0906Y-7.4331
X6.0974Y-6.9213
X6.1024Y-6.9606
X6.1024Y-7.0128
X6.113Y-5.014
X6.113Y-5.195
X6.1145Y-7.81
X6.1418Y-6.9282
X6.1465Y-5.1255
X6.147Y-5.3025
X6.165Y-7.9643
X6.1654Y-7.8908
X6.1673Y-7.9262
X6.18Y-5.1255
X6.1805Y-5.3025
X6.1811Y-6.9282
X6.2135Y-5.0155
X6.2143Y-5.195
X6.2368Y-7.0738
X6.2368Y-7.1132
X6.2368Y-7.1524
X6.247Y-5.1255
X6.2475Y-5.3025
X6.2599Y-6.9282
X6.2749Y-7.0352
X6.2759Y-8.1474
X6.277Y-7.1926
X6.2805Y-5.014
X6.281Y-5.195
X6.3018Y-8.1446
X6.3023Y-7.0063
X6.3058Y-7.22
X6.314Y-5.303
X6.3176Y-8.2449
X6.3179Y-5.1208
X6.3327Y-7.8898
X6.3346Y-7.9262
X6.3347Y-7.1132
X6.3435Y-5.1208
X6.3473Y-5.195
X6.3701Y-6.7835
X6.381Y-5.014
X6.381Y-5.302
X6.414Y-5.1255
X6.4145Y-5.195
X6.4173Y-7.252
X6.4331Y-6.8228
X6.4331Y-6.9029
X6.4331Y-7.3504
X6.4371Y-6.8583
X6.4436Y-8.2449
X6.448Y-5.014
X6.448Y-5.302
X6.4528Y-6.878
X6.4528Y-7.252
X6.4567Y-6.8386
X6.4737Y-7.0063
X6.4752Y-7.22
X6.4764Y-7.812
X6.4803Y-7.5433
X6.4803Y-7.6142
X6.4803Y-7.6673
X6.4803Y-7.7146
X6.4803Y-7.7638
X6.4813Y-5.195
X6.4815Y-5.1255
X6.4843Y-7.4567
X6.487Y-7.97
X6.4882Y-7.5768
X6.4961Y-7.5118
X6.4968Y-8.1849
X6.498Y-7.6949
X6.502Y-7.7983
X6.5026Y-7.1911
X6.5026Y-7.0337
X6.5118Y-7.2402
X6.5118Y-7.4567
X6.515Y-5.014
X6.515Y-5.303
X6.5157Y-7.5295
X6.5157Y-7.563
X6.5157Y-7.6004
X6.5217Y-7.6831
X6.5217Y-7.7224
X6.5256Y-7.8091
X6.5354Y-6.6417
X6.5374Y-7.4567
X6.5394Y-7.2402
X6.54Y-7.1774
X6.548Y-5.121
X6.548Y-5.195
X6.5512Y-7.8091
X6.56Y-8.081
X6.563Y-7.5424
X6.5669Y-7.1378
X6.5669Y-7.252
X6.577Y-8.015
X6.582Y-5.014
X6.582Y-5.305
X6.615Y-5.121
X6.615Y-5.195
X6.644Y-7.992
X6.649Y-5.014
X6.6526Y-5.3062
X6.6614Y-7.8652
X6.6673Y-7.6122
X6.6675Y-7.7303
X6.6693Y-7.6713
X6.6693Y-7.8061
X6.6781Y-5.3062
X6.682Y-5.1215
X6.6851Y-7.8691
X6.6929Y-7.8101
X6.6969Y-7.6732
X6.699Y-7.604
X6.7018Y-7.6958
X6.702Y-7.627
X6.702Y-7.651
X6.7047Y-7.566
X6.7047Y-7.7353
X6.7087Y-7.8652
X6.7153Y-5.195
X6.716Y-5.014
X6.7166Y-7.7117
X6.7166Y-7.8061
X6.7284Y-7.8691
X6.731Y-7.998
X6.7323Y-7.7313
X6.7402Y-7.7077
X6.7402Y-7.8101
X6.7485Y-5.305
X6.749Y-5.121
X6.7599Y-7.7274
X6.7638Y-7.6369
X6.7638Y-7.6565
X6.7638Y-7.6762
X6.7638Y-7.6959
X6.7638Y-7.8101
X6.782Y-5.195
X6.783Y-5.014
X6.7874Y-7.8101
X6.7913Y-8.0925
X6.816Y-5.1215
X6.816Y-5.3065
X6.8425Y-7.6369
X6.8425Y-7.6772
X6.8445Y-7.6565
X6.8445Y-7.6988
X6.8465Y-7.7195
X6.8493Y-5.195
X6.85Y-5.014
X6.8662Y-7.7077
X6.8701Y-7.7313
X6.882Y-5.308
X6.883Y-5.123
X6.8854Y-6.6308
X6.8854Y-6.7105
X6.8856Y-6.7874
X6.8856Y-6.8661
X6.8856Y-6.9448
X6.8856Y-7.0236
X6.8856Y-7.1023
X6.8898Y-7.755
X6.8937Y-7.7943
X6.8937Y-7.8337
X6.8937Y-7.8731
X6.901Y-7.814
X6.9016Y-7.7736
X6.9055Y-7.8534
X6.9095Y-7.5896
X6.9165Y-5.014
X6.9165Y-5.195
X6.92Y-7.685
X6.9213Y-7.8337
X6.9213Y-7.8731
X6.929Y-7.971
X6.9314Y-8.0281
X6.937Y-7.8534
X6.95Y-5.123
X6.95Y-5.308
X6.9567Y-7.8337
X6.9567Y-7.8731
X6.957Y-7.052
X6.9726Y-8.1246
X6.9764Y-7.8534
X6.9833Y-5.195
X6.9835Y-5.014
X6.9977Y-7.8054
X7.0Y-6.85
X7.0Y-7.8346
X7.0Y-7.874
X7.0057Y-7.5681
X7.016Y-5.308
X7.0197Y-7.8543
X7.0206Y-5.1174
X7.0217Y-7.6437
X7.0462Y-5.1174
X7.0472Y-7.6024
X7.0474Y-7.7683
X7.0474Y-7.8076
X7.05Y-5.195
X7.0512Y-7.0512
X7.0512Y-7.0955
X7.0512Y-7.1801
X7.0517Y-7.1388
X7.0591Y-7.8937
X7.0671Y-7.6402
X7.0671Y-7.6796
X7.0671Y-7.7879
X7.0671Y-7.8273
X7.0709Y-6.5433
X7.0728Y-7.262
X7.073Y-7.235
X7.0835Y-5.014
X7.084Y-5.308
X7.0906Y-6.5729
X7.0906Y-6.5959
X7.0906Y-7.2881
X7.0906Y-7.311
X7.094Y-6.527
X7.0945Y-6.6575
X7.0984Y-7.3504
X7.1033Y-5.8917
X7.1047Y-8.1379
X7.1047Y-8.1764
X7.1047Y-8.2167
X7.1102Y-7.2087
X7.1147Y-7.9907
X7.1173Y-5.195
X7.118Y-5.123
X7.1286Y-5.8655
X7.1292Y-6.0397
X7.1292Y-6.1315
X7.134Y-6.47
X7.1348Y-5.9793
X7.137Y-7.192
X7.1372Y-7.7455
X7.1378Y-7.7028
X7.1494Y-6.6835
X7.1494Y-7.3701
X7.1496Y-7.9705
X7.1505Y-5.014
X7.151Y-5.308
X7.1667Y-5.8665
X7.1668Y-7.192
X7.1673Y-6.1299
X7.1714Y-6.4707
X7.1724Y-6.6835
X7.1724Y-7.3701
X7.184Y-5.123
X7.1845Y-5.195
X7.1887Y-6.655
X7.1887Y-7.3987
X7.1904Y-7.1321
X7.1905Y-6.4178
X7.194Y-8.137
X7.1949Y-6.1063
X7.2Y-7.05
X7.2047Y-7.8976
X7.207Y-5.8261
X7.2117Y-6.655
X7.2117Y-7.3987
X7.217Y-5.308
X7.2175Y-5.014
X7.224Y-6.196
X7.2244Y-7.5748
X7.2244Y-7.7224
X7.2285Y-7.1329
X7.2286Y-6.4182
X7.2352Y-5.9793
X7.242Y-6.367
X7.2451Y-7.9705
X7.2513Y-5.195
X7.252Y-6.6535
X7.252Y-7.3583
X7.252Y-5.122
X7.252Y-7.64
X7.258Y-7.7853
X7.258Y-7.807
X7.258Y-7.831
X7.2703Y-5.8524
X7.2707Y-5.8927
X7.2708Y-6.5731
X7.2708Y-6.5961
X7.2708Y-7.2883
X7.2708Y-7.3112
X7.2795Y-7.2598
X7.2818Y-8.1744
X7.2818Y-8.2138
X7.283Y-7.614
X7.2833Y-7.1687
X7.2834Y-6.452
X7.2835Y-6.5433
X7.2845Y-5.014
X7.285Y-5.308
X7.29Y-7.785
X7.2907Y-8.139
X7.2953Y-6.3839
X7.318Y-5.122
X7.318Y-5.195
X7.3268Y-6.3573
X7.3268Y-6.3839
X7.3268Y-6.4104
X7.3268Y-6.437
X7.3268Y-6.6772
X7.3268Y-6.7037
X7.3268Y-6.7303
X7.3268Y-6.7569
X7.3268Y-6.7835
X7.3268Y-7.3524
X7.3268Y-7.3819
X7.3268Y-7.4094
X7.3268Y-7.437
X7.3268Y-7.4685
X7.329Y-7.786
X7.3297Y-7.0472
X7.3297Y-7.0758
X7.3297Y-7.1043
X7.3297Y-7.1319
X7.3307Y-7.8976
X7.3515Y-5.014
X7.3553Y-5.3084
X7.3583Y-7.1181
X7.3622Y-6.6693
X7.3622Y-6.7047
X7.3701Y-6.438
X7.3701Y-7.1417
X7.3701Y-7.1683
X7.3701Y-7.3898
X7.3711Y-6.4882
X7.3731Y-6.2598
X7.3809Y-5.3084
X7.385Y-6.2007
X7.385Y-5.122
X7.385Y-6.038
X7.385Y-6.1
X7.385Y-6.149
X7.3937Y-7.122
X7.3937Y-7.1535
X7.4094Y-6.438
X7.4094Y-6.4882
X7.4094Y-7.3681
X7.4094Y-7.3917
X7.4134Y-6.6693
X7.4134Y-6.7028
X7.4144Y-7.1378
X7.4144Y-7.1673
X7.4154Y-6.2618
X7.4154Y-6.314
X7.416Y-6.008
X7.4169Y-6.378
X7.417Y-6.7599
X7.4172Y-7.0669
X7.4182Y-7.4448
X7.4183Y-5.195
X7.4185Y-5.014
X7.4281Y-6.2874
X7.436Y-7.5935
X7.437Y-7.6398
X7.437Y-7.6693
X7.4385Y-6.378
X7.4387Y-6.7599
X7.4389Y-7.0669
X7.439Y-6.5453
X7.439Y-6.5945
X7.4399Y-7.4448
X7.4456Y-6.1744
X7.4459Y-7.2313
X7.4459Y-7.2805
X7.4469Y-5.9799
X7.4488Y-7.6152
X7.451Y-5.122
X7.451Y-5.307
X7.4567Y-7.8976
X7.4616Y-6.2618
X7.4616Y-6.314
X7.4626Y-6.5699
X7.4695Y-7.2559
X7.4695Y-7.6535
X7.473Y-5.952
X7.4774Y-6.2874
X7.4852Y-6.5935
X7.4855Y-5.014
X7.4855Y-5.195
X7.4862Y-6.5463
X7.4921Y-7.2795
X7.4931Y-7.2323
X7.5157Y-6.2618
X7.5157Y-6.314
X7.518Y-5.307
X7.519Y-5.122
X7.5236Y-6.9646
X7.537Y-5.765
X7.538Y-5.817
X7.5523Y-5.195
X7.5525Y-5.014
X7.557Y-6.5659
X7.5571Y-7.8465
X7.5581Y-7.253
X7.5591Y-6.9488
X7.5591Y-6.9764
X7.561Y-5.795
X7.5659Y-7.627
X7.5776Y-6.1705
X7.582Y-5.775
X7.5827Y-7.6909
X7.5827Y-7.8976
X7.585Y-5.307
X7.586Y-5.122
X7.5894Y-6.1901
X7.6051Y-6.1705
X7.6102Y-6.5669
X7.6112Y-7.7156
X7.6142Y-7.252
X7.6161Y-7.4498
X7.619Y-5.195
X7.6192Y-7.063
X7.6195Y-5.014
X7.6209Y-6.1901
X7.622Y-6.7638
X7.626Y-6.376
X7.6339Y-6.4075
X7.6339Y-6.5315
X7.6339Y-6.6063
X7.6339Y-6.7205
X7.6349Y-7.0945
X7.6349Y-7.2185
X7.6349Y-7.2933
X7.6349Y-7.4075
X7.6366Y-6.1705
X7.6398Y-7.7815
X7.6437Y-7.6205
X7.6437Y-7.6496
X7.6437Y-7.6909
X7.6484Y-6.1901
X7.652Y-5.307
X7.653Y-5.122
X7.6614Y-6.3799
X7.6614Y-6.4311
X7.6614Y-6.748
X7.6625Y-7.067
X7.6625Y-7.1181
X7.6625Y-7.4351
X7.6642Y-6.1705
X7.6762Y-7.7175
X7.6842Y-6.1899
X7.685Y-6.7205
X7.6858Y-5.195
X7.6861Y-7.4075
X7.6865Y-5.014
X7.6929Y-7.0984
X7.698Y-6.1702
X7.7028Y-7.6476
X7.7028Y-7.6949
X7.7087Y-7.8976
X7.7137Y-6.1899
X7.716Y-5.307
X7.7234Y-5.1214
X7.7244Y-6.7283
X7.7255Y-7.4154
X7.7315Y-6.4064
X7.7321Y-7.0949
X7.7323Y-6.9488
X7.7323Y-6.9803
X7.7334Y-6.2174
X7.7354Y-6.1702
X7.739Y-6.5138
X7.739Y-6.6241
X7.7401Y-7.2009
X7.7401Y-7.3111
X7.7429Y-6.569
X7.744Y-7.256
X7.7461Y-7.5984
X7.749Y-5.1214
X7.753Y-5.195
X7.7559Y-6.4055
X7.7566Y-6.7307
X7.757Y-7.0926
X7.7577Y-7.4158
X7.759Y-6.1958
X7.7611Y-6.5354
X7.7611Y-6.6032
X7.7621Y-7.2224
X7.7621Y-7.2903
X7.782Y-6.732
X7.782Y-7.42
X7.783Y-6.406
X7.783Y-7.093
X7.7865Y-5.014
X7.787Y-5.307
X7.7941Y-6.5217
X7.7941Y-6.6201
X7.795Y-6.5693
X7.7952Y-7.2088
X7.7952Y-7.3072
X7.7961Y-7.2563
X7.8071Y-7.4193
X7.808Y-7.093
X7.809Y-6.406
X7.811Y-6.7323
X7.813Y-7.7047
X7.8198Y-5.195
X7.82Y-5.122
X7.8209Y-7.6319
X7.8237Y-7.5324
X7.8258Y-6.2874
X7.8287Y-7.4193
X7.8289Y-6.5354
X7.8289Y-6.6032
X7.83Y-7.2224
X7.83Y-7.2903
X7.8346Y-6.4055
X7.8346Y-6.7323
X7.8346Y-7.8976
X7.8357Y-7.0926
X7.8434Y-6.9753
X7.8445Y-6.8494
X7.8453Y-6.569
X7.8454Y-7.5324
X7.8464Y-7.256
X7.8475Y-6.2874
X7.853Y-5.307
X7.8532Y-6.5138
X7.8532Y-6.6241
X7.8535Y-5.014
X7.8542Y-7.2009
X7.8542Y-7.3111
X7.8599Y-6.0828
X7.8635Y-6.1907
X7.8651Y-6.9753
X7.8661Y-6.8494
X7.8865Y-5.195
X7.887Y-5.122
X7.8938Y-6.2174
X7.9055Y-6.4055
X7.9154Y-7.6004
X7.92Y-5.0135
X7.9536Y-7.1668
X7.9536Y-7.2947
X7.9536Y-7.3459
X7.9539Y-7.3205
X7.9545Y-6.4797
X7.9555Y-6.6367
X7.9557Y-7.1929
X7.9567Y-6.5039
X7.9567Y-6.5827
X7.9577Y-6.6083
X7.9578Y-7.2697
X7.9579Y-6.6721
X7.9587Y-6.7195
X7.9626Y-7.4075
X8.0197Y-6.6565
X8.0197Y-7.3455
X8.0217Y-6.6909
X8.0217Y-6.7283
X8.0217Y-7.372
X8.0217Y-7.3976
X8.0236Y-6.3898
X8.0236Y-6.4213
X8.0236Y-6.4547
X8.0236Y-6.4862
X8.0256Y-6.2874
X8.0256Y-6.3209
X8.0256Y-6.3543
X8.0256Y-7.0787
X8.0256Y-7.1102
X8.0256Y-7.1437
X8.0256Y-7.1752
X8.0276Y-6.9764
X8.0276Y-7.0098
X8.0276Y-7.0433
X8.039Y-7.844
X8.041Y-7.875
X8.0433Y-7.563
X8.064Y-6.7283
X8.064Y-7.3976
X8.064Y-6.108
X8.065Y-6.6555
X8.065Y-6.6909
X8.065Y-7.3465
X8.065Y-7.3701
X8.077Y-7.884
X8.0784Y-6.1997
X8.084Y-7.806
X8.084Y-7.845
X8.0866Y-7.563
X8.0875Y-6.1082
X8.0925Y-7.6457
X8.0965Y-6.3386
X8.0965Y-6.374
X8.0965Y-6.4075
X8.0965Y-6.439
X8.0965Y-6.4705
X8.0984Y-6.2677
X8.0984Y-6.3031
X8.0984Y-7.0276
X8.0984Y-7.063
X8.0984Y-7.0965
X8.0984Y-7.128
X8.0984Y-7.1594
X8.1004Y-6.9921
X8.1024Y-6.6555
X8.1024Y-6.6929
X8.1024Y-6.7283
X8.1024Y-7.3455
X8.1024Y-7.372
X8.1024Y-7.3996
X8.1083Y-6.1422
X8.1182Y-6.1072
X8.119Y-7.803
X8.121Y-7.837
X8.135Y-6.1416
T3
X2.936Y-6.504
X2.936Y-6.754
X2.9856Y-6.404
X2.9859Y-6.854
X3.0856Y-6.454
X3.0856Y-6.554
X3.0856Y-6.654
X3.0856Y-6.754
X3.0856Y-6.854
X3.1855Y-6.404
X3.1855Y-6.504
X3.1855Y-6.604
X3.1855Y-6.704
X3.1855Y-6.804
T5
X2.6754Y-6.3675
X2.6754Y-6.4676
X2.6754Y-6.7904
X2.6754Y-6.8905
T7
X2.9552Y-6.3199
T8
X2.9552Y-6.938
T9
X2.74Y-8.0787
X2.843Y-4.88
T2
G00X2.5945Y-7.1624
M15
G01X2.563Y-7.1624
M16
G05
G00X2.5945Y-7.5026
M15
G01X2.563Y-7.5026
M16
G05
G00X2.7651Y-7.1624
M15
G01X2.7217Y-7.1624
M16
G05
G00X2.7651Y-7.5026
M15
G01X2.7217Y-7.5026
M16
G05
T4
G00X7.8292Y-5.8192
M15
G01X7.8292Y-5.9176
M16
G05
G00X7.9846Y-5.6763
M15
G01X7.9059Y-5.6763
M16
G05
G00X8.0654Y-5.9078
M15
G01X8.0654Y-5.829
M16
G05
T6
G00X2.7451Y-5.1323
M15
G01X2.7451Y-5.1827
M16
G05
G00X5.5168Y-5.1323
M15
G01X5.5168Y-5.1827
M16
G05
G00X8.1762Y-5.1323
M15
G01X8.1762Y-5.1827
M16
G05
M30
