G04 #@! TF.GenerationSoftware,KiCad,Pcbnew,7.0.11-rc3*
G04 #@! TF.CreationDate,2024-11-10T09:22:12+01:00*
G04 #@! TF.ProjectId,sodimm-ddr5-tester,736f6469-6d6d-42d6-9464-72352d746573,1.2.0*
G04 #@! TF.SameCoordinates,Original*
G04 #@! TF.FileFunction,Soldermask,Bot*
G04 #@! TF.FilePolarity,Negative*
%FSLAX46Y46*%
G04 Gerber Fmt 4.6, Leading zero omitted, Abs format (unit mm)*
G04 Created by KiCad (PCBNEW 7.0.11-rc3) date 2024-11-10 09:22:12*
%MOMM*%
%LPD*%
G01*
G04 APERTURE LIST*
G04 Aperture macros list*
%AMRoundRect*
0 Rectangle with rounded corners*
0 $1 Rounding radius*
0 $2 $3 $4 $5 $6 $7 $8 $9 X,Y pos of 4 corners*
0 Add a 4 corners polygon primitive as box body*
4,1,4,$2,$3,$4,$5,$6,$7,$8,$9,$2,$3,0*
0 Add four circle primitives for the rounded corners*
1,1,$1+$1,$2,$3*
1,1,$1+$1,$4,$5*
1,1,$1+$1,$6,$7*
1,1,$1+$1,$8,$9*
0 Add four rect primitives between the rounded corners*
20,1,$1+$1,$2,$3,$4,$5,0*
20,1,$1+$1,$4,$5,$6,$7,0*
20,1,$1+$1,$6,$7,$8,$9,0*
20,1,$1+$1,$8,$9,$2,$3,0*%
G04 Aperture macros list end*
%ADD10C,3.250000*%
%ADD11C,1.397000*%
%ADD12C,1.524000*%
%ADD13C,2.100000*%
%ADD14C,2.108200*%
%ADD15O,1.875000X3.750000*%
%ADD16C,3.000000*%
%ADD17C,6.000000*%
%ADD18C,1.000000*%
%ADD19O,1.700000X1.000000*%
%ADD20C,0.650000*%
%ADD21O,2.100000X1.050000*%
%ADD22O,2.000000X1.000000*%
%ADD23O,2.000000X4.500000*%
%ADD24O,4.000000X1.990000*%
%ADD25O,2.000000X4.000000*%
%ADD26RoundRect,0.135000X-0.185000X0.135000X-0.185000X-0.135000X0.185000X-0.135000X0.185000X0.135000X0*%
%ADD27RoundRect,0.135000X0.185000X-0.135000X0.185000X0.135000X-0.185000X0.135000X-0.185000X-0.135000X0*%
%ADD28RoundRect,0.135000X-0.135000X-0.185000X0.135000X-0.185000X0.135000X0.185000X-0.135000X0.185000X0*%
%ADD29RoundRect,0.135000X0.135000X0.185000X-0.135000X0.185000X-0.135000X-0.185000X0.135000X-0.185000X0*%
%ADD30RoundRect,0.140000X0.170000X-0.140000X0.170000X0.140000X-0.170000X0.140000X-0.170000X-0.140000X0*%
%ADD31RoundRect,0.140000X-0.140000X-0.170000X0.140000X-0.170000X0.140000X0.170000X-0.140000X0.170000X0*%
%ADD32RoundRect,0.114300X-0.266700X-0.430700X0.266700X-0.430700X0.266700X0.430700X-0.266700X0.430700X0*%
%ADD33RoundRect,0.114300X0.266700X0.430700X-0.266700X0.430700X-0.266700X-0.430700X0.266700X-0.430700X0*%
%ADD34RoundRect,0.140000X0.140000X0.170000X-0.140000X0.170000X-0.140000X-0.170000X0.140000X-0.170000X0*%
%ADD35RoundRect,0.140000X-0.170000X0.140000X-0.170000X-0.140000X0.170000X-0.140000X0.170000X0.140000X0*%
%ADD36RoundRect,0.150000X0.150000X-0.150000X0.150000X0.150000X-0.150000X0.150000X-0.150000X-0.150000X0*%
%ADD37RoundRect,0.150000X0.150000X0.150000X-0.150000X0.150000X-0.150000X-0.150000X0.150000X-0.150000X0*%
%ADD38RoundRect,0.225000X0.250000X-0.225000X0.250000X0.225000X-0.250000X0.225000X-0.250000X-0.225000X0*%
%ADD39RoundRect,0.120000X0.180000X0.280000X-0.180000X0.280000X-0.180000X-0.280000X0.180000X-0.280000X0*%
%ADD40C,2.000000*%
%ADD41RoundRect,0.225000X0.225000X0.250000X-0.225000X0.250000X-0.225000X-0.250000X0.225000X-0.250000X0*%
%ADD42RoundRect,0.150000X-0.150000X0.150000X-0.150000X-0.150000X0.150000X-0.150000X0.150000X0.150000X0*%
%ADD43RoundRect,0.225000X-0.250000X0.225000X-0.250000X-0.225000X0.250000X-0.225000X0.250000X0.225000X0*%
%ADD44RoundRect,0.225000X-0.225000X-0.250000X0.225000X-0.250000X0.225000X0.250000X-0.225000X0.250000X0*%
%ADD45RoundRect,0.120000X-0.180000X-0.280000X0.180000X-0.280000X0.180000X0.280000X-0.180000X0.280000X0*%
%ADD46R,1.200000X1.200000*%
G04 APERTURE END LIST*
D10*
X72012700Y-162662487D03*
X72012700Y-174091487D03*
D11*
X80912700Y-162662487D03*
X78373700Y-163931487D03*
X80912700Y-165201487D03*
X78373700Y-166471487D03*
X80912700Y-167740487D03*
X78373700Y-169011487D03*
X80912700Y-170280487D03*
X78373700Y-171552487D03*
X80912700Y-172821487D03*
X78373700Y-174091487D03*
X75834700Y-162662487D03*
X74573700Y-165201487D03*
X74573700Y-171552487D03*
X75842700Y-174091487D03*
D12*
X67954700Y-161735487D03*
X67954700Y-164276487D03*
X67954700Y-172476487D03*
X67954700Y-175017487D03*
D13*
X75062700Y-160526487D03*
D14*
X75062700Y-176225487D03*
D15*
X69724501Y-131000000D03*
X140125501Y-131000000D03*
X207674501Y-131000000D03*
D16*
X206832200Y-123850400D03*
X206832200Y-205000000D03*
D17*
X72212200Y-123952000D03*
D18*
X103915200Y-206052299D03*
D19*
X111915200Y-206052299D03*
D20*
X69182400Y-183355800D03*
X69182400Y-189136800D03*
D21*
X69682400Y-181925800D03*
D22*
X65501400Y-181925800D03*
D21*
X69682400Y-190566800D03*
D22*
X65501400Y-190566800D03*
D17*
X69596000Y-205199800D03*
D23*
X198861400Y-149057600D03*
D24*
X201809400Y-144178600D03*
D25*
X204860400Y-149057600D03*
D26*
X98000000Y-180440000D03*
X98000000Y-181460000D03*
X99050000Y-180440000D03*
X99050000Y-181460000D03*
X100100000Y-180440000D03*
X100100000Y-181460000D03*
X102200000Y-180440000D03*
X102200000Y-181460000D03*
X101150000Y-180440000D03*
X101150000Y-181460000D03*
D27*
X107858200Y-192795800D03*
X107858200Y-191775800D03*
X108858200Y-192795800D03*
X108858200Y-191775800D03*
X104358200Y-192795800D03*
X104358200Y-191775800D03*
X103342200Y-192800301D03*
X103342200Y-191780301D03*
X105383200Y-192785800D03*
X105383200Y-191765800D03*
X109858200Y-192795800D03*
X109858200Y-191775800D03*
X110858200Y-192795800D03*
X110858200Y-191775800D03*
X99500501Y-162086000D03*
X99500501Y-161066000D03*
X98450501Y-162086000D03*
X98450501Y-161066000D03*
X101625501Y-162111000D03*
X101625501Y-161091000D03*
X100525501Y-162086000D03*
X100525501Y-161066000D03*
X95308672Y-155460000D03*
X95308672Y-154440000D03*
D28*
X97590000Y-153800000D03*
X98610000Y-153800000D03*
D29*
X85710501Y-152813149D03*
X84690501Y-152813149D03*
X85710501Y-154313149D03*
X84690501Y-154313149D03*
D30*
X95600000Y-150780000D03*
X95600000Y-149820000D03*
X93308672Y-158484992D03*
X93308672Y-157524992D03*
X95308672Y-158484992D03*
X95308672Y-157524992D03*
X93036829Y-150763157D03*
X93036829Y-149803157D03*
X91150000Y-158484992D03*
X91150000Y-157524992D03*
X94061829Y-150763157D03*
X94061829Y-149803157D03*
X94308672Y-158484992D03*
X94308672Y-157524992D03*
D31*
X97406829Y-150808157D03*
X98366829Y-150808157D03*
D30*
X91500000Y-150763157D03*
X91500000Y-149803157D03*
D31*
X97620000Y-155200000D03*
X98580000Y-155200000D03*
D30*
X90086829Y-150113157D03*
X90086829Y-149153157D03*
X92308672Y-158484992D03*
X92308672Y-157524992D03*
X89086829Y-150113157D03*
X89086829Y-149153157D03*
X90108672Y-158484992D03*
X90108672Y-157524992D03*
D32*
X99091501Y-149558851D03*
X97312501Y-149558851D03*
D33*
X92195829Y-152558157D03*
X93974829Y-152558157D03*
D27*
X69672200Y-171674000D03*
X69672200Y-170654000D03*
D26*
X69692701Y-164240000D03*
X69692701Y-165260000D03*
X99525501Y-163441000D03*
X99525501Y-164461000D03*
D29*
X98610000Y-158100000D03*
X97590000Y-158100000D03*
D26*
X97425501Y-163441000D03*
X97425501Y-164461000D03*
X101625501Y-163441000D03*
X101625501Y-164461000D03*
X100550501Y-163441000D03*
X100550501Y-164461000D03*
D27*
X94258672Y-155460000D03*
X94258672Y-154440000D03*
X85680501Y-151863149D03*
X85680501Y-150843149D03*
D26*
X85680501Y-155253149D03*
X85680501Y-156273149D03*
D27*
X96375501Y-162086000D03*
X96375501Y-161066000D03*
D26*
X96375501Y-163441000D03*
X96375501Y-164461000D03*
D18*
X96800000Y-178050000D03*
D26*
X98475501Y-163441000D03*
X98475501Y-164461000D03*
D27*
X97425501Y-162086000D03*
X97425501Y-161066000D03*
D31*
X117170501Y-172866000D03*
X118130501Y-172866000D03*
D34*
X148355501Y-162301000D03*
X147395501Y-162301000D03*
D29*
X181310000Y-197400000D03*
X180290000Y-197400000D03*
D34*
X145355501Y-173301000D03*
X144395501Y-173301000D03*
X150355001Y-180300501D03*
X149395001Y-180300501D03*
D30*
X75095100Y-142986700D03*
X75095100Y-142026700D03*
D29*
X181310000Y-194050000D03*
X180290000Y-194050000D03*
D27*
X144708700Y-200995301D03*
X144708700Y-199975301D03*
D34*
X142355001Y-171302500D03*
X141395001Y-171302500D03*
D28*
X159190500Y-180676001D03*
X160210500Y-180676001D03*
D35*
X143375501Y-172321000D03*
X143375501Y-173281000D03*
D27*
X77089000Y-131218400D03*
X77089000Y-130198400D03*
D30*
X143375001Y-178280500D03*
X143375001Y-177320500D03*
D31*
X149456200Y-131000000D03*
X150416200Y-131000000D03*
D35*
X146375001Y-183320500D03*
X146375001Y-184280500D03*
D28*
X196190000Y-171725000D03*
X197210000Y-171725000D03*
X137267001Y-159575500D03*
X138287001Y-159575500D03*
D31*
X147395501Y-167301000D03*
X148355501Y-167301000D03*
D30*
X149377001Y-182280500D03*
X149377001Y-181320500D03*
D27*
X158750000Y-201370800D03*
X158750000Y-200350800D03*
D31*
X137395001Y-177302500D03*
X138355001Y-177302500D03*
X136397001Y-173302500D03*
X137357001Y-173302500D03*
D34*
X202308400Y-149072600D03*
X201348400Y-149072600D03*
D30*
X119580501Y-176406000D03*
X119580501Y-175446000D03*
D36*
X141375001Y-170302500D03*
D37*
X142374001Y-170302500D03*
D30*
X160200000Y-201355800D03*
X160200000Y-200395800D03*
D27*
X140302001Y-160610000D03*
X140302001Y-159590000D03*
D35*
X149377001Y-183320500D03*
X149377001Y-184280500D03*
D38*
X138900501Y-186051000D03*
X138900501Y-184501000D03*
D34*
X134355501Y-163301000D03*
X133395501Y-163301000D03*
D30*
X139375001Y-179282500D03*
X139375001Y-178322500D03*
D35*
X146375001Y-185320501D03*
X146375001Y-186280501D03*
D39*
X141475501Y-174801000D03*
X142875501Y-174801000D03*
D31*
X139395001Y-171302500D03*
X140355001Y-171302500D03*
X156020501Y-175276000D03*
X156980501Y-175276000D03*
D27*
X202881001Y-170732000D03*
X202881001Y-169712000D03*
D31*
X172320501Y-196376000D03*
X173280501Y-196376000D03*
D30*
X141375501Y-178281000D03*
X141375501Y-177321000D03*
D28*
X125367001Y-173300500D03*
X126387001Y-173300500D03*
D34*
X148355501Y-176301000D03*
X147395501Y-176301000D03*
D28*
X147367001Y-177302500D03*
X148387001Y-177302500D03*
D18*
X124200000Y-186200000D03*
D34*
X145355001Y-180302500D03*
X144395001Y-180302500D03*
X129355501Y-168301000D03*
X128395501Y-168301000D03*
D40*
X197010501Y-197696000D03*
D34*
X94280000Y-164451500D03*
X93320000Y-164451500D03*
D41*
X140350501Y-174801000D03*
X138800501Y-174801000D03*
D31*
X141395501Y-180301000D03*
X142355501Y-180301000D03*
D37*
X143375001Y-171302500D03*
D42*
X143375001Y-170303500D03*
D34*
X137355501Y-162301000D03*
X136395501Y-162301000D03*
X183255000Y-202475600D03*
X182295000Y-202475600D03*
D35*
X126375501Y-181321000D03*
X126375501Y-182281000D03*
X130375501Y-162321000D03*
X130375501Y-163281000D03*
D29*
X78705200Y-161564000D03*
X77685200Y-161564000D03*
D31*
X142677000Y-131000000D03*
X143637000Y-131000000D03*
D28*
X181148800Y-206679800D03*
X182168800Y-206679800D03*
D30*
X140375501Y-165281000D03*
X140375501Y-164321000D03*
D35*
X150375501Y-169322500D03*
X150375501Y-170282500D03*
D34*
X145357001Y-186300500D03*
X144397001Y-186300500D03*
D35*
X137375501Y-184321000D03*
X137375501Y-185281000D03*
D31*
X183428800Y-206629800D03*
X184388800Y-206629800D03*
D35*
X130375501Y-183320500D03*
X130375501Y-184280500D03*
D18*
X124200000Y-184800000D03*
D30*
X140375501Y-178281000D03*
X140375501Y-177321000D03*
D31*
X144397001Y-184300500D03*
X145357001Y-184300500D03*
D28*
X181148800Y-207679800D03*
X182168800Y-207679800D03*
D30*
X140375001Y-173282500D03*
X140375001Y-172322500D03*
X104950000Y-172468000D03*
X104950000Y-171508000D03*
D34*
X137357002Y-171302500D03*
X136397002Y-171302500D03*
D29*
X122860501Y-175426000D03*
X121840501Y-175426000D03*
D34*
X148355001Y-179300500D03*
X147395001Y-179300500D03*
X128355501Y-165301000D03*
X127395501Y-165301000D03*
D35*
X147375001Y-170320500D03*
X147375001Y-171280500D03*
D29*
X159010501Y-175276000D03*
X157990501Y-175276000D03*
D30*
X137375001Y-180282500D03*
X137375001Y-179322500D03*
D27*
X202875000Y-165360000D03*
X202875000Y-164340000D03*
D43*
X114275501Y-175951000D03*
X114275501Y-177501000D03*
D34*
X141355001Y-182300500D03*
X140395001Y-182300500D03*
D29*
X147385001Y-173302500D03*
X146365001Y-173302500D03*
D26*
X124750000Y-187340000D03*
X124750000Y-188360000D03*
D29*
X154285001Y-175300000D03*
X153265001Y-175300000D03*
D35*
X144375501Y-182321000D03*
X144375501Y-183281000D03*
D30*
X146375001Y-179280500D03*
X146375001Y-178320500D03*
D34*
X139357001Y-173302500D03*
X138397001Y-173302500D03*
D27*
X123700000Y-188360000D03*
X123700000Y-187340000D03*
D28*
X114290501Y-181249999D03*
X115310501Y-181249999D03*
D35*
X129375501Y-180321000D03*
X129375501Y-181281000D03*
D30*
X128375501Y-172281000D03*
X128375501Y-171321000D03*
D35*
X131375501Y-186321000D03*
X131375501Y-187281000D03*
D31*
X136397001Y-172302500D03*
X137357001Y-172302500D03*
D35*
X131375501Y-176321000D03*
X131375501Y-177281000D03*
X202950000Y-184870000D03*
X202950000Y-185830000D03*
D29*
X197210000Y-179400000D03*
X196190000Y-179400000D03*
D31*
X142395001Y-176302500D03*
X143355001Y-176302500D03*
D30*
X105960000Y-172460000D03*
X105960000Y-171500000D03*
D31*
X140395501Y-176301000D03*
X141355501Y-176301000D03*
X146395501Y-164301000D03*
X147355501Y-164301000D03*
D35*
X184308800Y-207649800D03*
X184308800Y-208609800D03*
D30*
X136375501Y-166281000D03*
X136375501Y-165321000D03*
D34*
X149857001Y-186150500D03*
X148897001Y-186150500D03*
D31*
X141370000Y-159600000D03*
X142330000Y-159600000D03*
X141395501Y-172301000D03*
X142355501Y-172301000D03*
X144395501Y-172301000D03*
X145355501Y-172301000D03*
D35*
X131375501Y-165321000D03*
X131375501Y-166281000D03*
D27*
X202925000Y-188160000D03*
X202925000Y-187140000D03*
D26*
X80467200Y-130223800D03*
X80467200Y-131243800D03*
D30*
X140375501Y-186281000D03*
X140375501Y-185321000D03*
D29*
X135385000Y-186300000D03*
X134365000Y-186300000D03*
D30*
X145375501Y-179281000D03*
X145375501Y-178321000D03*
D31*
X150395501Y-166301000D03*
X151355501Y-166301000D03*
D34*
X138355001Y-176302500D03*
X137395001Y-176302500D03*
X107188200Y-194285800D03*
X106228200Y-194285800D03*
D30*
X139375001Y-177282500D03*
X139375001Y-176322500D03*
D29*
X197210000Y-161950000D03*
X196190000Y-161950000D03*
D28*
X181148800Y-208679800D03*
X182168800Y-208679800D03*
D27*
X143655200Y-200998799D03*
X143655200Y-199978799D03*
D35*
X127375501Y-184321000D03*
X127375501Y-185281000D03*
D30*
X103340000Y-176684000D03*
X103340000Y-175724000D03*
D35*
X142375501Y-186321000D03*
X142375501Y-187281000D03*
D34*
X152355001Y-177300500D03*
X151395001Y-177300500D03*
D43*
X138877001Y-168627500D03*
X138877001Y-170177500D03*
D31*
X143395501Y-165301000D03*
X144355501Y-165301000D03*
D28*
X122640000Y-182000000D03*
X123660000Y-182000000D03*
D31*
X141370000Y-160700000D03*
X142330000Y-160700000D03*
D44*
X131325501Y-174776000D03*
X132875501Y-174776000D03*
D30*
X134375501Y-170281000D03*
X134375501Y-169321000D03*
D29*
X181310000Y-198400000D03*
X180290000Y-198400000D03*
D44*
X126300501Y-174801000D03*
X127850501Y-174801000D03*
D29*
X115310502Y-182600000D03*
X114290502Y-182600000D03*
D30*
X105960000Y-176684000D03*
X105960000Y-175724000D03*
D31*
X69647900Y-143524800D03*
X70607900Y-143524800D03*
D35*
X115580501Y-176446000D03*
X115580501Y-177406000D03*
D31*
X149395001Y-176300000D03*
X150355001Y-176300000D03*
D45*
X148075501Y-174801000D03*
X146675501Y-174801000D03*
D30*
X133375501Y-167281000D03*
X133375501Y-166321000D03*
D35*
X151375501Y-162321000D03*
X151375501Y-163281000D03*
D31*
X101620000Y-159550000D03*
X102580000Y-159550000D03*
D28*
X159190501Y-179676000D03*
X160210501Y-179676000D03*
D31*
X141395001Y-179302500D03*
X142355001Y-179302500D03*
D30*
X137375501Y-169281000D03*
X137375501Y-168321000D03*
X146375001Y-182282500D03*
X146375001Y-181322500D03*
D29*
X181310000Y-191000000D03*
X180290000Y-191000000D03*
D38*
X136075001Y-160977500D03*
X136075001Y-159427500D03*
D28*
X122640000Y-183099999D03*
X123660000Y-183099999D03*
D29*
X181310000Y-192000000D03*
X180290000Y-192000000D03*
D35*
X202900000Y-167420000D03*
X202900000Y-168380000D03*
D29*
X181310000Y-199400000D03*
X180290000Y-199400000D03*
D30*
X142375501Y-178281000D03*
X142375501Y-177321000D03*
D35*
X76779097Y-165497487D03*
X76779097Y-166457487D03*
D34*
X142355501Y-173301000D03*
X141395501Y-173301000D03*
D35*
X144375001Y-177322500D03*
X144375001Y-178282500D03*
D41*
X145550501Y-174801000D03*
X144000501Y-174801000D03*
D40*
X202336400Y-123926600D03*
D34*
X127355501Y-162301000D03*
X126395501Y-162301000D03*
X148357001Y-178302500D03*
X147397001Y-178302500D03*
D31*
X141395501Y-169301000D03*
X142355501Y-169301000D03*
D40*
X85572600Y-214655400D03*
D29*
X181310000Y-193000000D03*
X180290000Y-193000000D03*
D28*
X196190000Y-189175000D03*
X197210000Y-189175000D03*
D29*
X138287001Y-160800500D03*
X137267001Y-160800500D03*
X122860501Y-176476000D03*
X121840501Y-176476000D03*
X181310000Y-200400000D03*
X180290000Y-200400000D03*
D46*
X134950501Y-174801000D03*
X137050501Y-174801000D03*
D26*
X140302001Y-158615000D03*
X140302001Y-159635000D03*
D30*
X82729097Y-168757487D03*
X82729097Y-167797487D03*
D34*
X143355501Y-167301000D03*
X142395501Y-167301000D03*
D31*
X137395001Y-178302500D03*
X138355001Y-178302500D03*
X77731200Y-160564000D03*
X78691200Y-160564000D03*
X138390501Y-172296000D03*
X139350501Y-172296000D03*
X132133400Y-131000000D03*
X133093400Y-131000000D03*
X144395001Y-176302500D03*
X145355001Y-176302500D03*
D27*
X202925000Y-182910000D03*
X202925000Y-181890000D03*
D30*
X145375501Y-170281000D03*
X145375501Y-169321000D03*
D28*
X159190501Y-181676000D03*
X160210501Y-181676000D03*
D31*
X134120501Y-189276000D03*
X135080501Y-189276000D03*
D35*
X146375501Y-176321000D03*
X146375501Y-177281000D03*
D27*
X157400000Y-201370800D03*
X157400000Y-200350800D03*
D28*
X182290000Y-203525600D03*
X183310000Y-203525600D03*
D31*
X114320502Y-183800000D03*
X115280502Y-183800000D03*
D30*
X131375501Y-171281000D03*
X131375501Y-170321000D03*
D31*
X142395501Y-162301000D03*
X143355501Y-162301000D03*
D44*
X152500001Y-166702500D03*
X154050001Y-166702500D03*
M02*
